<?xml version="1.0" encoding="utf-8"?>
<!-- Generator: Adobe Illustrator 16.0.0, SVG Export Plug-In . SVG Version: 6.00 Build 0)  -->
<!DOCTYPE svg PUBLIC "-//W3C//DTD SVG 1.1//EN" "http://www.w3.org/Graphics/SVG/1.1/DTD/svg11.dtd">
<svg version="1.1" id="Layer_3" xmlns="http://www.w3.org/2000/svg" xmlns:xlink="http://www.w3.org/1999/xlink" x="0px" y="0px"
	 width="1020px" height="1020px" viewBox="0 0 1020 1020" enable-background="new 0 0 1020 1020" xml:space="preserve">
<g id="earth04">
	<path fill="#2E3192" d="M181.622-86.886c-0.149,0.164-0.261,0.358-0.483,0.423c-1.336,0.388-2.438,1.23-3.641,1.872
		c-0.661,0.353-1.215,0.321-1.859-0.025c-1.085-0.582-2.18-1.149-3.378-1.485c-0.87-0.244-1.63-0.102-2.388,0.39
		c-0.556,0.36-0.806,0.728-0.58,1.409c0.605,1.838-0.922,4.193-2.77,4.543c-0.648,0.122-1.283,0.322-1.922,0.497
		c-2.294,0.63-3.51,2.392-4.501,4.356c-0.332,0.658-0.231,1.338,0.155,2.017c0.719,1.255,0.646,1.271-0.494,2.063
		c-0.89,0.619-1.89,1.197-1.987,2.484c-0.04,0.53-0.391,0.748-0.905,0.764c-0.218,0.006-0.436,0.089-0.652,0.092
		c-0.836,0.01-1.353,0.402-1.744,1.154c-0.543,1.037-0.604,1.029-1.762,0.775c-1.379-0.301-2.775-0.566-4.117-0.99
		c-1.012-0.32-1.906-0.179-2.814,0.225c-0.686,0.305-1.369,0.615-2.03,0.968c-0.599,0.319-1.065,0.274-1.483-0.296
		c-0.288-0.394-0.598-0.762-0.67-1.269c-0.123-0.868-0.713-1.502-1.129-2.224c-0.194-0.334-0.494-0.487-0.859-0.547
		c-0.826-0.133-1.63-0.385-2.484-0.363c-0.433,0.01-0.884-0.07-1.303-0.193c-1.223-0.362-1.363-0.636-1.072-1.896
		c0.168-0.732,0.307-1.473,0.52-2.191c0.175-0.588,0.076-1.018-0.443-1.371c-0.29-0.196-0.537-0.456-0.798-0.694
		c-0.292-0.268-0.356-0.536-0.149-0.931c0.492-0.934,0.893-1.922,1.793-2.567c1.065-0.765,1.598-1.817,1.815-3.098
		c0.19-1.12,0.677-2.198,0.278-3.374c-0.076-0.225,0.028-0.521,0.087-0.777c0.306-1.309,0.596-2.602-0.052-3.912
		c-0.214-0.431,0.314-1.02,0.889-1.032c0.303-0.007,0.613,0.077,0.908,0.161c0.531,0.15,0.959,0.158,1.089-0.528
		c0.072-0.38,0.355-0.477,0.704-0.388c0.299,0.074,0.66,0.088,0.875,0.268c1.461,1.217,3.303,1.123,5.004,1.467
		c0.818,0.168,1.627,0.295,2.43,0.564c2.264,0.756,4.614,1.188,6.934,1.736c0.567,0.135,0.778-0.222,1.033-0.598
		c1.045-1.545,1.43-3.303,1.668-5.105c0.219-1.668-0.199-3.142-1.429-4.34c-0.554-0.539-0.698-1.209-0.608-1.943
		c0.098-0.805-0.266-1.279-0.947-1.689c-1.288-0.771-2.593-1.498-4.006-2.008c-0.453-0.164-0.692-0.381-0.482-0.868
		c0.225-0.52,0.029-0.94-0.466-1.398c2.729-0.104,5.237-0.019,7.622,1.362c0.103-0.734-0.175-1.235-0.343-1.756
		c-0.177-0.545-0.359-1.09-0.525-1.639c-0.05-0.166-0.069-0.357,0.113-0.47c0.185-0.112,0.382-0.024,0.448,0.13
		c0.697,1.634,2.249,1.658,3.651,1.963c0.082,0.018,0.173-0.008,0.364-0.02c-0.222-1.052,0.472-1.322,1.309-1.472
		c0.259-0.046,0.512-0.137,0.762-0.22c1.055-0.348,1.055-0.35,1.088-1.47c0.028-0.956,0.027-0.954,1.006-1.177
		c0.344-0.078,0.695-0.13,1.027-0.244c0.875-0.303,2.033-0.396,2.534-1.014c0.655-0.807,1.077-1.881,1.622-2.828
		c0.098-0.172,0.066-0.426,0.07-0.643c0.023-1.215,0.713-1.857,1.898-1.73c0.395,0.042,0.781,0.141,1.173,0.211
		c0.222,0.041,0.509,0.081,0.598-0.139c0.407-1.014,1.132-0.539,1.776-0.406c0.3,0.061,0.588,0.182,0.876,0.289
		c0.192,0.072,0.357,0.322,0.588,0.146c0.272-0.207,0.351-0.541,0.247-0.834c-0.191-0.538-0.52-1.031-0.677-1.575
		c-0.481-1.649-0.956-3.302-1.339-4.976c-0.254-1.109,0.181-2.126,1.303-2.553c1.938-0.736,1.92-0.793,2.374,1.297
		c0.181,0.829,0.679,1.672-0.075,2.48c-0.038,0.04-0.016,0.182,0.027,0.244c0.327,0.484,0.943,0.432,1.381,0.723
		c0.294,0.196,0.487-0.031,0.656-0.244c0.204-0.252,0.459-0.367,0.787-0.424c0.5-0.09,0.875-0.07,0.969,0.541
		c0.041,0.26,0.161,0.511,0.187,0.771c0.05,0.529,0.597,0.967,0.407,1.487c-0.195,0.538-0.867,0.54-1.303,0.819
		c-0.383,0.245-0.811,0.604-0.655,1.044c0.157,0.45,0.712,0.453,1.155,0.351c0.645-0.148,1.282-0.329,1.919-0.514
		c0.456-0.133,0.683-0.086,1.04,0.387c1.693,2.236,1.215,2.125,3.651,0.988c0.923-0.431,1.819-0.867,2.846-1.024
		c0.65-0.101,1.212-0.104,1.711,0.39c0.183,0.181,0.421,0.328,0.661,0.427c0.995,0.41,1.405,0.249,1.765-0.78
		c0.157-0.451,0.451-0.75,0.778-1.039c0.389-0.344,0.445-0.691,0.197-1.16c-0.371-0.701-0.711-1.422-1.012-2.155
		c-0.42-1.021-0.439-2.044,0.094-3.048c0.361-0.68,0.418-0.715,1.05-0.207c0.479,0.385,0.926,0.816,1.351,1.262
		c0.4,0.418,0.758,0.315,1.167,0.035c0.419-0.287,0.235-0.582,0.081-0.914c-0.572-1.225-1.358-2.119-2.824-2.295
		c-0.912-0.109-1.359-0.865-1.268-1.801c0.094-0.974,0.649-1.51,1.606-1.521c0.791-0.01,1.583,0.037,2.374,0.002
		c0.416-0.019,0.947,0.043,1.115-0.506c0.148-0.484-0.293-0.684-0.567-0.952c-0.158-0.154-0.347-0.279-0.489-0.444
		c-0.451-0.522-0.907-0.563-1.487-0.164c-0.506,0.346-1.081,0.596-1.632,0.872c-1.162,0.581-1.939,0.419-2.782-0.553
		c-0.49-0.566-0.962-1.151-1.671-1.478c-0.375-0.173-0.597-0.496-0.746-0.887c-0.544-1.412-1.318-2.696-2.265-3.867
		c-0.366-0.455-0.326-0.881-0.153-1.355c0.299-0.83,0.645-1.644,0.809-2.516c0.031-0.174,0.087-0.342,0.129-0.515
		c0.584-2.461-0.564-3.341-2.715-3.933c-0.485-0.133-0.922,0.006-1.184,0.38c-0.293,0.416-0.23,0.915,0.039,1.36
		c0.045,0.074,0.115,0.133,0.17,0.201c1.026,1.317,0.947,2.273-0.279,3.379c-1.309,1.178-1.541,2.116-0.926,3.717
		c0.096,0.248,0.21,0.488,0.281,0.743c0.354,1.287,1.057,2.286,2.238,2.965c0.735,0.422,1.264,1.08,1.716,1.805
		c0.524,0.839,0.567,1.057-0.067,1.71c-1.225,1.26-1.566,2.666-0.871,4.307c0.205,0.486,0.322,1.013,0.554,1.486
		c0.398,0.818,0.023,1.554-0.177,2.308c-0.107,0.402-0.459,0.368-0.764,0.286c-0.834-0.225-1.299,0.146-1.699,0.856
		c-0.518,0.917-0.653,0.913-1.544,0.442c-0.849-0.448-1.497-1.075-1.786-2.021c-0.037-0.126-0.107-0.244-0.139-0.372
		c-0.449-1.836-1.326-3.431-2.609-4.825c-0.504-0.548-0.909-1.185-0.909-2.001c0.001-0.52-0.227-0.917-0.788-1.086
		c-0.418-0.125-0.811-0.336-1.212-0.514c-0.793-0.354-1.416-0.222-1.925,0.541c-1.366,2.039-2.915,1.824-4.712,0.112
		c-0.842-0.802-1.536-1.692-1.888-2.827c-0.13-0.418-0.305-0.842-0.549-1.201c-0.91-1.329-0.928-2.793-0.781-4.314
		c0.115-1.194,0.684-2.062,1.668-2.7c0.77-0.497,1.643-0.836,2.15-1.702c0.265-0.453,0.803-0.203,1.231-0.167
		c0.327,0.028,0.731,0.003,0.622-0.423c-0.188-0.735,0.301-0.922,0.764-1.177c0.231-0.129,0.458-0.267,0.691-0.392
		c0.354-0.188,0.564-0.474,0.4-0.863c-0.56-1.331-0.136-2.594,0.205-3.872c0.148-0.554,0.26-1.12,0.335-1.688
		c0.092-0.709,0.177-1.4-0.78-1.701c-0.479-0.15-0.411-0.82,0.16-1.082c0.785-0.359,1.48-0.764,1.889-1.563
		c0.113-0.221,0.328-0.272,0.551-0.102c0.238,0.186,0.479,0.373,0.691,0.538c0.137-0.056,0.244-0.064,0.283-0.12
		c0.375-0.521,0.377-1.367,1.084-1.573c1.01-0.295,2.063-0.47,3.123-0.511c0.395-0.016,0.628,0.307,0.827,0.596
		c0.823,1.198,1.979,1.727,3.385,2.059c2.444,0.576,4.725,1.66,7.015,2.687c0.883,0.396,1.773,0.817,2.703,1.049
		c1.104,0.274,1.891,0.911,2.584,1.733c0.483,0.572,0.951,1.158,1.416,1.746c0.136,0.172,0.275,0.355,0.35,0.559
		c0.272,0.744-0.201,1.313-0.978,1.152c-0.95-0.196-1.892-0.443-2.835-0.666c-0.412-0.096-0.823-0.188-1.423-0.326
		c2.524,2.206,4.496,4.805,7.735,5.75c0.111-0.58-0.535-0.598-0.598-1.006c0.232-0.215,0.477,0.047,0.711-0.008
		c0.346-0.081,0.725-0.186,0.838-0.553c0.109-0.359-0.232-0.553-0.475-0.714c-0.795-0.528-1.18-1.25-1.248-2.202
		c-0.07-0.986-0.109-0.984,0.99-1.28c-1.479-1.606-3.183-2.927-4.742-4.479c1.208-0.039,1.208-0.039,2.557,1.044
		c0.718,0.577,1.436,1.155,2.289,1.841c0.132-1.219-0.385-2.195-0.369-3.316c0.566,0.069,0.878-0.281,1.198-0.727
		c0.369-0.514,0.437-0.92-0.003-1.404c-0.172-0.189-0.281-0.447-0.382-0.689c-0.444-1.078-0.438-1.08,0.327-1.961
		c-1.693-1.398-3.377-2.807-5.079-4.192c-0.964-0.785-1.81-1.681-2.606-2.628c-0.3-0.355-0.733-0.652-0.458-1.256
		c0.119-0.262-0.138-0.49-0.328-0.671c-0.447-0.425-0.909-0.828-1.442-1.153c-2.068-1.266-4.059-2.652-6.041-4.048
		c-0.45-0.315-0.918-0.588-0.582-1.253c-0.064-0.059-0.123-0.133-0.197-0.175c-12.992-7.493-26.77-13.073-41.283-16.828
		c-8.993-2.327-18.129-3.847-27.383-4.634c-1.88-0.16-3.764-0.404-5.662-0.291l0,0c-0.067,0.785,0.14,1.355,0.692,1.739
		c0.184,0.128,0.406,0.235,0.67,0.323c0.86,0.289,5.431,1.197,6.325,1.096c0.482-0.055,0.957-0.12,1.438,0.04
		c1.17,0.39,2.376,0.691,3.512,1.159c1.035,0.428,1.659,1.378,2.346,2.266c-1.24-0.479-2.532-0.691-3.758-1.12
		c-0.434-0.151-0.84-0.229-1.281-0.192c-1.978,0.162-3.96,0.102-5.94,0.13c-0.437,0.007-0.899-0.007-1.308-0.142
		c-2.191-0.715-4.271-0.168-6.325,0.541c-1.565,0.542-1.939,0.473-2.913-0.831c-0.753-1.007-1.206-1.131-2.307-0.63
		c0.059,0.596,0.791,0.83,0.795,1.59c-1.033-0.214-2.057-0.086-3.073-0.104c-1.377-0.024-1.806-1.006-1.147-2.347
		c0.203-0.413,0.595-0.646,0.867-0.987c0.553-0.692,0.463-1.123-0.289-1.599c-0.605-0.384-1.21-0.669-1.982-0.45
		c-0.543,0.154-1.135,0.136-1.701,0.213c-0.357,0.049-0.922-0.154-0.928,0.446c-0.008,0.546-0.379,1.278,0.51,1.565
		c0.162,0.053,0.301,0.182,0.453,0.268c0.352,0.197,0.402,0.44,0.115,0.732c-0.271,0.277-0.546,0.551-0.865,0.871
		c0.959,0.623,1.889,1.227,2.893,1.878c-0.602,0.577-1.244,0.499-1.82,0.44c-0.315-0.033-0.594-0.02-0.848,0.033l5.897,9.525
		c0.388,0.037,0.776,0.055,1.167,0.07c0.481,0.019,0.859-0.109,1.132-0.498c0.024-0.303-0.239-0.328-0.392-0.469
		c-0.502-0.451-0.411-1.058,0.199-1.322c0.281-0.122,0.59-0.186,0.891-0.254c1.725-0.383,2.975-1.792,4.739-2.151
		c0.58-0.118,1.071-0.747,1.566-1.186c0.473-0.418,0.421-0.897-0.114-1.3c-0.28-0.21-0.62-0.342-0.899-0.553
		c-0.478-0.364-0.481-0.744,0.047-1.023c1.145-0.604,2.444-1.14,3.667-0.885c1.981,0.415,3.953,0.23,5.925,0.321
		c2.52,0.114,5.001,0.368,7.446,0.993c1.455,0.371,2.92,0.704,4.391,1c1.07,0.214,2.178,0.078,3.252,0.441
		c1.777,0.602,3.451,1.333,4.688,2.805c0.465,0.553,1.103,0.679,1.743,0.855c0.996,0.274,2.088,0.332,2.967,1.215
		c-0.705,0.49-1.316,0.277-1.898,0.105c-0.576-0.172-0.984-0.01-1.16,0.527c-0.389,1.182-1.127,1.732-2.59,1.332
		c0.637,1.078,1.515,1.641,2.154,2.535c-0.939,0.465-1.902,0.293-2.88,0.406c0.12,0.5,0.572,0.764,0.794,1.172
		c0.416,0.767,0.307,1.156-0.505,1.373c-0.866,0.232-1.7,0.429-2.104,1.383c-0.196,0.467-0.631,0.418-1.021,0.211
		c-0.35-0.187-0.699-0.379-1.021-0.607c-0.41-0.288-0.86-0.453-1.35-0.502c-0.373-0.037-0.834-0.299-1.091,0.144
		c-0.267,0.462-0.425,1.021-0.025,1.49c0.737,0.868,0.521,1.914,0.612,2.903c0.02,0.213,0.011,0.528-0.186,0.605
		c-0.892,0.347-1.62,1.136-2.609,1.156c-2.904,0.059-5.811,0.057-8.715,0.049c-0.922-0.001-1.862-0.025-2.656-0.615
		c-0.426-0.316-0.854-0.105-1.269-0.004c-2.183,0.542-4.366,1.068-6.603,1.367c-0.06,0.008-0.118,0.012-0.177,0.019l16.322,26.363
		l-7.471,32.79L89.063-19.5l9.696-6.088c0.874-1.035,1.755-2.063,2.622-3.104c0.623-0.749,1.368-1.265,2.29-1.467
		c0.649-0.142,1.003-0.515,1.204-1.077c0.231-0.646,0.678-1.109,1.139-1.594c1.554-1.631,3.18-3.183,4.905-4.631
		c0.784-0.658,1.405-1.463,2.012-2.274c0.425-0.566,0.905-0.913,1.647-0.933c0.611-0.018,1.223-0.249,1.831-0.238
		c2.233,0.039,4.075-0.979,5.893-2.08c0.868-0.526,1.699-1.115,2.572-1.633c0.841-0.497,1.282-1.316,1.802-2.078
		c0.316-0.463,0.139-0.955-0.004-1.404c-0.208-0.648-0.07-1.172,0.281-1.734c1.102-1.756,2.464-3.327,3.49-5.138
		c0.479-0.844,1.24-1.402,2.242-1.725c1.721-0.555,3.417-1.193,5.187-1.578c0.733-0.159,1.144-0.516,1.335-1.257
		c0.475-1.82,1.791-3.107,2.979-4.459c0.496-0.566,1.874-0.377,2.127,0.396c0.46,1.396,1.523,1.692,2.721,1.895
		c1.271,0.216,2.5,0.636,3.633,1.188c0.997,0.488,1.982,0.538,2.982,0.467l5.281-3.316l24.44-24.028
		C182.793-87.698,182.157-87.477,181.622-86.886z M203.978-144.836c0.071,0.02,0.128,0.098,0.19,0.15
		c-0.08,0.013-0.162,0.025-0.242,0.039c-0.064-0.053-0.127-0.105-0.189-0.158C203.817-144.816,203.906-144.855,203.978-144.836z
		 M164.391-176.967c1.229-0.023,2.143,0.73,3.125,1.304c0.072,0.042,0.178,0.146,0.165,0.194c-0.329,1.266,0.947,1.211,1.456,1.785
		c0.438,0.496,1.322,0.621,1.273,1.524c0.098,0.045,0.121,0.104,0.07,0.179c-0.045-0.045-0.091-0.092-0.136-0.137h-0.001
		c-0.644-0.085-1.157-0.598-1.794-0.76c-0.213-0.055-0.438-0.07-0.688-0.018c-0.208,0.911,0.657,1.535,0.609,2.384
		c-0.597,0.154-0.925-0.245-1.255-0.588c-0.92-0.959-2.027-1.678-3.06-2.495c-1.204-0.953-2.372-2.033-3.228-3.646
		C162.219-176.916,163.305-176.945,164.391-176.967z M149.773-134.092c0.251-0.463,0.652-0.6,1.098-0.258
		c0.551,0.424,0.699-0.412,1.142-0.33c0.743,0.138,1.169-0.17,1.287-0.932c0.048-0.313,0.304-0.418,0.599-0.351
		c0.688,0.158,1.372,0.326,2.055,0.501c0.219,0.057,0.436,0.174,0.468,0.413c0.032,0.243-0.172,0.372-0.35,0.511
		c-0.322,0.252-1.007,0.22-0.9,0.801c0.108,0.598,0.777,0.441,1.206,0.576c0.588,0.186,1.2,0.285,1.798,0.439
		c0.548,0.142,0.685,0.523,0.499,1.018c-0.24,0.632-0.656,1.139-1.199,1.543c-0.238,0.178-0.686,0.291-0.592,0.63
		c0.175,0.621-0.221,0.837-0.694,1.122c1.335,0.038,2.009,0.869,2.706,1.753c0.488,0.618,0.468,1.311,0.582,1.991
		c0.093,0.551,0.21,0.945,0.871,1.14c0.793,0.233,1.285,1.417,0.986,2.257c-0.152,0.427-0.059,0.549,0.305,0.648
		c0.254,0.069,0.495,0.145,0.696,0.346c0.739,0.742,0.783,1.158,0.185,2.176c0.323,0.355,0.74,0.108,1.107,0.163
		c0.578,0.086,1.08,0.228,1.515,0.69c0.944,1,0.804,2.191-0.419,2.867c-0.448,0.247-0.971,0.373-1.445,0.938
		c0.667,0.152,1.205,0.27,1.742,0.4c0.222,0.055,0.416,0.164,0.398,0.437c-0.015,0.239-0.143,0.431-0.371,0.494
		c-0.719,0.197-1.434,0.462-2.201,0.245c-1.071-0.303-2.163-0.333-3.271-0.316c-0.731,0.011-1.449-0.101-2.185-0.336
		c-1.002-0.322-2.135-0.664-3.077,0.288c-0.309,0.313-0.65,0.161-0.984,0.044c-0.853-0.299-1.645-0.211-2.371,0.352
		c-0.137,0.105-0.297,0.199-0.461,0.246c-0.259,0.076-0.409-0.121-0.529-0.299c-0.123-0.184-0.006-0.354,0.146-0.443
		c1.171-0.701,2.347-1.397,3.532-2.074c0.334-0.191,0.686,0.014,1.031,0.052c0.744,0.083,0.744,0.077,1.212-0.897
		c-0.684,0.354-1.192,0.429-1.724-0.295c-0.406-0.555-1.158-0.77-1.861-0.904c-0.614-0.119-1.037-0.42-1.143-1.131
		c0.656-0.158,1.296-0.275,1.91-0.475c0.799-0.256,0.934-0.758,0.427-1.37c-0.756-0.906-0.756-0.906-0.601-2.252
		c1.094,0.686,2.355,0.327,3.55,0.813c0.261-1.055,0.344-2.04-0.519-2.822c-0.639-0.58-0.897-1.156-0.189-1.932
		c-1.09-0.436-2.178-0.041-3.151-0.348c0.006-0.488,0.337-0.684,0.538-0.959c0.16-0.219,0.31-0.445,0.27-0.723
		c-0.084-0.569-0.146-1.227-0.751-1.449c-0.561-0.207-0.664,0.588-1.177,0.764c-0.082-0.721,0.389-1.346,0.275-2.003
		c-0.227-0.177-0.452-0.065-0.66-0.091c-0.564-0.072-0.868-0.453-0.577-0.877c0.515-0.75,0.362-1.186-0.392-1.563
		C149.57-133.137,149.508-133.6,149.773-134.092z M142.232-126.711c0.816-0.122,1.419,0.167,2.037,0.274
		c0.916,0.16,0.915,0.169,1.176-0.726c0.336-1.146,0.641-1.334,1.754-0.736c0.793,0.426,1.531,0.543,2.396,0.386
		c0.842-0.151,1.93,0.821,1.988,1.677c0.053,0.776-0.66,1.382-1.687,1.434c-0.128,0.008-0.257,0.021-0.499,0.04
		c0.581,1.656,0.591,3.136-0.192,4.598c-0.227,0.425-0.411,0.567-0.894,0.497c-1.188-0.17-2.362-0.031-3.5,0.365
		c-1.137,0.397-2.262,0.627-3.476,0.228c-0.587-0.194-0.901-0.485-1.009-1.058c-0.111-0.592,0.418-0.719,0.735-0.969
		c0.654-0.518,1.505-0.421,2.259-0.646c0.095-0.354-0.198-0.43-0.404-0.562c-0.353-0.226-0.547-0.454-0.095-0.784
		c0.423-0.309,0.245-0.609-0.069-0.85c-0.418-0.316-0.859-0.601-1.373-0.955C142.012-125.09,143.201-125.426,142.232-126.711z
		 M130.688-154.641c-0.563-0.406-1.258-0.623-1.875-0.96c-0.324-0.179-0.625-0.503-0.29-0.849c0.577-0.596,0.271-0.982-0.173-1.43
		c-0.201-0.202-0.551-0.322-0.521-0.749c0.51-0.007,1.021-0.011,1.529-0.026c0.168-0.006,0.366,0.008,0.411-0.229
		c0.036-0.188-0.032-0.343-0.155-0.479c-0.438-0.484-1.169-0.611-1.582-1.314c0.764-0.402,1.492-0.807,2.343-0.479
		c1.095,0.421,0.224,1.556,0.791,2.272c0.909-0.222,1.802,0.28,2.817,0.327c0.113-0.532-0.482-0.751-0.465-1.282
		c1.119,0.115,2.043,0.747,3.076,1.016c0.395,0.103,0.714,0.19,1.128,0.065c2.077-0.626,3.429,0.843,3.675,2.622
		c0.104,0.756-0.92,1.855-1.755,2.013c-1.696,0.319-3.427,0.202-5.125,0.411C133.082-153.535,131.855-153.799,130.688-154.641z"/>
	<path fill="#39B54A" d="M238.8-130.53c-6.24-8.073-12.861-15.802-20.347-22.761c-1.711-1.592-3.399-3.21-5.102-4.811
		c-0.32-0.303-0.637-0.619-0.997-0.866c-6.286-4.315-12.368-8.927-18.896-12.883c-1.2-0.728-2.317-1.601-3.636-2.126
		c-0.336,0.665,0.132,0.938,0.582,1.253c1.982,1.396,3.973,2.782,6.041,4.048c0.533,0.325,0.995,0.729,1.442,1.153
		c0.19,0.181,0.447,0.409,0.328,0.671c-0.275,0.604,0.158,0.9,0.458,1.256c0.797,0.947,1.643,1.843,2.606,2.628
		c1.702,1.386,3.386,2.794,5.079,4.192c-0.765,0.881-0.771,0.883-0.327,1.961c0.101,0.242,0.21,0.5,0.382,0.689
		c0.439,0.484,0.372,0.891,0.003,1.404c-0.32,0.445-0.632,0.796-1.198,0.727c-0.016,1.121,0.501,2.098,0.369,3.316
		c-0.854-0.686-1.571-1.264-2.289-1.841c-1.349-1.083-1.349-1.083-2.557-1.044c1.56,1.553,3.264,2.873,4.742,4.479
		c-1.1,0.296-1.061,0.294-0.99,1.28c0.068,0.952,0.453,1.674,1.248,2.202c0.242,0.161,0.584,0.354,0.475,0.714
		c-0.113,0.367-0.492,0.472-0.838,0.553c-0.234,0.055-0.479-0.207-0.711,0.008c0.063,0.408,0.709,0.426,0.598,1.006
		c-3.239-0.945-5.211-3.544-7.735-5.75c0.6,0.138,1.011,0.23,1.423,0.326c0.943,0.223,1.885,0.47,2.835,0.666
		c0.776,0.16,1.25-0.408,0.978-1.152c-0.074-0.203-0.214-0.387-0.35-0.559c-0.465-0.588-0.933-1.174-1.416-1.746
		c-0.693-0.822-1.48-1.459-2.584-1.733c-0.93-0.231-1.82-0.653-2.703-1.049c-2.29-1.026-4.57-2.11-7.015-2.687
		c-1.405-0.332-2.562-0.86-3.385-2.059c-0.199-0.289-0.433-0.611-0.827-0.596c-1.061,0.041-2.113,0.216-3.123,0.511
		c-0.707,0.206-0.709,1.052-1.084,1.573c-0.039,0.056-0.146,0.064-0.283,0.12c-0.213-0.165-0.453-0.353-0.691-0.538
		c-0.223-0.171-0.438-0.119-0.551,0.102c-0.408,0.799-1.104,1.203-1.889,1.563c-0.571,0.262-0.639,0.932-0.16,1.082
		c0.957,0.301,0.872,0.992,0.78,1.701c-0.075,0.568-0.187,1.135-0.335,1.688c-0.341,1.278-0.765,2.541-0.205,3.872
		c0.164,0.39-0.047,0.675-0.4,0.863c-0.233,0.125-0.46,0.263-0.691,0.392c-0.463,0.255-0.952,0.441-0.764,1.177
		c0.109,0.426-0.295,0.451-0.622,0.423c-0.429-0.036-0.967-0.286-1.231,0.167c-0.508,0.866-1.381,1.205-2.15,1.702
		c-0.984,0.639-1.553,1.506-1.668,2.7c-0.146,1.521-0.129,2.985,0.781,4.314c0.244,0.359,0.419,0.783,0.549,1.201
		c0.352,1.135,1.046,2.025,1.888,2.827c1.797,1.712,3.346,1.927,4.712-0.112c0.509-0.763,1.132-0.895,1.925-0.541
		c0.401,0.178,0.794,0.389,1.212,0.514c0.562,0.169,0.789,0.566,0.788,1.086c0,0.816,0.405,1.453,0.909,2.001
		c1.283,1.395,2.16,2.989,2.609,4.825c0.031,0.128,0.102,0.246,0.139,0.372c0.289,0.945,0.938,1.572,1.786,2.021
		c0.891,0.471,1.026,0.475,1.544-0.442c0.4-0.71,0.865-1.081,1.699-0.856c0.305,0.082,0.656,0.116,0.764-0.286
		c0.2-0.754,0.575-1.489,0.177-2.308c-0.231-0.474-0.349-1-0.554-1.486c-0.695-1.641-0.354-3.047,0.871-4.307
		c0.635-0.653,0.592-0.871,0.067-1.71c-0.452-0.725-0.98-1.383-1.716-1.805c-1.182-0.679-1.885-1.678-2.238-2.965
		c-0.071-0.255-0.186-0.495-0.281-0.743c-0.615-1.601-0.383-2.539,0.926-3.717c1.227-1.105,1.306-2.062,0.279-3.379
		c-0.055-0.068-0.125-0.127-0.17-0.201c-0.27-0.445-0.332-0.944-0.039-1.36c0.262-0.374,0.698-0.513,1.184-0.38
		c2.15,0.592,3.299,1.472,2.715,3.933c-0.042,0.173-0.098,0.341-0.129,0.515c-0.164,0.872-0.51,1.686-0.809,2.516
		c-0.173,0.475-0.213,0.9,0.153,1.355c0.946,1.171,1.721,2.455,2.265,3.867c0.149,0.391,0.371,0.714,0.746,0.887
		c0.709,0.326,1.181,0.911,1.671,1.478c0.843,0.972,1.62,1.134,2.782,0.553c0.551-0.276,1.126-0.526,1.632-0.872
		c0.58-0.398,1.036-0.358,1.487,0.164c0.143,0.165,0.331,0.29,0.489,0.444c0.274,0.269,0.716,0.468,0.567,0.952
		c-0.168,0.549-0.699,0.487-1.115,0.506c-0.791,0.035-1.583-0.012-2.374-0.002c-0.957,0.012-1.513,0.548-1.606,1.521
		c-0.092,0.936,0.355,1.691,1.268,1.801c1.466,0.176,2.252,1.07,2.824,2.295c0.154,0.332,0.338,0.627-0.081,0.914
		c-0.409,0.28-0.767,0.383-1.167-0.035c-0.425-0.445-0.872-0.877-1.351-1.262c-0.632-0.508-0.688-0.473-1.05,0.207
		c-0.533,1.004-0.514,2.027-0.094,3.048c0.301,0.733,0.641,1.454,1.012,2.155c0.248,0.469,0.191,0.816-0.197,1.16
		c-0.327,0.289-0.621,0.588-0.778,1.039c-0.359,1.029-0.77,1.19-1.765,0.78c-0.24-0.099-0.479-0.246-0.661-0.427
		c-0.499-0.493-1.061-0.49-1.711-0.39c-1.026,0.157-1.923,0.594-2.846,1.024c-2.437,1.137-1.958,1.248-3.651-0.988
		c-0.357-0.473-0.584-0.52-1.04-0.387c-0.637,0.185-1.274,0.365-1.919,0.514c-0.443,0.103-0.998,0.1-1.155-0.351
		c-0.155-0.44,0.272-0.799,0.655-1.044c0.436-0.279,1.107-0.281,1.303-0.819c0.189-0.521-0.357-0.958-0.407-1.487
		c-0.025-0.261-0.146-0.512-0.187-0.771c-0.094-0.611-0.469-0.631-0.969-0.541c-0.328,0.057-0.583,0.172-0.787,0.424
		c-0.169,0.213-0.362,0.44-0.656,0.244c-0.438-0.291-1.054-0.238-1.381-0.723c-0.043-0.063-0.065-0.204-0.027-0.244
		c0.754-0.809,0.256-1.651,0.075-2.48c-0.454-2.09-0.437-2.033-2.374-1.297c-1.122,0.427-1.557,1.443-1.303,2.553
		c0.383,1.674,0.857,3.326,1.339,4.976c0.157,0.544,0.485,1.037,0.677,1.575c0.104,0.293,0.025,0.627-0.247,0.834
		c-0.23,0.176-0.396-0.074-0.588-0.146c-0.288-0.107-0.576-0.229-0.876-0.289c-0.645-0.133-1.369-0.607-1.776,0.406
		c-0.089,0.22-0.376,0.18-0.598,0.139c-0.392-0.07-0.778-0.169-1.173-0.211c-1.186-0.127-1.875,0.516-1.898,1.73
		c-0.004,0.217,0.027,0.471-0.07,0.643c-0.545,0.947-0.967,2.021-1.622,2.828c-0.501,0.617-1.659,0.711-2.534,1.014
		c-0.332,0.114-0.684,0.166-1.027,0.244c-0.979,0.223-0.978,0.221-1.006,1.177c-0.033,1.12-0.033,1.122-1.088,1.47
		c-0.25,0.083-0.503,0.174-0.762,0.22c-0.837,0.149-1.53,0.42-1.309,1.472c-0.191,0.012-0.282,0.037-0.364,0.02
		c-1.402-0.305-2.954-0.329-3.651-1.963c-0.066-0.154-0.264-0.242-0.448-0.13c-0.183,0.112-0.163,0.304-0.113,0.47
		c0.166,0.549,0.349,1.094,0.525,1.639c0.168,0.521,0.445,1.021,0.343,1.756c-2.385-1.381-4.893-1.467-7.622-1.362
		c0.495,0.458,0.69,0.879,0.466,1.398c-0.21,0.487,0.029,0.704,0.482,0.868c1.413,0.51,2.718,1.236,4.006,2.008
		c0.682,0.41,1.045,0.885,0.947,1.689c-0.09,0.734,0.055,1.404,0.608,1.943c1.229,1.198,1.647,2.672,1.429,4.34
		c-0.238,1.803-0.623,3.561-1.668,5.105c-0.255,0.376-0.466,0.732-1.033,0.598c-2.319-0.549-4.67-0.98-6.934-1.736
		c-0.803-0.27-1.611-0.396-2.43-0.564c-1.701-0.344-3.543-0.25-5.004-1.467c-0.215-0.18-0.576-0.193-0.875-0.268
		c-0.349-0.089-0.632,0.008-0.704,0.388c-0.13,0.687-0.558,0.679-1.089,0.528c-0.295-0.084-0.605-0.168-0.908-0.161
		c-0.574,0.013-1.103,0.602-0.889,1.032c0.647,1.311,0.357,2.604,0.052,3.912c-0.059,0.256-0.163,0.553-0.087,0.777
		c0.398,1.176-0.088,2.254-0.278,3.374c-0.218,1.28-0.75,2.333-1.815,3.098c-0.9,0.646-1.301,1.634-1.793,2.567
		c-0.207,0.395-0.143,0.663,0.149,0.931c0.261,0.238,0.508,0.498,0.798,0.694c0.52,0.354,0.618,0.783,0.443,1.371
		c-0.213,0.719-0.352,1.459-0.52,2.191c-0.291,1.261-0.15,1.534,1.072,1.896c0.419,0.123,0.87,0.203,1.303,0.193
		c0.854-0.021,1.658,0.23,2.484,0.363c0.365,0.06,0.665,0.213,0.859,0.547c0.416,0.722,1.006,1.355,1.129,2.224
		c0.072,0.507,0.382,0.875,0.67,1.269c0.418,0.57,0.885,0.615,1.483,0.296c0.661-0.353,1.345-0.663,2.03-0.968
		c0.908-0.403,1.803-0.545,2.814-0.225c1.342,0.424,2.738,0.689,4.117,0.99c1.157,0.254,1.219,0.262,1.762-0.775
		c0.392-0.752,0.908-1.145,1.744-1.154c0.217-0.003,0.435-0.086,0.652-0.092c0.515-0.016,0.865-0.233,0.905-0.764
		c0.098-1.287,1.098-1.865,1.987-2.484c1.14-0.793,1.213-0.809,0.494-2.063c-0.387-0.679-0.487-1.358-0.155-2.017
		c0.991-1.965,2.207-3.727,4.501-4.356c0.639-0.175,1.273-0.375,1.922-0.497c1.848-0.35,3.375-2.705,2.77-4.543
		c-0.226-0.682,0.024-1.049,0.58-1.409c0.758-0.491,1.518-0.634,2.388-0.39c1.198,0.336,2.293,0.903,3.378,1.485
		c0.645,0.347,1.198,0.378,1.859,0.025c1.203-0.642,2.305-1.484,3.641-1.872c0.223-0.064,0.334-0.259,0.483-0.423
		c0.535-0.591,1.171-0.813,1.748-0.506l23.95-23.546l35.534-14.604c-0.631-0.824-1.282-1.635-1.979-2.414
		C240.139-128.775,239.474-129.658,238.8-130.53z"/>
	<path fill="#39B54A" d="M100.273-189.008c0.576,0.059,1.219,0.137,1.82-0.44c-1.004-0.651-1.934-1.255-2.893-1.878
		c0.319-0.32,0.594-0.594,0.865-0.871c0.287-0.292,0.236-0.535-0.115-0.732c-0.152-0.086-0.291-0.215-0.453-0.268
		c-0.889-0.287-0.518-1.02-0.51-1.565c0.006-0.601,0.57-0.397,0.928-0.446c0.566-0.077,1.158-0.059,1.701-0.213
		c0.772-0.219,1.377,0.066,1.982,0.45c0.752,0.476,0.842,0.906,0.289,1.599c-0.272,0.342-0.664,0.574-0.867,0.987
		c-0.658,1.341-0.229,2.322,1.147,2.347c1.017,0.018,2.04-0.11,3.073,0.104c-0.004-0.76-0.736-0.994-0.795-1.59
		c1.101-0.501,1.554-0.377,2.307,0.63c0.974,1.304,1.348,1.373,2.913,0.831c2.054-0.709,4.134-1.256,6.325-0.541
		c0.408,0.135,0.871,0.148,1.308,0.142c1.98-0.028,3.963,0.032,5.94-0.13c0.441-0.037,0.848,0.041,1.281,0.192
		c1.226,0.429,2.518,0.641,3.758,1.12c-0.687-0.888-1.311-1.838-2.346-2.266c-1.136-0.468-2.342-0.77-3.512-1.159
		c-0.48-0.16-0.955-0.095-1.438-0.04c-0.895,0.102-5.465-0.807-6.325-1.096c-0.264-0.088-0.486-0.242-0.67-0.371
		c-0.553-0.385-0.761-0.787-0.694-1.787c0.001,0,0.001,0,0.002,0c-0.771,0-1.576-0.064-2.362-0.178
		c-3.498-0.507-7.019-0.725-10.544-0.455c-2.46,0.188-4.933,0.256-7.389,0.502l4.424,7.15
		C99.68-189.033,99.958-189.041,100.273-189.008z"/>
	<path fill="#39B54A" d="M120.22-167.725c0.415-0.102,0.843-0.313,1.269,0.004c0.794,0.59,1.734,0.614,2.656,0.615
		c2.904,0.008,5.811,0.01,8.715-0.049c0.989-0.021,1.718-0.81,2.609-1.156c0.196-0.077,0.205-0.393,0.186-0.605
		c-0.091-0.989,0.125-2.035-0.612-2.903c-0.399-0.47-0.241-1.028,0.025-1.49c0.257-0.442,0.718-0.181,1.091-0.144
		c0.489,0.049,0.939,0.214,1.35,0.502c0.322,0.229,0.672,0.421,1.021,0.607c0.39,0.207,0.824,0.256,1.021-0.211
		c0.403-0.954,1.237-1.15,2.104-1.383c0.812-0.217,0.921-0.606,0.505-1.373c-0.222-0.408-0.674-0.672-0.794-1.172
		c0.978-0.113,1.94,0.059,2.88-0.406c-0.64-0.895-1.518-1.457-2.154-2.535c1.463,0.4,2.201-0.15,2.59-1.332
		c0.176-0.537,0.584-0.699,1.16-0.527c0.582,0.172,1.193,0.385,1.898-0.105c-0.879-0.883-1.971-0.94-2.967-1.215
		c-0.641-0.177-1.278-0.303-1.743-0.855c-1.237-1.472-2.911-2.203-4.688-2.805c-1.074-0.363-2.182-0.228-3.252-0.441
		c-1.471-0.296-2.936-0.629-4.391-1c-2.445-0.625-4.927-0.879-7.446-0.993c-1.972-0.091-3.943,0.094-5.925-0.321
		c-1.223-0.255-2.522,0.281-3.667,0.885c-0.528,0.279-0.524,0.659-0.047,1.023c0.279,0.211,0.619,0.343,0.899,0.553
		c0.535,0.402,0.587,0.882,0.114,1.3c-0.495,0.438-0.986,1.067-1.566,1.186c-1.765,0.359-3.015,1.769-4.739,2.151
		c-0.301,0.068-0.609,0.132-0.891,0.254c-0.61,0.265-0.701,0.871-0.199,1.322c0.152,0.141,0.416,0.166,0.392,0.469
		c-0.272,0.389-0.65,0.517-1.132,0.498c-0.391-0.016-0.779-0.033-1.167-0.07l8.117,13.11c0.059-0.007,0.117-0.011,0.177-0.019
		C115.854-166.656,118.037-167.183,120.22-167.725z"/>
	<path fill="#39B54A" d="M150.113-132.863c0.754,0.377,0.906,0.813,0.392,1.563c-0.291,0.424,0.013,0.805,0.577,0.877
		c0.208,0.025,0.434-0.086,0.66,0.091c0.113,0.657-0.357,1.282-0.275,2.003c0.513-0.176,0.616-0.971,1.177-0.764
		c0.604,0.223,0.667,0.88,0.751,1.449c0.04,0.277-0.109,0.504-0.27,0.723c-0.201,0.275-0.532,0.471-0.538,0.959
		c0.974,0.307,2.062-0.088,3.151,0.348c-0.708,0.775-0.449,1.352,0.189,1.932c0.862,0.782,0.779,1.768,0.519,2.822
		c-1.194-0.486-2.456-0.128-3.55-0.813c-0.155,1.346-0.155,1.346,0.601,2.252c0.507,0.612,0.372,1.114-0.427,1.37
		c-0.614,0.199-1.254,0.316-1.91,0.475c0.105,0.711,0.528,1.012,1.143,1.131c0.703,0.135,1.455,0.35,1.861,0.904
		c0.531,0.724,1.04,0.648,1.724,0.295c-0.468,0.975-0.468,0.98-1.212,0.897c-0.346-0.038-0.697-0.243-1.031-0.052
		c-1.186,0.677-2.361,1.373-3.532,2.074c-0.151,0.09-0.269,0.26-0.146,0.443c0.12,0.178,0.271,0.375,0.529,0.299
		c0.164-0.047,0.324-0.141,0.461-0.246c0.727-0.563,1.519-0.65,2.371-0.352c0.334,0.117,0.676,0.269,0.984-0.044
		c0.942-0.952,2.075-0.61,3.077-0.288c0.735,0.235,1.453,0.347,2.185,0.336c1.108-0.017,2.2,0.014,3.271,0.316
		c0.768,0.217,1.482-0.048,2.201-0.245c0.229-0.063,0.356-0.255,0.371-0.494c0.018-0.272-0.177-0.382-0.398-0.437
		c-0.537-0.131-1.075-0.248-1.742-0.4c0.475-0.564,0.997-0.69,1.445-0.938c1.223-0.676,1.363-1.867,0.419-2.867
		c-0.435-0.463-0.937-0.604-1.515-0.69c-0.367-0.055-0.784,0.192-1.107-0.163c0.599-1.018,0.555-1.434-0.185-2.176
		c-0.201-0.201-0.442-0.276-0.696-0.346c-0.363-0.1-0.457-0.222-0.305-0.648c0.299-0.84-0.193-2.023-0.986-2.257
		c-0.661-0.194-0.778-0.589-0.871-1.14c-0.114-0.681-0.094-1.373-0.582-1.991c-0.697-0.884-1.371-1.715-2.706-1.753
		c0.474-0.285,0.869-0.501,0.694-1.122c-0.094-0.339,0.354-0.452,0.592-0.63c0.543-0.404,0.959-0.911,1.199-1.543
		c0.186-0.494,0.049-0.876-0.499-1.018c-0.598-0.154-1.21-0.254-1.798-0.439c-0.429-0.135-1.098,0.021-1.206-0.576
		c-0.106-0.581,0.578-0.549,0.9-0.801c0.178-0.139,0.382-0.268,0.35-0.511c-0.032-0.239-0.249-0.356-0.468-0.413
		c-0.683-0.175-1.367-0.343-2.055-0.501c-0.295-0.067-0.551,0.038-0.599,0.351c-0.118,0.762-0.544,1.069-1.287,0.932
		c-0.442-0.082-0.591,0.754-1.142,0.33c-0.445-0.342-0.847-0.205-1.098,0.258C149.508-133.6,149.57-133.137,150.113-132.863z"/>
	<path fill="#39B54A" d="M142.754-123.543c0.314,0.24,0.492,0.541,0.069,0.85c-0.452,0.33-0.258,0.559,0.095,0.784
		c0.206,0.132,0.499,0.207,0.404,0.562c-0.754,0.226-1.604,0.129-2.259,0.646c-0.317,0.25-0.847,0.377-0.735,0.969
		c0.107,0.572,0.422,0.863,1.009,1.058c1.214,0.399,2.339,0.17,3.476-0.228c1.138-0.396,2.312-0.535,3.5-0.365
		c0.482,0.07,0.667-0.072,0.894-0.497c0.783-1.462,0.773-2.941,0.192-4.598c0.242-0.02,0.371-0.032,0.499-0.04
		c1.026-0.052,1.739-0.657,1.687-1.434c-0.059-0.855-1.146-1.828-1.988-1.677c-0.865,0.157-1.604,0.04-2.396-0.386
		c-1.113-0.598-1.418-0.41-1.754,0.736c-0.261,0.895-0.26,0.886-1.176,0.726c-0.618-0.107-1.221-0.396-2.037-0.274
		c0.969,1.285-0.221,1.621-0.852,2.213C141.895-124.144,142.336-123.859,142.754-123.543z"/>
	<path fill="#39B54A" d="M139.642-154.122c0.835-0.157,1.858-1.257,1.755-2.013c-0.246-1.779-1.598-3.248-3.675-2.622
		c-0.414,0.125-0.733,0.037-1.128-0.065c-1.033-0.269-1.957-0.9-3.076-1.016c-0.018,0.531,0.578,0.75,0.465,1.282
		c-1.016-0.047-1.908-0.549-2.817-0.327c-0.567-0.717,0.304-1.852-0.791-2.272c-0.851-0.327-1.579,0.077-2.343,0.479
		c0.413,0.703,1.145,0.83,1.582,1.314c0.123,0.136,0.191,0.291,0.155,0.479c-0.045,0.236-0.243,0.223-0.411,0.229
		c-0.508,0.016-1.02,0.02-1.529,0.026c-0.029,0.427,0.32,0.547,0.521,0.749c0.444,0.447,0.75,0.834,0.173,1.43
		c-0.335,0.346-0.034,0.67,0.29,0.849c0.617,0.337,1.313,0.554,1.875,0.96c1.168,0.842,2.395,1.105,3.829,0.93
		C136.215-153.92,137.945-153.803,139.642-154.122z"/>
	<path fill="#39B54A" d="M164.157-173.594c1.032,0.817,2.14,1.536,3.06,2.495c0.33,0.343,0.658,0.742,1.255,0.588
		c0.048-0.849-0.817-1.473-0.609-2.384c0.249-0.053,0.475-0.037,0.688,0.018c0.637,0.162,1.15,0.674,1.795,0.76l0,0l0.065-0.042
		c0.049-0.903-0.835-1.028-1.273-1.524c-0.509-0.574-1.785-0.52-1.456-1.785c0.013-0.049-0.093-0.152-0.165-0.194
		c-0.982-0.573-1.896-1.327-3.125-1.304c-1.086,0.021-2.172,0.051-3.461-0.273C161.785-175.627,162.953-174.547,164.157-173.594z"/>
</g>
<g id="earth03">
	<path fill="#2E3192" d="M287.04,100.68c-0.11-0.857-0.204-1.596-0.3-2.332c-0.042-0.318-0.257-0.446-0.551-0.451
		c-0.253-0.005-0.409,0.154-0.468,0.385c-0.134,0.512-0.236,1.032-0.376,1.543c-0.214,0.789-0.6,0.986-1.194,0.475
		c-1.37-1.182-2.764-2.369-3.059-4.328c-0.071-0.479-0.217-0.946-0.342-1.416c-0.109-0.416-0.46-0.492-0.819-0.545
		c-0.229-0.033-0.508-0.027-0.555,0.22c-0.22,1.181-0.943,2.295-0.356,3.581c0.895,1.967,1.733,3.959,2.581,5.948
		c0.204,0.481,0.48,0.833,1.028,0.909c0.658,0.091,0.858,0.521,0.844,1.129c-0.011,0.351-0.001,0.706,0.033,1.055
		c0.103,1.033,0.286,2.043,0.819,3.047c0.196-0.209,0.327-0.325,0.431-0.463c0.832-1.123,0.869-2.469,1.02-3.775
		c0.116-1.015,0.289-2.007,0.569-3.051c0.47,0.32,0.393,0.658,0.411,0.947c0.074,1.163,0.502,2.158,1.046,3.205
		c0.868,1.669,1.443,3.482,1.013,5.473c-0.248,1.154-0.277,2.357-0.413,3.538c-0.224,1.968-0.283,3.974-0.711,5.897
		c-1.12,5.027-2.028,10.119-4.19,14.862c-1.242,2.722-2.389,5.464-4.095,7.97c-1.649,2.418-3.732,4.615-4.445,7.6
		c-0.097,0.397-0.419,0.691-0.908,0.57c-0.494-0.122-0.333-0.539-0.374-0.869c-0.314-2.635-0.251-5.27-0.046-7.911
		c0.116-1.487,0.276-2.996-0.226-4.456c-0.759-2.209-1.346-4.478-2.232-6.646c-0.272-0.665-0.567-1.302-1.132-1.753
		c-0.646-0.518-0.862-1.186-0.844-1.978c0.044-2.042-0.334-4.04-0.684-6.034c-0.189-1.081-0.41-2.352-1.292-2.955
		c-0.783-0.533-1.017-1.143-1.174-1.9c-0.648-3.115-2.132-5.869-3.678-8.598c-0.32-0.569-0.762-1.023-1.305-1.375
		c-0.427,0.457,0.105,1.047-0.42,1.461c-1.06-0.656-1.971-1.486-2.167-2.783c-0.166-1.111-0.589-2.119-0.959-3.154
		c-0.084-0.237-0.153-0.531-0.525-0.471c-0.376,0.476-0.294,0.951-0.077,1.482c1.913,4.697,3.808,9.404,5.708,14.107
		c0.64,1.584,1.491,3.131,0.811,4.934c-0.045,0.116,0.031,0.277-0.012,0.393c-0.357,0.968,0.068,1.596,0.869,2.07
		c0.809,0.479,1.186,1.176,1.368,2.121c0.474,2.477,0.637,4.985,0.826,7.488c0.093,1.248,0.416,2.342,1.253,3.244
		c0.521,0.564,0.661,1.201,0.722,1.928c0.169,2.063,0.407,4.121,0.574,6.186c0.053,0.658,0.282,1.117,0.939,1.254
		c0.544,0.114,0.809,0.489,1.038,0.932c0.403,0.783,0.852,1.547,1.218,2.349c0.558,1.223,0.934,2.479,0.369,3.823
		c-0.238,0.572-0.166,1.113,0.222,1.616c0.319,0.417,0.488,0.941,1.009,1.397c2.521-3.018,4.772-6.243,7.483-9.424
		c-0.131,1.613-0.758,2.762-1.049,4.004c-0.536,2.319-1.227,4.584-2.064,6.822c-1.667,4.457-3.398,8.881-5.533,13.137
		c-0.946,1.887-1.648,3.895-2.85,5.654c-3.529,5.171-7.015,10.371-10.63,15.482c-2.901,4.103-5.698,8.28-8.563,12.409
		c-1.715,2.47-3.166,5.067-4.34,7.843c-0.751,1.774-1.414,3.607-2.604,5.177c-0.664,0.878-1.189,1.861-1.871,2.724
		c-1.77,2.244-3.436,4.553-5.735,6.363c-2.151,1.691-4.448,3.184-6.558,4.918c-1.844,1.515-3.752,2.93-5.74,4.246
		c-1.513,1-2.936,2.111-4.018,3.604c-0.623,0.859-1.422,1.564-2.176,2.31c-0.372,0.366-0.841,0.656-1.049,1.172
		c0.339-0.202,0.688-0.39,1.014-0.61c3.584-2.422,7.08-4.966,10.446-7.684c28.252-22.818,47.077-51.779,56.433-86.863
		c3.607-13.53,5.346-27.332,5.385-41.336c0.01-3.521,0.007-7.046-0.387-10.555C288.951,99.103,288.304,100.085,287.04,100.68z
		 M286.302,102.014c-0.009-0.032,0.019-0.082,0.044-0.111c0.014-0.016,0.058-0.006,0.088-0.008c0.005,0.041,0.026,0.088,0.011,0.119
		C286.392,102.131,286.331,102.131,286.302,102.014z"/>
	<path fill="#2E3192" d="M166.984,267.121c-0.02-0.012-0.038-0.014-0.058-0.023c-0.264-0.134-0.538-0.047-0.813-0.021
		c-0.099,0.008-0.196,0.008-0.294-0.016c-0.602-0.146-0.669-0.369-0.342-0.924c0.328-0.558,0.896-0.51,1.383-0.646
		c1.139-0.315,1.144-0.298,1.188-1.487c0.029-0.77,0.267-1.523-0.301-2.273c-0.287-0.381,0.07-0.948,0.393-1.316
		c0.766-0.871,1.464-1.754,1.53-2.986c0.021-0.402,0.371-0.58,0.715-0.699c0.493-0.172,0.746-0.576,1.049-0.961
		c0.464-0.591,0.55-1.168,0.196-1.832c-0.254-0.479-0.306-0.994-0.287-1.539c0.015-0.48-0.034-0.975-0.141-1.443
		c-0.592-2.6,0.297-4.707,2.242-6.365c1.323-1.129,2.516-2.33,3.396-3.836c0.227-0.387,0.571-0.659,0.943-0.912
		c0.874-0.596,1.731-1.219,2.596-1.828c0.325-0.229,0.654-0.453,1.052-0.549c1.215-0.295,1.898-1.215,2.528-2.184
		c0.216-0.332,0.343-0.721,0.569-1.043c0.355-0.506,0.456-1.023,0.281-1.617c-0.287-0.977-0.021-1.922,0.184-2.871
		c0.084-0.382,0.254-0.68,0.661-0.715c0.601-0.051,0.604-0.451,0.7-0.917c0.337-1.622-0.181-3.257,0.061-4.849
		c0.346-2.281-0.232-4.363-0.973-6.449c-0.154-0.43-0.405-0.777-0.719-1.096c-0.779-0.781-1.49-1.645-2.34-2.337
		c-1.254-1.019-1.26-2.446-1.473-3.825c-0.055-0.349,0.17-0.576,0.408-0.783c0.537-0.466,0.986-0.998,1.412-1.55l-17.73,4.272
		l-44.395,31.45l6.776,24.05l22.699,3.848c5.306-0.809,10.57-1.872,15.79-3.216C166.261,267.533,166.772,267.632,166.984,267.121z"
		/>
	<path fill="#39B54A" d="M207,152.5L193.5,185l13,16.5l-23.768,5.728c-0.426,0.552-0.875,1.084-1.412,1.55
		c-0.238,0.207-0.463,0.435-0.408,0.783c0.213,1.379,0.219,2.807,1.473,3.825c0.85,0.692,1.561,1.556,2.34,2.337
		c0.313,0.318,0.564,0.666,0.719,1.096c0.74,2.086,1.318,4.168,0.973,6.449c-0.241,1.592,0.276,3.227-0.061,4.849
		c-0.097,0.466-0.1,0.866-0.7,0.917c-0.407,0.035-0.577,0.333-0.661,0.715c-0.205,0.949-0.471,1.895-0.184,2.871
		c0.175,0.594,0.074,1.111-0.281,1.617c-0.227,0.322-0.354,0.711-0.569,1.043c-0.63,0.969-1.313,1.889-2.528,2.184
		c-0.397,0.096-0.727,0.319-1.052,0.549c-0.864,0.609-1.722,1.232-2.596,1.828c-0.372,0.253-0.717,0.525-0.943,0.912
		c-0.88,1.506-2.072,2.707-3.396,3.836c-1.945,1.658-2.834,3.766-2.242,6.365c0.106,0.469,0.155,0.963,0.141,1.443
		c-0.019,0.545,0.033,1.061,0.287,1.539c0.354,0.664,0.268,1.241-0.196,1.832c-0.303,0.385-0.556,0.789-1.049,0.961
		c-0.344,0.119-0.694,0.297-0.715,0.699c-0.066,1.232-0.765,2.115-1.53,2.986c-0.322,0.368-0.68,0.936-0.393,1.316
		c0.567,0.75,0.33,1.504,0.301,2.273c-0.044,1.189-0.049,1.172-1.188,1.487c-0.487,0.136-1.055,0.088-1.383,0.646
		c-0.327,0.555-0.26,0.777,0.342,0.924c0.098,0.023,0.195,0.023,0.294,0.016c0.274-0.025,0.549-0.112,0.813,0.021
		c0.018,0.009,0.034,0.01,0.052,0.021l-0.029-0.016c0.136-0.289,0.35-0.262,0.584-0.153c0.08-0.233,0.29-0.306,0.492-0.358
		c2.16-0.566,4.321-1.125,6.481-1.692c0.222-0.058,0.429-0.063,0.64,0.015c0.587-0.164,1.176-0.307,1.752-0.494
		c2.851-0.936,5.721-1.821,8.539-2.84c3.068-1.108,6.205-2.076,9.086-3.633c4.545-2.454,9.064-4.953,13.547-7.52
		c2.905-1.664,5.746-3.449,8.467-5.413c0.208-0.516,0.677-0.806,1.049-1.172c0.754-0.745,1.553-1.45,2.176-2.31
		c1.082-1.492,2.505-2.604,4.018-3.604c1.988-1.316,3.896-2.731,5.74-4.246c2.109-1.734,4.406-3.227,6.558-4.918
		c2.3-1.811,3.966-4.119,5.735-6.363c0.682-0.862,1.207-1.846,1.871-2.724c1.19-1.569,1.854-3.402,2.604-5.177
		c1.174-2.775,2.625-5.373,4.34-7.843c2.864-4.129,5.661-8.307,8.563-12.409c3.615-5.111,7.101-10.312,10.63-15.482
		c1.201-1.76,1.903-3.768,2.85-5.654c2.135-4.256,3.866-8.68,5.533-13.137c0.838-2.238,1.528-4.503,2.064-6.822
		c0.291-1.242,0.918-2.391,1.049-4.004c-2.711,3.181-4.962,6.406-7.483,9.424c-0.521-0.456-0.689-0.98-1.009-1.397
		c-0.388-0.503-0.46-1.044-0.222-1.616c0.564-1.344,0.188-2.601-0.369-3.823c-0.366-0.802-0.814-1.565-1.218-2.349
		c-0.229-0.442-0.494-0.817-1.038-0.932c-0.657-0.137-0.887-0.596-0.939-1.254c-0.167-2.064-0.405-4.122-0.574-6.186
		c-0.061-0.727-0.201-1.363-0.722-1.928c-0.837-0.902-1.16-1.996-1.253-3.244c-0.189-2.503-0.353-5.012-0.826-7.488
		c-0.183-0.945-0.56-1.643-1.368-2.121c-0.801-0.475-1.227-1.103-0.869-2.07c0.043-0.115-0.033-0.276,0.012-0.393
		c0.681-1.803-0.171-3.35-0.811-4.934c-0.691-1.711-1.386-3.422-2.077-5.133L246.5,114.5L207,152.5z"/>
</g>
<g id="earth02">
	<path fill="#39B54A" d="M-194.949,175.069c2.407,6.564,5.551,12.767,8.917,18.876c3.368,6.113,7.06,12.021,11.126,17.682
		c2.77,3.857,5.338,7.893,8.897,11.127c0.363,0.094,0.581,0.057,0.863-0.316c0.542-0.716,1.006-1.644,2.16-1.546
		c0.085-0.667-0.038-1.246-0.419-1.776c-0.437-0.607-0.682-1.326-1.128-1.939c-0.365-0.504-0.116-0.897,0.519-0.986
		c0.946-0.131,1.841,0.08,2.711,0.431c0.687,0.276,1.359,0.599,2.052,0.851L-151.5,203l14.892-11.639
		c-0.031-0.246-0.063-0.492-0.09-0.738c-0.103-0.921-0.489-1.654-1.31-2.17c-0.857-0.537-1.646-1.184-2.501-1.725
		c-0.574-0.365-1.025-0.796-1.366-1.39c-1.386-2.409-2.804-4.801-4.197-7.206c-0.18-0.31-0.328-0.686-0.661-0.797
		c-0.601-0.199-0.939-0.603-1.183-1.145c-0.113-0.25-0.337-0.396-0.58-0.519c-1.545-0.776-2.822-1.953-4.275-2.867
		c-1.29-0.812-2.338-1.878-3.153-3.155c-0.362-0.567-0.769-0.778-1.423-0.626c-0.801,0.184-1.579-0.068-2.351-0.238
		c-0.688-0.151-0.825-0.372-0.513-1.021c0.82-1.704,0.425-3.151-0.714-4.563c-1.188-1.473-2.407-2.936-3.183-4.698
		c-0.414-0.943-1.411-1.31-2.136-1.921c-0.433-0.364-1.104,0.314-1.688,0.453c-0.073,0.017-0.162-0.032-0.297-0.063
		c-0.175-0.589-0.165-1.189,0.019-1.79c0.284-0.923-0.015-1.611-0.776-2.188c-0.948-0.719-1.847-1.504-2.775-2.25
		c-0.347-0.28-0.65-0.581-0.857-0.988c-0.188-0.37-0.208-0.648,0.172-0.902c0.547-0.365,1.035-0.829,1.728-0.933
		c0.308-0.046,0.657-0.134,0.63-0.539c-0.048-0.738,0.219-1.484-0.133-2.218c-0.708-1.475-0.723-3.052-0.68-4.651
		c0.056-2.123-0.151-4.222-0.891-6.239c-0.516-1.409-1.093-2.8-1.502-4.24c-0.528-1.862-1.673-3.292-2.998-4.593
		c-1.009-0.992-1.987-2.005-2.89-3.089c-0.098-0.117-0.182-0.24-0.272-0.36l-25.647,11.191c0.084,0.783,0.158,1.566,0.251,2.348
		C-203.219,149.129-199.652,162.238-194.949,175.069z"/>
	<path fill="#2E3192" d="M-176.292,125.439c1.324,1.301,2.47,2.731,2.998,4.593c0.409,1.44,0.986,2.832,1.502,4.24
		c0.739,2.017,0.947,4.116,0.891,6.239c-0.043,1.6-0.028,3.176,0.68,4.651c0.353,0.734,0.085,1.48,0.133,2.218
		c0.027,0.405-0.322,0.493-0.63,0.539c-0.693,0.104-1.18,0.568-1.728,0.933c-0.379,0.253-0.36,0.532-0.172,0.902
		c0.208,0.407,0.51,0.708,0.857,0.988c0.929,0.746,1.827,1.531,2.775,2.25c0.761,0.577,1.06,1.264,0.776,2.188
		c-0.184,0.601-0.194,1.2-0.019,1.79c0.136,0.031,0.225,0.08,0.297,0.063c0.583-0.139,1.255-0.817,1.688-0.453
		c0.725,0.611,1.722,0.979,2.136,1.921c0.776,1.762,1.996,3.225,3.183,4.698c1.139,1.412,1.535,2.86,0.714,4.563
		c-0.312,0.649-0.175,0.87,0.513,1.021c0.772,0.17,1.549,0.422,2.351,0.238c0.655-0.151,1.062,0.06,1.423,0.626
		c0.815,1.276,1.863,2.343,3.153,3.155c1.453,0.915,2.729,2.091,4.275,2.867c0.243,0.122,0.467,0.268,0.58,0.519
		c0.243,0.542,0.582,0.945,1.183,1.145c0.333,0.111,0.481,0.487,0.661,0.797c1.393,2.405,2.811,4.797,4.197,7.206
		c0.341,0.594,0.792,1.025,1.366,1.39c0.855,0.541,1.644,1.188,2.501,1.725c0.821,0.516,1.208,1.249,1.31,2.17
		c0.027,0.246,0.059,0.492,0.09,0.738l8.778-6.861l9.331-35l19-32.202l-26.5-15.252l-39.5,13.854l-13.955,6.089
		c0.09,0.12,0.174,0.243,0.272,0.36C-178.28,123.435-177.301,124.448-176.292,125.439z"/>
</g>
<g id="earth01">
	<path fill="#39B54A" d="M-100.628,17.799c-0.399-1.391-0.321-2.777,0.123-4.15c0.14-0.43,0.137-0.842-0.077-1.275
		c-0.641-1.299-1.346-2.574-1.73-3.987c-0.059-0.22-0.166-0.415-0.449-0.373c-0.234,0.034-0.442,0.173-0.494,0.386
		c-0.082,0.339-0.072,0.698-0.129,1.044c-0.229,1.413-0.229,1.445-1.646,1.553c-0.551,0.042-0.695,0.315-0.675,0.751
		c0.015,0.303,0.116,0.604,0.208,0.896c0.355,1.133,0.723,2.264,1.092,3.393c0.023,0.074,0.106,0.129,0.16,0.191
		c0.312,0.015,0.395-0.342,0.65-0.398c0.396,0.112,0.194,0.88,0.764,0.734c0.562-0.143,0.69,0.234,0.863,0.584
		c0.329,0.661,0.646,1.326,0.484,2.225C-100.802,18.938-100.411,18.554-100.628,17.799z"/>
	<path fill="#39B54A" d="M-103.668,5.621c0.539,0.474,0.71,0.462,0.884-0.199c0.167-0.637,0.358-1.271,0.368-1.943
		c0.049-4.021,0.785-7.959,1.442-11.906c0.12-0.719,0.04-1.404-0.106-2.096c-0.11-0.523-0.49-0.875-0.942-1.031
		c-0.455-0.156-0.659,0.346-0.921,0.613c-0.238,0.244-0.523,0.492-0.454,1.016c0.925-0.107,0.957-0.119,1.05,0.147
		c0.126,0.366,0.314,0.745,0.063,1.14c-0.048,0.074-0.104,0.143-0.154,0.214c-0.266,0.382-0.336,0.837-0.316,1.267
		c0.051,1.034-0.246,2.006-0.434,3c-0.335,1.772-0.493,3.574-0.841,5.348c-0.108,0.551-0.108,1.014-0.661,1.29
		c-0.301,0.15-0.492,0.384-0.327,0.75C-104.641,4.067-104.4,4.978-103.668,5.621z"/>
	<path fill="#39B54A" d="M-98.906,20.566c-0.256-0.524-1.256-0.514-1.54-0.024c-0.429,0.735,0.252,2.399,1.079,2.64
		c0.84,0.244,1.26-0.153,1.031-1.016C-98.482,21.62-98.658,21.072-98.906,20.566z"/>
	<path fill="none" d="M-103.668,15.621c0.539,0.474,0.71,0.462,0.884-0.199c0.167-0.637,0.358-1.271,0.368-1.943
		c0.049-4.021,0.785-7.959,1.442-11.906c0.12-0.719,0.04-1.404-0.106-2.096c-0.11-0.523-0.49-0.875-0.942-1.031
		c-0.455-0.156-0.659,0.346-0.921,0.613c-0.238,0.244-0.523,0.492-0.454,1.016c0.925-0.107,0.957-0.119,1.05,0.147
		c0.126,0.366,0.314,0.745,0.063,1.14c-0.048,0.074-0.104,0.143-0.154,0.214c-0.266,0.382-0.336,0.837-0.316,1.267
		c0.051,1.034-0.246,2.006-0.434,3c-0.335,1.772-0.493,3.574-0.841,5.348c-0.108,0.551-0.108,1.014-0.661,1.29
		c-0.301,0.15-0.492,0.384-0.327,0.75C-104.641,14.067-104.4,14.978-103.668,15.621z"/>
	<g>
		<path fill="#39B54A" d="M-79.252,168.471c0.172,0.063,0.344,0.124,0.519,0.176c1.079,0.318,2.083,0.785,2.917,1.498
			c0.821,0.7,1.756,0.953,2.752,1.172c0.568,0.125,0.93,0.066,1.096-0.563c0.093-0.35,0.397-0.574,0.699-0.77
			c0.987-0.644,1.836-1.344,1.647-2.732c-0.047-0.352,0.183-0.769,0.363-1.115c0.187-0.357,0.328-0.719,0.415-1.109
			c0.445-2.012,1.011-3.973,0.617-6.117c-0.254-1.373,0.059-2.828,0.494-4.227c0.625,0.215,0.839,1.025,1.475,0.689
			c0.876-0.465,1.922-0.674,2.479-1.657c0.285-0.505,0.738-0.835,1.383-0.876c2.158-0.135,3.566-1.668,5.17-2.828
			c0.098-0.07,0.143-0.221,0.199-0.34c0.496-1.051,0.816-2.188,0.801-3.318c-0.02-1.332-0.216-2.662-0.382-3.992L-71.5,154
			L-79.252,168.471z"/>
		<g>
			<path fill="#2E3192" d="M84.648,37.953c0.252-0.018,0.504-0.042,0.758-0.07c1.092-0.124,2.172-0.375,3.256-0.567
				c0.449-0.079,0.812-0.334,1.19-0.56c1.181-0.699,2.474-1.163,3.707-1.748c0.651-0.309,1.322-0.112,1.954-0.061
				c1.326,0.107,2.643,0.07,3.958-0.029c1.149-0.087,2.286-0.002,3.427,0.055c0.78,0.039,1.484,0.311,2.04,0.838
				c0.613,0.584,1.233,0.562,1.923,0.217c0.275-0.137,0.598-0.211,0.832-0.398c0.56-0.449,1.08-0.496,1.655-0.037
				c0.313,0.25,0.663,0.349,1.106,0.289c0.371-0.051,0.793,0.071,1.156,0.211c1.525,0.586,2.936,0.463,4.225-0.588
				c0.262-0.213,0.563-0.322,0.852-0.131c0.578,0.385,1.363,0.59,1.596,1.314c0.245,0.76,0.697,0.785,1.314,0.614
				c0.122-0.033,0.257-0.013,0.457-0.019c0.137,0.706-0.377,1.154-0.656,1.646c-0.402,0.713-0.416,1.315,0.154,1.92
				c0.18,0.192,0.333,0.412,0.482,0.629c0.771,1.123,0.671,2.213-0.301,3.189c-0.404,0.406-0.854,0.769-1.244,1.188
				c-0.756,0.815-0.758,1.629-0.047,2.477c1.166,1.391,2.635,2.299,4.356,2.857c1.09,0.352,2.157,0.715,3.323,0.77
				c0.839,0.039,1.641,0.315,2.338,0.832c0.643,0.476,1.365,0.797,2.127,1.037c0.773,0.244,1.262,0.707,1.362,1.578
				c0.071,0.608,0.318,1.193,0.44,1.799c0.109,0.545,0.401,0.838,0.938,0.967c0.644,0.156,1.265,0.395,1.906,0.549
				c1.787,0.429,3.06,1.692,4.467,2.732c1.027,0.761,1.521,0.73,2.357-0.217c1.384-1.564,1.522-1.604,0.952-3.63
				c-0.492-1.744,0.127-2.849,1.368-3.905c1.733-1.476,1.705-1.488,3.984-1.021c0.931,0.189,1.83,0.354,2.175,1.424
				c0.082,0.254,0.29,0.43,0.543,0.553c1.381,0.67,2.687,1.499,4.233,1.82c2.248,0.467,4.484,0.988,6.711,1.537
				c0.668,0.165,1.172,0.09,1.69-0.375c0.69-0.615,1.477-1.121,2.165-1.738c0.517-0.463,0.987-0.697,1.624-0.252
				c0.211,0.146,0.554,0.137,0.719,0.311c1.189,1.246,2.338,0.385,3.502-0.023c0.344-0.123,0.38-0.377,0.45-0.709
				c0.488-2.379,0.709-4.799,0.909-7.206c0.2-2.366,0.044-4.756-0.408-7.107c-0.103-0.526-0.334-1.003-0.555-1.484
				c-0.295-0.644-0.566-1.281-0.313-2.03c0.184-0.551-0.14-0.723-0.642-0.622c-0.604,0.12-1.233,0.183-1.395,0.981
				c-0.099,0.495-0.497,0.814-0.87,1.133c-0.984,0.838-1.691,0.863-2.678,0.057c-0.61-0.5-1.152-1.076-2.028-1.144
				c-0.695-0.053-1.12,0.025-1.38,0.822c-0.421,1.288-1.283,1.388-2.256,0.368c-0.183-0.191-0.313-0.465-0.59-0.507
				c-1.846-0.276-2.8-1.88-4.197-2.819c-0.369-0.247-0.671-0.521-0.319-1.084c0.219-0.352-0.364-1.036-0.929-1.169
				c-0.202-0.047-0.435-0.011-0.647,0.026c-0.302,0.051-0.524-0.02-0.628-0.32c-0.096-0.271-0.05-0.525,0.18-0.717
				c0.136-0.111,0.297-0.193,0.433-0.305c0.796-0.643,0.769-0.809-0.084-1.357c-0.474-0.305-1.229-0.525-0.622-1.379
				c0.144-0.201-0.109-0.494-0.193-0.744c-0.119-0.373-0.342-0.758-0.124-1.147c0.544-0.97-0.183-1.673-0.491-2.46
				c-0.105-0.273-0.398-0.324-0.659-0.385c-0.558-0.131-1.112-0.285-1.679-0.379c-1.241-0.205-1.924,0.484-1.717,1.701
				c0.063,0.381,0.23,0.76,0.021,1.145c0.005,0,0.01,0.002,0.014,0.003c0.003,0.015,0.007,0.027,0.009,0.042
				c0.024,0.026,0.05,0.053,0.074,0.08c-0.022-0.01-0.054-0.012-0.063-0.026c-0.008-0.016-0.009-0.035-0.012-0.054
				c-0.009-0.01-0.019-0.02-0.027-0.029c0.003-0.006,0.003-0.011,0.005-0.016c-0.082-0.02-0.168-0.059-0.244-0.043
				c-0.928,0.179-1.477-0.226-1.751-1.094c-0.038-0.116-0.13-0.236-0.323-0.233c-0.32,0.461-0.301,0.945-0.025,1.448
				c0.298,0.541,0.576,1.092,0.868,1.637c0.125,0.232,0.392,0.477,0.367,0.689c-0.141,1.23,0.771,1.625,1.597,2.043
				c1.013,0.512,1.351,1.462,1.727,2.402c0.104,0.258-0.104,0.27-0.264,0.41c-0.564,0.495-1.141,0.65-1.882,0.334
				c-0.097,0.644,0.328,1.062,0.385,1.576c-0.22,0.302-0.585-0.09-0.817,0.167c-0.007,0.501,0.32,0.903,0.436,1.372
				c0.158,0.646-0.052,1.188-0.577,1.461c-0.198,0.104-0.551,0.221-0.61,0.077c-0.282-0.71-1.402-0.789-1.306-1.747
				c0.045-0.432-0.151-0.729-0.528-0.791c-0.97-0.156-1.136-0.939-0.995-1.59c0.327-1.504-0.559-2.277-1.534-3.06
				c-0.157-0.126-0.521-0.196-0.352-0.447c0.614-0.901-0.165-1.013-0.677-1.275c-0.923-0.474-1.549-1.147-1.594-2.246
				c-0.009-0.214-0.018-0.509-0.15-0.623c-1.372-1.19-1.273-2.894-1.343-4.412c-0.067-1.519-0.658-2.552-1.714-3.519
				c-1.952-1.791-3.958-3.51-6.224-4.902c-0.408-0.252-0.791-0.557-1.297-0.631c-0.946-0.139-1.571-0.754-2.076-1.504
				c-0.662-0.98-1.209-2.026-2.336-2.629c-0.646-0.346-0.807-1.111-1.021-1.795c-0.32-1.017-1.664-1.268-2.414-0.483
				c-0.145,0.151-0.156,0.34-0.048,0.478c0.526,0.666,0.349,1.438,0.294,2.162c-0.049,0.629,0.146,1.068,0.545,1.537
				c1.487,1.75,2.814,3.612,4.048,5.557c0.851,1.344,1.967,2.498,3.681,2.79c0.383,0.064,0.818,0.114,0.896,0.626
				c0.098,0.643,0.595,0.922,1.061,1.27c1.271,0.947,2.508,1.947,3.766,2.915c0.466,0.36,0.829,0.806,1.036,1.347
				c0.165,0.434,0.119,0.925-0.299,1.182c-0.329,0.205-0.657-0.041-0.931-0.301c-0.382-0.363-0.756-0.752-1.193-1.036
				c-0.379-0.245-0.826-0.319-1.171,0.151c-0.489,0.666-0.554,1.197-0.166,1.629c0.147,0.164,0.313,0.312,0.473,0.465
				c0.903,0.865,1.027,1.299,0.48,2.395c-0.24,0.48-0.427,0.887-0.405,1.466c0.027,0.722-0.547,1.267-0.996,1.804
				c-0.209,0.248-0.453,0.189-0.686-0.026c-0.447-0.417-0.642-0.134-0.883,0.272c-0.396,0.672-0.664,1.341-0.408,2.127
				c0.114,0.35,0.069,0.701-0.039,1.043c-0.334,1.057-0.849,1.234-1.688,0.508c-1.012-0.873-2.149-1.543-3.338-2.119
				c-1.063-0.516-1.673-1.365-2.152-2.438c1.056-0.443,2.016-0.778,3.056-0.076c0.521,0.352,1.148,0.408,1.787,0.26
				c0.644-0.15,1.308-0.219,1.945-0.385c1.521-0.393,2.022-1.289,1.561-2.759c-0.252-0.8-0.553-1.581-0.816-2.378
				c-0.172-0.52-0.361-1-0.971-1.146c-0.273-0.064-0.514-0.229-0.56-0.506c-0.136-0.823-0.761-1.249-1.315-1.75
				c-0.556-0.502-1.115-1.012-1.601-1.578c-0.51-0.595-1.075-1.041-1.863-1.155c-0.557-0.081-0.949-0.392-1.314-0.808
				c-0.784-0.896-1.613-1.752-2.412-2.636c-0.681-0.755-1.376-1.491-2.258-2.021c-0.642-0.384-0.987-0.922-1.102-1.691
				c-0.284-1.9-1.69-3.029-3.073-4.117c-0.068-0.054-0.139-0.096-0.21-0.134L89.93,34.637L84.648,37.953z"/>
			<path fill="#2E3192" d="M-124.949,55.207c0.073-0.827,0.178-1.676,0.668-2.399c0.725-1.065,1.224-2.253,1.64-3.453
				c0.558-1.608,1.234-3.211,1.135-4.976c-0.071-1.254,0.2-2.439,0.676-3.588c0.286-0.691,0.571-1.383,0.872-2.068
				c0.424-0.963,0.602-1.912,0.084-2.919c-0.428-0.831-0.518-1.755-0.639-2.681c-0.267-2.033-0.284-4.038,0.305-6.021
				c0.063-0.211,0.092-0.433,0.115-0.652c0.293-2.909,1.023-5.74,1.834-8.525c0.787-2.703,1.272-5.488,2.239-8.141
				c-1.702,4.357-3.074,8.824-4.279,13.338c-3.197,11.969-5.18,24.134-5.653,36.525c-0.092,2.416-0.262,4.834-0.055,7.254
				c0.1-0.652,0.244-1.289,0.291-1.957C-125.498,61.695-125.237,58.449-124.949,55.207z"/>
			<path fill="#39B54A" d="M81.666,37.486c-1.133-0.553-2.361-0.973-3.633-1.188c-1.197-0.202-2.261-0.499-2.721-1.895
				c-0.253-0.772-1.631-0.962-2.127-0.396c-1.188,1.352-2.504,2.639-2.979,4.459c-0.191,0.741-0.602,1.098-1.335,1.257
				c-1.77,0.385-3.466,1.023-5.187,1.578c-1.002,0.322-1.764,0.881-2.242,1.725c-1.026,1.811-2.389,3.382-3.49,5.138
				c-0.352,0.563-0.489,1.086-0.281,1.734c0.143,0.449,0.32,0.941,0.004,1.404c-0.52,0.762-0.961,1.581-1.802,2.078
				c-0.873,0.518-1.704,1.106-2.572,1.633c-1.817,1.101-3.659,2.119-5.893,2.08c-0.608-0.011-1.22,0.221-1.831,0.238
				c-0.742,0.02-1.223,0.366-1.647,0.933c-0.606,0.812-1.228,1.616-2.012,2.274c-1.726,1.448-3.352,3-4.905,4.631
				c-0.461,0.484-0.907,0.947-1.139,1.594c-0.201,0.563-0.555,0.936-1.204,1.077c-0.922,0.202-1.667,0.718-2.29,1.467
				c-0.867,1.041-1.748,2.069-2.622,3.104l54.89-34.459C83.648,38.024,82.663,37.975,81.666,37.486z"/>
			<path fill="#39B54A" d="M24.481,79.271c1.024-0.091,1.015-0.09,1.226,1.049c0.055,0.299,0.134,0.621,0.301,0.865
				c0.912,1.328,0.459,2.751,0.194,4.091c-0.247,1.237-0.813,2.414-1.259,3.608c-1.033,2.77-2.236,5.467-3.76,8
				c-0.996,1.655-2.31,3.029-4.271,3.704c0.521,1.271,0.995,2.554,1.572,3.789c0.322,0.689,0.34,1.187-0.229,1.769
				c-0.746,0.765-1,1.66-0.641,2.781c0.451,1.406,1.155,2.561,2.43,3.324c0.775,0.465,1.131,1.057,0.764,1.962
				c-0.277,0.679-0.098,1.279,0.326,1.856c0.313,0.426,0.577,0.883,0.957,1.262c0.686,0.686,1.392,1.358,2.018,2.098
				c1.466,1.732,1.844,3.932,2.492,6.013c-0.338,1.039,0.087,1.997,0.322,2.974c0.06,0.245,0.359,0.561,0.112,0.723
				c-0.437,0.285-0.21,0.447-0.015,0.697c0.465,0.593,0.969,1.139,1.588,1.578c0.393,0.281,0.876,0.523,1.121,0.908
				c1.021,1.614,2.604,2.604,4.01,3.797c0.969,0.822,2.065,1.573,2.58,2.793c0.472,1.119,1.301,1.844,2.264,2.5
				c1.057,0.719,2.086,1.475,3.174,2.15c0.631,0.391,1.274,0.539,2,0.55c2.295,0.035,4.576-0.132,6.861-0.286
				c1.091-0.072,2.184-0.31,3.288-0.041c1.501,0.367,3.01,0.703,4.515,1.049c1.078,0.246,2.143,0.512,3.067,1.174
				c0.401,0.287,0.896,0.438,1.384,0.357c2.124-0.352,4.319-0.358,6.338-1.244c0.91-0.398,1.842-0.551,2.838-0.434
				c0.563,0.066,1.141,0.031,1.666-0.279c0.935-0.551,1.969-0.711,3.037-0.803c1.541-0.133,3.084-0.166,4.609,0.043
				c1.516,0.207,3.047,0.244,4.512,0.899c1.878,0.841,2.789,2.173,2.545,4.25c-0.153,1.294,0.475,2.147,1.77,2.243
				c0.739,0.054,1.493-0.057,2.239-0.115c1.536-0.119,3.071-0.277,4.61-0.368c0.698-0.041,1.622-0.064,1.944,0.526
				c0.427,0.787,1.042,1.17,1.755,1.479c0.475,0.203,0.592,0.457,0.451,0.912c-0.092,0.294-0.172,0.594-0.235,0.896
				c-0.542,2.607-2.103,4.834-2.759,7.398c-0.031,0.12-0.144,0.221-0.225,0.325c-0.779,1.019-1.453,2.118-2.236,3.133L119.5,159.5
				l-13-16.5l13.5-32.5l39.5-38l14.05-0.793c-1.208-2.992-2.414-5.986-3.631-8.975c-0.217-0.531-0.299-1.007,0.077-1.482
				c0.372-0.061,0.441,0.233,0.525,0.471c0.37,1.035,0.793,2.043,0.959,3.154c0.196,1.297,1.107,2.127,2.167,2.783
				c0.525-0.414-0.007-1.004,0.42-1.461c0.543,0.352,0.984,0.806,1.305,1.375c0.729,1.287,1.441,2.582,2.062,3.916l24.401-1.378
				c0.381-1.94-0.183-3.715-1.032-5.349c-0.544-1.047-0.972-2.042-1.046-3.205c-0.019-0.289,0.059-0.627-0.411-0.947
				c-0.28,1.044-0.453,2.036-0.569,3.051c-0.15,1.307-0.188,2.652-1.02,3.775c-0.104,0.138-0.234,0.254-0.431,0.463
				c-0.533-1.004-0.717-2.014-0.819-3.047c-0.034-0.349-0.044-0.704-0.033-1.055c0.015-0.607-0.186-1.038-0.844-1.129
				c-0.548-0.076-0.824-0.428-1.028-0.909c-0.848-1.989-1.687-3.981-2.581-5.948c-0.587-1.286,0.137-2.4,0.356-3.581
				c0.047-0.247,0.326-0.253,0.555-0.22c0.359,0.053,0.71,0.129,0.819,0.545c0.125,0.47,0.271,0.938,0.342,1.416
				c0.295,1.959,1.688,3.146,3.059,4.328c0.595,0.512,0.98,0.314,1.194-0.475c0.14-0.511,0.242-1.031,0.376-1.543
				c0.059-0.23,0.215-0.39,0.468-0.385c0.294,0.005,0.509,0.133,0.551,0.451c0.096,0.736,0.189,1.475,0.3,2.332
				c1.264-0.595,1.911-1.577,2.388-2.713c0.442-0.945,0.522-1.908,0.382-2.957c-0.404-3.015-0.704-6.042-1.069-9.062
				c-0.317-2.625-0.506-5.278-1.033-7.861c-1.314-6.438-2.907-12.808-4.681-19.141c-1.421-5.071-3.146-10.03-5.278-14.818
				c-2.924-6.567-6.071-13.042-9.965-19.116c-2.273-3.543-4.369-7.207-6.929-10.553L138.32-12.938l-23.95,23.546
				c0.071,0.038,0.142,0.08,0.21,0.134c1.383,1.088,2.789,2.217,3.073,4.117c0.114,0.77,0.46,1.308,1.102,1.691
				c0.882,0.529,1.577,1.266,2.258,2.021c0.799,0.884,1.628,1.739,2.412,2.636c0.365,0.416,0.758,0.727,1.314,0.808
				c0.788,0.114,1.354,0.561,1.863,1.155c0.485,0.566,1.045,1.076,1.601,1.578c0.555,0.501,1.18,0.927,1.315,1.75
				c0.046,0.277,0.286,0.441,0.56,0.506c0.609,0.146,0.799,0.627,0.971,1.146c0.264,0.797,0.564,1.578,0.816,2.378
				c0.462,1.47-0.039,2.366-1.561,2.759c-0.638,0.166-1.302,0.234-1.945,0.385c-0.639,0.148-1.267,0.092-1.787-0.26
				c-1.04-0.702-2-0.367-3.056,0.076c0.479,1.072,1.089,1.922,2.152,2.438c1.188,0.576,2.326,1.246,3.338,2.119
				c0.84,0.727,1.354,0.549,1.688-0.508c0.108-0.342,0.153-0.693,0.039-1.043c-0.256-0.786,0.012-1.455,0.408-2.127
				c0.241-0.406,0.436-0.689,0.883-0.272c0.232,0.216,0.477,0.274,0.686,0.026c0.449-0.537,1.023-1.082,0.996-1.804
				c-0.021-0.579,0.165-0.985,0.405-1.466c0.547-1.096,0.423-1.529-0.48-2.395c-0.159-0.153-0.325-0.301-0.473-0.465
				c-0.388-0.432-0.323-0.963,0.166-1.629c0.345-0.471,0.792-0.396,1.171-0.151c0.438,0.284,0.812,0.673,1.193,1.036
				c0.273,0.26,0.602,0.506,0.931,0.301c0.418-0.257,0.464-0.748,0.299-1.182c-0.207-0.541-0.57-0.986-1.036-1.347
				c-1.258-0.968-2.494-1.968-3.766-2.915c-0.466-0.348-0.963-0.627-1.061-1.27c-0.078-0.512-0.514-0.562-0.896-0.626
				c-1.714-0.292-2.83-1.446-3.681-2.79c-1.233-1.944-2.561-3.807-4.048-5.557c-0.399-0.469-0.594-0.908-0.545-1.537
				c0.055-0.725,0.232-1.496-0.294-2.162c-0.108-0.138-0.097-0.326,0.048-0.478c0.75-0.784,2.094-0.533,2.414,0.483
				c0.215,0.684,0.375,1.449,1.021,1.795c1.127,0.603,1.674,1.648,2.336,2.629c0.505,0.75,1.13,1.365,2.076,1.504
				c0.506,0.074,0.889,0.379,1.297,0.631c2.266,1.393,4.271,3.111,6.224,4.902c1.056,0.967,1.646,2,1.714,3.519
				c0.069,1.519-0.029,3.222,1.343,4.412c0.133,0.114,0.142,0.409,0.15,0.623c0.045,1.099,0.671,1.772,1.594,2.246
				c0.512,0.263,1.291,0.374,0.677,1.275c-0.17,0.251,0.194,0.321,0.352,0.447c0.976,0.782,1.861,1.556,1.534,3.06
				c-0.141,0.65,0.025,1.434,0.995,1.59c0.377,0.063,0.573,0.359,0.528,0.791c-0.097,0.958,1.023,1.037,1.306,1.747
				c0.06,0.144,0.412,0.027,0.61-0.077c0.525-0.272,0.735-0.815,0.577-1.461c-0.115-0.469-0.442-0.871-0.436-1.372
				c0.232-0.257,0.598,0.135,0.817-0.167c-0.057-0.515-0.481-0.933-0.385-1.576c0.741,0.316,1.317,0.161,1.882-0.334
				c0.16-0.141,0.367-0.152,0.264-0.41c-0.376-0.94-0.714-1.891-1.727-2.402c-0.826-0.418-1.737-0.813-1.597-2.043
				c0.024-0.213-0.242-0.457-0.367-0.689c-0.292-0.545-0.57-1.096-0.868-1.637c-0.275-0.503-0.295-0.987,0.025-1.448
				c0.193-0.003,0.285,0.117,0.323,0.233c0.274,0.868,0.823,1.272,1.751,1.094c0.076-0.016,0.162,0.023,0.244,0.043
				c0.209-0.385,0.041-0.764-0.021-1.145c-0.207-1.217,0.476-1.906,1.717-1.701c0.566,0.094,1.121,0.248,1.679,0.379
				c0.261,0.061,0.554,0.111,0.659,0.385c0.309,0.787,1.035,1.49,0.491,2.46c-0.218,0.39,0.005,0.774,0.124,1.147
				c0.084,0.25,0.337,0.543,0.193,0.744c-0.606,0.854,0.148,1.074,0.622,1.379c0.853,0.549,0.88,0.715,0.084,1.357
				c-0.136,0.111-0.297,0.193-0.433,0.305c-0.229,0.191-0.275,0.445-0.18,0.717c0.104,0.301,0.326,0.371,0.628,0.32
				c0.213-0.037,0.445-0.073,0.647-0.026c0.564,0.133,1.147,0.817,0.929,1.169c-0.352,0.563-0.05,0.837,0.319,1.084
				c1.397,0.939,2.352,2.543,4.197,2.819c0.277,0.042,0.407,0.315,0.59,0.507c0.973,1.02,1.835,0.92,2.256-0.368
				c0.26-0.797,0.685-0.875,1.38-0.822c0.876,0.067,1.418,0.644,2.028,1.144c0.986,0.807,1.693,0.781,2.678-0.057
				c0.373-0.318,0.771-0.638,0.87-1.133c0.161-0.799,0.79-0.861,1.395-0.981c0.502-0.101,0.825,0.071,0.642,0.622
				c-0.254,0.749,0.018,1.387,0.313,2.03c0.221,0.481,0.452,0.958,0.555,1.484c0.452,2.352,0.608,4.741,0.408,7.107
				c-0.2,2.407-0.421,4.827-0.909,7.206c-0.07,0.332-0.106,0.586-0.45,0.709c-1.164,0.408-2.313,1.27-3.502,0.023
				c-0.165-0.174-0.508-0.164-0.719-0.311c-0.637-0.445-1.107-0.211-1.624,0.252c-0.688,0.617-1.475,1.123-2.165,1.738
				c-0.519,0.465-1.022,0.54-1.69,0.375c-2.227-0.549-4.463-1.07-6.711-1.537c-1.547-0.321-2.853-1.15-4.233-1.82
				c-0.253-0.123-0.461-0.299-0.543-0.553c-0.345-1.07-1.244-1.234-2.175-1.424c-2.279-0.467-2.251-0.454-3.984,1.021
				c-1.241,1.057-1.86,2.161-1.368,3.905c0.57,2.025,0.432,2.065-0.952,3.63c-0.836,0.947-1.33,0.978-2.357,0.217
				c-1.407-1.04-2.68-2.304-4.467-2.732c-0.642-0.154-1.263-0.393-1.906-0.549c-0.537-0.129-0.829-0.422-0.938-0.967
				c-0.122-0.605-0.369-1.19-0.44-1.799c-0.101-0.871-0.589-1.334-1.362-1.578c-0.762-0.24-1.484-0.562-2.127-1.037
				c-0.697-0.517-1.499-0.793-2.338-0.832c-1.166-0.055-2.233-0.418-3.323-0.77c-1.722-0.559-3.19-1.467-4.356-2.857
				c-0.711-0.848-0.709-1.661,0.047-2.477c0.391-0.419,0.84-0.781,1.244-1.188c0.972-0.977,1.071-2.066,0.301-3.189
				c-0.149-0.217-0.303-0.437-0.482-0.629c-0.57-0.604-0.557-1.207-0.154-1.92c0.279-0.492,0.793-0.94,0.656-1.646
				c-0.2,0.006-0.335-0.015-0.457,0.019c-0.617,0.171-1.069,0.146-1.314-0.614c-0.232-0.725-1.018-0.93-1.596-1.314
				c-0.289-0.191-0.59-0.082-0.852,0.131c-1.289,1.051-2.699,1.174-4.225,0.588c-0.363-0.14-0.785-0.262-1.156-0.211
				c-0.443,0.06-0.793-0.039-1.106-0.289c-0.575-0.459-1.096-0.412-1.655,0.037c-0.234,0.188-0.557,0.262-0.832,0.398
				c-0.689,0.345-1.31,0.367-1.923-0.217c-0.556-0.527-1.26-0.799-2.04-0.838c-1.141-0.057-2.277-0.142-3.427-0.055
				c-1.315,0.1-2.632,0.137-3.958,0.029c-0.632-0.052-1.303-0.248-1.954,0.061c-1.233,0.585-2.526,1.049-3.707,1.748
				c-0.379,0.226-0.741,0.48-1.19,0.56c-1.084,0.192-2.164,0.443-3.256,0.567c-0.254,0.028-0.506,0.053-0.758,0.07l-54.89,34.459
				c-1.659,1.965-3.315,3.932-4.977,5.894C24.544,78.587,24.406,78.895,24.481,79.271z"/>
			<path fill="#39B54A" d="M179.05,76.17c0.157,0.758,0.391,1.367,1.174,1.9c0.882,0.604,1.103,1.874,1.292,2.955
				c0.35,1.994,0.728,3.992,0.684,6.034c-0.019,0.792,0.197,1.46,0.844,1.978c0.564,0.451,0.859,1.088,1.132,1.753
				c0.887,2.168,1.474,4.437,2.232,6.646c0.502,1.46,0.342,2.969,0.226,4.456c-0.205,2.642-0.269,5.276,0.046,7.911
				c0.041,0.33-0.12,0.747,0.374,0.869c0.489,0.121,0.812-0.173,0.908-0.57c0.713-2.984,2.796-5.182,4.445-7.6
				c1.706-2.506,2.853-5.248,4.095-7.97c2.162-4.743,3.07-9.835,4.19-14.862c0.428-1.924,0.487-3.93,0.711-5.897
				c0.136-1.181,0.165-2.384,0.413-3.538c0.009-0.042,0.011-0.082,0.02-0.124l-24.401,1.378
				C178.128,72.981,178.707,74.524,179.05,76.17z"/>
			<path fill="#39B54A" d="M-101.863,67.093c-0.082-0.332-0.08-0.72,0.004-1.05c0.364-1.439,0.041-2.799-0.386-4.159
				c-0.144-0.46-0.242-0.937-0.337-1.41c-0.13-0.649-0.218-1.302-0.741-1.798c-0.312-0.295-0.308-0.646-0.208-1.086
				c0.365-1.621,0.418-3.239-0.584-4.693c-0.461-0.67-0.594-1.342-0.324-2.119c0.141-0.41,0.281-0.861-0.024-1.271
				c-0.526-0.704-1.003-1.477-2.017-1.556c-0.695-0.054-1.074-0.454-1.336-1.093c-0.65-1.594-1.34-3.172-2.334-4.592
				c-0.242-0.346-0.335-0.723-0.287-1.127c0.186-1.582-0.094-3.163,0.006-4.749c0.035-0.569,0.229-1.185-0.02-1.909
				c-0.51,0.479-0.529,1.042-0.792,1.473c-0.24,0.395-0.505,0.416-0.882,0.324c-0.35-0.086-0.533-0.264-0.503-0.646
				c0.067-0.836-0.271-1.779,0.855-2.27c0.489-0.213,0.479-0.835,0.375-1.303c-0.092-0.416-0.644-0.534-0.865-0.384
				c-0.781,0.529-1.265,0.095-1.862-0.328c-0.77-0.544-1.469-0.285-1.691,0.604c-0.311,1.242-1.229,1.916-2.1,2.67
				c-0.355-0.353-0.277-0.682-0.299-0.98c-0.129-1.758-0.254-3.521-0.617-5.248c-0.555-2.634,0.246-5.055,1.099-7.466
				c0.705-1.991,1.556-3.927,2.275-5.915c0.538-1.485,0.993-3.018,1.765-4.406c1.184-2.135,1.785-4.393,1.646-6.842
				c-0.068-1.205,0.084-2.38,0.717-3.445c1.801-3.031,3.292-6.238,5.256-9.176c0.514-0.77,1.018-1.547,1.487-2.344
				c0.409-0.693,0.708-1.441,0.411-2.26c-0.163-0.451,0.049-0.754,0.261-1.096c0.627-1.012,1.229-2.04,1.86-3.049
				c3.7-5.896,7.051-12.03,11.808-17.201c0.029-0.031,0.051-0.072,0.083-0.102c0.277-0.26,0.407-0.685,0.873-0.785
				c-0.098,1.002-0.877,1.81-0.736,2.982c0.514-0.575,0.945-1.057,1.42-1.588c0.388,1.061,0.331,1.966-0.333,2.805
				c-0.606,0.768-0.911,1.596-0.472,2.564c0.22,0.482-0.073,0.827-0.332,1.193c-1.752,2.488-3.471,4.998-5.248,7.467
				c-1.172,1.629-2.163,3.326-2.529,5.325c-0.085,0.462-0.311,0.935,0.059,1.544c0.829-0.879,1.962-1.502,2.312-2.638
				c0.42-1.364,1.247-2.421,2.039-3.524c0.438-0.61,0.886-1.211,1.223-1.883c0.91-1.816,2.056-3.492,3.102-5.227
				c1.348-2.236,3.105-4.065,5.47-5.229c1.287-0.634,2.738-0.795,4.055-1.43c1.21-0.584,2.632-0.507,3.988-0.519
				c0.479-0.005,0.983-0.079,1.319-0.501c0.98-1.234,2.187-2.293,2.739-3.855c0.348-0.981,0.97-1.752,2.194-1.797
				c1.113-0.041,2.022-0.568,2.663-1.494c0.459-0.663,1.047-1.041,1.879-0.998c0.581,0.031,1.025-0.32,1.391-0.682
				c0.805-0.795,1.723-1.164,2.854-1.078c0.672,0.051,1.311-0.057,1.498-0.921c0.277,0.187,0.455,0.315,0.641,0.431
				c0.632,0.391,1.15,0.953,1.919,1.137c1.098,0.266,1.163,0.257,1.495-0.809c0.172-0.549,0.272-1.171,0.738-1.527
				c1.306-0.998,2.742-1.961,4.367-2.069c2.043-0.136,4.143-0.29,6.172,0.269c1.26,0.346,2.492,0.574,3.725-0.078
				c0.09-0.049,0.246,0.027,0.418,0.052c-0.025,0.237-0.031,0.454-0.076,0.663c-0.304,1.42-1.016,1.695-2.203,0.809
				c-0.555-0.414-1.122-0.479-1.741-0.271c-0.501,0.169-0.976,0.434-1.485,0.559c-0.791,0.193-1.131,0.621-0.947,1.426
				c0.066,0.283-0.15,0.618,0.197,0.896c0.73-0.041,1.406-0.377,2.099-0.643c0.869-0.333,1.69-0.422,2.467,0.24
				c0.378,0.324,0.858,0.6,1.333,0.316c0.77-0.459,1.519-0.321,2.298-0.119c0.252,0.064,0.611,0.158,0.7-0.145
				c0.253-0.852,0.828-0.543,1.385-0.492c0.863,0.076,1.801,0.274,2.15-0.934c0.06-0.203,0.394-0.33,0.602-0.488
				c0.174-0.134,0.375-0.242,0.52-0.401c0.189-0.21,0.223-0.487,0.105-0.742c-0.146-0.321-0.434-0.251-0.682-0.157
				c-0.619,0.23-1.287,0.393-1.833,0.743c-1.026,0.658-1.878,0.571-2.673-0.332c-0.058-0.065-0.131-0.119-0.205-0.167
				c-0.46-0.302-0.609-0.689-0.47-1.245c0.37-1.47,0.704-2.905,2.437-3.451c0.703-0.221,0.74-0.58,0.442-1.374
				c-0.06-0.158-0.202-0.297-0.065-0.548c0.269,0.046,0.569,0.067,0.852,0.151c0.701,0.205,1.32-0.066,1.906-0.355
				c0.736-0.362,0.781-1.484,0.049-1.77c-0.964-0.377-1.854-1.051-2.998-0.875c-0.251,0.039-0.608,0.07-0.869-0.395
				c0.813-0.258,1.455-1.018,2.314-0.789c1.024,0.272,1.904,0.091,2.793-0.352c0.607-0.303,1.148-0.249,1.733,0.141
				c0.808,0.538,1.616,1.069,2.38,1.668c2.201,1.727,4.627,2.688,7.482,2.188c0.346-0.061,0.701-0.091,1.052-0.098
				c0.6-0.012,1.181,0.064,1.845,0.492c-1.943,0.961-3.762,1.727-5.621,2.395c-0.677,0.243-1.295,0.545-1.791,1.081
				c-0.86,0.933-1.889,1.572-3.163,1.791c-0.344,0.059-0.683,0.192-1.001,0.339c-0.43,0.199-0.566,0.74-0.189,0.926
				c1.236,0.605,2.047,1.824,3.377,2.275c0.492,0.167,0.977,0.363,1.162,0.959c-0.529,0.084-1.011,0.121-1.494,0.053
				c-0.355-0.05-0.602,0.067-0.699,0.434c-0.115,0.436,0.215,0.487,0.495,0.623c0.8,0.387,1.558-0.031,2.333-0.082
				c0.138-0.115,0.354-0.195,0.416-0.021c0.08,0.223-0.188,0.174-0.319,0.221c0.001,0,0.001,0,0.001,0
				c-0.107,0.139-0.205,0.283-0.324,0.412c-0.195,0.212-0.367,0.561-0.04,0.625c0.482,0.096,0.313,0.979,0.921,0.715
				c1.305-0.566,2.843-0.822,3.45-2.377c-0.099-0.4-0.696-0.234-0.728-0.682c0.143-0.275,0.456-0.234,0.666-0.379
				c0.453-0.311,1.088-0.487,0.615-1.289c-0.193-0.327,0.179-0.613,0.457-0.674c0.684-0.146,0.61-0.6,0.588-1.102
				c-0.037-0.791-0.788-0.734-1.207-1.064c-0.273-0.212-0.66-0.313-0.557-0.779c0.09-0.414,0.043-0.851,0.566-1.098
				c1.554-0.731,2.783-1.976,4.274-2.699c0.03-0.559-0.585-0.628-0.586-1.105c0.507-0.391,1.078-0.477,1.71-0.313
				c0.396,0.102,0.84,0.169,1.049-0.283c0.385-0.825,1.07-1.251,1.863-1.58c0.435-0.18,0.566-0.487,0.418-0.958
				c-0.184-0.587-0.432-1.162-0.427-1.795c0.009-1.147,0.215-1.316,1.393-1.164c0.067,0.008,0.144-0.058,0.235-0.097
				c0.068-0.554-0.291-0.993-0.432-1.493c-0.093-0.338-0.223-0.65-0.209-1.023c0.051-1.396,0.407-2.678,1.18-3.862
				c0.264-0.405,0.512-0.599,0.949-0.427c0.682,0.268,1.064-0.135,1.463-0.576c1.447-1.604,2.91-3.194,4.351-4.805
				c0.323-0.361,0.794-0.635,0.977-1.293c-1.265,0.261-2.471,0.182-3.468,0.75c-1.247,0.71-2.41,0.619-3.748,0.033
				c0.687-0.629,1.12-1.391,1.623-2.103c0.392-0.554,0.883-0.955,1.547-1.173c0.879-0.29,1.734-0.65,2.602-0.972
				c0.479-0.177,0.766-0.433,0.504-0.987c-0.195-0.412-0.103-0.744,0.261-1.045c0.232-0.191,0.433-0.445,0.585-0.708
				c0.461-0.79,0.413-1.491-0.102-2.083c-0.607-0.701-1.373-0.928-2.195-0.633c-1.079,0.387-2.153,0.787-3.232,1.175
				c-0.504,0.181-0.994,0.382-1.338,0.815c-0.614,0.77-1.439,1.035-2.385,1.229c-1.677,0.342-3.578,0.246-4.68,1.982
				c-0.043,0.068-0.145,0.098-0.219,0.145c-1.045,0.662-2.084,1.328-3.135,1.98c-0.259,0.162-0.537,0.357-0.825,0.396
				c-1.886,0.243-3.675,0.916-5.56,1.179c-1.759,0.243-3.402,0.855-4.881,1.909c-1.184,0.845-2.445,1.58-3.688,2.34
				c-0.411,0.251-0.868,0.426-1.306,0.634c-0.336,0.159-0.668,0.259-0.952-0.096c-0.308-0.385,0.053-0.645,0.177-0.951
				c0.158-0.394,0.498-0.602,0.814-0.843c0.77-0.588,1.574-1.142,2.212-1.881c0.354-0.412,0.774-0.702,1.257-0.939
				c1.425-0.7,2.848-1.405,4.254-2.144c0.617-0.324,1.268-0.66,1.094-1.584c-0.06-0.313,0.227-0.557,0.404-0.808
				c0.564-0.801,1.266-1.466,2.022-2.08c0.796-0.644,1.623-1.387,1.917-2.313c0.285-0.9,0.797-1.17,1.542-1.368
				c1.158-0.308,2.247-0.755,3.183-1.535c0.48-0.402,1.053-0.614,1.675-0.737c2.769-0.549,5.536-1.091,8.292-1.699
				c1.678-0.371,3.408-0.273,5.084-0.691c0.976-0.243,1.916,0.137,3.047,0.621c-1.299,0.432-2.352,0.782-3.428,1.14
				c0.362,0.485,0.861,0.611,1.302,0.767c0.583,0.205,1.215,0.146,1.651,0.797c0.203,0.303,0.84,0.332,0.985-0.335
				c0.088-0.401,0.26-0.714,0.622-0.963c1.887-1.296,3.784-2.474,6.184-1.286c0.115,0.057,0.258,0.082,0.387,0.084
				c0.875,0.012,1.85,0.208,2.566-0.334c1.055-0.798,2.275-0.887,3.467-1.154c0.645-0.145,1.296-0.255,1.941-0.4
				c0.508-0.115,0.971-0.322,1.307-0.744c-0.379-0.572-0.776-0.895-1.461-0.798c-0.379,0.054-0.783-0.063-1.177-0.104
				c-0.135,0.117-0.368,0.179-0.398,0.018c-0.042-0.221,0.21-0.104,0.338-0.128v-0.001c0.831-0.514,1.683-0.957,2.572-1.299
				c0.297-0.113,0.597-0.215,0.903-0.305c0.732-0.215,1.494-0.357,2.292-0.412c1.601-0.109,3.187-0.434,4.929-0.686
				c-0.313,0.7-0.801,0.803-1.26,0.813c-1.572,0.033-2.975,0.733-4.461,1.093c-1.029,0.249-1.338,0.823-1.151,2.017
				c0.134,0.851,0.821,0.592,1.36,0.631c0.115,0.008,0.223,0.104,0.326,0.156c-0.002,0.815-0.602,1.197-1.129,1.557
				c-0.883,0.602-1.725,1.217-2.264,2.17c-0.279,0.49-0.73,0.584-1.26,0.473c-0.738-0.154-1.497-0.196-2.234-0.074
				c-1.217,0.199-2.426,0.441-3.67,0.383c-0.33-0.016-0.629,0.072-0.817,0.345c-0.426,0.614-0.876,0.639-1.364,0.093
				c-0.646-0.725-1.402-0.774-2.279-0.473c-0.623,0.213-1.287,0.305-1.925,0.481c-0.262,0.073-0.646,0.009-0.704,0.459
				c0.105,0.077,0.201,0.163,0.312,0.226c1.196,0.662,1.199,0.662,0.382,1.674c-0.276,0.345-0.559,0.686-0.844,1.021
				c-1.021,1.204-0.969,2.609-0.931,3.984c2.056,0.252,2.665-1.473,3.776-2.455c0.673,1.163-0.143,2.014-0.533,2.89
				c0.625,0.355,1.059,0.152,1.41-0.224c0.572-0.616,1.311-0.889,2.093-1.049c1.116-0.227,1.867-0.924,2.497-1.809
				c0.307-0.43,0.674-0.824,0.938-1.277c0.412-0.707,0.994-1.099,1.798-1.18c0.417-0.043,1.023-0.46,1.206-0.067
				c0.297,0.637-0.502,0.712-0.866,0.894c-1.099,0.551-1.657,1.362-1.602,2.604c0.126,0.028,0.21,0.07,0.292,0.063
				c2.088-0.159,4.016-0.946,6.002-1.509c0.473-0.134,0.547-0.524,0.639-0.914c0.133-0.557,0.223-1.128,0.607-1.591
				c0.381-0.458,0.527-0.974,0.531-1.586c0.006-0.751,0.423-1.104,1.178-1.114c0.348-0.005,0.703,0.068,1.043,0.156
				c0.616,0.158,1.063-0.043,1.561-0.437c1.383-1.089,2.448-2.421,3.193-3.987c0.352-0.74,0.814-1.152,1.461-1.285l-4.424-7.145
				c-1.18,0.119-2.355,0.278-3.523,0.525c-1.076,0.229-2.17,0.388-3.262,0.515c-4.117,0.481-8.224,1.053-12.273,1.927
				C-4.4-92.703-15.632-89.941-26.253-85.031c-9.431,4.361-18.626,9.104-27.243,14.924c-16.434,11.1-30.457,24.686-41.998,40.814
				c-6.873,9.603-12.627,19.846-17.291,30.689c-1.184,2.75-2.329,5.525-3.235,8.387c-0.967,2.652-1.452,5.438-2.239,8.141
				c-0.811,2.785-1.541,5.616-1.834,8.525c-0.023,0.22-0.053,0.441-0.115,0.652c-0.589,1.983-0.571,3.988-0.305,6.021
				c0.121,0.926,0.211,1.85,0.639,2.681c0.518,1.007,0.34,1.956-0.084,2.919c-0.301,0.686-0.586,1.377-0.872,2.068
				c-0.476,1.148-0.747,2.334-0.676,3.588c0.1,1.765-0.577,3.367-1.135,4.976c-0.416,1.2-0.915,2.388-1.64,3.453
				c-0.49,0.724-0.595,1.572-0.668,2.399c-0.288,3.242-0.549,6.488-0.768,9.736c-0.047,0.668-0.191,1.305-0.291,1.957
				c-0.027,0.306-0.082,0.611-0.078,0.916c0.05,5.473,0.402,10.926,0.984,16.364l25.646-11.19
				C-100.765,71.244-101.352,69.18-101.863,67.093z"/>
			<path fill="#2E3192" d="M100.736,152.563c-0.713-0.309-1.328-0.691-1.755-1.479c-0.322-0.591-1.246-0.567-1.944-0.526
				c-1.539,0.091-3.074,0.249-4.61,0.368c-0.746,0.059-1.5,0.169-2.239,0.115c-1.295-0.096-1.923-0.949-1.77-2.243
				c0.244-2.077-0.667-3.409-2.545-4.25c-1.465-0.655-2.996-0.692-4.512-0.899c-1.525-0.209-3.068-0.176-4.609-0.043
				c-1.068,0.092-2.103,0.252-3.037,0.803c-0.525,0.311-1.103,0.346-1.666,0.279c-0.996-0.117-1.928,0.035-2.838,0.434
				c-2.019,0.886-4.214,0.893-6.338,1.244c-0.488,0.081-0.982-0.07-1.384-0.357c-0.925-0.662-1.989-0.928-3.067-1.174
				c-1.505-0.346-3.014-0.682-4.515-1.049c-1.104-0.269-2.197-0.031-3.288,0.041c-2.285,0.154-4.566,0.321-6.861,0.286
				c-0.726-0.011-1.369-0.159-2-0.55c-1.088-0.676-2.117-1.432-3.174-2.15c-0.963-0.656-1.792-1.381-2.264-2.5
				c-0.515-1.22-1.611-1.971-2.58-2.793c-1.406-1.193-2.988-2.183-4.01-3.797c-0.245-0.385-0.729-0.627-1.121-0.908
				c-0.619-0.439-1.123-0.985-1.588-1.578c-0.195-0.25-0.422-0.412,0.015-0.697c0.247-0.162-0.053-0.478-0.112-0.723
				c-0.235-0.977-0.66-1.935-0.322-2.974c-0.648-2.081-1.026-4.28-2.492-6.013c-0.626-0.739-1.332-1.412-2.018-2.098
				c-0.38-0.379-0.644-0.836-0.957-1.262c-0.424-0.577-0.604-1.178-0.326-1.856c0.367-0.905,0.012-1.497-0.764-1.962
				c-1.274-0.764-1.979-1.918-2.43-3.324c-0.359-1.121-0.105-2.017,0.641-2.781c0.568-0.582,0.551-1.079,0.229-1.769
				c-0.577-1.235-1.052-2.518-1.572-3.789c1.962-0.675,3.275-2.049,4.271-3.704c1.523-2.533,2.727-5.23,3.76-8
				c0.446-1.194,1.012-2.371,1.259-3.608c0.265-1.34,0.718-2.763-0.194-4.091c-0.167-0.244-0.246-0.566-0.301-0.865
				c-0.211-1.139-0.201-1.14-1.226-1.049c-0.075-0.377,0.063-0.685,0.301-0.966c1.661-1.962,3.317-3.929,4.977-5.894L20.063,78.5
				L53.292-9.186l7.471-32.79L44.44-68.339c-1.263,0.157-2.501,0.187-3.754-0.151c-1.226-0.328-2.456-0.639-3.768-0.365
				c-0.414,0.087-0.759,0.12-0.989,0.492c-0.047,0.076-0.097,0.148-0.146,0.222c-0.977,1.458-2.357,2.184-4.098,2.267
				c-0.439,0.021-0.877,0.111-1.315,0.111c-0.839,0.001-1.522,0.301-2.157,0.85c-0.633,0.547-1.355,0.975-2.152,1.275
				c-0.951,0.359-1.846,0.805-2.578,1.563c-0.518,0.537-2.421,0.304-2.885-0.282c-0.23-0.292-0.304-0.629-0.216-0.998
				c0.081-0.344,0.126-0.699,0.237-1.032c0.226-0.672,0.055-0.979-0.671-1.233c-1.205-0.424-1.313-0.842-1.063-2.127
				c0.164-0.846,0.514-1.575,1.013-2.268c1.292-1.791,2.518-3.636,4.59-4.656c0.192-0.094,0.476-0.285,0.344-0.483
				c-0.55-0.828,0.231-0.97,0.636-1.245c0.654-0.443,1.32-0.895,2.138-1.002c0.276-0.037,0.504-0.163,0.669-0.387
				c0.981-1.318,2.452-1.412,3.824-1.219c1.293,0.183,2.439-0.045,3.811-0.451c-0.877-0.501-1.8-0.381-2.531-0.793
				c0.521-1.286,1.006-1.581,2.277-1.287c0.223,0.051,0.445,0.068,0.669,0.09l-5.897-9.525c-0.646,0.133-1.109,0.545-1.461,1.285
				c-0.745,1.566-1.811,2.898-3.193,3.987c-0.498,0.394-0.944,0.595-1.561,0.437c-0.34-0.088-0.695-0.161-1.043-0.156
				c-0.755,0.01-1.172,0.363-1.178,1.114c-0.004,0.612-0.15,1.128-0.531,1.586c-0.385,0.463-0.475,1.034-0.607,1.591
				c-0.092,0.39-0.166,0.78-0.639,0.914c-1.986,0.563-3.914,1.35-6.002,1.509c-0.082,0.007-0.166-0.035-0.292-0.063
				c-0.056-1.241,0.503-2.053,1.602-2.604c0.364-0.182,1.163-0.257,0.866-0.894c-0.183-0.393-0.789,0.024-1.206,0.067
				c-0.804,0.081-1.386,0.473-1.798,1.18c-0.264,0.453-0.631,0.848-0.938,1.277c-0.63,0.885-1.381,1.582-2.497,1.809
				c-0.782,0.16-1.521,0.433-2.093,1.049c-0.352,0.376-0.785,0.579-1.41,0.224c0.391-0.876,1.206-1.727,0.533-2.89
				c-1.111,0.982-1.721,2.707-3.776,2.455c-0.038-1.375-0.091-2.78,0.931-3.984c0.285-0.336,0.567-0.677,0.844-1.021
				c0.817-1.012,0.814-1.012-0.382-1.674c-0.11-0.063-0.206-0.148-0.312-0.226c0.058-0.45,0.442-0.386,0.704-0.459
				c0.638-0.177,1.302-0.269,1.925-0.481c0.877-0.302,1.634-0.252,2.279,0.473c0.488,0.546,0.938,0.521,1.364-0.093
				c0.188-0.272,0.487-0.36,0.817-0.345c1.244,0.059,2.453-0.184,3.67-0.383c0.737-0.122,1.496-0.08,2.234,0.074
				c0.529,0.111,0.98,0.018,1.26-0.473c0.539-0.953,1.381-1.568,2.264-2.17c0.527-0.359,1.127-0.741,1.129-1.557
				c-0.104-0.053-0.211-0.148-0.326-0.156c-0.539-0.039-1.227,0.22-1.36-0.631c-0.187-1.193,0.122-1.768,1.151-2.017
				c1.486-0.359,2.889-1.06,4.461-1.093c0.459-0.01,0.947-0.112,1.26-0.813c-1.742,0.252-3.328,0.576-4.929,0.686
				c-0.798,0.055-1.56,0.197-2.292,0.412c-0.307,0.09-0.606,0.191-0.903,0.305c-0.89,0.342-1.741,0.785-2.572,1.3l0.061,0.11
				c0.394,0.041,0.798,0.158,1.177,0.104c0.685-0.097,1.082,0.226,1.461,0.798c-0.336,0.422-0.799,0.629-1.307,0.744
				c-0.646,0.146-1.297,0.256-1.941,0.4c-1.191,0.268-2.412,0.356-3.467,1.154c-0.717,0.542-1.691,0.346-2.566,0.334
				c-0.129-0.002-0.271-0.027-0.387-0.084c-2.399-1.188-4.297-0.01-6.184,1.286c-0.362,0.249-0.534,0.562-0.622,0.963
				c-0.146,0.667-0.782,0.638-0.985,0.335c-0.437-0.651-1.068-0.592-1.651-0.797c-0.44-0.155-0.939-0.281-1.302-0.767
				c1.076-0.357,2.129-0.708,3.428-1.14c-1.131-0.484-2.071-0.864-3.047-0.621c-1.676,0.418-3.406,0.32-5.084,0.691
				c-2.756,0.608-5.523,1.15-8.292,1.699c-0.622,0.123-1.194,0.335-1.675,0.737c-0.936,0.78-2.024,1.228-3.183,1.535
				c-0.745,0.198-1.257,0.468-1.542,1.368c-0.294,0.927-1.121,1.67-1.917,2.313c-0.757,0.614-1.458,1.279-2.022,2.08
				c-0.178,0.251-0.464,0.495-0.404,0.808c0.174,0.924-0.477,1.26-1.094,1.584c-1.406,0.738-2.829,1.443-4.254,2.144
				c-0.482,0.237-0.902,0.527-1.257,0.939c-0.638,0.739-1.442,1.293-2.212,1.881c-0.316,0.241-0.656,0.449-0.814,0.843
				c-0.124,0.307-0.484,0.566-0.177,0.951c0.284,0.354,0.616,0.255,0.952,0.096c0.438-0.208,0.895-0.383,1.306-0.634
				c1.243-0.76,2.505-1.495,3.688-2.34c1.479-1.054,3.122-1.666,4.881-1.909c1.885-0.263,3.674-0.936,5.56-1.179
				c0.288-0.038,0.566-0.233,0.825-0.396c1.051-0.652,2.09-1.318,3.135-1.98c0.074-0.047,0.176-0.076,0.219-0.145
				c1.102-1.736,3.003-1.641,4.68-1.982c0.945-0.193,1.771-0.459,2.385-1.229c0.344-0.434,0.834-0.635,1.338-0.815
				c1.079-0.388,2.153-0.788,3.232-1.175c0.822-0.295,1.588-0.068,2.195,0.633c0.515,0.592,0.563,1.293,0.102,2.083
				c-0.152,0.263-0.353,0.517-0.585,0.708c-0.363,0.301-0.456,0.633-0.261,1.045c0.262,0.555-0.025,0.811-0.504,0.987
				c-0.867,0.321-1.723,0.682-2.602,0.972c-0.664,0.218-1.155,0.619-1.547,1.173c-0.503,0.712-0.937,1.474-1.623,2.103
				c1.338,0.586,2.501,0.677,3.748-0.033c0.997-0.568,2.203-0.489,3.468-0.75c-0.183,0.658-0.653,0.932-0.977,1.293
				c-1.44,1.61-2.903,3.201-4.351,4.805c-0.398,0.441-0.781,0.844-1.463,0.576c-0.438-0.172-0.686,0.021-0.949,0.427
				c-0.772,1.185-1.129,2.466-1.18,3.862c-0.014,0.373,0.116,0.686,0.209,1.023c0.141,0.5,0.5,0.939,0.432,1.493
				c-0.092,0.039-0.168,0.104-0.235,0.097c-1.178-0.152-1.384,0.017-1.393,1.164c-0.005,0.633,0.243,1.208,0.427,1.795
				c0.148,0.471,0.017,0.778-0.418,0.958c-0.793,0.329-1.479,0.755-1.863,1.58c-0.209,0.452-0.653,0.385-1.049,0.283
				c-0.632-0.163-1.203-0.077-1.71,0.313c0.001,0.478,0.616,0.547,0.586,1.105c-1.491,0.724-2.721,1.968-4.274,2.699
				c-0.523,0.247-0.477,0.684-0.566,1.098c-0.104,0.466,0.283,0.567,0.557,0.779c0.419,0.33,1.17,0.273,1.207,1.064
				c0.022,0.502,0.096,0.955-0.588,1.102c-0.278,0.061-0.65,0.347-0.457,0.674c0.473,0.802-0.162,0.979-0.615,1.289
				c-0.21,0.145-0.523,0.104-0.666,0.379c0.031,0.447,0.629,0.281,0.728,0.682c-0.607,1.555-2.146,1.811-3.45,2.377
				c-0.607,0.264-0.438-0.619-0.921-0.715c-0.327-0.064-0.155-0.413,0.04-0.625c0.119-0.129,0.217-0.273,0.323-0.412
				c-0.03-0.066-0.063-0.133-0.097-0.199c-0.775,0.051-1.533,0.469-2.333,0.082c-0.28-0.136-0.61-0.188-0.495-0.623
				c0.098-0.366,0.344-0.483,0.699-0.434c0.483,0.068,0.965,0.031,1.494-0.053c-0.186-0.596-0.67-0.792-1.162-0.959
				c-1.33-0.451-2.141-1.67-3.377-2.275c-0.377-0.186-0.24-0.727,0.189-0.926c0.318-0.146,0.657-0.28,1.001-0.339
				c1.274-0.219,2.303-0.858,3.163-1.791c0.496-0.536,1.114-0.838,1.791-1.081c1.859-0.668,3.678-1.434,5.621-2.395
				c-0.664-0.428-1.245-0.504-1.845-0.492c-0.351,0.007-0.706,0.037-1.052,0.098c-2.855,0.5-5.281-0.461-7.482-2.188
				c-0.764-0.599-1.572-1.13-2.38-1.668c-0.585-0.39-1.126-0.443-1.733-0.141c-0.889,0.442-1.769,0.624-2.793,0.352
				c-0.859-0.229-1.502,0.531-2.314,0.789c0.261,0.465,0.618,0.434,0.869,0.395c1.144-0.176,2.034,0.498,2.998,0.875
				c0.732,0.285,0.688,1.407-0.049,1.77c-0.586,0.289-1.205,0.561-1.906,0.355c-0.282-0.084-0.583-0.105-0.852-0.151
				c-0.137,0.251,0.006,0.39,0.065,0.548c0.298,0.794,0.261,1.153-0.442,1.374c-1.732,0.546-2.066,1.981-2.437,3.451
				c-0.14,0.556,0.01,0.943,0.47,1.245c0.074,0.048,0.147,0.102,0.205,0.167c0.795,0.903,1.646,0.99,2.673,0.332
				c0.546-0.351,1.214-0.513,1.833-0.743c0.248-0.094,0.535-0.164,0.682,0.157c0.117,0.255,0.084,0.532-0.105,0.742
				c-0.145,0.159-0.346,0.268-0.52,0.401c-0.208,0.158-0.542,0.285-0.602,0.488c-0.35,1.208-1.287,1.01-2.15,0.934
				c-0.557-0.051-1.132-0.359-1.385,0.492c-0.089,0.303-0.448,0.209-0.7,0.145c-0.779-0.202-1.528-0.34-2.298,0.119
				c-0.475,0.283-0.955,0.008-1.333-0.316c-0.776-0.662-1.598-0.573-2.467-0.24c-0.692,0.266-1.368,0.602-2.099,0.643
				c-0.348-0.278-0.131-0.613-0.197-0.896c-0.184-0.805,0.156-1.232,0.947-1.426c0.51-0.125,0.984-0.39,1.485-0.559
				c0.619-0.207,1.187-0.143,1.741,0.271c1.188,0.887,1.899,0.611,2.203-0.809c0.045-0.209,0.051-0.426,0.076-0.663
				c-0.172-0.024-0.328-0.101-0.418-0.052c-1.232,0.652-2.465,0.424-3.725,0.078c-2.029-0.559-4.129-0.404-6.172-0.269
				c-1.625,0.108-3.062,1.071-4.367,2.069c-0.466,0.356-0.566,0.979-0.738,1.527c-0.332,1.065-0.397,1.074-1.495,0.809
				c-0.769-0.184-1.287-0.746-1.919-1.137c-0.186-0.115-0.363-0.244-0.641-0.431c-0.188,0.864-0.826,0.972-1.498,0.921
				c-1.131-0.086-2.049,0.283-2.854,1.078c-0.365,0.361-0.81,0.713-1.391,0.682c-0.832-0.043-1.42,0.335-1.879,0.998
				c-0.641,0.926-1.55,1.453-2.663,1.494c-1.225,0.045-1.847,0.815-2.194,1.797c-0.553,1.563-1.759,2.621-2.739,3.855
				c-0.336,0.422-0.84,0.496-1.319,0.501c-1.356,0.012-2.778-0.065-3.988,0.519c-1.316,0.635-2.768,0.796-4.055,1.43
				c-2.364,1.163-4.122,2.992-5.47,5.229c-1.046,1.734-2.191,3.41-3.102,5.227c-0.337,0.672-0.785,1.272-1.223,1.883
				c-0.792,1.104-1.619,2.16-2.039,3.524c-0.35,1.136-1.482,1.759-2.312,2.638c-0.369-0.609-0.144-1.082-0.059-1.544
				c0.366-1.999,1.357-3.696,2.529-5.325c1.777-2.469,3.496-4.979,5.248-7.467c0.259-0.366,0.552-0.711,0.332-1.193
				c-0.439-0.969-0.135-1.797,0.472-2.564c0.664-0.839,0.721-1.744,0.333-2.805c-0.475,0.531-0.906,1.013-1.42,1.588
				c-0.141-1.173,0.639-1.98,0.736-2.982c-0.466,0.101-0.596,0.525-0.873,0.785c-0.032,0.029-0.054,0.07-0.083,0.102
				c-4.757,5.171-8.107,11.306-11.808,17.201c-0.632,1.009-1.233,2.037-1.86,3.049c-0.212,0.342-0.424,0.645-0.261,1.096
				c0.297,0.818-0.002,1.566-0.411,2.26c-0.47,0.797-0.974,1.574-1.487,2.344c-1.964,2.938-3.455,6.145-5.256,9.176
				c-0.633,1.065-0.785,2.24-0.717,3.445c0.139,2.449-0.463,4.707-1.646,6.842c-0.771,1.389-1.227,2.921-1.765,4.406
				c-0.72,1.988-1.57,3.924-2.275,5.915c-0.853,2.411-1.653,4.832-1.099,7.466c0.363,1.727,0.488,3.49,0.617,5.248
				c0.021,0.299-0.057,0.628,0.299,0.98c0.87-0.754,1.789-1.428,2.1-2.67c0.223-0.89,0.922-1.148,1.691-0.604
				c0.598,0.423,1.081,0.857,1.862,0.328c0.222-0.15,0.773-0.032,0.865,0.384c0.104,0.468,0.114,1.09-0.375,1.303
				c-1.126,0.49-0.788,1.434-0.855,2.27c-0.03,0.383,0.153,0.561,0.503,0.646c0.377,0.092,0.642,0.07,0.882-0.324
				c0.263-0.431,0.282-0.994,0.792-1.473c0.248,0.725,0.055,1.34,0.02,1.909c-0.1,1.586,0.18,3.167-0.006,4.749
				c-0.048,0.404,0.045,0.781,0.287,1.127c0.994,1.42,1.684,2.998,2.334,4.592c0.262,0.639,0.641,1.039,1.336,1.093
				c1.014,0.079,1.49,0.852,2.017,1.556c0.306,0.41,0.165,0.861,0.024,1.271c-0.27,0.777-0.137,1.449,0.324,2.119
				c1.002,1.454,0.949,3.072,0.584,4.693c-0.1,0.439-0.104,0.791,0.208,1.086c0.523,0.496,0.611,1.148,0.741,1.798
				c0.095,0.474,0.193,0.95,0.337,1.41c0.427,1.36,0.75,2.72,0.386,4.159c-0.084,0.33-0.086,0.718-0.004,1.05
				c0.512,2.087,1.099,4.151,2.408,5.897L-85.5,66.9L-46,53.046l26.5,15.252l-19,32.202l-9.33,35l-8.778,6.861
				c0.166,1.33,0.362,2.66,0.382,3.992c0.016,1.131-0.305,2.268-0.801,3.318c-0.057,0.119-0.102,0.27-0.199,0.34
				c-1.604,1.16-3.012,2.693-5.17,2.828c-0.645,0.041-1.098,0.371-1.383,0.876c-0.557,0.983-1.603,1.192-2.479,1.657
				c-0.636,0.336-0.85-0.475-1.475-0.689c-0.436,1.398-0.748,2.854-0.494,4.227c0.394,2.145-0.172,4.105-0.617,6.117
				c-0.087,0.391-0.229,0.752-0.415,1.109c-0.181,0.347-0.41,0.764-0.363,1.115c0.188,1.389-0.66,2.089-1.647,2.732
				c-0.302,0.195-0.606,0.42-0.699,0.77c-0.166,0.629-0.527,0.688-1.096,0.563c-0.996-0.219-1.931-0.472-2.752-1.172
				c-0.834-0.713-1.838-1.18-2.917-1.498c-0.175-0.052-0.347-0.113-0.519-0.176l-4.32,8.064
				c10.979,12.143,23.469,22.478,37.563,30.891c12.184,7.273,25.09,12.869,38.734,16.778c9.4,2.694,18.955,4.601,28.679,5.62
				c9.05,0.952,18.123,1.148,27.208,0.578c4.857-0.305,9.682-0.826,14.472-1.555L40.384,225l-6.776-24.05l44.395-31.45l17.73-4.272
				c0.783-1.015,1.457-2.114,2.236-3.133c0.081-0.104,0.193-0.205,0.225-0.325c0.656-2.564,2.217-4.791,2.759-7.398
				c0.063-0.303,0.144-0.603,0.235-0.896C101.328,153.02,101.211,152.766,100.736,152.563z M-104.691,2.479
				c0.553-0.276,0.553-0.739,0.661-1.29c0.348-1.773,0.506-3.575,0.841-5.348c0.188-0.994,0.484-1.966,0.434-3
				c-0.02-0.43,0.051-0.885,0.316-1.267c0.05-0.071,0.106-0.14,0.154-0.214c0.252-0.395,0.063-0.773-0.063-1.14
				c-0.093-0.267-0.125-0.255-1.05-0.147c-0.069-0.523,0.216-0.771,0.454-1.016c0.262-0.268,0.466-0.77,0.921-0.613
				c0.452,0.156,0.832,0.508,0.942,1.031c0.146,0.691,0.227,1.377,0.106,2.096c-0.657,3.947-1.394,7.885-1.442,11.906
				c-0.01,0.672-0.201,1.307-0.368,1.943c-0.174,0.661-0.345,0.673-0.884,0.199c-0.732-0.644-0.973-1.554-1.351-2.392
				C-105.184,2.863-104.992,2.63-104.691,2.479z M-101.484,19.371c0.162-0.898-0.155-1.563-0.484-2.225
				c-0.173-0.35-0.302-0.727-0.863-0.584c-0.569,0.146-0.368-0.622-0.764-0.734c-0.256,0.057-0.339,0.413-0.65,0.398
				c-0.054-0.063-0.137-0.117-0.16-0.191c-0.369-1.129-0.736-2.26-1.092-3.393c-0.092-0.293-0.193-0.594-0.208-0.896
				c-0.021-0.436,0.124-0.709,0.675-0.751c1.417-0.107,1.418-0.14,1.646-1.553c0.057-0.346,0.047-0.705,0.129-1.044
				c0.052-0.213,0.26-0.352,0.494-0.386c0.283-0.042,0.391,0.153,0.449,0.373c0.385,1.413,1.09,2.688,1.73,3.987
				c0.214,0.434,0.217,0.846,0.077,1.275c-0.444,1.373-0.522,2.76-0.123,4.15C-100.411,18.554-100.802,18.938-101.484,19.371z
				 M-99.367,23.182c-0.827-0.24-1.508-1.904-1.079-2.64c0.284-0.489,1.284-0.5,1.54,0.024c0.248,0.506,0.424,1.054,0.57,1.6
				C-98.107,23.028-98.527,23.426-99.367,23.182z"/>
		</g>
		<path fill="#2E3192" d="M-81.304,167.62c-0.87-0.351-1.765-0.562-2.711-0.431c-0.635,0.089-0.884,0.482-0.519,0.986
			c0.445,0.613,0.691,1.332,1.128,1.939c0.382,0.53,0.505,1.109,0.419,1.776c-1.153-0.098-1.618,0.83-2.16,1.546
			c-0.281,0.373-0.499,0.41-0.862,0.316c0.188,0.241,0.365,0.496,0.568,0.727c0.611,0.699,1.247,1.368,1.868,2.055l4.32-8.064
			C-79.945,168.219-80.617,167.896-81.304,167.62z"/>
	</g>
</g>
</svg>
