<?xml version="1.0" encoding="utf-8"?>
<!-- Generator: Adobe Illustrator 15.1.0, SVG Export Plug-In . SVG Version: 6.00 Build 0)  -->
<!DOCTYPE svg PUBLIC "-//W3C//DTD SVG 1.1//EN" "http://www.w3.org/Graphics/SVG/1.1/DTD/svg11.dtd">
<svg version="1.1" id="Layer_1" xmlns="http://www.w3.org/2000/svg" xmlns:xlink="http://www.w3.org/1999/xlink" x="0px" y="0px"
	 width="792px" height="612px" viewBox="0 0 792 612" enable-background="new 0 0 792 612" xml:space="preserve">
<g id="Barrel">
	<g>
		<path fill="#111111" d="M-84.68-13.038c3.226,1.774,7.472,2.528,11.5,3.5c-3.678,1.488-8.587,1.746-9.5,6
			c8.137,7.304,20.156,11.051,32,15.5c11.264,4.23,23.967,10.156,37,10.5c3.346,0.088,11.568-2.134,11.5,0
			c-9.896,4.937-21.832,7.834-35.5,9c-0.144-1.165,8.563-0.418,7-3c-19.964,0.038-36.834-5.753-52-12
			c0.236-1.57-1.346-1.321-1.5-2.5c-2.738,0.938-3.061-1.174-3.5-1.5c-0.434-0.323-1.526,0.274-2,0c-1.944-1.129-7.441-6.512-5-5.5
			c-1.82,0.002-0.617-2.533-2-0.5c-5.493-8.26,7.311-14.217,13.5-18.5C-84.039-12.01-84.46-12.421-84.68-13.038z"/>
		<path display="none" fill="#FFFFFF" d="M-64.512-82.975c-0.064,0.896,0.611,1.055,0.5,2c-0.943-0.557-2.298-0.703-2.5-2
			C-65.846-82.975-65.179-82.975-64.512-82.975z"/>
		<path display="none" fill="#DCCD9C" d="M-71.512-81.475c-0.5,0-1,0-1.5,0c3.219,1.447,7.754,1.578,12,2
			c-0.423,1.078-2.578,0.422-3,1.5c-4.315-1.685-11.843-0.158-14.5-3.5C-76.979-81.961-72.939-82.544-71.512-81.475z"/>
		<path display="none" fill="#DCCD9C" d="M-48.512-77.975c4.274,1.725,9.9,2.099,15.5,2.5c-5.059,2.099-15.792,0.354-20.5-2.5
			C-51.767-77.595-49.736-79.488-48.512-77.975z"/>
		<path display="none" fill="#DCCD9C" d="M-18.012-73.475c-0.5,0-1,0-1.5,0c4.826,1.674,11.531,1.467,16.5,3
			c-0.319,1.014-2.338,0.329-2.5,1.5c-4.988-3.346-15.814-0.853-20-5C-23.169-73.651-19.524-74.629-18.012-73.475z"/>
		<path display="none" fill="#DCCD9C" d="M2.488-71.475c0-0.167,0-0.333,0-0.5c1.848,0.319,4.98-0.647,6,0.5
			C6.488-71.475,4.488-71.475,2.488-71.475z"/>
		<path display="none" fill="#FFFFFF" d="M38.988-59.975c-0.89-0.934-1.271,0.406-3,0C35.271-61.535,39.706-61.535,38.988-59.975z"
			/>
		<path display="none" fill="#AC8323" d="M42.988-11.475c1.848-0.832,7.152-0.832,9,0C48.988-11.475,45.988-11.475,42.988-11.475z"
			/>
		<path display="none" fill="#AC8323" d="M-93.512,83.525c0-0.167,0-0.334,0-0.5c2.5,0,5,0,7.5,0c0,0.166,0,0.333,0,0.5
			c-0.167,0-0.334,0-0.5,0c-2.167,0-4.334,0-6.5,0C-93.179,83.525-93.346,83.525-93.512,83.525z"/>
		<path display="none" fill="#DCCD9C" d="M-93.012,83.525c2.166,0,4.333,0,6.5,0C-87.537,84.354-91.985,84.354-93.012,83.525z"/>
		<path display="none" fill="#FEFEFE" d="M-81.512-86.975c-1.239-1.182,1.65,0.624,0,1.5c-1.244,0.077-1.549-0.786-2.5-1
			c0.489-1.532,1.686,0.223,2,0.5C-81.524-85.988-81.624-86.587-81.512-86.975z"/>
		<path display="none" fill="#F4EEDE" d="M-83.012-83.475c0.719-0.88,0.458-1.14-1-1c1.998-0.456,4.67-0.375,7.5,0
			c0.425-0.092,0.471,0.195,0.5,0.5C-78.902-84.366-80.287-83.25-83.012-83.475z"/>
		<path display="none" fill="#FEFEFE" d="M-92.012-79.975c-0.28-1.13-0.78,0.606-1.5-0.5c0.604-0.996,0.411-2.136,0-2.5
			c-0.153-1.563,1.444,1.271,1.5-0.5c1.181,0.139-0.574,1.335-0.5,2c0.592-0.742,1.889-0.778,2.5-1.5c-0.039-1.331-0.463,1.856,2,1
			C-89.137-81.1-90.824-80.786-92.012-79.975z"/>
		<path display="none" fill="#FEFEFE" d="M-32.512-75.975c-0.154-0.606,1.443-1.725,1.5-0.5c0.676-0.491,0.998-1.334,1.5-2
			c-0.402,0.265-0.813,0.521-1.5,0.5c0.055-0.945,1.652-0.347,1.5-1.5c0.553,0.451,0.346,1.118,0,2c0.154,0.679,1.252,0.415,2,0.5
			c-0.014-0.486-0.613-0.388-1-0.5c0.424-1.466,1.609,0.299,2.5,0c-0.051-1.283-1.863-0.804-2.5-1.5c0.457-0.394,3.451-0.715,2,0.5
			c0.855,0.021,1.295-0.372,1.5-1c0.029,0.956,0.553,1.795-0.5,2c2.824,0.458,4.285,0.827,7.5,0.5c0.148-1.315-1.94-0.394-1.5-2
			c0.586,0.747,2.077,0.589,2,2c-0.445,0.388-1.129,0.537-2,0.5c5.441,2.174,8.199,3.206,17,5c-5.396-0.271-10.1-1.234-14-3
			c-4.326-1.502-9.111-2.314-14.5-1.5C-31.512-75.975-32.012-75.975-32.512-75.975z"/>
		<path display="none" fill="#FEFEFE" d="M-50.012-79.975c-0.081-0.586-0.912-0.422-1.5-0.5c1.141-0.533,2.592-2.261,4-1
			c-0.329,1.497-1.069-0.479-2,0c0.176,0.656,0.88,0.786,1,1.5C-49.012-79.975-49.512-79.975-50.012-79.975z"/>
		<path display="none" fill="#FEFEFE" d="M-76.512-84.475c-2.742-1.505-0.552-2.501,0.5,0c2.105-1.177,3.971,1.6,6.5,0
			c-0.146,2.108,4.873,0.867,7,1c0.344,1.663-1.034,0.806-1.5,0.5c0.057,1.88,2.26,0.345,1,2.5c0.401-0.265,0.812-0.522,1.5-0.5
			c-0.601-0.657-0.195-0.787,0-1.5c0.678,0.154,0.414,1.252,0.5,2c0.833,0,1.666,0,2.5,0c-3.008-1.757,0.661-0.213,3-0.5
			c-1.86-0.97-1.206-0.746,0.5-1.5c-0.426-1.467-1.259,0.65-2.5,0c0.1-1.479,2.959-0.292,5,0c0.631,1.678-3.252,1.352-2,2
			c-0.373,1.127-2.805,0.195-4,0.5c-3.488,0.321-5.865-0.469-8-1.5c-3.006-0.995-6.095-1.906-9.5-2.5
			C-76.041-84.279-76.086-84.566-76.512-84.475z M-66.512-82.975c0.202,1.297,1.557,1.443,2.5,2c0.111-0.945-0.564-1.104-0.5-2
			C-65.179-82.975-65.846-82.975-66.512-82.975z"/>
		<path display="none" fill="#F4EEDE" d="M-16.512-74.475c3.9,1.766,8.604,2.729,14,3c0.404,0.095,0.498,0.501,1,0.5
			c-0.084,0.582-0.791,0.543-1.5,0.5c-4.969-1.533-11.674-1.326-16.5-3c0.5,0,1,0,1.5,0c1,0,2,0,3,0
			C-15.02-74.3-16.397-73.754-16.512-74.475z"/>
		
			<ellipse transform="matrix(0.2013 -0.9795 0.9795 0.2013 20.5321 -113.6804)" fill="#F7BB0B" cx="-59.444" cy="-69.431" rx="11.688" ry="37.061"/>
		<path fill="#F7BB0B" d="M31.488-29.475c0,1.167,0,2.333,0,3.5c-0.379,2.121-0.621,4.379-1,6.5c-0.672,3.495-2.041,6.292-2.5,10
			c-3.497,6.67-6.621,13.713-11.5,19c-6.377,9.19-26.18,15.638-37,6c0.599,1.9,2.648,2.352,4,3.5c-7.188-3.981-19.248-7.419-28.5-11
			c-0.701,0.177-0.044,0.88,0.5,1c-7.152-2.517-16.626-7.041-25.5-9.5c-0.742,0.218,0.197,0.64,0,1.5
			c-4.91-1.334-10.861-8.597-16-3.5c4.816,5.832,13.688,7.697,21.5,10.5c7.615,2.732,15.289,6.397,23,9
			c10.398,3.51,19.945,6.681,32.5,8c-1.369,0.797,3.782-1.526,2.249-0.893c0.068-2.134-2.249-4.364-5.594-4.452
			c-13.033-0.344-29.31-5.07-40.573-9.301C-64.773,5.931-74.375,3.333-82.512-3.97c0.912-4.254-5.18,0.984-1.5-0.504
			c-4.029-0.972-8.275-1.726-11.5-3.5c-0.885-0.449-1.46-1.207-2.5-1.5c-3.21-3.624-6.66-7.008-8.5-12
			c4.074,4.902,8.507,12.359,16,13.5c3.525,0.537,7.374-1.819,10,1c-2.225-4.276-4.541-8.46-5.5-14
			c3.428,11.741,11.068,17.267,23.5,18c-3.52-1.814-8.349-2.318-9-7c1.928,3.905,5.559,6.107,11.5,6c1.282-1.533-1.072-2.631-1.5-4
			c1.26,0.907,2.387,1.946,2.5,4c-0.64,0.694-2.361,0.306-3,1c1.177,1.322,4.28,0.719,5.5,2c-3.476-5.821-4.306-15.365-5.5-22
			c0.879,0.287,2.938-0.604,3,0.5c-0.643,0.063-1.349-0.067-1.5,0.5c-1.54,5.759,5.277,20.619,9,22.5c4.563-0.299,10.357,1.08,13-3
			c2.637-0.03,5.188-0.146,5-3c0.879,0.12,1.139,0.86,1,2c3.012-8.987,2.854-21.146,6-30c-5.512,21.014-1.648,51.244,20,51.5
			c21.617,0.255,37.514-30.956,35.5-57.5c-1.129-14.875-9.494-29.723-25.5-28c-12.443,1.339-17.479,11.277-24.5,20
			c6.568-10.306,15.011-22.975,31-21C26.422-66.445,30.715-48.452,31.488-29.475z M19.488,3.025c2.586-3.688,6.031-9.851,7.5-15
			c0.367-1.29,1.253-4.76,0.5-4C25.51-9.284,21.429-2.039,19.488,3.025z"/>
		<polygon fill="#F7BB0B" points="-48.387,0.496 -86.93,-7.975 -91.93,-36.725 -41.43,-36.725 		"/>
		<polygon fill="#F7BB0B" points="0.2,-68.679 -19.055,-68.679 -19.055,-74.992 9.637,-71.226 		"/>
		<path fill="#AC8323" d="M-24.512-39.475c-0.605,1.894-0.969,4.032-2,5.5C-26.158-36.121-25.695-38.159-24.512-39.475z"/>
		<path fill="#F7BB0B" d="M-83.012-83.475c2.725,0.226,4.108-0.892,7-0.5c3.405,0.594,6.494,1.505,9.5,2.5
			c-0.919,1.206-2.948-0.686-5,0c-1.429-1.069-5.467-0.486-7,0c2.657,3.342,10.185,1.815,14.5,3.5c0.422-1.078,2.577-0.422,3-1.5
			c0.727-0.273,2.584,0.584,2.5-0.5c1.195-0.305,3.627,0.627,4-0.5c1.934-0.268,2.44,0.893,4.5,0.5c0.5,0,1,0,1.5,0
			c1.898,0.768,3.886,1.447,6,2c-1.301,1.267-3.607-0.702-6,0c-1.226-1.514-3.255,0.379-5,0c4.708,2.854,15.441,4.599,20.5,2.5
			c0.791-0.042,1.906,0.24,2-0.5c5.389-0.814,10.174-0.002,14.5,1.5c0.113,0.72,1.492,0.174,1.5,1c-1,0-2,0-3,0
			c-1.514-1.154-5.158-0.177-7.5-0.5c4.186,4.147,15.012,1.654,20,5c0.162-1.171,2.181-0.486,2.5-1.5
			c0.709,0.043,1.416,0.082,1.5-0.5c1.884,0.384,2.39-0.61,4-0.5c2,0,4,0,6,0c15.736,3.097,21.18,16.486,23.5,33
			c-0.327,2.84,0.657,6.991-0.5,9c-0.773-18.978-5.066-36.971-21.5-39c-15.989-1.975-24.432,10.694-31,21
			c-1.514,2.32-2.801,4.865-3.5,8c-1.185,1.315-1.646,3.354-2,5.5c0,0.167,0,0.333,0,0.5c-3.146,8.854-2.988,21.013-6,30
			c0.139-1.14-0.121-1.88-1-2c0.188,2.854-2.363,2.97-5,3c-2.643,4.08-8.438,2.701-13,3c-3.723-1.881-10.54-16.741-9-22.5
			c0.151-0.567,0.857-0.437,1.5-0.5c0.58,0.419,1.34,0.659,2.5,0.5c-0.024-8.643-0.937-16.397-4-22c-4.059,5.251-8.854,10.852-6,19
			c1.761,0.405,2.319,2.014,4.5,2c1.194,6.635,2.024,16.179,5.5,22c-1.22-1.281-4.323-0.678-5.5-2c0.639-0.694,2.36-0.306,3-1
			c-0.113-2.054-1.24-3.093-2.5-4c-1.682-3.985-4.148-7.186-5.5-11.5c-1.624,0.29-2.326-0.341-3.5-0.5
			c-1.393,2.274-0.923,6.411-1,10c0.651,4.682,5.48,5.186,9,7c-12.432-0.733-20.072-6.259-23.5-18c0.959,5.54,3.275,9.724,5.5,14
			c-2.626-2.819-6.475-0.463-10-1c-7.493-1.141-11.926-8.598-16-13.5c1.84,4.992,5.29,8.376,8.5,12c-5.134-3.367-8.56-8.441-11.5-14
			c-1.111-3.556-2.574-6.76-3-11c-0.468-3.366-0.627-7.041-0.5-11c2.133-15.367,8.869-26.131,19-33.5c1.363,0.364,1.006-0.994,2-1
			c1.188-0.812,2.875-1.125,4-2C-86.347-82.477-84.577-82.874-83.012-83.475z M-74.512-48.475c-4.653,4.347-7.613,10.387-8,19
			c2.802,1.364,6.121,2.211,9.5,3C-70.878-33.631-73.047-40.975-74.512-48.475z M-68.512-29.975c-5.43-2.03-4.721,9.004,0,9
			C-65.795-22.371-67.151-28.203-68.512-29.975z"/>
		<path display="none" fill="#F4EEDE" d="M-42.512-77.975c0.896-0.063,1.055,0.612,2,0.5c0.799,0.867,2.25,1.083,4,1
			c0.727,0.773,2.559,0.44,4,0.5c0.5,0,1,0,1.5,0c-0.094,0.74-1.209,0.458-2,0.5c-5.6-0.401-11.226-0.775-15.5-2.5
			C-46.119-78.676-43.813-76.708-42.512-77.975z"/>
		<path display="none" fill="#FEFEFE" d="M-31.512-77.975c-0.424,0.743-1.61,0.724-2.5,1c0.014-0.486,0.611-0.388,1-0.5
			C-38.537-78.251-34.042-79.2-31.512-77.975z"/>
		<path fill="#4E2102" d="M-9.012,25.025c-12.555-1.319-22.102-4.49-32.5-8c-7.711-2.603-15.385-6.268-23-9
			c-7.813-2.803-16.684-4.668-21.5-10.5c5.139-5.097,11.09,2.166,16,3.5c0.197-0.86-0.742-1.282,0-1.5
			c8.874,2.459,18.348,6.983,25.5,9.5c-0.544-0.12-1.201-0.823-0.5-1c9.252,3.581,21.313,7.019,28.5,11
			c-1.352-1.148-3.401-1.6-4-3.5c10.82,9.638,30.623,3.19,37-6C11.549,18.252-1.149,19.22-9.012,25.025z"/>
		<path fill="#F7BB0B" d="M27.488-15.975c0.753-0.76-0.133,2.71-0.5,4c-1.469,5.149-4.914,11.312-7.5,15
			C21.429-2.039,25.51-9.284,27.488-15.975z"/>
		<path fill="#DCCD9C" d="M-7.012,76.025"/>
		<path fill="#DCCD9C" d="M-27.512,76.025c0.381,0.329,1.551-0.253,2,0"/>
		<path fill="#4E2102" d="M-24.512-39.475c0.699-3.135,1.986-5.68,3.5-8c7.021-8.723,12.057-18.661,24.5-20
			c16.006-1.723,24.371,13.125,25.5,28c2.014,26.544-13.883,57.755-35.5,57.5c-21.648-0.256-25.512-30.486-20-51.5
			c0-0.167,0-0.333,0-0.5C-25.479-35.442-25.117-37.581-24.512-39.475z"/>
		<path fill="#4E2102" d="M-73.012-26.475c-3.379-0.789-6.698-1.636-9.5-3c0.387-8.613,3.347-14.653,8-19
			C-73.047-40.975-70.878-33.631-73.012-26.475z"/>
		<path fill="#4E2102" d="M-68.512-20.975c-4.721,0.004-5.43-11.03,0-9C-67.151-28.203-65.795-22.371-68.512-20.975z"/>
		<path fill="#4E2102" d="M-59.805-22.694c-2.181,0.014-4.946-1.875-6.707-2.28c-2.854-8.148,1.941-13.749,6-19
			c3.063,5.603,3.976,13.357,4,22c-1.16,0.159-1.92-0.081-2.5-0.5C-60.684-22.982-58.925-22.407-59.805-22.694z"/>
		<g id="Greenglob">
			<path fill="#32EA32" d="M30.866-10.286l-59.098-13.081c0,0-1.084,27.858,7.912,35.453c8.997,7.595,17.688,5.941,17.688,5.941
				l24.093,7.167L30.866-10.286z"/>
			<path fill="#32EA32" d="M27.988-9.475c4.258-1.408,9.242-2.091,15-2c3,0,6,0,9,0c1,0,2,0,3,0c22.584,1.915,38.521,10.478,55.5,18
				c0,0.166,0,0.333,0,0.5c1.988,0.512,2.816,2.183,2.5,5c-0.029,1.805-1.247,2.42-1.5,4c-2.043,1.624-3.877,3.457-5.5,5.5
				c-11.865,8.812-25.039,16.451-38.5,24c-15.283,8.57-31.033,18.07-48,24c-8.352,2.981-17.924,4.744-28,6
				c-6.008-0.175-10.779,0.887-17,0.5c-5.131-0.87-10.361-1.639-15.5-2.5c-18.728-7.103-29.594,7.065-45,9.5c-2.5,0-5,0-7.5,0
				c-9.232-1.141-16.978-6.304-14.5-17.5c9.873-19.628,33.408-25.592,59.5-29c13.668-1.166,25.604-4.063,35.5-9
				c1.533-0.634,2.631-1.703,4-2.5c7.861-5.806,20.561-6.772,25.5-15.5C21.368,4.239,24.492-2.804,27.988-9.475z"/>
		</g>
	</g>
	<path fill="#F7BB0B" d="M-86.305-83.494c0,0,3.93-1.819,10.232-0.985c6.302,0.834,82.61,13.397,86.643,13.836
		c4.033,0.439-17.84,1.414-19.924,4.914c-2.083,3.5-96.697,8.955-89.787-7.536C-99.141-73.266-91.305-82.723-86.305-83.494z"/>
	<path fill="#F7BB0B" d="M-98.012-9.475c0,0,62.773,25.317,86.949,29.421c0,0-17.7-9.899-18.2-14.71
		c-0.5-4.811-68.754-18.272-68.754-18.272L-98.012-9.475z"/>
	<path fill="#F7BB0B" d="M-100.711-72.338c0,0,8.628-12.242,17.522-11.582"/>
	<path fill="#4E2102" d="M-73.45-6.825c0.077-3.59,1.546-10.875,2.938-13.149c1.174,0.159,1.876,0.79,3.5,0.5
		c1.352,4.314,3.818,7.515,5.5,11.5c0.428,1.369,1.281,3.179-0.001,4.712C-67.453-3.156-71.521-2.92-73.45-6.825z"/>
	<path opacity="0.3" fill="none" stroke="#E2A213" stroke-miterlimit="10" enable-background="new    " d="M-94.596-48.475
		c0,0,10.734-31.508,34.962-32.896"/>
	<path opacity="0.3" fill="none" stroke="#E2A213" stroke-miterlimit="10" enable-background="new    " d="M-73.333-45.532
		c0,0,10.734-31.508,34.963-32.896"/>
	<path opacity="0.3" fill="none" stroke="#E2A213" stroke-miterlimit="10" enable-background="new    " d="M-47.696-40.443
		c0,0,10.734-31.508,34.962-32.896"/>
	<path fill="#F7BB0B" d="M-29.888-27.575c0,0-2.707,52.161,27.709,45.737c0,0-30.271-3.828-24.021-54.886"/>
	<path fill="#F7BB0B" d="M-26.95-31.825c0,0,7.271-26.709,27.771-35.125c20.5-8.417-11.02-1.167-16.885,8.917
		c-5.865,10.083-11.531,14.2-12.198,21.309c-0.667,7.108,1.027,5.398,1.728,3.047"/>
	<path fill="#F7BB0B" d="M-25.43-36.492c0,0-1.289,4.666-1.375,6.039c-0.087,1.373-1.957,0.419-1.957,0.419l2.25-7.375
		L-25.43-36.492z"/>
	<path fill="#4E2102" d="M-66.512-24.975c0,0,7.916,3.851,9.832,4l0.168-1C-56.512-21.975-66.074-25.165-66.512-24.975z"/>
	<path fill="#4E2102" d="M-73.45-6.825c0,0-0.375,1.626,0,1.813c0.375,0.188,11,4.313,13.125,1.5s-6.687-15.962-6.687-15.962
		L-73.45-6.825z"/>
</g>
</svg>
