<?xml version="1.0" encoding="utf-8"?>
<!-- Generator: Adobe Illustrator 15.1.0, SVG Export Plug-In . SVG Version: 6.00 Build 0)  -->
<!DOCTYPE svg PUBLIC "-//W3C//DTD SVG 1.1//EN" "http://www.w3.org/Graphics/SVG/1.1/DTD/svg11.dtd">
<svg version="1.1" id="Layer_1" xmlns="http://www.w3.org/2000/svg" xmlns:xlink="http://www.w3.org/1999/xlink" x="0px" y="0px"
	 width="792px" height="612px" viewBox="0 0 792 612" enable-background="new 0 0 792 612" xml:space="preserve">
<g>
	<path d="M-378.844-67.036h16.629v1.301h-0.914c-0.609,0-1.5,0.27-2.672,0.809c-1.172,0.54-2.238,1.313-3.199,2.32
		c-0.961,1.008-2.145,2.649-3.551,4.922l-11.496,18.105v11.953c0,2.931,0.328,4.759,0.984,5.484
		c0.891,0.984,2.297,1.477,4.219,1.477h1.547v1.301h-20.25v-1.301h1.688c2.016,0,3.445-0.609,4.289-1.828
		c0.516-0.75,0.773-2.461,0.773-5.133v-11.285l-13.078-19.969c-1.547-2.343-2.596-3.809-3.146-4.395
		c-0.551-0.585-1.693-1.288-3.428-2.109c-0.469-0.233-1.148-0.352-2.039-0.352v-1.301h20.391v1.301h-1.055
		c-1.102,0-2.115,0.259-3.041,0.773c-0.926,0.516-1.389,1.289-1.389,2.32c0,0.844,0.715,2.368,2.145,4.57l9.949,15.363l9.352-14.695
		c1.406-2.202,2.109-3.844,2.109-4.922c0-0.655-0.17-1.242-0.51-1.758c-0.34-0.515-0.826-0.919-1.459-1.213
		c-0.633-0.293-1.582-0.439-2.848-0.439V-67.036z"/>
	<path d="M-334.828-68.126c6.188,0,11.549,2.351,16.084,7.049c4.535,4.699,6.803,10.564,6.803,17.596
		c0,7.242-2.285,13.254-6.855,18.035s-10.102,7.172-16.594,7.172c-6.563,0-12.076-2.332-16.541-6.996
		c-4.465-4.663-6.697-10.699-6.697-18.105c0-7.57,2.578-13.746,7.734-18.527C-346.418-66.052-341.063-68.126-334.828-68.126z
		 M-335.496-65.56c-4.266,0-7.688,1.582-10.266,4.746c-3.211,3.938-4.816,9.703-4.816,17.297c0,7.782,1.664,13.77,4.992,17.965
		c2.555,3.188,5.93,4.781,10.125,4.781c4.477,0,8.174-1.745,11.092-5.238c2.918-3.492,4.377-9,4.377-16.523
		c0-8.156-1.605-14.238-4.816-18.246C-327.387-63.965-330.949-65.56-335.496-65.56z"/>
	<path d="M-274.816-65.735v-1.301h16.875v1.301h-1.793c-1.875,0-3.316,0.786-4.324,2.355c-0.492,0.727-0.738,2.414-0.738,5.063
		v19.336c0,4.781-0.475,8.49-1.424,11.127s-2.813,4.899-5.59,6.785c-2.777,1.887-6.557,2.83-11.338,2.83
		c-5.203,0-9.152-0.902-11.848-2.707s-4.605-4.23-5.73-7.277c-0.75-2.086-1.125-5.999-1.125-11.742v-18.633
		c0-2.93-0.404-4.852-1.213-5.766s-2.115-1.371-3.92-1.371h-1.793v-1.301h20.602v1.301h-1.828c-1.969,0-3.375,0.621-4.219,1.863
		c-0.586,0.844-0.879,2.602-0.879,5.273v20.777c0,1.852,0.17,3.973,0.51,6.363s0.955,4.254,1.846,5.59s2.174,2.438,3.85,3.305
		c1.676,0.867,3.732,1.301,6.17,1.301c3.117,0,5.906-0.68,8.367-2.039c2.461-1.358,4.143-3.099,5.045-5.221
		c0.902-2.121,1.354-5.713,1.354-10.775v-19.301c0-2.976-0.328-4.839-0.984-5.59c-0.914-1.031-2.273-1.547-4.078-1.547H-274.816z"/>
	<path d="M-190.512-19.364h-12.727l-16.137-22.289c-1.195,0.048-2.168,0.07-2.918,0.07c-0.305,0-0.633-0.005-0.984-0.018
		c-0.352-0.012-0.715-0.029-1.09-0.053v13.852c0,3.001,0.328,4.864,0.984,5.59c0.891,1.032,2.227,1.547,4.008,1.547h1.863v1.301
		h-20.426v-1.301h1.793c2.016,0,3.457-0.655,4.324-1.969c0.492-0.726,0.738-2.448,0.738-5.168v-30.797c0-3-0.328-4.863-0.984-5.59
		c-0.914-1.031-2.273-1.547-4.078-1.547h-1.793v-1.301h17.367c5.063,0,8.795,0.369,11.197,1.107s4.441,2.098,6.117,4.078
		c1.676,1.981,2.514,4.342,2.514,7.084c0,2.931-0.955,5.473-2.865,7.629c-1.91,2.157-4.869,3.68-8.877,4.57l9.844,13.676
		c2.25,3.142,4.184,5.227,5.801,6.258c1.617,1.032,3.727,1.688,6.328,1.969V-19.364z M-224.367-43.868
		c0.445,0,0.832,0.006,1.16,0.018c0.328,0.013,0.598,0.018,0.809,0.018c4.547,0,7.975-0.984,10.283-2.953s3.463-4.477,3.463-7.523
		c0-2.976-0.932-5.396-2.795-7.26s-4.33-2.795-7.4-2.795c-1.359,0-3.199,0.224-5.52,0.668V-43.868z"/>
	<path d="M-156.797-65.735v-1.301h16.875v1.301h-1.793c-1.875,0-3.316,0.786-4.324,2.355c-0.492,0.727-0.738,2.414-0.738,5.063
		v19.336c0,4.781-0.475,8.49-1.424,11.127s-2.813,4.899-5.59,6.785c-2.777,1.887-6.557,2.83-11.338,2.83
		c-5.203,0-9.152-0.902-11.848-2.707s-4.605-4.23-5.73-7.277c-0.75-2.086-1.125-5.999-1.125-11.742v-18.633
		c0-2.93-0.404-4.852-1.213-5.766s-2.115-1.371-3.92-1.371h-1.793v-1.301h20.602v1.301h-1.828c-1.969,0-3.375,0.621-4.219,1.863
		c-0.586,0.844-0.879,2.602-0.879,5.273v20.777c0,1.852,0.17,3.973,0.51,6.363s0.955,4.254,1.846,5.59s2.174,2.438,3.85,3.305
		c1.676,0.867,3.732,1.301,6.17,1.301c3.117,0,5.906-0.68,8.367-2.039c2.461-1.358,4.143-3.099,5.045-5.221
		c0.902-2.121,1.354-5.713,1.354-10.775v-19.301c0-2.976-0.328-4.839-0.984-5.59c-0.914-1.031-2.273-1.547-4.078-1.547H-156.797z"/>
	<path d="M-106.137-68.126v16.488h-1.301c-0.422-3.164-1.178-5.683-2.268-7.559c-1.09-1.875-2.643-3.362-4.658-4.465
		c-2.016-1.102-4.102-1.652-6.258-1.652c-2.438,0-4.453,0.744-6.047,2.232c-1.594,1.489-2.391,3.182-2.391,5.08
		c0,1.454,0.504,2.777,1.512,3.973c1.453,1.758,4.91,4.102,10.371,7.031c4.453,2.391,7.494,4.225,9.123,5.502
		c1.629,1.278,2.883,2.783,3.762,4.518c0.879,1.735,1.318,3.551,1.318,5.449c0,3.609-1.4,6.721-4.201,9.334
		c-2.801,2.614-6.404,3.92-10.811,3.92c-1.383,0-2.684-0.105-3.902-0.316c-0.727-0.117-2.232-0.545-4.518-1.283
		s-3.732-1.107-4.342-1.107c-0.586,0-1.049,0.176-1.389,0.527s-0.592,1.078-0.756,2.18h-1.301v-16.348h1.301
		c0.609,3.423,1.43,5.982,2.461,7.682c1.031,1.7,2.607,3.111,4.729,4.236s4.447,1.688,6.979,1.688c2.93,0,5.244-0.773,6.943-2.32
		s2.549-3.375,2.549-5.484c0-1.172-0.322-2.355-0.967-3.551s-1.646-2.308-3.006-3.34c-0.914-0.703-3.41-2.197-7.488-4.482
		s-6.979-4.107-8.701-5.467c-1.723-1.358-3.029-2.859-3.92-4.5c-0.891-1.64-1.336-3.445-1.336-5.414
		c0-3.422,1.313-6.368,3.938-8.842c2.625-2.473,5.965-3.709,10.02-3.709c2.531,0,5.215,0.621,8.051,1.863
		c1.313,0.586,2.238,0.879,2.777,0.879c0.609,0,1.107-0.181,1.494-0.545c0.387-0.363,0.697-1.095,0.932-2.197H-106.137z"/>
	<path d="M-84.305-44.923h22.148v-13.641c0-2.438-0.152-4.043-0.457-4.816c-0.234-0.585-0.727-1.09-1.477-1.512
		c-1.008-0.563-2.074-0.844-3.199-0.844h-1.688v-1.301h20.391v1.301h-1.688c-1.125,0-2.191,0.27-3.199,0.809
		c-0.75,0.375-1.26,0.944-1.529,1.705c-0.27,0.762-0.404,2.315-0.404,4.658v30.762c0,2.414,0.152,4.008,0.457,4.781
		c0.234,0.586,0.715,1.09,1.441,1.512c1.031,0.563,2.109,0.844,3.234,0.844h1.688v1.301h-20.391v-1.301h1.688
		c1.945,0,3.363-0.574,4.254-1.723c0.586-0.75,0.879-2.554,0.879-5.414v-14.52h-22.148v14.52c0,2.414,0.152,4.008,0.457,4.781
		c0.234,0.586,0.727,1.09,1.477,1.512c1.008,0.563,2.074,0.844,3.199,0.844h1.723v1.301h-20.426v-1.301h1.688
		c1.969,0,3.398-0.574,4.289-1.723c0.563-0.75,0.844-2.554,0.844-5.414v-30.762c0-2.438-0.152-4.043-0.457-4.816
		c-0.234-0.585-0.715-1.09-1.441-1.512c-1.031-0.563-2.109-0.844-3.234-0.844h-1.688v-1.301h20.426v1.301h-1.723
		c-1.125,0-2.191,0.27-3.199,0.809c-0.727,0.375-1.23,0.944-1.512,1.705c-0.281,0.762-0.422,2.315-0.422,4.658V-44.923z"/>
	<path d="M-32.063-64.435v18.844h10.477c2.719,0,4.535-0.409,5.449-1.23c1.219-1.077,1.898-2.976,2.039-5.695h1.301v16.594h-1.301
		c-0.328-2.32-0.656-3.809-0.984-4.465c-0.422-0.82-1.113-1.464-2.074-1.934c-0.961-0.469-2.438-0.703-4.43-0.703h-10.477v15.715
		c0,2.109,0.094,3.393,0.281,3.85s0.516,0.821,0.984,1.09c0.469,0.27,1.359,0.404,2.672,0.404h8.086
		c2.695,0,4.652-0.188,5.871-0.563c1.219-0.374,2.391-1.112,3.516-2.215c1.453-1.453,2.941-3.644,4.465-6.574h1.406l-4.113,11.953
		h-36.738v-1.301h1.688c1.125,0,2.191-0.269,3.199-0.809c0.75-0.374,1.26-0.937,1.529-1.688c0.27-0.75,0.404-2.285,0.404-4.605
		v-30.973c0-3.023-0.305-4.887-0.914-5.59c-0.844-0.937-2.25-1.406-4.219-1.406h-1.688v-1.301h36.738l0.527,10.441h-1.371
		c-0.492-2.508-1.037-4.23-1.635-5.168c-0.598-0.937-1.482-1.652-2.654-2.145c-0.938-0.352-2.59-0.527-4.957-0.527H-32.063z"/>
	<path d="M-1.898-19.364v-1.301h1.793c2.016,0,3.445-0.645,4.289-1.934c0.516-0.773,0.773-2.508,0.773-5.203v-30.797
		c0-2.976-0.328-4.839-0.984-5.59c-0.914-1.031-2.273-1.547-4.078-1.547h-1.793v-1.301h19.406c7.125,0,12.545,0.809,16.26,2.426
		s6.703,4.313,8.965,8.086c2.262,3.774,3.393,8.134,3.393,13.078c0,6.633-2.016,12.177-6.047,16.629
		c-4.523,4.97-11.414,7.453-20.672,7.453H-1.898z M11.707-22.81c2.977,0.656,5.473,0.984,7.488,0.984
		c5.438,0,9.949-1.91,13.535-5.73c3.586-3.819,5.379-9,5.379-15.539c0-6.586-1.793-11.777-5.379-15.574s-8.191-5.695-13.816-5.695
		c-2.109,0-4.512,0.34-7.207,1.02V-22.81z"/>
	<path d="M107.227-67.036l0.527,11.18h-1.336c-0.258-1.969-0.609-3.375-1.055-4.219c-0.727-1.358-1.693-2.36-2.9-3.006
		c-1.207-0.645-2.795-0.967-4.764-0.967h-6.715v36.422c0,2.931,0.316,4.759,0.949,5.484c0.891,0.984,2.262,1.477,4.113,1.477h1.652
		v1.301H77.484v-1.301h1.688c2.016,0,3.445-0.609,4.289-1.828c0.516-0.75,0.773-2.461,0.773-5.133v-36.422h-5.73
		c-2.227,0-3.809,0.164-4.746,0.492c-1.219,0.445-2.262,1.301-3.129,2.566s-1.383,2.977-1.547,5.133h-1.336l0.563-11.18H107.227z"/>
	<path d="M158.203-19.364h-12.727L129.34-41.653c-1.195,0.048-2.168,0.07-2.918,0.07c-0.305,0-0.633-0.005-0.984-0.018
		c-0.352-0.012-0.715-0.029-1.09-0.053v13.852c0,3.001,0.328,4.864,0.984,5.59c0.891,1.032,2.227,1.547,4.008,1.547h1.863v1.301
		h-20.426v-1.301h1.793c2.016,0,3.457-0.655,4.324-1.969c0.492-0.726,0.738-2.448,0.738-5.168v-30.797c0-3-0.328-4.863-0.984-5.59
		c-0.914-1.031-2.273-1.547-4.078-1.547h-1.793v-1.301h17.367c5.063,0,8.795,0.369,11.197,1.107s4.441,2.098,6.117,4.078
		c1.676,1.981,2.514,4.342,2.514,7.084c0,2.931-0.955,5.473-2.865,7.629c-1.91,2.157-4.869,3.68-8.877,4.57l9.844,13.676
		c2.25,3.142,4.184,5.227,5.801,6.258c1.617,1.032,3.727,1.688,6.328,1.969V-19.364z M124.348-43.868
		c0.445,0,0.832,0.006,1.16,0.018c0.328,0.013,0.598,0.018,0.809,0.018c4.547,0,7.975-0.984,10.283-2.953s3.463-4.477,3.463-7.523
		c0-2.976-0.932-5.396-2.795-7.26s-4.33-2.795-7.4-2.795c-1.359,0-3.199,0.224-5.52,0.668V-43.868z"/>
	<path d="M190.512-35.325h-18.457l-3.234,7.523c-0.797,1.852-1.195,3.234-1.195,4.148c0,0.727,0.346,1.366,1.037,1.916
		c0.691,0.551,2.186,0.909,4.482,1.072v1.301h-15.012v-1.301c1.992-0.352,3.281-0.809,3.867-1.371
		c1.195-1.125,2.52-3.41,3.973-6.855l16.77-39.234h1.23l16.594,39.656c1.336,3.188,2.549,5.256,3.639,6.205s2.607,1.482,4.553,1.6
		v1.301h-18.809v-1.301c1.898-0.093,3.182-0.409,3.85-0.949c0.668-0.539,1.002-1.195,1.002-1.969c0-1.031-0.469-2.659-1.406-4.887
		L190.512-35.325z M189.527-37.927l-8.086-19.266l-8.297,19.266H189.527z"/>
	<path d="M231.785-20.665v1.301h-20.426v-1.301h1.688c1.969,0,3.398-0.574,4.289-1.723c0.563-0.75,0.844-2.554,0.844-5.414v-30.797
		c0-2.413-0.152-4.008-0.457-4.781c-0.234-0.585-0.715-1.09-1.441-1.512c-1.031-0.563-2.109-0.844-3.234-0.844h-1.688v-1.301h20.426
		v1.301h-1.723c-1.945,0-3.363,0.575-4.254,1.723c-0.586,0.751-0.879,2.555-0.879,5.414v30.797c0,2.414,0.152,4.008,0.457,4.781
		c0.234,0.586,0.727,1.09,1.477,1.512c1.008,0.563,2.074,0.844,3.199,0.844H231.785z"/>
	<path d="M232.594-67.036h12.938l29.145,35.754v-27.492c0-2.93-0.328-4.758-0.984-5.484c-0.867-0.984-2.238-1.477-4.113-1.477
		h-1.652v-1.301h16.594v1.301h-1.688c-2.016,0-3.445,0.61-4.289,1.828c-0.516,0.751-0.773,2.461-0.773,5.133v40.184h-1.266
		l-31.43-38.391v29.355c0,2.931,0.316,4.759,0.949,5.484c0.891,0.984,2.262,1.477,4.113,1.477h1.688v1.301H235.23v-1.301h1.652
		c2.039,0,3.48-0.609,4.324-1.828c0.516-0.75,0.773-2.461,0.773-5.133v-33.152c-1.383-1.617-2.432-2.684-3.146-3.199
		c-0.715-0.515-1.764-0.996-3.146-1.441c-0.68-0.211-1.711-0.316-3.094-0.316V-67.036z"/>
	<path d="M307.758-20.665v1.301h-20.426v-1.301h1.688c1.969,0,3.398-0.574,4.289-1.723c0.563-0.75,0.844-2.554,0.844-5.414v-30.797
		c0-2.413-0.152-4.008-0.457-4.781c-0.234-0.585-0.715-1.09-1.441-1.512c-1.031-0.563-2.109-0.844-3.234-0.844h-1.688v-1.301h20.426
		v1.301h-1.723c-1.945,0-3.363,0.575-4.254,1.723c-0.586,0.751-0.879,2.555-0.879,5.414v30.797c0,2.414,0.152,4.008,0.457,4.781
		c0.234,0.586,0.727,1.09,1.477,1.512c1.008,0.563,2.074,0.844,3.199,0.844H307.758z"/>
	<path d="M308.566-67.036h12.938l29.145,35.754v-27.492c0-2.93-0.328-4.758-0.984-5.484c-0.867-0.984-2.238-1.477-4.113-1.477
		h-1.652v-1.301h16.594v1.301h-1.688c-2.016,0-3.445,0.61-4.289,1.828c-0.516,0.751-0.773,2.461-0.773,5.133v40.184h-1.266
		l-31.43-38.391v29.355c0,2.931,0.316,4.759,0.949,5.484c0.891,0.984,2.262,1.477,4.113,1.477h1.688v1.301h-16.594v-1.301h1.652
		c2.039,0,3.48-0.609,4.324-1.828c0.516-0.75,0.773-2.461,0.773-5.133v-33.152c-1.383-1.617-2.432-2.684-3.146-3.199
		c-0.715-0.515-1.764-0.996-3.146-1.441c-0.68-0.211-1.711-0.316-3.094-0.316V-67.036z"/>
	<path d="M405.703-68.126l1.23,15.047h-1.23c-1.242-3.749-2.848-6.574-4.816-8.473c-2.836-2.742-6.48-4.113-10.934-4.113
		c-6.07,0-10.688,2.403-13.852,7.207c-2.648,4.056-3.973,8.883-3.973,14.484c0,4.548,0.879,8.696,2.637,12.445
		c1.758,3.75,4.061,6.499,6.908,8.244c2.848,1.746,5.771,2.619,8.771,2.619c1.758,0,3.457-0.223,5.098-0.668
		c1.641-0.444,3.223-1.102,4.746-1.969v-13.781c0-2.391-0.182-3.955-0.545-4.693s-0.926-1.301-1.688-1.688s-2.104-0.58-4.025-0.58
		v-1.336h18.457v1.336h-0.879c-1.828,0-3.082,0.61-3.762,1.828c-0.469,0.867-0.703,2.579-0.703,5.133v14.59
		c-2.695,1.454-5.355,2.52-7.98,3.199s-5.543,1.02-8.754,1.02c-9.211,0-16.207-2.953-20.988-8.859
		c-3.586-4.43-5.379-9.539-5.379-15.328c0-4.195,1.008-8.214,3.023-12.059c2.391-4.57,5.672-8.086,9.844-10.547
		c3.492-2.039,7.617-3.059,12.375-3.059c1.734,0,3.311,0.141,4.729,0.422s3.428,0.902,6.029,1.863
		c1.313,0.492,2.191,0.738,2.637,0.738s0.826-0.205,1.143-0.615c0.316-0.409,0.51-1.213,0.58-2.408H405.703z"/>
	<path d="M-371.496,19.364l0.527,11.18h-1.336c-0.258-1.969-0.609-3.375-1.055-4.219c-0.727-1.359-1.693-2.361-2.9-3.006
		s-2.795-0.967-4.764-0.967h-6.715v36.422c0,2.93,0.316,4.758,0.949,5.484c0.891,0.984,2.262,1.477,4.113,1.477h1.652v1.301h-20.215
		v-1.301h1.688c2.016,0,3.445-0.609,4.289-1.828c0.516-0.75,0.773-2.461,0.773-5.133V22.353h-5.73c-2.227,0-3.809,0.164-4.746,0.492
		c-1.219,0.445-2.262,1.301-3.129,2.566s-1.383,2.977-1.547,5.133h-1.336l0.563-11.18H-371.496z"/>
	<path d="M-348.729,21.966V40.81h10.477c2.719,0,4.535-0.41,5.449-1.23c1.219-1.078,1.898-2.977,2.039-5.695h1.301v16.594h-1.301
		c-0.328-2.32-0.656-3.809-0.984-4.465c-0.422-0.82-1.113-1.465-2.074-1.934s-2.438-0.703-4.43-0.703h-10.477v15.715
		c0,2.109,0.094,3.393,0.281,3.85s0.516,0.82,0.984,1.09s1.359,0.404,2.672,0.404h8.086c2.695,0,4.652-0.188,5.871-0.563
		s2.391-1.113,3.516-2.215c1.453-1.453,2.941-3.645,4.465-6.574h1.406l-4.113,11.953h-36.738v-1.301h1.688
		c1.125,0,2.191-0.27,3.199-0.809c0.75-0.375,1.26-0.938,1.529-1.688s0.404-2.285,0.404-4.605V27.661
		c0-3.023-0.305-4.887-0.914-5.59c-0.844-0.938-2.25-1.406-4.219-1.406h-1.688v-1.301h36.738l0.527,10.441h-1.371
		c-0.492-2.508-1.037-4.23-1.635-5.168s-1.482-1.652-2.654-2.145c-0.938-0.352-2.59-0.527-4.957-0.527H-348.729z"/>
	<path d="M-281.454,51.075h-18.457l-3.234,7.523c-0.797,1.852-1.195,3.234-1.195,4.148c0,0.727,0.346,1.365,1.037,1.916
		s2.186,0.908,4.482,1.072v1.301h-15.012v-1.301c1.992-0.352,3.281-0.809,3.867-1.371c1.195-1.125,2.52-3.41,3.973-6.855
		l16.77-39.234h1.23l16.594,39.656c1.336,3.188,2.549,5.256,3.639,6.205s2.607,1.482,4.553,1.6v1.301h-18.809v-1.301
		c1.898-0.094,3.182-0.41,3.85-0.949s1.002-1.195,1.002-1.969c0-1.031-0.469-2.66-1.406-4.887L-281.454,51.075z M-282.438,48.474
		l-8.086-19.266l-8.297,19.266H-282.438z"/>
	<path d="M-227.538,67.036l-18.422-40.113v31.852c0,2.93,0.316,4.758,0.949,5.484c0.867,0.984,2.238,1.477,4.113,1.477h1.688v1.301
		h-16.594v-1.301h1.688c2.016,0,3.445-0.609,4.289-1.828c0.516-0.75,0.773-2.461,0.773-5.133V27.626c0-2.109-0.234-3.633-0.703-4.57
		c-0.328-0.68-0.932-1.248-1.811-1.705s-2.291-0.686-4.236-0.686v-1.301h13.5l17.297,37.301l17.016-37.301h13.5v1.301h-1.652
		c-2.039,0-3.48,0.609-4.324,1.828c-0.516,0.75-0.773,2.461-0.773,5.133v31.148c0,2.93,0.328,4.758,0.984,5.484
		c0.867,0.984,2.238,1.477,4.113,1.477h1.652v1.301h-20.25v-1.301h1.688c2.039,0,3.469-0.609,4.289-1.828
		c0.516-0.75,0.773-2.461,0.773-5.133V26.923l-18.387,40.113H-227.538z"/>
	<path d="M-134.719,67.036l-18.422-40.113v31.852c0,2.93,0.316,4.758,0.949,5.484c0.867,0.984,2.238,1.477,4.113,1.477h1.688v1.301
		h-16.594v-1.301h1.688c2.016,0,3.445-0.609,4.289-1.828c0.516-0.75,0.773-2.461,0.773-5.133V27.626c0-2.109-0.234-3.633-0.703-4.57
		c-0.328-0.68-0.932-1.248-1.811-1.705s-2.291-0.686-4.236-0.686v-1.301h13.5l17.297,37.301l17.016-37.301h13.5v1.301h-1.652
		c-2.039,0-3.48,0.609-4.324,1.828c-0.516,0.75-0.773,2.461-0.773,5.133v31.148c0,2.93,0.328,4.758,0.984,5.484
		c0.867,0.984,2.238,1.477,4.113,1.477h1.652v1.301h-20.25v-1.301h1.688c2.039,0,3.469-0.609,4.289-1.828
		c0.516-0.75,0.773-2.461,0.773-5.133V26.923l-18.387,40.113H-134.719z"/>
	<path d="M-79.713,21.966V40.81h10.477c2.719,0,4.535-0.41,5.449-1.23c1.219-1.078,1.898-2.977,2.039-5.695h1.301v16.594h-1.301
		c-0.328-2.32-0.656-3.809-0.984-4.465c-0.422-0.82-1.113-1.465-2.074-1.934s-2.438-0.703-4.43-0.703h-10.477v15.715
		c0,2.109,0.094,3.393,0.281,3.85s0.516,0.82,0.984,1.09s1.359,0.404,2.672,0.404h8.086c2.695,0,4.652-0.188,5.871-0.563
		s2.391-1.113,3.516-2.215c1.453-1.453,2.941-3.645,4.465-6.574h1.406l-4.113,11.953h-36.738v-1.301h1.688
		c1.125,0,2.191-0.27,3.199-0.809c0.75-0.375,1.26-0.938,1.529-1.688s0.404-2.285,0.404-4.605V27.661
		c0-3.023-0.305-4.887-0.914-5.59c-0.844-0.938-2.25-1.406-4.219-1.406h-1.688v-1.301h36.738l0.527,10.441h-1.371
		c-0.492-2.508-1.037-4.23-1.635-5.168s-1.482-1.652-2.654-2.145c-0.938-0.352-2.59-0.527-4.957-0.527H-79.713z"/>
	<path d="M-15.919,67.036l-18.422-40.113v31.852c0,2.93,0.316,4.758,0.949,5.484c0.867,0.984,2.238,1.477,4.113,1.477h1.688v1.301
		h-16.594v-1.301h1.688c2.016,0,3.445-0.609,4.289-1.828c0.516-0.75,0.773-2.461,0.773-5.133V27.626c0-2.109-0.234-3.633-0.703-4.57
		c-0.328-0.68-0.932-1.248-1.811-1.705s-2.291-0.686-4.236-0.686v-1.301h13.5l17.297,37.301L3.628,19.364h13.5v1.301h-1.652
		c-2.039,0-3.48,0.609-4.324,1.828c-0.516,0.75-0.773,2.461-0.773,5.133v31.148c0,2.93,0.328,4.758,0.984,5.484
		c0.867,0.984,2.238,1.477,4.113,1.477h1.652v1.301h-20.25v-1.301h1.688c2.039,0,3.469-0.609,4.289-1.828
		c0.516-0.75,0.773-2.461,0.773-5.133V26.923l-18.387,40.113H-15.919z"/>
	<path d="M57.298,42.708c3.305,0.703,5.777,1.828,7.418,3.375c2.273,2.156,3.41,4.793,3.41,7.91c0,2.367-0.75,4.635-2.25,6.803
		s-3.557,3.75-6.17,4.746s-6.604,1.494-11.971,1.494h-22.5v-1.301h1.793c1.992,0,3.422-0.633,4.289-1.898
		c0.539-0.82,0.809-2.566,0.809-5.238V27.802c0-2.953-0.34-4.816-1.02-5.59c-0.914-1.031-2.273-1.547-4.078-1.547h-1.793v-1.301
		h20.602c3.844,0,6.926,0.281,9.246,0.844c3.516,0.844,6.199,2.338,8.051,4.482s2.777,4.611,2.777,7.4
		c0,2.391-0.727,4.529-2.18,6.416S60.134,41.794,57.298,42.708z M38.876,40.81c0.867,0.164,1.857,0.287,2.971,0.369
		s2.338,0.123,3.674,0.123c3.422,0,5.994-0.369,7.717-1.107s3.041-1.869,3.955-3.393s1.371-3.188,1.371-4.992
		c0-2.789-1.137-5.168-3.41-7.137s-5.59-2.953-9.949-2.953c-2.344,0-4.453,0.258-6.328,0.773V40.81z M38.876,63.591
		c2.719,0.633,5.402,0.949,8.051,0.949c4.242,0,7.477-0.955,9.703-2.865s3.34-4.271,3.34-7.084c0-1.852-0.504-3.633-1.512-5.344
		s-2.648-3.059-4.922-4.043s-5.086-1.477-8.438-1.477c-1.453,0-2.695,0.023-3.727,0.07s-1.863,0.129-2.496,0.246V63.591z"/>
	<path d="M92.51,21.966V40.81h10.477c2.719,0,4.535-0.41,5.449-1.23c1.219-1.078,1.898-2.977,2.039-5.695h1.301v16.594h-1.301
		c-0.328-2.32-0.656-3.809-0.984-4.465c-0.422-0.82-1.113-1.465-2.074-1.934s-2.438-0.703-4.43-0.703H92.51v15.715
		c0,2.109,0.094,3.393,0.281,3.85s0.516,0.82,0.984,1.09s1.359,0.404,2.672,0.404h8.086c2.695,0,4.652-0.188,5.871-0.563
		s2.391-1.113,3.516-2.215c1.453-1.453,2.941-3.645,4.465-6.574h1.406l-4.113,11.953H78.939v-1.301h1.688
		c1.125,0,2.191-0.27,3.199-0.809c0.75-0.375,1.26-0.938,1.529-1.688s0.404-2.285,0.404-4.605V27.661
		c0-3.023-0.305-4.887-0.914-5.59c-0.844-0.938-2.25-1.406-4.219-1.406h-1.688v-1.301h36.738l0.527,10.441h-1.371
		c-0.492-2.508-1.037-4.23-1.635-5.168s-1.482-1.652-2.654-2.145c-0.938-0.352-2.59-0.527-4.957-0.527H92.51z"/>
	<path d="M175.5,67.036h-12.727l-16.137-22.289c-1.195,0.047-2.168,0.07-2.918,0.07c-0.305,0-0.633-0.006-0.984-0.018
		s-0.715-0.029-1.09-0.053v13.852c0,3,0.328,4.863,0.984,5.59c0.891,1.031,2.227,1.547,4.008,1.547h1.863v1.301h-20.426v-1.301
		h1.793c2.016,0,3.457-0.656,4.324-1.969c0.492-0.727,0.738-2.449,0.738-5.168V27.802c0-3-0.328-4.863-0.984-5.59
		c-0.914-1.031-2.273-1.547-4.078-1.547h-1.793v-1.301h17.367c5.063,0,8.795,0.369,11.197,1.107s4.441,2.098,6.117,4.078
		s2.514,4.342,2.514,7.084c0,2.93-0.955,5.473-2.865,7.629s-4.869,3.68-8.877,4.57l9.844,13.676c2.25,3.141,4.184,5.227,5.801,6.258
		s3.727,1.688,6.328,1.969V67.036z M141.645,42.532c0.445,0,0.832,0.006,1.16,0.018s0.598,0.018,0.809,0.018
		c4.547,0,7.975-0.984,10.283-2.953s3.463-4.477,3.463-7.523c0-2.977-0.932-5.396-2.795-7.26s-4.33-2.795-7.4-2.795
		c-1.359,0-3.199,0.223-5.52,0.668V42.532z"/>
	<path d="M244.94,53.853l1.16,0.246l-4.078,12.938h-36.914v-1.301h1.793c2.016,0,3.457-0.656,4.324-1.969
		c0.492-0.75,0.738-2.484,0.738-5.203V27.802c0-2.977-0.328-4.84-0.984-5.59c-0.914-1.031-2.273-1.547-4.078-1.547h-1.793v-1.301
		h21.586v1.301c-2.531-0.023-4.307,0.211-5.326,0.703s-1.717,1.113-2.092,1.863s-0.563,2.543-0.563,5.379v29.953
		c0,1.945,0.188,3.281,0.563,4.008c0.281,0.492,0.715,0.855,1.301,1.09s2.414,0.352,5.484,0.352h3.48
		c3.656,0,6.223-0.27,7.699-0.809s2.824-1.494,4.043-2.865S243.722,56.806,244.94,53.853z"/>
	<path d="M279.38,18.274c6.188,0,11.549,2.35,16.084,7.049s6.803,10.564,6.803,17.596c0,7.242-2.285,13.254-6.855,18.035
		s-10.102,7.172-16.594,7.172c-6.563,0-12.076-2.332-16.541-6.996s-6.697-10.699-6.697-18.105c0-7.57,2.578-13.746,7.734-18.527
		C267.79,20.349,273.146,18.274,279.38,18.274z M278.712,20.841c-4.266,0-7.688,1.582-10.266,4.746
		c-3.211,3.938-4.816,9.703-4.816,17.297c0,7.781,1.664,13.77,4.992,17.965c2.555,3.188,5.93,4.781,10.125,4.781
		c4.477,0,8.174-1.746,11.092-5.238s4.377-9,4.377-16.523c0-8.156-1.605-14.238-4.816-18.246
		C286.821,22.435,283.259,20.841,278.712,20.841z"/>
	<path d="M343.455,18.274v16.488h-1.301c-0.422-3.164-1.178-5.684-2.268-7.559s-2.643-3.363-4.658-4.465s-4.102-1.652-6.258-1.652
		c-2.438,0-4.453,0.744-6.047,2.232s-2.391,3.182-2.391,5.08c0,1.453,0.504,2.777,1.512,3.973c1.453,1.758,4.91,4.102,10.371,7.031
		c4.453,2.391,7.494,4.225,9.123,5.502s2.883,2.783,3.762,4.518s1.318,3.551,1.318,5.449c0,3.609-1.4,6.721-4.201,9.334
		s-6.404,3.92-10.811,3.92c-1.383,0-2.684-0.105-3.902-0.316c-0.727-0.118-2.232-0.545-4.518-1.283s-3.732-1.107-4.342-1.107
		c-0.586,0-1.049,0.176-1.389,0.527s-0.592,1.078-0.756,2.18H315.4V51.778h1.301c0.609,3.422,1.43,5.982,2.461,7.682
		s2.607,3.111,4.729,4.236s4.447,1.688,6.979,1.688c2.93,0,5.244-0.773,6.943-2.32s2.549-3.375,2.549-5.484
		c0-1.172-0.322-2.355-0.967-3.551s-1.646-2.309-3.006-3.34c-0.914-0.703-3.41-2.197-7.488-4.482s-6.979-4.107-8.701-5.467
		s-3.029-2.859-3.92-4.5s-1.336-3.445-1.336-5.414c0-3.422,1.313-6.369,3.938-8.842s5.965-3.709,10.02-3.709
		c2.531,0,5.215,0.621,8.051,1.863c1.313,0.586,2.238,0.879,2.777,0.879c0.609,0,1.107-0.182,1.494-0.545s0.697-1.096,0.932-2.197
		H343.455z"/>
	<path d="M397.547,19.364l0.527,11.18h-1.336c-0.258-1.969-0.609-3.375-1.055-4.219c-0.727-1.359-1.693-2.361-2.9-3.006
		s-2.795-0.967-4.764-0.967h-6.715v36.422c0,2.93,0.316,4.758,0.949,5.484c0.891,0.984,2.262,1.477,4.113,1.477h1.652v1.301h-20.215
		v-1.301h1.688c2.016,0,3.445-0.609,4.289-1.828c0.516-0.75,0.773-2.461,0.773-5.133V22.353h-5.73c-2.227,0-3.809,0.164-4.746,0.492
		c-1.219,0.445-2.262,1.301-3.129,2.566s-1.383,2.977-1.547,5.133h-1.336l0.563-11.18H397.547z"/>
</g>
</svg>
