<?xml version="1.0" encoding="utf-8"?>
<!-- Generator: Adobe Illustrator 15.1.0, SVG Export Plug-In . SVG Version: 6.00 Build 0)  -->
<!DOCTYPE svg PUBLIC "-//W3C//DTD SVG 1.1//EN" "http://www.w3.org/Graphics/SVG/1.1/DTD/svg11.dtd">
<svg version="1.1" id="Layer_1" xmlns="http://www.w3.org/2000/svg" xmlns:xlink="http://www.w3.org/1999/xlink" x="0px" y="0px"
	 width="792px" height="612px" viewBox="0 0 792 612" enable-background="new 0 0 792 612" xml:space="preserve">
<g id="Outline">
	<path fill="none" stroke="#F2F2F2" stroke-width="4" stroke-miterlimit="10" d="M48.833-54.5c0,0-33.791-7.529-22.333-24.333
		c11.458-16.803,22.279-16.219,36.028-18.511c13.75-2.292,24.722-8.155,32.347-8.155c0,0,37.25,2.875,8.134,22.668
		c0,0-9.164,4.697-20.622,7.696c-11.459,2.998-2.296,8.344,8.4,17.51c10.696,9.167,16.039,7.64,16.039,7.64
		s9.167-9.166,16.806-10.695c7.641-1.527,16.807-4.581,30.557,3.821c13.749,8.4,5.561,22.485-4.583,29.79l-9.167,6.108
		c0,0,22.561,31.087,25.207,40.485c2.493,8.854,10.692,23.683-19.098,43.537c-29.79,19.862-40.48,25.207-40.48,25.207
		s-14.517,5.353-19.1-13.75c-4.581-19.092,27.5-31.311,27.5-31.311s32.847-12.226,6.873-32.849
		c-25.971-20.624-51.18,1.834-51.18,1.834S30.442,37.088,15.931,39.38C1.419,41.672-34.482,69.173-41.355,74.516
		c-6.875,5.354-51.941,7.636-64.926,1.531c-12.987-6.114-31.321,3.053-32.848,18.333c-1.527,15.28-35.901,25.207-25.207-20.625
		c10.695-45.833,51.656-21.895,51.656-21.895s43.824-7.286,80.489-39.67c0,0-33.519-3.475-42.011-1.834
		c-5.03,0.971-15.606,19.437-16.807,26.732c-1.199,7.298-12.983,19.856-55.759,0c-42.776-19.858-8.598-28.113,0-26.732
		c7.733,1.242,36.95,10.695,46.117-19.095c9.167-29.79,66.166-18.332,82.972-13.749C-0.872-17.905,66.167-47.833,48.833-54.5z"/>
</g>
</svg>
