<?xml version="1.0" encoding="utf-8"?>
<!-- Generator: Adobe Illustrator 15.1.0, SVG Export Plug-In . SVG Version: 6.00 Build 0)  -->
<!DOCTYPE svg PUBLIC "-//W3C//DTD SVG 1.1//EN" "http://www.w3.org/Graphics/SVG/1.1/DTD/svg11.dtd">
<svg version="1.1" id="Layer_1" xmlns="http://www.w3.org/2000/svg" xmlns:xlink="http://www.w3.org/1999/xlink" x="0px" y="0px"
	 width="792px" height="612px" viewBox="0 0 792 612" enable-background="new 0 0 792 612" xml:space="preserve">
<g id="Tape">
	<rect x="-310" y="-20" fill="#E8E04D" width="620" height="40"/>
	<g>
		<path d="M-283.994-10.29l0.455,6.758h-0.455c-0.605-2.023-1.471-3.479-2.594-4.369c-1.124-0.889-2.473-1.333-4.046-1.333
			c-1.319,0-2.512,0.334-3.577,1.004c-1.064,0.669-1.902,1.737-2.514,3.203c-0.611,1.466-0.916,3.288-0.916,5.467
			c0,1.798,0.288,3.357,0.865,4.676c0.576,1.319,1.443,2.331,2.602,3.034c1.159,0.703,2.479,1.056,3.965,1.056
			c1.29,0,2.429-0.276,3.416-0.829c0.986-0.552,2.071-1.649,3.254-3.291l0.454,0.293c-0.997,1.769-2.159,3.063-3.489,3.885
			c-1.328,0.821-2.906,1.231-4.734,1.231c-3.293,0-5.844-1.221-7.651-3.665c-1.349-1.817-2.022-3.958-2.022-6.42
			c0-1.984,0.444-3.806,1.334-5.468c0.889-1.661,2.113-2.949,3.672-3.862s3.262-1.371,5.107-1.371c1.438,0,2.854,0.352,4.252,1.056
			c0.41,0.215,0.703,0.322,0.879,0.322c0.264,0,0.494-0.093,0.689-0.278c0.254-0.264,0.435-0.63,0.542-1.1L-283.994-10.29
			L-283.994-10.29z"/>
		<path d="M-268.609,3.387h-7.695l-1.35,3.137c-0.332,0.772-0.498,1.349-0.498,1.729c0,0.303,0.145,0.569,0.433,0.799
			c0.288,0.23,0.911,0.379,1.869,0.447v0.542h-6.259V9.5c0.83-0.146,1.367-0.337,1.611-0.572c0.499-0.469,1.051-1.422,1.656-2.858
			l6.992-16.359h0.514l6.919,16.535c0.558,1.329,1.063,2.192,1.517,2.587c0.455,0.396,1.088,0.618,1.898,0.667v0.542h-7.842V9.5
			c0.791-0.039,1.326-0.171,1.605-0.396c0.277-0.225,0.417-0.499,0.417-0.821c0-0.43-0.195-1.109-0.587-2.038L-268.609,3.387z
			 M-269.02,2.302l-3.372-8.033l-3.459,8.033H-269.02z"/>
		<path d="M-246.643-9.292v-0.542h7.035v0.542h-0.747c-0.782,0-1.383,0.327-1.804,0.982c-0.205,0.303-0.307,1.006-0.307,2.111v8.062
			c0,1.994-0.198,3.54-0.594,4.64c-0.396,1.099-1.174,2.042-2.331,2.829c-1.158,0.787-2.733,1.18-4.728,1.18
			c-2.17,0-3.816-0.376-4.939-1.128c-1.124-0.752-1.92-1.764-2.39-3.034c-0.313-0.87-0.47-2.502-0.47-4.896v-7.769
			c0-1.222-0.168-2.023-0.506-2.404c-0.336-0.381-0.881-0.571-1.634-0.571h-0.747v-0.542h8.59v0.542h-0.763
			c-0.821,0-1.407,0.259-1.759,0.776c-0.244,0.352-0.367,1.085-0.367,2.199v8.663c0,0.772,0.071,1.656,0.213,2.653
			c0.143,0.997,0.398,1.773,0.77,2.331s0.906,1.016,1.605,1.378c0.699,0.361,1.557,0.542,2.572,0.542c1.3,0,2.463-0.284,3.488-0.851
			c1.027-0.566,1.729-1.292,2.104-2.177c0.377-0.884,0.564-2.382,0.564-4.493v-8.047c0-1.241-0.137-2.018-0.41-2.331
			c-0.381-0.43-0.947-0.645-1.7-0.645H-246.643z"/>
		<path d="M-222.215-9.835l0.221,4.661h-0.558c-0.107-0.821-0.254-1.407-0.44-1.759c-0.303-0.567-0.705-0.985-1.209-1.253
			c-0.503-0.269-1.165-0.403-1.986-0.403h-2.799V6.597c0,1.222,0.131,1.984,0.396,2.287c0.371,0.411,0.942,0.616,1.715,0.616h0.688
			v0.542h-8.428V9.5h0.703c0.84,0,1.437-0.254,1.789-0.762c0.215-0.313,0.322-1.026,0.322-2.14V-8.589h-2.39
			c-0.929,0-1.589,0.068-1.979,0.206c-0.508,0.186-0.942,0.542-1.305,1.07c-0.361,0.528-0.576,1.241-0.645,2.14h-0.557l0.234-4.661
			L-222.215-9.835L-222.215-9.835z"/>
		<path d="M-212.283,9.5v0.542h-8.516V9.5h0.703c0.82,0,1.417-0.239,1.788-0.718c0.235-0.313,0.353-1.065,0.353-2.257V-6.317
			c0-1.007-0.064-1.671-0.191-1.994c-0.098-0.245-0.298-0.455-0.601-0.63c-0.431-0.234-0.88-0.352-1.349-0.352h-0.703v-0.542h8.516
			v0.542h-0.718c-0.812,0-1.402,0.239-1.774,0.718c-0.244,0.313-0.365,1.065-0.365,2.258V6.524c0,1.006,0.063,1.671,0.189,1.994
			c0.098,0.244,0.304,0.454,0.616,0.63c0.421,0.234,0.864,0.352,1.334,0.352H-212.283z"/>
		<path d="M-200.871-10.29c2.58,0,4.815,0.979,6.707,2.939c1.891,1.959,2.836,4.405,2.836,7.336c0,3.02-0.953,5.526-2.859,7.52
			c-1.904,1.994-4.211,2.99-6.918,2.99c-2.736,0-5.035-0.972-6.896-2.917c-1.862-1.945-2.793-4.461-2.793-7.549
			c0-3.157,1.074-5.732,3.225-7.725C-205.703-9.425-203.471-10.29-200.871-10.29z M-201.149-9.219c-1.778,0-3.206,0.659-4.28,1.979
			c-1.339,1.642-2.008,4.046-2.008,7.212c0,3.245,0.693,5.742,2.081,7.491c1.065,1.329,2.472,1.994,4.222,1.994
			c1.866,0,3.408-0.728,4.625-2.184c1.217-1.456,1.824-3.752,1.824-6.89c0-3.401-0.669-5.937-2.008-7.608
			C-197.769-8.555-199.254-9.219-201.149-9.219z"/>
		<path d="M-190.866-9.835h5.395l12.151,14.908V-6.39c0-1.222-0.137-1.984-0.41-2.287c-0.361-0.41-0.934-0.615-1.715-0.615h-0.689
			v-0.542h6.92v0.542h-0.704c-0.841,0-1.437,0.254-1.788,0.762c-0.215,0.313-0.322,1.026-0.322,2.141v16.754h-0.528L-185.66-5.642
			v12.24c0,1.222,0.132,1.984,0.396,2.287c0.372,0.411,0.943,0.616,1.716,0.616h0.703v0.542h-6.919V9.5h0.688
			c0.851,0,1.451-0.254,1.803-0.762c0.216-0.313,0.323-1.026,0.323-2.14V-7.226c-0.577-0.674-1.015-1.119-1.312-1.334
			c-0.299-0.215-0.736-0.415-1.313-0.601c-0.283-0.088-0.713-0.132-1.29-0.132L-190.866-9.835L-190.866-9.835z"/>
	</g>
	<g>
		<path d="M-67.994-10.29l0.455,6.758h-0.455C-68.6-5.555-69.465-7.011-70.588-7.9c-1.124-0.889-2.473-1.333-4.046-1.333
			c-1.319,0-2.512,0.334-3.577,1.004c-1.064,0.669-1.902,1.737-2.514,3.203c-0.611,1.466-0.916,3.288-0.916,5.467
			c0,1.798,0.288,3.357,0.865,4.676c0.576,1.319,1.443,2.331,2.602,3.034c1.159,0.703,2.479,1.056,3.965,1.056
			c1.29,0,2.429-0.276,3.416-0.829c0.986-0.552,2.071-1.649,3.254-3.291l0.454,0.293c-0.997,1.769-2.159,3.063-3.489,3.885
			c-1.328,0.821-2.906,1.231-4.734,1.231c-3.293,0-5.844-1.221-7.651-3.665c-1.349-1.817-2.022-3.958-2.022-6.42
			c0-1.984,0.444-3.806,1.334-5.468c0.889-1.661,2.113-2.949,3.672-3.862s3.262-1.371,5.107-1.371c1.438,0,2.854,0.352,4.252,1.056
			c0.41,0.215,0.703,0.322,0.879,0.322c0.264,0,0.494-0.093,0.689-0.278c0.254-0.264,0.435-0.63,0.542-1.1H-67.994z"/>
		<path d="M-52.609,3.387h-7.695l-1.35,3.137c-0.332,0.772-0.498,1.349-0.498,1.729c0,0.303,0.145,0.569,0.433,0.799
			c0.288,0.23,0.911,0.379,1.869,0.447v0.542h-6.259V9.5c0.83-0.146,1.367-0.337,1.611-0.572c0.499-0.469,1.051-1.422,1.656-2.858
			l6.992-16.359h0.514l6.919,16.535c0.558,1.329,1.063,2.192,1.517,2.587c0.455,0.396,1.088,0.618,1.898,0.667v0.542h-7.842V9.5
			c0.791-0.039,1.326-0.171,1.605-0.396c0.277-0.225,0.417-0.499,0.417-0.821c0-0.43-0.195-1.109-0.587-2.038L-52.609,3.387z
			 M-53.02,2.302l-3.372-8.033l-3.459,8.033H-53.02z"/>
		<path d="M-30.643-9.292v-0.542h7.035v0.542h-0.747c-0.782,0-1.383,0.327-1.804,0.982c-0.205,0.303-0.307,1.006-0.307,2.111v8.062
			c0,1.994-0.198,3.54-0.594,4.64c-0.396,1.099-1.174,2.042-2.331,2.829c-1.158,0.787-2.733,1.18-4.728,1.18
			c-2.17,0-3.816-0.376-4.939-1.128c-1.124-0.752-1.92-1.764-2.39-3.034c-0.313-0.87-0.47-2.502-0.47-4.896v-7.769
			c0-1.222-0.168-2.023-0.506-2.404C-42.76-9.1-43.305-9.29-44.058-9.29h-0.747v-0.542h8.59v0.542h-0.763
			c-0.821,0-1.407,0.259-1.759,0.776c-0.244,0.352-0.367,1.085-0.367,2.199v8.663c0,0.772,0.071,1.656,0.213,2.653
			c0.143,0.997,0.398,1.773,0.77,2.331s0.906,1.016,1.605,1.378c0.699,0.361,1.557,0.542,2.572,0.542c1.3,0,2.463-0.284,3.488-0.851
			c1.027-0.566,1.729-1.292,2.104-2.177c0.377-0.884,0.564-2.382,0.564-4.493v-8.047c0-1.241-0.137-2.018-0.41-2.331
			c-0.381-0.43-0.947-0.645-1.7-0.645H-30.643z"/>
		<path d="M-6.215-9.835l0.221,4.661h-0.558c-0.107-0.821-0.254-1.407-0.44-1.759C-7.295-7.5-7.697-7.917-8.201-8.186
			c-0.503-0.269-1.165-0.403-1.986-0.403h-2.799V6.597c0,1.222,0.131,1.984,0.396,2.287c0.37,0.41,0.942,0.616,1.714,0.616h0.688
			v0.542h-8.428V9.5h0.703c0.84,0,1.437-0.254,1.789-0.762c0.215-0.313,0.322-1.026,0.322-2.14V-8.589h-2.39
			c-0.929,0-1.589,0.068-1.979,0.206c-0.508,0.186-0.942,0.542-1.305,1.07c-0.361,0.528-0.576,1.241-0.645,2.14h-0.557l0.234-4.661
			L-6.215-9.835L-6.215-9.835z"/>
		<path d="M3.717,9.5v0.542h-8.516V9.5h0.703c0.82,0,1.417-0.239,1.788-0.718c0.235-0.313,0.353-1.065,0.353-2.257V-6.317
			c0-1.007-0.064-1.671-0.191-1.994c-0.098-0.245-0.298-0.455-0.601-0.63c-0.431-0.234-0.88-0.352-1.349-0.352h-0.703v-0.542h8.516
			v0.542H2.999c-0.812,0-1.402,0.239-1.774,0.718C0.98-8.262,0.859-7.509,0.859-6.317V6.524c0,1.006,0.063,1.671,0.189,1.994
			c0.098,0.244,0.304,0.454,0.616,0.63C2.086,9.382,2.529,9.5,2.999,9.5H3.717z"/>
		<path d="M15.129-10.29c2.58,0,4.815,0.979,6.707,2.939c1.891,1.959,2.836,4.405,2.836,7.336c0,3.02-0.953,5.526-2.859,7.52
			c-1.904,1.994-4.211,2.99-6.918,2.99c-2.736,0-5.035-0.972-6.896-2.917C6.136,5.634,5.205,3.118,5.205,0.03
			c0-3.157,1.074-5.732,3.225-7.725C10.297-9.425,12.529-10.29,15.129-10.29z M14.851-9.219c-1.778,0-3.206,0.659-4.28,1.979
			c-1.34,1.641-2.008,4.045-2.008,7.211c0,3.245,0.693,5.742,2.081,7.491c1.065,1.329,2.472,1.994,4.222,1.994
			c1.866,0,3.408-0.728,4.625-2.184c1.217-1.456,1.824-3.752,1.824-6.89c0-3.401-0.669-5.937-2.008-7.608
			C18.231-8.555,16.746-9.219,14.851-9.219z"/>
		<path d="M25.134-9.835h5.395L42.68,5.073V-6.39c0-1.222-0.137-1.984-0.41-2.287c-0.361-0.41-0.934-0.615-1.715-0.615h-0.689
			v-0.542h6.92v0.542h-0.704c-0.841,0-1.437,0.254-1.788,0.762c-0.215,0.313-0.322,1.026-0.322,2.141v16.754h-0.528L30.338-5.643
			v12.24c0,1.222,0.132,1.984,0.396,2.287c0.371,0.41,0.943,0.616,1.715,0.616h0.703v0.542h-6.919V9.5h0.688
			c0.851,0,1.451-0.254,1.803-0.762c0.216-0.313,0.323-1.026,0.323-2.14V-7.226C28.471-7.9,28.033-8.345,27.736-8.56
			C27.438-8.775,27-8.975,26.424-9.161c-0.283-0.088-0.713-0.132-1.29-0.132V-9.835z"/>
	</g>
	<g>
		<path d="M148.006-10.29l0.455,6.758h-0.455c-0.605-2.023-1.471-3.479-2.594-4.369c-1.124-0.889-2.473-1.333-4.046-1.333
			c-1.319,0-2.512,0.334-3.577,1.004c-1.064,0.669-1.902,1.737-2.514,3.203c-0.611,1.466-0.916,3.288-0.916,5.467
			c0,1.798,0.288,3.357,0.865,4.676c0.576,1.319,1.443,2.331,2.602,3.034c1.159,0.703,2.479,1.056,3.965,1.056
			c1.29,0,2.429-0.276,3.416-0.829c0.986-0.552,2.071-1.649,3.254-3.291l0.454,0.293c-0.997,1.769-2.159,3.063-3.489,3.885
			c-1.328,0.821-2.906,1.231-4.734,1.231c-3.293,0-5.844-1.221-7.651-3.665c-1.349-1.817-2.022-3.958-2.022-6.42
			c0-1.984,0.444-3.806,1.334-5.468c0.889-1.661,2.113-2.949,3.672-3.862s3.262-1.371,5.107-1.371c1.438,0,2.854,0.352,4.252,1.056
			c0.41,0.215,0.703,0.322,0.879,0.322c0.264,0,0.494-0.093,0.689-0.278c0.254-0.264,0.435-0.63,0.542-1.1L148.006-10.29
			L148.006-10.29z"/>
		<path d="M163.391,3.387h-7.695l-1.35,3.137c-0.332,0.772-0.498,1.349-0.498,1.729c0,0.303,0.145,0.569,0.433,0.799
			c0.288,0.23,0.911,0.379,1.869,0.447v0.542h-6.259V9.5c0.83-0.146,1.367-0.337,1.611-0.572c0.499-0.469,1.051-1.422,1.656-2.858
			l6.992-16.359h0.514l6.919,16.535c0.558,1.329,1.063,2.192,1.517,2.587c0.455,0.396,1.088,0.618,1.898,0.667v0.542h-7.842V9.5
			c0.791-0.039,1.326-0.171,1.605-0.396c0.277-0.225,0.417-0.499,0.417-0.821c0-0.43-0.195-1.109-0.587-2.038L163.391,3.387z
			 M162.98,2.302l-3.372-8.033l-3.459,8.033H162.98z"/>
		<path d="M185.357-9.292v-0.542h7.035v0.542h-0.747c-0.782,0-1.383,0.327-1.804,0.982c-0.205,0.303-0.307,1.006-0.307,2.111v8.062
			c0,1.994-0.198,3.54-0.594,4.64c-0.396,1.099-1.174,2.042-2.331,2.829c-1.158,0.787-2.733,1.18-4.728,1.18
			c-2.17,0-3.816-0.376-4.939-1.128c-1.124-0.752-1.92-1.764-2.39-3.034c-0.313-0.87-0.47-2.502-0.47-4.896v-7.769
			c0-1.222-0.168-2.023-0.506-2.404c-0.336-0.381-0.881-0.571-1.634-0.571h-0.747v-0.542h8.59v0.542h-0.763
			c-0.821,0-1.407,0.259-1.759,0.776c-0.244,0.352-0.367,1.085-0.367,2.199v8.663c0,0.772,0.071,1.656,0.213,2.653
			c0.143,0.997,0.398,1.773,0.77,2.331s0.906,1.016,1.605,1.378c0.699,0.361,1.557,0.542,2.572,0.542c1.3,0,2.463-0.284,3.488-0.851
			c1.027-0.566,1.729-1.292,2.104-2.177c0.377-0.884,0.564-2.382,0.564-4.493v-8.047c0-1.241-0.137-2.018-0.41-2.331
			c-0.381-0.43-0.947-0.645-1.7-0.645H185.357z"/>
		<path d="M209.785-9.835l0.221,4.661h-0.558c-0.107-0.821-0.254-1.407-0.44-1.759c-0.303-0.567-0.705-0.985-1.209-1.253
			c-0.503-0.269-1.165-0.403-1.986-0.403h-2.799V6.597c0,1.222,0.131,1.984,0.396,2.287c0.371,0.411,0.942,0.616,1.715,0.616h0.688
			v0.542h-8.428V9.5h0.703c0.84,0,1.437-0.254,1.789-0.762c0.215-0.313,0.322-1.026,0.322-2.14V-8.589h-2.39
			c-0.929,0-1.589,0.068-1.979,0.206c-0.508,0.186-0.942,0.542-1.305,1.07c-0.361,0.528-0.576,1.241-0.645,2.14h-0.557l0.234-4.661
			L209.785-9.835L209.785-9.835z"/>
		<path d="M219.717,9.5v0.542h-8.516V9.5h0.703c0.82,0,1.417-0.239,1.788-0.718c0.235-0.313,0.353-1.065,0.353-2.257V-6.317
			c0-1.007-0.064-1.671-0.191-1.994c-0.098-0.245-0.298-0.455-0.601-0.63c-0.431-0.234-0.88-0.352-1.349-0.352h-0.703v-0.542h8.516
			v0.542h-0.718c-0.812,0-1.402,0.239-1.774,0.718c-0.244,0.313-0.365,1.065-0.365,2.258V6.524c0,1.006,0.063,1.671,0.189,1.994
			c0.098,0.244,0.304,0.454,0.616,0.63c0.421,0.234,0.864,0.352,1.334,0.352H219.717z"/>
		<path d="M231.129-10.29c2.58,0,4.815,0.979,6.707,2.939c1.891,1.959,2.836,4.405,2.836,7.336c0,3.02-0.953,5.526-2.859,7.52
			c-1.904,1.994-4.211,2.99-6.918,2.99c-2.736,0-5.035-0.972-6.896-2.917c-1.862-1.945-2.793-4.461-2.793-7.549
			c0-3.157,1.074-5.732,3.225-7.725C226.297-9.425,228.529-10.29,231.129-10.29z M230.851-9.219c-1.778,0-3.206,0.659-4.28,1.979
			c-1.339,1.642-2.008,4.046-2.008,7.212c0,3.245,0.693,5.742,2.081,7.491c1.065,1.329,2.472,1.994,4.222,1.994
			c1.866,0,3.408-0.728,4.625-2.184c1.217-1.456,1.824-3.752,1.824-6.89c0-3.401-0.669-5.937-2.008-7.608
			C234.231-8.555,232.746-9.219,230.851-9.219z"/>
		<path d="M241.134-9.835h5.395L258.68,5.073V-6.39c0-1.222-0.137-1.984-0.41-2.287c-0.361-0.41-0.934-0.615-1.715-0.615h-0.689
			v-0.542h6.92v0.542h-0.704c-0.841,0-1.437,0.254-1.788,0.762c-0.215,0.313-0.322,1.026-0.322,2.141v16.754h-0.528L246.338-5.643
			v12.24c0,1.222,0.132,1.984,0.396,2.287c0.372,0.411,0.943,0.616,1.716,0.616h0.703v0.542h-6.919V9.5h0.688
			c0.851,0,1.451-0.254,1.803-0.762c0.216-0.313,0.323-1.026,0.323-2.14V-7.226c-0.577-0.674-1.015-1.119-1.312-1.334
			c-0.299-0.215-0.736-0.415-1.313-0.601c-0.283-0.088-0.713-0.132-1.29-0.132L241.134-9.835L241.134-9.835z"/>
	</g>
</g>
</svg>
