<?xml version="1.0" encoding="utf-8"?>
<!-- Generator: Adobe Illustrator 16.0.0, SVG Export Plug-In . SVG Version: 6.00 Build 0)  -->
<!DOCTYPE svg PUBLIC "-//W3C//DTD SVG 1.1//EN" "http://www.w3.org/Graphics/SVG/1.1/DTD/svg11.dtd">
<svg version="1.1" id="Layer_1" xmlns="http://www.w3.org/2000/svg" xmlns:xlink="http://www.w3.org/1999/xlink" x="0px" y="0px"
	 width="360px" height="360px" viewBox="0 0 360 360" enable-background="new 0 0 360 360" xml:space="preserve">
<g id="boom">
	<path fill="#AE1F24" d="M98.748,124.761h14.766c4.664,0,8.197,0.363,10.6,1.089c2.402,0.726,4.342,2.196,5.818,4.409
		c1.477,2.214,2.215,5.779,2.215,10.698c0,3.326-0.522,5.645-1.564,6.956c-1.043,1.312-3.1,2.319-6.17,3.021
		c3.422,0.774,5.742,2.058,6.961,3.852c1.218,1.794,1.828,4.544,1.828,8.25v5.276c0,3.847-0.439,6.696-1.318,8.548
		c-0.879,1.853-2.28,3.119-4.201,3.799c-1.922,0.681-5.859,1.021-11.813,1.021H98.748V124.761z M113.549,134.5v12.656
		c0.633-0.023,1.125-0.035,1.477-0.035c1.453,0,2.378-0.357,2.777-1.072c0.398-0.715,0.598-2.76,0.598-6.135
		c0-1.781-0.164-3.029-0.492-3.744c-0.329-0.715-0.756-1.166-1.283-1.354C116.098,134.628,115.072,134.523,113.549,134.5z
		 M113.549,156.015v15.926c2.086-0.07,3.416-0.398,3.99-0.984c0.574-0.585,0.861-2.027,0.861-4.324v-5.309
		c0-2.438-0.258-3.914-0.773-4.43C117.111,156.379,115.751,156.085,113.549,156.015z"/>
	<path fill="#AE1F24" d="M172.33,158.089c0,5.719-0.135,9.768-0.404,12.146c-0.27,2.379-1.113,4.553-2.531,6.521
		c-1.418,1.969-3.334,3.48-5.748,4.536c-2.414,1.055-5.227,1.582-8.438,1.582c-3.047,0-5.783-0.498-8.209-1.494
		c-2.426-0.997-4.377-2.491-5.854-4.483c-1.477-1.992-2.355-4.16-2.637-6.504c-0.281-2.343-0.422-6.445-0.422-12.305v-9.738
		c0-5.718,0.135-9.768,0.404-12.146c0.269-2.378,1.113-4.553,2.531-6.521c1.418-1.969,3.334-3.48,5.748-4.535
		c2.414-1.055,5.226-1.582,8.438-1.582c3.046,0,5.783,0.498,8.209,1.494c2.426,0.997,4.377,2.491,5.854,4.482
		c1.477,1.992,2.355,4.161,2.637,6.504c0.281,2.344,0.422,6.446,0.422,12.305V158.089z M157.529,139.386
		c0-2.648-0.146-4.342-0.439-5.08c-0.293-0.738-0.896-1.107-1.811-1.107c-0.773,0-1.366,0.299-1.775,0.896
		c-0.41,0.598-0.615,2.361-0.615,5.291v26.578c0,3.305,0.135,5.344,0.404,6.117c0.269,0.773,0.896,1.16,1.881,1.16
		c1.007,0,1.652-0.445,1.934-1.336c0.281-0.891,0.422-3.011,0.422-6.363V139.386z"/>
	<path fill="#AE1F24" d="M211.67,158.089c0,5.719-0.135,9.768-0.404,12.146c-0.27,2.379-1.113,4.553-2.531,6.521
		s-3.334,3.48-5.748,4.536c-2.414,1.055-5.227,1.582-8.438,1.582c-3.047,0-5.783-0.498-8.209-1.494
		c-2.426-0.997-4.377-2.491-5.854-4.483c-1.477-1.992-2.355-4.16-2.637-6.504c-0.281-2.343-0.422-6.445-0.422-12.305v-9.738
		c0-5.718,0.135-9.768,0.404-12.146c0.269-2.378,1.113-4.553,2.531-6.521c1.418-1.969,3.334-3.48,5.748-4.535
		s5.227-1.582,8.438-1.582c3.047,0,5.783,0.498,8.209,1.494c2.426,0.997,4.377,2.491,5.854,4.482
		c1.477,1.992,2.355,4.161,2.637,6.504c0.281,2.344,0.422,6.446,0.422,12.305V158.089z M196.869,139.386
		c0-2.648-0.146-4.342-0.439-5.08s-0.896-1.107-1.811-1.107c-0.773,0-1.365,0.299-1.775,0.896s-0.615,2.361-0.615,5.291v26.578
		c0,3.305,0.135,5.344,0.404,6.117s0.896,1.16,1.881,1.16c1.008,0,1.652-0.445,1.934-1.336c0.281-0.891,0.422-3.011,0.422-6.363
		V139.386z"/>
	<path fill="#AE1F24" d="M262.857,124.761v56.918H249.92l-0.018-38.426l-5.15,38.426h-9.176l-5.432-37.547l-0.018,37.547h-12.938
		v-56.918h19.151c0.568,3.422,1.153,7.455,1.757,12.101l2.102,14.478l3.401-26.578H262.857z"/>
</g>
</svg>
