<?xml version="1.0" encoding="utf-8"?>
<!-- Generator: Adobe Illustrator 16.0.0, SVG Export Plug-In . SVG Version: 6.00 Build 0)  -->
<!DOCTYPE svg PUBLIC "-//W3C//DTD SVG 1.1//EN" "http://www.w3.org/Graphics/SVG/1.1/DTD/svg11.dtd">
<svg version="1.1" id="Layer_3" xmlns="http://www.w3.org/2000/svg" xmlns:xlink="http://www.w3.org/1999/xlink" x="0px" y="0px"
	 width="1020px" height="1020px" viewBox="0 0 1020 1020" enable-background="new 0 0 1020 1020" xml:space="preserve">
<g id="earth04">
	<path fill="#2E3192" d="M629.855,288.812c-0.265,0.291-0.462,0.635-0.856,0.749c-2.365,0.687-4.316,2.179-6.447,3.315
		c-1.171,0.625-2.151,0.569-3.293-0.045c-1.921-1.031-3.859-2.036-5.981-2.63c-1.541-0.433-2.887-0.18-4.229,0.69
		c-0.984,0.638-1.427,1.289-1.027,2.496c1.072,3.255-1.633,7.426-4.905,8.045c-1.147,0.216-2.272,0.571-3.403,0.88
		c-4.063,1.115-6.216,4.235-7.971,7.715c-0.588,1.166-0.41,2.369,0.275,3.571c1.272,2.222,1.143,2.25-0.876,3.654
		c-1.575,1.096-3.346,2.12-3.519,4.399c-0.071,0.939-0.692,1.325-1.604,1.353c-0.386,0.01-0.771,0.157-1.155,0.163
		c-1.48,0.017-2.396,0.712-3.089,2.044c-0.962,1.837-1.07,1.823-3.12,1.374c-2.441-0.533-4.915-1.003-7.291-1.754
		c-1.792-0.567-3.376-0.316-4.984,0.398c-1.214,0.54-2.425,1.089-3.596,1.714c-1.06,0.565-1.887,0.486-2.627-0.524
		c-0.51-0.697-1.058-1.349-1.187-2.247c-0.218-1.538-1.262-2.66-1.999-3.938c-0.344-0.591-0.875-0.863-1.521-0.969
		c-1.463-0.235-2.887-0.681-4.399-0.643c-0.767,0.017-1.565-0.125-2.308-0.342c-2.165-0.642-2.414-1.126-1.898-3.359
		c0.297-1.297,0.543-2.608,0.92-3.881c0.31-1.041,0.135-1.802-0.785-2.428c-0.514-0.348-0.951-0.808-1.413-1.23
		c-0.518-0.474-0.631-0.949-0.265-1.648c0.872-1.653,1.581-3.404,3.175-4.547c1.888-1.354,2.83-3.218,3.216-5.486
		c0.337-1.983,1.198-3.893,0.492-5.975c-0.135-0.397,0.051-0.923,0.154-1.376c0.541-2.317,1.055-4.607-0.092-6.928
		c-0.379-0.763,0.557-1.805,1.574-1.828c0.536-0.012,1.086,0.136,1.608,0.285c0.94,0.266,1.698,0.28,1.928-0.936
		c0.128-0.673,0.63-0.844,1.247-0.687c0.529,0.131,1.169,0.155,1.55,0.474c2.587,2.155,5.849,1.989,8.861,2.598
		c1.449,0.297,2.881,0.522,4.303,1c4.009,1.339,8.172,2.103,12.279,3.075c1.005,0.238,1.378-0.393,1.829-1.059
		c1.851-2.736,2.532-5.849,2.954-9.042c0.388-2.954-0.353-5.563-2.53-7.686c-0.98-0.955-1.236-2.141-1.077-3.441
		c0.173-1.425-0.471-2.266-1.678-2.992c-2.281-1.366-4.592-2.653-7.094-3.556c-0.803-0.291-1.227-0.674-0.854-1.537
		c0.397-0.92,0.052-1.666-0.825-2.477c4.834-0.185,9.275-0.033,13.498,2.412c0.182-1.3-0.31-2.188-0.606-3.109
		c-0.313-0.965-0.637-1.93-0.931-2.902c-0.088-0.294-0.123-0.633,0.201-0.832c0.326-0.199,0.676-0.043,0.793,0.23
		c1.235,2.894,3.983,2.937,6.467,3.477c0.146,0.031,0.306-0.014,0.645-0.035c-0.393-1.863,0.836-2.342,2.318-2.606
		c0.458-0.081,0.905-0.242,1.349-0.389c1.867-0.616,1.867-0.619,1.927-2.603c0.05-1.693,0.048-1.69,1.781-2.084
		c0.608-0.139,1.231-0.23,1.819-0.433c1.55-0.536,3.601-0.702,4.487-1.795c1.161-1.429,1.908-3.331,2.873-5.008
		c0.173-0.305,0.117-0.754,0.124-1.138c0.042-2.151,1.263-3.29,3.362-3.064c0.699,0.074,1.384,0.249,2.077,0.374
		c0.393,0.073,0.901,0.144,1.059-0.246c0.721-1.795,2.004-0.955,3.146-0.72c0.531,0.107,1.041,0.322,1.552,0.512
		c0.341,0.128,0.633,0.571,1.041,0.259c0.482-0.367,0.62-0.958,0.438-1.477c-0.339-0.953-0.92-1.826-1.198-2.79
		c-0.854-2.921-1.693-5.847-2.371-8.811c-0.45-1.965,0.319-3.765,2.307-4.521c3.432-1.304,3.4-1.404,4.204,2.297
		c0.32,1.468,1.202,2.96-0.133,4.393c-0.067,0.071-0.028,0.322,0.048,0.432c0.58,0.858,1.671,0.765,2.445,1.28
		c0.521,0.348,0.863-0.055,1.162-0.432c0.362-0.446,0.813-0.65,1.395-0.75c0.886-0.159,1.55-0.125,1.716,0.958
		c0.072,0.46,0.285,0.904,0.33,1.366c0.088,0.938,1.057,1.712,0.721,2.634c-0.346,0.953-1.535,0.957-2.307,1.451
		c-0.678,0.434-1.436,1.069-1.16,1.849c0.278,0.797,1.261,0.803,2.046,0.621c1.141-0.263,2.271-0.583,3.398-0.91
		c0.808-0.235,1.208-0.152,1.842,0.685c2.998,3.96,2.151,3.763,6.466,1.75c1.635-0.763,3.222-1.536,5.04-1.814
		c1.151-0.178,2.146-0.183,3.029,0.69c0.323,0.32,0.746,0.581,1.171,0.755c1.763,0.727,2.489,0.441,3.125-1.382
		c0.278-0.799,0.799-1.328,1.379-1.84c0.688-0.609,0.788-1.225,0.349-2.055c-0.656-1.242-1.259-2.518-1.791-3.817
		c-0.744-1.807-0.778-3.62,0.166-5.397c0.64-1.204,0.74-1.266,1.859-0.367c0.847,0.682,1.639,1.446,2.392,2.234
		c0.709,0.74,1.342,0.559,2.066,0.063c0.742-0.509,0.417-1.031,0.144-1.619c-1.014-2.169-2.405-3.753-5.002-4.064
		c-1.615-0.194-2.407-1.532-2.244-3.189c0.166-1.724,1.149-2.674,2.845-2.694c1.4-0.018,2.804,0.065,4.204,0.003
		c0.737-0.033,1.678,0.076,1.976-0.896c0.263-0.858-0.52-1.21-1.005-1.686c-0.28-0.273-0.614-0.495-0.867-0.787
		c-0.799-0.925-1.606-0.996-2.634-0.291c-0.896,0.612-1.914,1.055-2.89,1.544c-2.058,1.029-3.435,0.742-4.927-0.979
		c-0.868-1.003-1.704-2.039-2.959-2.616c-0.665-0.306-1.058-0.879-1.321-1.57c-0.964-2.501-2.335-4.775-4.011-6.849
		c-0.648-0.806-0.578-1.56-0.271-2.4c0.529-1.47,1.142-2.911,1.432-4.455c0.056-0.308,0.154-0.605,0.229-0.912
		c1.034-4.358-1-5.917-4.808-6.964c-0.86-0.235-1.633,0.01-2.097,0.673c-0.519,0.737-0.408,1.621,0.069,2.409
		c0.08,0.131,0.204,0.235,0.301,0.356c1.817,2.333,1.678,4.026-0.494,5.984c-2.317,2.086-2.729,3.748-1.64,6.582
		c0.169,0.439,0.372,0.865,0.498,1.316c0.626,2.279,1.871,4.048,3.964,5.25c1.302,0.747,2.237,1.913,3.038,3.196
		c0.929,1.486,1.005,1.872-0.119,3.028c-2.169,2.231-2.773,4.722-1.542,7.627c0.362,0.861,0.57,1.793,0.98,2.632
		c0.705,1.449,0.041,2.751-0.313,4.086c-0.19,0.712-0.813,0.652-1.353,0.507c-1.477-0.398-2.3,0.259-3.009,1.517
		c-0.917,1.624-1.157,1.617-2.734,0.783c-1.503-0.793-2.651-1.904-3.163-3.578c-0.065-0.223-0.19-0.432-0.246-0.659
		c-0.795-3.251-2.348-6.076-4.62-8.545c-0.893-0.97-1.61-2.098-1.61-3.543c0.002-0.92-0.401-1.624-1.396-1.923
		c-0.74-0.222-1.436-0.595-2.146-0.91c-1.404-0.626-2.508-0.393-3.409,0.958c-2.419,3.611-5.162,3.23-8.344,0.199
		c-1.491-1.42-2.721-2.997-3.344-5.007c-0.229-0.74-0.539-1.491-0.972-2.127c-1.611-2.354-1.643-4.946-1.384-7.641
		c0.204-2.115,1.211-3.651,2.954-4.782c1.363-0.88,2.909-1.48,3.809-3.015c0.469-0.802,1.421-0.359,2.181-0.295
		c0.579,0.05,1.295,0.005,1.102-0.749c-0.334-1.302,0.532-1.633,1.353-2.084c0.41-0.229,0.811-0.472,1.225-0.693
		c0.626-0.334,0.999-0.839,0.709-1.529c-0.991-2.357-0.24-4.594,0.363-6.857c0.263-0.98,0.46-1.983,0.593-2.99
		c0.163-1.255,0.313-2.48-1.382-3.013c-0.848-0.266-0.728-1.453,0.284-1.916c1.39-0.637,2.621-1.353,3.345-2.767
		c0.2-0.391,0.581-0.482,0.975-0.18c0.423,0.329,0.848,0.661,1.225,0.953c0.242-0.099,0.433-0.114,0.502-0.213
		c0.664-0.923,0.667-2.421,1.919-2.786c1.789-0.522,3.653-0.832,5.531-0.905c0.698-0.027,1.112,0.543,1.465,1.055
		c1.458,2.122,3.506,3.058,5.994,3.646c4.329,1.021,8.367,2.94,12.423,4.758c1.563,0.7,3.141,1.447,4.787,1.857
		c1.954,0.486,3.348,1.613,4.575,3.069c0.856,1.014,1.685,2.051,2.508,3.092c0.24,0.305,0.488,0.63,0.619,0.989
		c0.482,1.318-0.356,2.324-1.73,2.041c-1.684-0.348-3.351-0.785-5.021-1.18c-0.73-0.169-1.458-0.334-2.521-0.578
		c4.471,3.907,7.963,8.509,13.699,10.183c0.197-1.027-0.948-1.059-1.059-1.781c0.412-0.381,0.844,0.083,1.259-0.014
		c0.612-0.144,1.283-0.329,1.484-0.979c0.193-0.636-0.412-0.979-0.841-1.264c-1.407-0.936-2.089-2.213-2.21-3.9
		c-0.125-1.747-0.193-1.743,1.754-2.267c-2.619-2.845-5.637-5.183-8.398-7.933c2.14-0.069,2.14-0.069,4.527,1.849
		c1.271,1.022,2.543,2.046,4.054,3.26c0.233-2.158-0.681-3.888-0.653-5.873c1.003,0.123,1.555-0.498,2.122-1.287
		c0.653-0.91,0.772-1.629-0.005-2.487c-0.305-0.335-0.499-0.792-0.677-1.221c-0.787-1.909-0.774-1.913,0.579-3.473
		c-2.998-2.477-5.98-4.97-8.994-7.424c-1.707-1.391-3.205-2.977-4.616-4.654c-0.531-0.63-1.299-1.155-0.811-2.224
		c0.211-0.463-0.244-0.868-0.582-1.188c-0.792-0.752-1.609-1.467-2.554-2.042c-3.663-2.242-7.188-4.697-10.698-7.168
		c-0.798-0.559-1.626-1.042-1.031-2.219c-0.114-0.104-0.218-0.235-0.349-0.31c-23.009-13.27-47.407-23.152-73.11-29.801
		c-15.926-4.121-32.105-6.813-48.493-8.206c-3.329-0.284-6.665-0.716-10.027-0.516l0,0c-0.119,1.391,0.247,2.4,1.227,3.08
		c0.325,0.227,0.72,0.417,1.187,0.573c1.523,0.512,9.617,2.12,11.201,1.94c0.854-0.097,1.695-0.213,2.546,0.071
		c2.071,0.69,4.208,1.224,6.219,2.053c1.833,0.757,2.938,2.44,4.154,4.012c-2.196-0.849-4.484-1.225-6.655-1.983
		c-0.768-0.268-1.487-0.407-2.269-0.341c-3.502,0.287-7.013,0.18-10.521,0.23c-0.772,0.012-1.593-0.012-2.315-0.251
		c-3.881-1.266-7.564-0.297-11.202,0.958c-2.772,0.96-3.435,0.837-5.159-1.472c-1.333-1.783-2.136-2.002-4.085-1.115
		c0.104,1.055,1.401,1.47,1.408,2.815c-1.83-0.379-3.642-0.152-5.442-0.183c-2.438-0.043-3.198-1.782-2.032-4.156
		c0.36-0.732,1.053-1.144,1.536-1.749c0.979-1.226,0.82-1.989-0.512-2.831c-1.072-0.68-2.143-1.185-3.511-0.797
		c-0.961,0.273-2.01,0.24-3.013,0.377c-0.633,0.086-1.633-0.273-1.643,0.791c-0.014,0.966-0.671,2.264,0.903,2.772
		c0.287,0.093,0.533,0.322,0.803,0.474c0.623,0.349,0.712,0.78,0.204,1.297c-0.481,0.491-0.967,0.976-1.533,1.542
		c1.699,1.104,3.345,2.172,5.123,3.326c-1.065,1.022-2.203,0.884-3.224,0.78c-0.559-0.059-1.051-0.035-1.501,0.059l10.444,16.869
		c0.687,0.065,1.375,0.097,2.067,0.125c0.853,0.033,1.522-0.194,2.004-0.882c0.043-0.536-0.424-0.581-0.693-0.83
		c-0.889-0.799-0.728-1.873,0.353-2.341c0.498-0.216,1.044-0.329,1.577-0.45c3.054-0.678,5.268-3.174,8.393-3.81
		c1.027-0.209,1.897-1.323,2.774-2.1c0.837-0.74,0.745-1.589-0.203-2.302c-0.496-0.372-1.098-0.605-1.592-0.979
		c-0.846-0.645-0.853-1.318,0.083-1.813c2.027-1.069,4.329-2.018,6.494-1.567c3.509,0.735,7.001,0.408,10.493,0.569
		c4.461,0.202,8.855,0.652,13.187,1.759c2.577,0.657,5.171,1.247,7.775,1.771c1.896,0.378,3.856,0.138,5.759,0.782
		c3.147,1.065,6.112,2.36,8.303,4.967c0.823,0.979,1.953,1.202,3.088,1.515c1.764,0.486,3.697,0.588,5.254,2.151
		c-1.249,0.868-2.332,0.491-3.362,0.187c-1.021-0.304-1.743-0.017-2.055,0.934c-0.688,2.092-1.996,3.068-4.586,2.359
		c1.127,1.909,2.682,2.905,3.814,4.489c-1.663,0.823-3.368,0.519-5.1,0.72c0.213,0.885,1.014,1.353,1.406,2.075
		c0.736,1.357,0.543,2.048-0.895,2.432c-1.534,0.412-3.011,0.759-3.726,2.449c-0.348,0.827-1.117,0.74-1.807,0.374
		c-0.619-0.33-1.238-0.671-1.81-1.076c-0.726-0.51-1.523-0.802-2.39-0.889c-0.661-0.066-1.477-0.529-1.932,0.254
		c-0.473,0.818-0.753,1.808-0.045,2.639c1.306,1.538,0.923,3.39,1.084,5.142c0.035,0.377,0.02,0.936-0.328,1.072
		c-1.579,0.614-2.869,2.011-4.621,2.048c-5.144,0.104-10.29,0.1-15.434,0.086c-1.633-0.002-3.298-0.045-4.704-1.09
		c-0.754-0.56-1.512-0.187-2.247-0.007c-3.865,0.96-7.731,1.892-11.692,2.421c-0.105,0.014-0.209,0.021-0.313,0.033l28.906,46.688
		l-13.23,58.069l-58.847,155.285l17.171-10.781c1.548-1.833,3.108-3.654,4.644-5.498c1.104-1.327,2.423-2.24,4.055-2.598
		c1.15-0.251,1.776-0.912,2.133-1.908c0.41-1.145,1.2-1.964,2.017-2.822c2.751-2.888,5.631-5.636,8.687-8.201
		c1.389-1.166,2.489-2.591,3.563-4.028c0.752-1.003,1.604-1.617,2.918-1.651c1.082-0.031,2.165-0.441,3.242-0.422
		c3.955,0.069,7.217-1.734,10.436-3.684c1.537-0.932,3.01-1.975,4.556-2.892c1.489-0.88,2.271-2.331,3.19-3.68
		c0.561-0.82,0.246-1.691-0.007-2.487c-0.368-1.148-0.124-2.075,0.498-3.071c1.951-3.11,4.363-5.893,6.181-9.099
		c0.848-1.494,2.197-2.483,3.971-3.054c3.048-0.982,6.052-2.113,9.186-2.795c1.299-0.282,2.025-0.913,2.364-2.226
		c0.841-3.224,3.172-5.503,5.274-7.896c0.879-1.003,3.319-0.667,3.767,0.7c0.814,2.472,2.698,2.997,4.818,3.355
		c2.252,0.382,4.428,1.126,6.434,2.105c1.766,0.865,3.511,0.953,5.281,0.827l9.354-5.873l43.282-42.553
		C631.929,287.373,630.803,287.766,629.855,288.812z M669.445,186.186c0.126,0.035,0.227,0.173,0.337,0.266
		c-0.142,0.022-0.287,0.045-0.429,0.069c-0.114-0.094-0.225-0.187-0.335-0.28C669.162,186.221,669.319,186.151,669.445,186.186z
		 M599.34,129.284c2.177-0.042,3.794,1.293,5.534,2.309c0.128,0.075,0.314,0.258,0.292,0.344c-0.583,2.242,1.678,2.145,2.578,3.162
		c0.777,0.878,2.342,1.1,2.256,2.7c0.173,0.08,0.214,0.249,0.124,0.38c-0.079-0.08-0.161-0.179-0.24-0.179h-0.002
		c-1.14,0-2.049-1.122-3.177-1.409c-0.377-0.097-0.776-0.157-1.218-0.063c-0.368,1.613,1.164,2.703,1.079,4.206
		c-1.057,0.273-1.638-0.442-2.222-1.049c-1.63-1.698-3.591-2.975-5.419-4.422c-2.132-1.688-4.2-3.603-5.716-6.46
		C595.493,129.376,597.416,129.322,599.34,129.284z M573.453,205.213c0.444-0.82,1.155-1.062,1.944-0.457
		c0.976,0.75,1.238-0.729,2.021-0.584c1.316,0.244,2.07-0.301,2.279-1.65c0.085-0.553,0.538-0.74,1.061-0.621
		c1.218,0.28,2.43,0.578,3.639,0.887c0.388,0.1,0.771,0.308,0.828,0.731c0.058,0.431-0.305,0.659-0.619,0.904
		c-0.57,0.446-1.783,0.389-1.595,1.418c0.192,1.058,1.377,0.781,2.136,1.02c1.042,0.329,2.126,0.505,3.185,0.778
		c0.97,0.251,1.212,0.927,0.884,1.802c-0.426,1.119-1.162,2.017-2.124,2.732c-0.422,0.314-1.214,0.515-1.048,1.115
		c0.31,1.1-0.392,1.482-1.229,1.987c2.363,0.067,3.557,1.539,4.792,3.104c0.864,1.095,0.828,2.321,1.03,3.526
		c0.165,0.976,0.372,1.674,1.543,2.019c1.404,0.413,2.276,2.509,1.747,3.997c-0.271,0.756-0.104,0.972,0.539,1.148
		c0.45,0.123,0.877,0.256,1.233,0.612c1.309,1.314,1.387,2.051,0.327,3.853c0.572,0.629,1.311,0.192,1.961,0.289
		c1.023,0.152,1.912,0.403,2.683,1.223c1.672,1.771,1.423,3.881-0.742,5.078c-0.794,0.438-1.719,0.661-2.56,1.66
		c1.181,0.27,2.134,0.477,3.085,0.709c0.393,0.097,0.737,0.291,0.706,0.773c-0.026,0.424-0.253,0.763-0.657,0.875
		c-1.273,0.35-2.539,0.818-3.898,0.434c-1.897-0.536-3.831-0.589-5.794-0.56c-1.295,0.019-2.566-0.178-3.868-0.595
		c-1.774-0.57-3.78-1.176-5.449,0.51c-0.547,0.554-1.152,0.286-1.744,0.078c-1.51-0.529-2.912-0.374-4.198,0.623
		c-0.242,0.187-0.526,0.353-0.816,0.436c-0.458,0.135-0.725-0.214-0.938-0.529c-0.218-0.325-0.011-0.626,0.258-0.785
		c2.073-1.242,4.155-2.475,6.255-3.673c0.592-0.339,1.215,0.024,1.826,0.092c1.318,0.147,1.318,0.137,2.146-1.589
		c-1.211,0.626-2.111,0.759-3.053-0.522c-0.719-0.982-2.051-1.363-3.296-1.602c-1.088-0.211-1.837-0.744-2.023-2.003
		c1.162-0.28,2.295-0.488,3.383-0.84c1.415-0.453,1.653-1.342,0.756-2.426c-1.339-1.605-1.339-1.605-1.063-3.988
		c1.937,1.214,4.171,0.58,6.286,1.441c0.462-1.868,0.608-3.613-0.918-4.998c-1.131-1.027-1.59-2.048-0.336-3.421
		c-1.93-0.771-3.856-0.073-5.581-0.616c0.011-0.865,0.597-1.211,0.953-1.698c0.284-0.388,0.549-0.789,0.478-1.28
		c-0.148-1.008-0.26-2.172-1.33-2.566c-0.992-0.367-1.176,1.041-2.084,1.352c-0.146-1.276,0.688-2.383,0.487-3.547
		c-0.4-0.313-0.8-0.116-1.169-0.161c-0.999-0.128-1.537-0.803-1.021-1.553c0.911-1.328,0.642-2.1-0.693-2.767
		C573.094,206.904,572.983,206.084,573.453,205.213z M560.099,218.284c1.446-0.216,2.513,0.295,3.607,0.486
		c1.622,0.284,1.621,0.299,2.083-1.285c0.595-2.03,1.134-2.362,3.105-1.304c1.404,0.754,2.712,0.961,4.244,0.683
		c1.491-0.268,3.417,1.455,3.521,2.969c0.093,1.375-1.17,2.447-2.987,2.539c-0.227,0.014-0.455,0.036-0.884,0.071
		c1.029,2.933,1.047,5.553-0.341,8.142c-0.4,0.752-0.728,1.005-1.582,0.88c-2.104-0.301-4.184-0.055-6.198,0.647
		c-2.013,0.704-4.006,1.11-6.155,0.403c-1.039-0.344-1.596-0.86-1.786-1.873c-0.197-1.048,0.74-1.273,1.302-1.716
		c1.159-0.917,2.665-0.745,4.001-1.145c0.167-0.628-0.352-0.761-0.717-0.995c-0.624-0.399-0.968-0.804-0.167-1.389
		c0.748-0.546,0.434-1.079-0.123-1.504c-0.74-0.561-1.522-1.064-2.432-1.691C559.708,221.155,561.814,220.56,560.099,218.284z
		 M539.653,168.822c-0.996-0.719-2.228-1.103-3.32-1.7c-0.574-0.317-1.106-0.891-0.514-1.503c1.022-1.055,0.48-1.74-0.306-2.532
		c-0.356-0.358-0.976-0.57-0.924-1.326c0.902-0.012,1.809-0.019,2.708-0.047c0.298-0.01,0.648,0.014,0.729-0.405
		c0.063-0.332-0.058-0.607-0.275-0.847c-0.774-0.858-2.07-1.083-2.802-2.328c1.353-0.713,2.643-1.429,4.149-0.85
		c1.938,0.746,0.396,2.755,1.4,4.024c1.61-0.393,3.19,0.497,4.989,0.58c0.201-0.942-0.854-1.33-0.823-2.271
		c1.982,0.204,3.618,1.323,5.448,1.799c0.698,0.182,1.264,0.337,1.997,0.116c3.679-1.108,6.072,1.493,6.508,4.644
		c0.184,1.339-1.629,3.286-3.107,3.564c-3.004,0.565-6.068,0.358-9.076,0.728C543.895,170.78,541.722,170.313,539.653,168.822z"/>
	<path fill="#39B54A" d="M731.113,211.521c-11.051-14.297-22.776-27.984-36.032-40.308c-3.03-2.819-6.021-5.685-9.035-8.519
		c-0.567-0.536-1.127-1.097-1.766-1.534c-11.132-7.642-21.903-15.809-33.464-22.814c-2.126-1.289-4.104-2.834-6.439-3.765
		c-0.595,1.178,0.233,1.66,1.031,2.219c3.511,2.471,7.035,4.927,10.698,7.168c0.944,0.576,1.762,1.29,2.554,2.042
		c0.338,0.32,0.793,0.725,0.582,1.188c-0.488,1.069,0.279,1.594,0.811,2.224c1.411,1.677,2.909,3.263,4.616,4.654
		c3.014,2.454,5.996,4.948,8.994,7.424c-1.354,1.56-1.366,1.563-0.579,3.473c0.178,0.429,0.372,0.886,0.677,1.221
		c0.777,0.857,0.658,1.577,0.005,2.487c-0.567,0.789-1.119,1.409-2.122,1.287c-0.027,1.985,0.887,3.715,0.653,5.873
		c-1.511-1.214-2.782-2.238-4.054-3.26c-2.388-1.918-2.388-1.918-4.527-1.849c2.762,2.75,5.779,5.088,8.398,7.933
		c-1.947,0.524-1.879,0.521-1.754,2.267c0.121,1.687,0.803,2.964,2.21,3.9c0.429,0.286,1.034,0.628,0.841,1.264
		c-0.201,0.65-0.872,0.835-1.484,0.979c-0.415,0.097-0.847-0.367-1.259,0.014c0.11,0.723,1.256,0.754,1.059,1.781
		c-5.736-1.674-9.229-6.276-13.699-10.183c1.063,0.244,1.79,0.408,2.521,0.578c1.67,0.395,3.337,0.832,5.021,1.18
		c1.374,0.283,2.213-0.723,1.73-2.041c-0.131-0.359-0.379-0.685-0.619-0.989c-0.823-1.041-1.651-2.079-2.508-3.092
		c-1.228-1.456-2.621-2.583-4.575-3.069c-1.646-0.41-3.224-1.157-4.787-1.857c-4.056-1.818-8.094-3.737-12.423-4.758
		c-2.488-0.588-4.536-1.523-5.994-3.646c-0.353-0.512-0.767-1.083-1.465-1.055c-1.878,0.073-3.742,0.382-5.531,0.905
		c-1.252,0.365-1.255,1.862-1.919,2.786c-0.069,0.099-0.26,0.114-0.502,0.213c-0.377-0.292-0.802-0.624-1.225-0.953
		c-0.394-0.303-0.774-0.211-0.975,0.18c-0.724,1.415-1.955,2.13-3.345,2.767c-1.012,0.463-1.132,1.65-0.284,1.916
		c1.695,0.533,1.545,1.757,1.382,3.013c-0.133,1.007-0.33,2.01-0.593,2.99c-0.604,2.264-1.354,4.5-0.363,6.857
		c0.29,0.69-0.083,1.195-0.709,1.529c-0.414,0.221-0.814,0.465-1.225,0.693c-0.82,0.451-1.687,0.782-1.353,2.084
		c0.193,0.754-0.522,0.799-1.102,0.749c-0.76-0.064-1.712-0.507-2.181,0.295c-0.899,1.534-2.445,2.134-3.809,3.015
		c-1.743,1.131-2.75,2.667-2.954,4.782c-0.259,2.694-0.228,5.287,1.384,7.641c0.433,0.636,0.742,1.387,0.972,2.127
		c0.623,2.01,1.853,3.587,3.344,5.007c3.182,3.032,5.925,3.412,8.344-0.199c0.901-1.351,2.005-1.584,3.409-0.958
		c0.711,0.314,1.406,0.688,2.146,0.91c0.994,0.299,1.397,1.003,1.396,1.923c0,1.446,0.718,2.574,1.61,3.543
		c2.272,2.47,3.825,5.294,4.62,8.545c0.056,0.227,0.181,0.436,0.246,0.659c0.512,1.674,1.66,2.785,3.163,3.578
		c1.577,0.834,1.817,0.841,2.734-0.783c0.709-1.257,1.532-1.915,3.009-1.517c0.54,0.145,1.162,0.206,1.353-0.507
		c0.354-1.335,1.019-2.637,0.313-4.086c-0.41-0.839-0.618-1.771-0.98-2.632c-1.231-2.905-0.627-5.396,1.542-7.627
		c1.124-1.157,1.048-1.542,0.119-3.028c-0.801-1.283-1.736-2.449-3.038-3.196c-2.093-1.202-3.338-2.971-3.964-5.25
		c-0.126-0.452-0.329-0.877-0.498-1.316c-1.09-2.834-0.678-4.496,1.64-6.582c2.172-1.958,2.312-3.651,0.494-5.984
		c-0.097-0.121-0.221-0.225-0.301-0.356c-0.478-0.789-0.588-1.672-0.069-2.409c0.464-0.663,1.236-0.908,2.097-0.673
		c3.808,1.048,5.842,2.606,4.808,6.964c-0.074,0.306-0.173,0.604-0.229,0.912c-0.29,1.544-0.902,2.985-1.432,4.455
		c-0.307,0.84-0.377,1.594,0.271,2.4c1.676,2.073,3.047,4.348,4.011,6.849c0.264,0.691,0.656,1.264,1.321,1.57
		c1.255,0.577,2.091,1.613,2.959,2.616c1.492,1.721,2.869,2.008,4.927,0.979c0.976-0.489,1.994-0.932,2.89-1.544
		c1.027-0.706,1.835-0.635,2.634,0.291c0.253,0.292,0.587,0.514,0.867,0.787c0.485,0.476,1.268,0.828,1.005,1.686
		c-0.298,0.972-1.238,0.863-1.976,0.896c-1.4,0.062-2.804-0.021-4.204-0.003c-1.695,0.021-2.679,0.97-2.845,2.694
		c-0.163,1.657,0.629,2.995,2.244,3.189c2.597,0.312,3.988,1.896,5.002,4.064c0.273,0.588,0.599,1.11-0.144,1.619
		c-0.725,0.496-1.357,0.678-2.066-0.063c-0.753-0.789-1.545-1.553-2.392-2.234c-1.119-0.899-1.22-0.837-1.859,0.367
		c-0.944,1.778-0.91,3.59-0.166,5.397c0.532,1.299,1.135,2.575,1.791,3.817c0.439,0.83,0.34,1.446-0.349,2.055
		c-0.58,0.512-1.101,1.041-1.379,1.84c-0.636,1.823-1.362,2.108-3.125,1.382c-0.425-0.174-0.848-0.436-1.171-0.755
		c-0.884-0.874-1.878-0.869-3.029-0.69c-1.818,0.279-3.405,1.052-5.04,1.814c-4.314,2.013-3.468,2.21-6.466-1.75
		c-0.634-0.837-1.034-0.92-1.842-0.685c-1.128,0.327-2.258,0.646-3.398,0.91c-0.785,0.182-1.768,0.176-2.046-0.621
		c-0.275-0.78,0.482-1.415,1.16-1.849c0.771-0.495,1.961-0.498,2.307-1.451c0.336-0.921-0.633-1.696-0.721-2.634
		c-0.045-0.462-0.258-0.906-0.33-1.366c-0.166-1.083-0.83-1.117-1.716-0.958c-0.581,0.1-1.032,0.304-1.395,0.75
		c-0.299,0.377-0.641,0.78-1.162,0.432c-0.774-0.515-1.865-0.422-2.445-1.28c-0.076-0.11-0.115-0.361-0.048-0.432
		c1.335-1.432,0.453-2.924,0.133-4.393c-0.804-3.701-0.772-3.601-4.204-2.297c-1.987,0.756-2.757,2.556-2.307,4.521
		c0.678,2.964,1.518,5.89,2.371,8.811c0.278,0.963,0.859,1.837,1.198,2.79c0.183,0.519,0.045,1.11-0.438,1.477
		c-0.408,0.312-0.7-0.131-1.041-0.259c-0.511-0.19-1.021-0.405-1.552-0.512c-1.142-0.235-2.425-1.076-3.146,0.72
		c-0.157,0.389-0.666,0.318-1.059,0.246c-0.693-0.125-1.378-0.299-2.077-0.374c-2.1-0.225-3.32,0.913-3.362,3.064
		c-0.007,0.384,0.049,0.833-0.124,1.138c-0.965,1.677-1.712,3.58-2.873,5.008c-0.887,1.093-2.938,1.259-4.487,1.795
		c-0.588,0.203-1.211,0.294-1.819,0.433c-1.733,0.394-1.731,0.391-1.781,2.084c-0.06,1.983-0.06,1.987-1.927,2.603
		c-0.443,0.147-0.891,0.308-1.349,0.389c-1.482,0.265-2.711,0.744-2.318,2.606c-0.339,0.021-0.499,0.065-0.645,0.035
		c-2.483-0.54-5.231-0.583-6.467-3.477c-0.117-0.273-0.467-0.429-0.793-0.23c-0.324,0.199-0.289,0.538-0.201,0.832
		c0.294,0.972,0.617,1.937,0.931,2.902c0.297,0.922,0.788,1.809,0.606,3.109c-4.223-2.445-8.664-2.597-13.498-2.412
		c0.877,0.811,1.223,1.556,0.825,2.477c-0.372,0.863,0.052,1.247,0.854,1.537c2.502,0.903,4.813,2.189,7.094,3.556
		c1.207,0.727,1.851,1.567,1.678,2.992c-0.159,1.3,0.097,2.487,1.077,3.441c2.178,2.122,2.918,4.732,2.53,7.686
		c-0.422,3.192-1.104,6.306-2.954,9.042c-0.451,0.666-0.824,1.297-1.829,1.059c-4.107-0.972-8.271-1.736-12.279-3.075
		c-1.422-0.477-2.854-0.702-4.303-1c-3.013-0.609-6.274-0.443-8.861-2.598c-0.381-0.318-1.021-0.342-1.55-0.474
		c-0.617-0.158-1.119,0.014-1.247,0.687c-0.229,1.216-0.987,1.202-1.928,0.936c-0.522-0.149-1.072-0.297-1.608-0.285
		c-1.018,0.022-1.953,1.065-1.574,1.828c1.146,2.321,0.633,4.611,0.092,6.928c-0.104,0.453-0.289,0.979-0.154,1.376
		c0.706,2.083-0.155,3.992-0.492,5.975c-0.386,2.268-1.328,4.132-3.216,5.486c-1.594,1.143-2.303,2.894-3.175,4.547
		c-0.366,0.699-0.253,1.174,0.265,1.648c0.462,0.422,0.899,0.882,1.413,1.23c0.92,0.626,1.095,1.387,0.785,2.428
		c-0.377,1.273-0.623,2.584-0.92,3.881c-0.516,2.233-0.267,2.717,1.898,3.359c0.742,0.218,1.541,0.359,2.308,0.342
		c1.513-0.038,2.937,0.408,4.399,0.643c0.646,0.106,1.178,0.377,1.521,0.969c0.737,1.278,1.781,2.4,1.999,3.938
		c0.129,0.897,0.677,1.549,1.187,2.247c0.74,1.01,1.567,1.089,2.627,0.524c1.171-0.625,2.382-1.174,3.596-1.714
		c1.608-0.714,3.192-0.965,4.984-0.398c2.376,0.75,4.85,1.221,7.291,1.754c2.05,0.45,2.158,0.463,3.12-1.374
		c0.693-1.332,1.608-2.027,3.089-2.044c0.384-0.005,0.77-0.152,1.155-0.163c0.911-0.028,1.532-0.414,1.604-1.353
		c0.173-2.279,1.943-3.303,3.519-4.399c2.019-1.404,2.148-1.432,0.876-3.654c-0.686-1.202-0.863-2.406-0.275-3.571
		c1.755-3.479,3.908-6.6,7.971-7.715c1.131-0.31,2.256-0.665,3.403-0.88c3.272-0.619,5.978-4.791,4.905-8.045
		c-0.399-1.207,0.043-1.857,1.027-2.496c1.342-0.87,2.688-1.123,4.229-0.69c2.122,0.595,4.061,1.6,5.981,2.63
		c1.142,0.614,2.122,0.669,3.293,0.045c2.131-1.136,4.082-2.629,6.447-3.315c0.395-0.114,0.592-0.458,0.856-0.749
		c0.947-1.046,2.073-1.439,3.096-0.896l42.414-41.698l62.929-25.862c-1.117-1.459-2.271-2.895-3.506-4.275
		C733.484,214.628,732.307,213.064,731.113,211.521z"/>
	<path fill="#39B54A" d="M485.792,107.96c1.021,0.104,2.159,0.242,3.224-0.78c-1.778-1.153-3.424-2.222-5.123-3.326
		c0.566-0.567,1.052-1.051,1.533-1.542c0.508-0.517,0.418-0.948-0.204-1.297c-0.27-0.152-0.516-0.381-0.803-0.474
		c-1.574-0.508-0.917-1.806-0.903-2.772c0.01-1.064,1.01-0.704,1.643-0.791c1.003-0.137,2.051-0.104,3.013-0.377
		c1.368-0.388,2.438,0.118,3.511,0.797c1.332,0.842,1.491,1.605,0.512,2.831c-0.482,0.605-1.176,1.017-1.536,1.749
		c-1.166,2.374-0.406,4.112,2.032,4.156c1.8,0.031,3.613-0.196,5.442,0.183c-0.007-1.346-1.304-1.761-1.408-2.815
		c1.949-0.887,2.751-0.667,4.085,1.115c1.724,2.309,2.387,2.432,5.159,1.472c3.637-1.255,7.321-2.224,11.202-0.958
		c0.723,0.239,1.543,0.263,2.315,0.251c3.508-0.05,7.019,0.057,10.521-0.23c0.781-0.066,1.501,0.073,2.269,0.341
		c2.171,0.759,4.459,1.134,6.655,1.983c-1.216-1.572-2.321-3.255-4.154-4.012c-2.011-0.829-4.147-1.363-6.219-2.053
		c-0.851-0.284-1.691-0.168-2.546-0.071c-1.584,0.18-9.678-1.429-11.201-1.94c-0.467-0.156-0.861-0.218-1.187-0.446
		c-0.979-0.682-1.348-1.954-1.229-2.954c0.002,0,0.002,0,0.003,0c-1.364,0-2.791-0.325-4.183-0.526
		c-6.195-0.897-12.43-1.389-18.673-0.911c-4.356,0.334-8.735,0.4-13.085,0.836l7.834,12.637
		C484.741,107.942,485.233,107.901,485.792,107.96z"/>
	<path fill="#39B54A" d="M521.115,145.651c0.735-0.18,1.493-0.553,2.247,0.007c1.406,1.045,3.071,1.088,4.704,1.09
		c5.144,0.014,10.29,0.017,15.434-0.086c1.752-0.037,3.042-1.434,4.621-2.048c0.348-0.137,0.363-0.695,0.328-1.072
		c-0.161-1.752,0.222-3.604-1.084-5.142c-0.708-0.832-0.428-1.821,0.045-2.639c0.455-0.783,1.271-0.32,1.932-0.254
		c0.866,0.086,1.664,0.378,2.39,0.889c0.571,0.405,1.19,0.746,1.81,1.076c0.689,0.367,1.459,0.453,1.807-0.374
		c0.715-1.689,2.191-2.037,3.726-2.449c1.438-0.384,1.631-1.074,0.895-2.432c-0.393-0.723-1.193-1.19-1.406-2.075
		c1.731-0.201,3.437,0.104,5.1-0.72c-1.133-1.584-2.688-2.58-3.814-4.489c2.59,0.709,3.897-0.267,4.586-2.359
		c0.312-0.951,1.034-1.238,2.055-0.934c1.03,0.304,2.113,0.681,3.362-0.187c-1.557-1.563-3.49-1.665-5.254-2.151
		c-1.135-0.313-2.265-0.536-3.088-1.515c-2.19-2.606-5.155-3.902-8.303-4.967c-1.902-0.644-3.863-0.403-5.759-0.782
		c-2.604-0.524-5.198-1.114-7.775-1.771c-4.331-1.107-8.726-1.557-13.187-1.759c-3.492-0.161-6.984,0.166-10.493-0.569
		c-2.165-0.451-4.467,0.498-6.494,1.567c-0.936,0.495-0.929,1.167-0.083,1.813c0.495,0.374,1.096,0.607,1.592,0.979
		c0.948,0.712,1.04,1.562,0.203,2.302c-0.877,0.776-1.747,1.89-2.774,2.1c-3.125,0.636-5.339,3.132-8.393,3.81
		c-0.533,0.121-1.079,0.233-1.577,0.45c-1.081,0.468-1.242,1.542-0.353,2.341c0.27,0.249,0.737,0.294,0.693,0.83
		c-0.482,0.688-1.152,0.915-2.004,0.882c-0.692-0.028-1.38-0.059-2.067-0.125l14.375,23.217c0.104-0.012,0.208-0.019,0.313-0.033
		C513.384,147.543,517.25,146.611,521.115,145.651z"/>
	<path fill="#39B54A" d="M574.056,207.389c1.335,0.667,1.604,1.439,0.693,2.767c-0.516,0.75,0.022,1.425,1.021,1.553
		c0.369,0.045,0.769-0.152,1.169,0.161c0.201,1.164-0.633,2.271-0.487,3.547c0.908-0.311,1.092-1.719,2.084-1.352
		c1.07,0.394,1.182,1.558,1.33,2.566c0.071,0.491-0.193,0.892-0.478,1.28c-0.356,0.487-0.942,0.833-0.953,1.698
		c1.725,0.543,3.651-0.156,5.581,0.616c-1.254,1.373-0.795,2.394,0.336,3.421c1.526,1.385,1.38,3.13,0.918,4.998
		c-2.115-0.861-4.35-0.227-6.286-1.441c-0.275,2.383-0.275,2.383,1.063,3.988c0.897,1.084,0.659,1.973-0.756,2.426
		c-1.088,0.353-2.221,0.561-3.383,0.84c0.187,1.259,0.936,1.792,2.023,2.003c1.245,0.239,2.577,0.619,3.296,1.602
		c0.941,1.281,1.842,1.148,3.053,0.522c-0.828,1.726-0.828,1.736-2.146,1.589c-0.611-0.067-1.234-0.431-1.826-0.092
		c-2.1,1.199-4.182,2.432-6.255,3.673c-0.269,0.159-0.476,0.46-0.258,0.785c0.213,0.315,0.479,0.664,0.938,0.529
		c0.29-0.083,0.574-0.249,0.816-0.436c1.286-0.996,2.688-1.152,4.198-0.623c0.592,0.208,1.197,0.476,1.744-0.078
		c1.669-1.686,3.675-1.081,5.449-0.51c1.302,0.417,2.573,0.614,3.868,0.595c1.963-0.029,3.896,0.024,5.794,0.56
		c1.359,0.384,2.625-0.084,3.898-0.434c0.404-0.112,0.631-0.451,0.657-0.875c0.031-0.482-0.313-0.676-0.706-0.773
		c-0.951-0.232-1.904-0.439-3.085-0.709c0.841-1,1.766-1.223,2.56-1.66c2.165-1.197,2.414-3.307,0.742-5.078
		c-0.771-0.82-1.659-1.071-2.683-1.223c-0.65-0.097-1.389,0.34-1.961-0.289c1.06-1.802,0.981-2.539-0.327-3.853
		c-0.356-0.356-0.783-0.49-1.233-0.612c-0.644-0.176-0.81-0.393-0.539-1.148c0.529-1.487-0.343-3.583-1.747-3.997
		c-1.171-0.344-1.378-1.043-1.543-2.019c-0.202-1.205-0.166-2.431-1.03-3.526c-1.235-1.565-2.429-3.037-4.792-3.104
		c0.838-0.505,1.539-0.887,1.229-1.987c-0.166-0.6,0.626-0.801,1.048-1.115c0.962-0.716,1.698-1.614,2.124-2.732
		c0.328-0.875,0.086-1.551-0.884-1.802c-1.059-0.273-2.143-0.45-3.185-0.778c-0.759-0.239-1.943,0.038-2.136-1.02
		c-0.188-1.029,1.024-0.972,1.595-1.418c0.314-0.246,0.677-0.474,0.619-0.904c-0.057-0.424-0.44-0.631-0.828-0.731
		c-1.209-0.31-2.421-0.607-3.639-0.887c-0.522-0.12-0.976,0.067-1.061,0.621c-0.209,1.349-0.963,1.894-2.279,1.65
		c-0.783-0.145-1.046,1.335-2.021,0.584c-0.789-0.605-1.5-0.363-1.944,0.457C572.983,206.084,573.094,206.904,574.056,207.389z"/>
	<path fill="#39B54A" d="M561.022,223.895c0.557,0.425,0.871,0.958,0.123,1.504c-0.801,0.584-0.457,0.989,0.167,1.389
		c0.365,0.233,0.884,0.367,0.717,0.995c-1.336,0.399-2.842,0.228-4.001,1.145c-0.562,0.443-1.499,0.668-1.302,1.716
		c0.19,1.013,0.747,1.529,1.786,1.873c2.149,0.707,4.143,0.301,6.155-0.403c2.015-0.702,4.094-0.948,6.198-0.647
		c0.854,0.125,1.182-0.128,1.582-0.88c1.388-2.589,1.37-5.209,0.341-8.142c0.429-0.035,0.657-0.057,0.884-0.071
		c1.817-0.092,3.08-1.164,2.987-2.539c-0.104-1.515-2.03-3.237-3.521-2.969c-1.532,0.278-2.84,0.071-4.244-0.683
		c-1.972-1.059-2.511-0.727-3.105,1.304c-0.462,1.584-0.461,1.569-2.083,1.285c-1.095-0.19-2.161-0.702-3.607-0.486
		c1.716,2.276-0.391,2.871-1.508,3.919C559.5,222.831,560.282,223.334,561.022,223.895z"/>
	<path fill="#39B54A" d="M555.511,169.741c1.479-0.278,3.291-2.226,3.107-3.564c-0.436-3.151-2.829-5.752-6.508-4.644
		c-0.733,0.222-1.299,0.066-1.997-0.116c-1.83-0.476-3.466-1.595-5.448-1.799c-0.031,0.941,1.024,1.329,0.823,2.271
		c-1.799-0.083-3.379-0.972-4.989-0.58c-1.005-1.269,0.538-3.279-1.4-4.024c-1.507-0.579-2.797,0.137-4.149,0.85
		c0.731,1.245,2.027,1.47,2.802,2.328c0.218,0.24,0.339,0.515,0.275,0.847c-0.08,0.419-0.431,0.395-0.729,0.405
		c-0.899,0.028-1.806,0.035-2.708,0.047c-0.052,0.756,0.567,0.968,0.924,1.326c0.786,0.792,1.328,1.477,0.306,2.532
		c-0.593,0.612-0.061,1.186,0.514,1.503c1.093,0.597,2.324,0.98,3.32,1.7c2.068,1.491,4.241,1.958,6.781,1.646
		C549.442,170.099,552.507,170.306,555.511,169.741z"/>
	<path fill="#39B54A" d="M598.926,135.258c1.828,1.447,3.789,2.72,5.419,4.418c0.584,0.607,1.165,1.314,2.222,1.041
		c0.085-1.502-1.447-2.608-1.079-4.221c0.441-0.094,0.841-0.066,1.218,0.031c1.128,0.287,2.037,1.193,3.179,1.346l0,0l0.116-0.074
		c0.086-1.6-1.479-1.821-2.256-2.7c-0.9-1.017-3.161-0.92-2.578-3.162c0.022-0.086-0.164-0.27-0.292-0.344
		c-1.74-1.015-3.357-2.35-5.534-2.309c-1.924,0.038-3.847,0.09-6.13-0.484C594.726,131.657,596.794,133.57,598.926,135.258z"/>
</g>
<g id="earth03">
	<path fill="#2E3192" d="M784.667,373.047c-0.195-1.518-0.361-2.826-0.531-4.129c-0.074-0.564-0.455-0.791-0.976-0.799
		c-0.447-0.009-0.725,0.273-0.828,0.682c-0.237,0.906-0.419,1.828-0.666,2.732c-0.379,1.397-1.062,1.747-2.115,0.84
		c-2.426-2.092-4.894-4.195-5.416-7.665c-0.127-0.848-0.384-1.676-0.605-2.508c-0.193-0.737-0.814-0.872-1.451-0.965
		c-0.404-0.059-0.899-0.049-0.982,0.389c-0.389,2.091-1.67,4.064-0.631,6.342c1.584,3.483,3.069,7.011,4.57,10.534
		c0.362,0.853,0.852,1.475,1.821,1.61c1.166,0.161,1.521,0.924,1.494,2c-0.019,0.621-0.001,1.25,0.06,1.868
		c0.181,1.83,0.506,3.618,1.45,5.396c0.348-0.37,0.58-0.576,0.763-0.82c1.474-1.989,1.539-4.372,1.806-6.686
		c0.206-1.797,0.512-3.554,1.009-5.403c0.831,0.567,0.695,1.166,0.728,1.678c0.132,2.06,0.889,3.822,1.853,5.676
		c1.537,2.956,2.556,6.167,1.793,9.692c-0.438,2.044-0.491,4.175-0.731,6.266c-0.396,3.485-0.501,7.037-1.259,10.444
		c-1.983,8.903-3.592,17.92-7.421,26.32c-2.2,4.82-4.23,9.676-7.252,14.114c-2.921,4.282-6.609,8.173-7.872,13.458
		c-0.171,0.704-0.742,1.225-1.608,1.01c-0.875-0.216-0.59-0.955-0.662-1.54c-0.557-4.666-0.444-9.332-0.081-14.01
		c0.205-2.634,0.489-5.306-0.399-7.892c-1.344-3.912-2.384-7.929-3.954-11.769c-0.482-1.178-1.005-2.306-2.004-3.104
		c-1.146-0.917-1.527-2.1-1.494-3.502c0.077-3.616-0.592-7.155-1.211-10.686c-0.336-1.915-0.727-4.165-2.288-5.233
		c-1.387-0.944-1.801-2.023-2.079-3.366c-1.148-5.517-3.775-10.394-6.513-15.226c-0.567-1.008-1.349-1.813-2.311-2.435
		c-0.756,0.809,0.187,1.854-0.744,2.587c-1.876-1.162-3.489-2.632-3.837-4.929c-0.294-1.968-1.043-3.753-1.698-5.586
		c-0.149-0.42-0.271-0.941-0.931-0.833c-0.666,0.842-0.521,1.684-0.137,2.625c3.388,8.319,6.743,16.654,10.108,24.983
		c1.133,2.805,2.641,5.544,1.436,8.737c-0.079,0.206,0.056,0.491-0.021,0.695c-0.633,1.714,0.121,2.826,1.539,3.667
		c1.432,0.848,2.1,2.083,2.423,3.756c0.839,4.386,1.128,8.829,1.463,13.261c0.164,2.21,0.737,4.147,2.219,5.745
		c0.922,1,1.171,2.127,1.278,3.414c0.299,3.654,0.722,7.298,1.017,10.954c0.094,1.166,0.5,1.979,1.664,2.221
		c0.963,0.202,1.432,0.866,1.839,1.65c0.714,1.387,1.508,2.739,2.156,4.159c0.987,2.165,1.653,4.391,0.653,6.771
		c-0.422,1.014-0.294,1.972,0.393,2.862c0.565,0.739,0.865,1.667,1.787,2.475c4.465-5.344,8.451-11.057,13.252-16.689
		c-0.231,2.857-1.342,4.891-1.857,7.09c-0.949,4.107-2.172,8.118-3.655,12.082c-2.952,7.893-6.019,15.728-9.8,23.264
		c-1.676,3.341-2.919,6.897-5.046,10.014c-6.25,9.157-12.423,18.366-18.825,27.418c-5.138,7.266-10.091,14.664-15.163,21.976
		c-3.037,4.374-5.607,8.975-7.686,13.89c-1.33,3.143-2.505,6.389-4.612,9.168c-1.177,1.555-2.106,3.296-3.314,4.823
		c-3.133,3.974-6.084,8.063-10.156,11.269c-3.811,2.995-7.878,5.638-11.613,8.709c-3.266,2.683-6.645,5.188-10.166,7.52
		c-2.679,1.771-5.198,3.739-7.114,6.382c-1.104,1.522-2.519,2.771-3.854,4.091c-0.659,0.648-1.489,1.162-1.857,2.075
		c0.601-0.358,1.218-0.69,1.795-1.081c6.348-4.289,12.539-8.795,18.5-13.607c50.032-40.41,83.371-91.697,99.938-153.829
		c6.389-23.961,9.467-48.403,9.536-73.203c0.018-6.235,0.012-12.478-0.685-18.692C788.051,370.254,786.904,371.994,784.667,373.047z
		 M783.359,375.41c-0.016-0.057,0.033-0.146,0.078-0.197c0.023-0.028,0.102-0.01,0.155-0.014c0.009,0.072,0.047,0.155,0.019,0.211
		C783.519,375.617,783.411,375.617,783.359,375.41z"/>
	<path fill="#2E3192" d="M572.056,667.804c-0.034-0.021-0.067-0.024-0.102-0.041c-0.467-0.237-0.953-0.083-1.438-0.038
		c-0.175,0.014-0.348,0.014-0.521-0.028c-1.064-0.259-1.185-0.653-0.604-1.636c0.581-0.987,1.586-0.902,2.448-1.143
		c2.017-0.559,2.025-0.528,2.104-2.635c0.052-1.362,0.472-2.697-0.533-4.025c-0.508-0.675,0.125-1.68,0.695-2.332
		c1.356-1.542,2.593-3.105,2.71-5.288c0.036-0.713,0.657-1.027,1.267-1.238c0.873-0.305,1.321-1.021,1.857-1.702
		c0.821-1.046,0.974-2.068,0.348-3.244c-0.45-0.848-0.542-1.761-0.509-2.726c0.025-0.851-0.061-1.726-0.249-2.556
		c-1.048-4.604,0.525-8.336,3.971-11.272c2.344-1.999,4.455-4.127,6.013-6.794c0.401-0.685,1.012-1.167,1.671-1.615
		c1.548-1.055,3.066-2.158,4.597-3.237c0.576-0.406,1.159-0.802,1.863-0.972c2.151-0.522,3.361-2.151,4.478-3.867
		c0.382-0.588,0.606-1.276,1.008-1.847c0.63-0.896,0.808-1.813,0.498-2.864c-0.509-1.729-0.038-3.403,0.325-5.084
		c0.148-0.677,0.449-1.204,1.171-1.267c1.063-0.09,1.068-0.799,1.24-1.624c0.597-2.872-0.32-5.768,0.106-8.586
		c0.612-4.04-0.411-7.728-1.722-11.422c-0.273-0.761-0.718-1.376-1.273-1.94c-1.38-1.383-2.639-2.912-4.144-4.138
		c-2.221-1.805-2.231-4.333-2.608-6.774c-0.097-0.617,0.302-1.021,0.724-1.388c0.951-0.824,1.746-1.767,2.501-2.744l-31.4,7.566
		l-78.619,55.696l12,42.591l40.199,6.813c9.396-1.432,18.719-3.315,27.963-5.695C570.774,668.534,571.681,668.708,572.056,667.804z"
		/>
	<path fill="#39B54A" d="M642.921,464.817l-23.907,57.556l23.021,29.221l-42.09,10.143c-0.755,0.978-1.55,1.92-2.501,2.744
		c-0.422,0.367-0.82,0.771-0.724,1.388c0.377,2.441,0.388,4.97,2.608,6.774c1.505,1.226,2.764,2.755,4.144,4.138
		c0.556,0.564,1,1.18,1.273,1.94c1.311,3.694,2.334,7.382,1.722,11.422c-0.427,2.818,0.49,5.714-0.106,8.586
		c-0.172,0.825-0.177,1.534-1.24,1.624c-0.722,0.063-1.022,0.59-1.171,1.267c-0.363,1.681-0.834,3.354-0.325,5.084
		c0.31,1.052,0.132,1.969-0.498,2.864c-0.401,0.57-0.626,1.259-1.008,1.847c-1.116,1.716-2.326,3.345-4.478,3.867
		c-0.704,0.17-1.287,0.565-1.863,0.972c-1.53,1.079-3.049,2.183-4.597,3.237c-0.659,0.448-1.27,0.931-1.671,1.615
		c-1.558,2.667-3.669,4.795-6.013,6.794c-3.445,2.937-5.019,6.668-3.971,11.272c0.188,0.83,0.274,1.705,0.249,2.556
		c-0.033,0.965,0.059,1.878,0.509,2.726c0.626,1.176,0.474,2.198-0.348,3.244c-0.536,0.682-0.984,1.397-1.857,1.702
		c-0.609,0.211-1.23,0.525-1.267,1.238c-0.117,2.183-1.354,3.746-2.71,5.288c-0.57,0.652-1.203,1.657-0.695,2.332
		c1.005,1.328,0.585,2.663,0.533,4.025c-0.078,2.106-0.087,2.076-2.104,2.635c-0.862,0.24-1.867,0.155-2.448,1.143
		c-0.58,0.982-0.46,1.377,0.604,1.636c0.174,0.042,0.347,0.042,0.521,0.028c0.485-0.045,0.972-0.199,1.438,0.038
		c0.031,0.016,0.061,0.017,0.092,0.038l-0.052-0.028c0.24-0.512,0.619-0.463,1.034-0.271c0.142-0.413,0.514-0.541,0.871-0.635
		c3.825-1.003,7.653-1.992,11.479-2.997c0.393-0.102,0.759-0.112,1.133,0.026c1.039-0.291,2.082-0.543,3.103-0.875
		c5.048-1.657,10.131-3.226,15.122-5.029c5.434-1.963,10.989-3.677,16.091-6.434c8.049-4.346,16.053-8.771,23.99-13.316
		c5.146-2.947,10.176-6.108,14.994-9.586c0.368-0.913,1.198-1.427,1.857-2.075c1.335-1.32,2.75-2.568,3.854-4.091
		c1.916-2.643,4.436-4.61,7.114-6.382c3.521-2.331,6.9-4.837,10.166-7.52c3.735-3.071,7.803-5.714,11.613-8.709
		c4.072-3.206,7.023-7.295,10.156-11.269c1.208-1.527,2.138-3.269,3.314-4.823c2.107-2.779,3.282-6.025,4.612-9.168
		c2.078-4.915,4.648-9.516,7.686-13.89c5.072-7.312,10.025-14.71,15.163-21.976c6.402-9.052,12.575-18.261,18.825-27.418
		c2.127-3.117,3.37-6.672,5.046-10.014c3.781-7.537,6.848-15.371,9.8-23.264c1.483-3.964,2.706-7.975,3.655-12.082
		c0.516-2.2,1.626-4.233,1.857-7.09c-4.801,5.632-8.787,11.345-13.252,16.689c-0.922-0.808-1.222-1.736-1.787-2.475
		c-0.687-0.891-0.814-1.849-0.393-2.862c1-2.379,0.334-4.605-0.653-6.771c-0.648-1.42-1.442-2.772-2.156-4.159
		c-0.407-0.784-0.876-1.448-1.839-1.65c-1.164-0.242-1.57-1.055-1.664-2.221c-0.295-3.656-0.718-7.3-1.017-10.954
		c-0.107-1.287-0.356-2.415-1.278-3.414c-1.481-1.598-2.055-3.535-2.219-5.745c-0.335-4.433-0.624-8.875-1.463-13.261
		c-0.323-1.674-0.991-2.909-2.423-3.756c-1.418-0.84-2.172-1.953-1.539-3.667c0.076-0.204-0.059-0.489,0.021-0.695
		c1.205-3.193-0.303-5.932-1.436-8.737c-1.225-3.03-2.454-6.06-3.679-9.09l-24.881,1.404L642.921,464.817z"/>
</g>
<g id="earth02">
	<path fill="#39B54A" d="M226.842,492.39c4.262,11.625,9.83,22.608,15.792,33.429c5.964,10.826,12.503,21.287,19.703,31.313
		c4.905,6.831,9.454,13.978,15.756,19.705c0.644,0.166,1.029,0.101,1.528-0.561c0.959-1.268,1.782-2.91,3.825-2.737
		c0.151-1.182-0.066-2.207-0.743-3.146c-0.774-1.076-1.208-2.349-1.998-3.436c-0.646-0.892-0.206-1.589,0.918-1.746
		c1.676-0.232,3.26,0.142,4.801,0.763c1.216,0.489,2.407,1.06,3.634,1.506l13.728-25.626l26.372-20.611
		c-0.055-0.437-0.111-0.872-0.159-1.308c-0.182-1.631-0.866-2.93-2.32-3.843c-1.519-0.951-2.916-2.097-4.43-3.055
		c-1.016-0.646-1.816-1.41-2.419-2.461c-2.455-4.267-4.965-8.502-7.432-12.762c-0.318-0.549-0.58-1.214-1.171-1.411
		c-1.064-0.353-1.664-1.067-2.094-2.027c-0.201-0.443-0.598-0.702-1.027-0.918c-2.737-1.374-4.998-3.458-7.57-5.078
		c-2.284-1.438-4.141-3.326-5.583-5.587c-0.641-1.004-1.361-1.377-2.521-1.109c-1.419,0.326-2.795-0.12-4.163-0.422
		c-1.218-0.268-1.46-0.659-0.908-1.808c1.453-3.017,0.752-5.581-1.265-8.082c-2.103-2.609-4.263-5.2-5.637-8.32
		c-0.733-1.67-2.498-2.32-3.782-3.403c-0.766-0.645-1.956,0.556-2.989,0.803c-0.129,0.03-0.286-0.057-0.527-0.112
		c-0.31-1.043-0.291-2.105,0.034-3.169c0.502-1.635-0.027-2.853-1.374-3.874c-1.679-1.274-3.27-2.664-4.915-3.985
		c-0.615-0.497-1.151-1.029-1.518-1.75c-0.334-0.654-0.368-1.148,0.304-1.597c0.969-0.647,1.833-1.468,3.06-1.653
		c0.545-0.082,1.164-0.237,1.116-0.955c-0.085-1.307,0.388-2.628-0.236-3.928c-1.253-2.612-1.28-5.405-1.204-8.237
		c0.1-3.76-0.268-7.477-1.577-11.049c-0.914-2.495-1.936-4.959-2.66-7.509c-0.935-3.298-2.963-5.831-5.309-8.134
		c-1.787-1.756-3.52-3.551-5.118-5.471c-0.173-0.208-0.322-0.425-0.482-0.638l-45.419,19.818c0.149,1.386,0.279,2.773,0.445,4.159
		C212.197,446.452,218.513,469.667,226.842,492.39z"/>
	<path fill="#2E3192" d="M259.881,404.499c2.345,2.304,4.374,4.836,5.309,8.134c0.724,2.55,1.746,5.015,2.66,7.509
		c1.309,3.572,1.677,7.29,1.577,11.049c-0.076,2.833-0.05,5.625,1.204,8.237c0.625,1.3,0.151,2.621,0.236,3.928
		c0.047,0.718-0.571,0.873-1.116,0.955c-1.227,0.185-2.09,1.006-3.06,1.653c-0.672,0.449-0.638,0.942-0.304,1.597
		c0.367,0.721,0.903,1.254,1.518,1.75c1.645,1.321,3.236,2.711,4.915,3.985c1.347,1.021,1.876,2.239,1.374,3.874
		c-0.325,1.063-0.343,2.125-0.034,3.169c0.241,0.055,0.398,0.142,0.527,0.112c1.033-0.247,2.223-1.448,2.989-0.803
		c1.284,1.083,3.049,1.733,3.782,3.403c1.374,3.121,3.534,5.711,5.637,8.32c2.017,2.5,2.718,5.064,1.265,8.082
		c-0.553,1.149-0.311,1.54,0.908,1.808c1.367,0.302,2.744,0.748,4.163,0.422c1.16-0.268,1.88,0.105,2.521,1.109
		c1.443,2.261,3.3,4.149,5.583,5.587c2.572,1.62,4.833,3.704,7.57,5.078c0.43,0.216,0.827,0.475,1.027,0.918
		c0.431,0.96,1.03,1.674,2.094,2.027c0.591,0.197,0.853,0.862,1.171,1.411c2.467,4.26,4.978,8.495,7.432,12.762
		c0.604,1.051,1.403,1.815,2.419,2.461c1.514,0.958,2.912,2.104,4.43,3.055c1.454,0.913,2.138,2.212,2.32,3.843
		c0.048,0.436,0.104,0.871,0.159,1.308l15.545-12.151l16.524-61.983l33.648-57.028l-46.93-27.01l-69.952,24.536l-24.713,10.784
		c0.16,0.213,0.309,0.431,0.482,0.638C256.362,400.948,258.095,402.742,259.881,404.499z"/>
</g>
<g id="earth01">
	<path fill="#39B54A" d="M252.204,300.65c-0.708-2.463-0.569-4.918,0.218-7.35c0.248-0.761,0.242-1.491-0.137-2.259
		c-1.134-2.3-2.383-4.559-3.064-7.061c-0.104-0.389-0.294-0.735-0.795-0.661c-0.415,0.061-0.784,0.306-0.875,0.683
		c-0.146,0.6-0.128,1.236-0.229,1.849c-0.405,2.502-0.406,2.56-2.916,2.75c-0.975,0.074-1.231,0.559-1.195,1.33
		c0.026,0.536,0.206,1.069,0.369,1.588c0.629,2.006,1.279,4.009,1.933,6.008c0.042,0.131,0.188,0.229,0.284,0.339
		c0.552,0.026,0.699-0.605,1.152-0.706c0.701,0.199,0.344,1.559,1.353,1.301c0.994-0.252,1.223,0.415,1.529,1.034
		c0.583,1.171,1.145,2.349,0.857,3.939C251.896,302.667,252.587,301.987,252.204,300.65z"/>
	<path fill="#39B54A" d="M246.82,279.084c0.955,0.838,1.257,0.818,1.565-0.353c0.296-1.127,0.635-2.251,0.652-3.441
		c0.086-7.122,1.39-14.095,2.554-21.085c0.213-1.272,0.071-2.487-0.188-3.711c-0.195-0.927-0.868-1.549-1.669-1.826
		c-0.806-0.276-1.167,0.612-1.631,1.086c-0.422,0.432-0.927,0.872-0.804,1.798c1.638-0.19,1.695-0.211,1.859,0.261
		c0.223,0.648,0.557,1.319,0.11,2.018c-0.084,0.131-0.185,0.252-0.273,0.379c-0.471,0.676-0.595,1.482-0.561,2.243
		c0.09,1.832-0.436,3.552-0.768,5.313c-0.593,3.139-0.873,6.33-1.489,9.471c-0.192,0.975-0.192,1.795-1.171,2.284
		c-0.533,0.267-0.872,0.68-0.58,1.329C245.097,276.333,245.522,277.944,246.82,279.084z"/>
	<path fill="#39B54A" d="M255.252,305.551c-0.453-0.929-2.224-0.91-2.727-0.043c-0.759,1.302,0.446,4.249,1.911,4.675
		c1.487,0.432,2.231-0.272,1.827-1.799C256.003,307.417,255.692,306.447,255.252,305.551z"/>
	<path fill="none" d="M246.82,296.793c0.955,0.839,1.257,0.818,1.565-0.353c0.296-1.127,0.635-2.252,0.652-3.441
		c0.086-7.122,1.39-14.095,2.554-21.085c0.213-1.273,0.071-2.487-0.188-3.711c-0.195-0.927-0.868-1.549-1.669-1.826
		c-0.806-0.277-1.167,0.612-1.631,1.086c-0.422,0.433-0.927,0.872-0.804,1.799c1.638-0.19,1.695-0.211,1.859,0.261
		c0.223,0.648,0.557,1.319,0.11,2.018c-0.084,0.131-0.185,0.252-0.273,0.379c-0.471,0.676-0.595,1.482-0.561,2.243
		c0.09,1.831-0.436,3.552-0.768,5.313c-0.593,3.139-0.873,6.33-1.489,9.47c-0.192,0.976-0.192,1.795-1.171,2.285
		c-0.533,0.267-0.872,0.68-0.58,1.328C245.097,294.042,245.522,295.653,246.82,296.793z"/>
	<g>
		<path fill="#39B54A" d="M290.059,567.479c0.304,0.111,0.609,0.22,0.918,0.312c1.911,0.563,3.688,1.391,5.166,2.653
			c1.455,1.239,3.109,1.688,4.874,2.075c1.006,0.221,1.646,0.117,1.94-0.996c0.164-0.619,0.704-1.018,1.238-1.363
			c1.749-1.14,3.251-2.379,2.917-4.839c-0.083-0.622,0.323-1.36,0.644-1.975c0.33-0.633,0.581-1.273,0.735-1.965
			c0.789-3.563,1.79-7.035,1.093-10.833c-0.449-2.432,0.104-5.009,0.875-7.485c1.106,0.381,1.485,1.816,2.611,1.222
			c1.551-0.823,3.403-1.193,4.389-2.936c0.505-0.894,1.308-1.479,2.449-1.551c3.822-0.239,6.316-2.954,9.156-5.009
			c0.173-0.124,0.252-0.391,0.353-0.602c0.878-1.861,1.446-3.874,1.418-5.877c-0.035-2.358-0.382-4.714-0.676-7.069l-26.372,20.611
			L290.059,567.479z"/>
		<g>
			<path fill="#2E3192" d="M580.315,336.342c0.446-0.031,0.893-0.074,1.343-0.125c1.934-0.22,3.846-0.664,5.766-1.005
				c0.796-0.14,1.438-0.591,2.108-0.991c2.091-1.238,4.38-2.06,6.564-3.096c1.153-0.547,2.342-0.199,3.461-0.107
				c2.349,0.19,4.68,0.125,7.009-0.052c2.036-0.154,4.049-0.003,6.069,0.097c1.382,0.069,2.628,0.55,3.612,1.484
				c1.086,1.034,2.185,0.995,3.405,0.384c0.487-0.242,1.059-0.374,1.474-0.706c0.991-0.795,1.913-0.878,2.932-0.065
				c0.555,0.442,1.174,0.617,1.959,0.512c0.657-0.09,1.404,0.126,2.048,0.374c2.701,1.038,5.198,0.82,7.481-1.041
				c0.464-0.377,0.996-0.571,1.508-0.232c1.024,0.682,2.414,1.045,2.826,2.328c0.434,1.345,1.234,1.39,2.328,1.087
				c0.216-0.059,0.454-0.022,0.809-0.033c0.242,1.25-0.667,2.044-1.162,2.916c-0.712,1.262-0.736,2.33,0.273,3.4
				c0.318,0.341,0.59,0.73,0.854,1.114c1.364,1.989,1.188,3.919-0.532,5.648c-0.717,0.719-1.512,1.361-2.204,2.103
				c-1.338,1.444-1.342,2.885-0.083,4.386c2.065,2.462,4.666,4.071,7.715,5.06c1.931,0.623,3.82,1.266,5.886,1.363
				c1.485,0.069,2.905,0.559,4.141,1.474c1.138,0.842,2.417,1.411,3.767,1.836c1.369,0.433,2.234,1.252,2.412,2.795
				c0.126,1.078,0.563,2.113,0.78,3.186c0.193,0.965,0.711,1.484,1.662,1.712c1.14,0.276,2.239,0.699,3.376,0.972
				c3.164,0.759,5.418,2.997,7.91,4.839c1.819,1.348,2.694,1.294,4.175-0.384c2.45-2.771,2.696-2.841,1.687-6.428
				c-0.872-3.089,0.225-5.045,2.423-6.916c3.069-2.613,3.02-2.636,7.056-1.809c1.648,0.335,3.241,0.626,3.852,2.521
				c0.146,0.45,0.514,0.761,0.962,0.979c2.445,1.187,4.757,2.655,7.497,3.224c3.98,0.827,7.941,1.75,11.884,2.722
				c1.184,0.292,2.075,0.159,2.994-0.664c1.223-1.09,2.615-1.985,3.834-3.079c0.915-0.82,1.748-1.235,2.876-0.446
				c0.374,0.259,0.98,0.242,1.272,0.55c2.106,2.207,4.141,0.681,6.202-0.042c0.608-0.218,0.673-0.667,0.797-1.256
				c0.865-4.213,1.256-8.498,1.61-12.761c0.354-4.19,0.078-8.422-0.723-12.587c-0.182-0.932-0.592-1.776-0.982-2.628
				c-0.522-1.14-1.003-2.269-0.554-3.596c0.325-0.976-0.247-1.28-1.136-1.102c-1.07,0.213-2.185,0.323-2.47,1.738
				c-0.175,0.877-0.88,1.442-1.541,2.006c-1.743,1.484-2.995,1.529-4.742,0.1c-1.081-0.885-2.041-1.906-3.592-2.025
				c-1.231-0.093-1.983,0.045-2.443,1.456c-0.746,2.281-2.272,2.458-3.995,0.652c-0.323-0.339-0.554-0.823-1.045-0.897
				c-3.269-0.489-4.958-3.329-7.433-4.993c-0.654-0.438-1.188-0.923-0.565-1.92c0.387-0.623-0.646-1.835-1.646-2.07
				c-0.357-0.083-0.77-0.019-1.146,0.046c-0.534,0.09-0.929-0.034-1.111-0.567c-0.17-0.481-0.089-0.931,0.317-1.27
				c0.241-0.197,0.526-0.342,0.767-0.54c1.409-1.138,1.361-1.432-0.148-2.404c-0.839-0.54-2.176-0.931-1.102-2.442
				c0.254-0.356-0.194-0.875-0.343-1.318c-0.211-0.661-0.605-1.342-0.22-2.032c0.963-1.717-0.323-2.962-0.87-4.356
				c-0.187-0.484-0.705-0.574-1.167-0.681c-0.987-0.232-1.97-0.505-2.973-0.671c-2.198-0.363-3.407,0.858-3.041,3.013
				c0.111,0.675,0.408,1.346,0.038,2.027c0.009,0,0.018,0.003,0.024,0.005c0.005,0.026,0.012,0.048,0.016,0.074
				c0.043,0.047,0.088,0.093,0.132,0.142c-0.04-0.018-0.096-0.021-0.111-0.047c-0.014-0.028-0.016-0.062-0.021-0.095
				c-0.016-0.017-0.033-0.035-0.049-0.052c0.006-0.01,0.006-0.019,0.009-0.028c-0.146-0.035-0.297-0.104-0.433-0.076
				c-1.643,0.317-2.614-0.399-3.101-1.937c-0.067-0.206-0.229-0.419-0.572-0.414c-0.567,0.816-0.532,1.674-0.045,2.565
				c0.527,0.958,1.021,1.933,1.537,2.898c0.222,0.412,0.693,0.844,0.65,1.221c-0.249,2.179,1.364,2.878,2.828,3.618
				c1.793,0.906,2.392,2.589,3.058,4.254c0.183,0.457-0.184,0.478-0.467,0.727c-1,0.876-2.021,1.151-3.333,0.591
				c-0.171,1.14,0.581,1.88,0.682,2.791c-0.39,0.535-1.036-0.159-1.448,0.296c-0.012,0.887,0.567,1.6,0.771,2.43
				c0.28,1.144-0.092,2.105-1.021,2.587c-0.352,0.185-0.976,0.391-1.081,0.137c-0.5-1.257-2.483-1.397-2.313-3.094
				c0.08-0.764-0.268-1.29-0.936-1.4c-1.718-0.277-2.012-1.664-1.763-2.816c0.58-2.663-0.989-4.033-2.717-5.418
				c-0.278-0.223-0.923-0.348-0.622-0.792c1.088-1.597-0.293-1.793-1.199-2.259c-1.634-0.839-2.742-2.032-2.822-3.978
				c-0.016-0.379-0.031-0.901-0.266-1.104c-2.431-2.108-2.256-5.125-2.378-7.813c-0.12-2.689-1.166-4.519-3.035-6.231
				c-3.458-3.171-7.01-6.215-11.022-8.682c-0.723-0.446-1.4-0.986-2.296-1.117c-1.676-0.246-2.783-1.335-3.677-2.663
				c-1.173-1.736-2.142-3.589-4.137-4.656c-1.146-0.612-1.429-1.968-1.81-3.179c-0.567-1.8-2.947-2.245-4.275-0.856
				c-0.256,0.268-0.276,0.602-0.084,0.846c0.932,1.179,0.617,2.545,0.521,3.829c-0.087,1.114,0.258,1.892,0.965,2.722
				c2.634,3.099,4.984,6.397,7.168,9.841c1.507,2.379,3.483,4.424,6.519,4.941c0.678,0.114,1.449,0.202,1.588,1.108
				c0.173,1.138,1.053,1.633,1.878,2.248c2.252,1.678,4.441,3.449,6.669,5.163c0.824,0.638,1.468,1.427,1.835,2.385
				c0.292,0.768,0.211,1.638-0.529,2.093c-0.583,0.363-1.164-0.073-1.648-0.533c-0.676-0.644-1.339-1.332-2.113-1.835
				c-0.671-0.434-1.463-0.565-2.073,0.268c-0.867,1.18-0.981,2.12-0.294,2.885c0.261,0.291,0.555,0.552,0.837,0.823
				c1.6,1.532,1.819,2.3,0.851,4.24c-0.426,0.851-0.756,1.57-0.718,2.596c0.049,1.278-0.969,2.243-1.764,3.194
				c-0.37,0.439-0.803,0.335-1.215-0.047c-0.792-0.738-1.136-0.237-1.563,0.482c-0.702,1.19-1.177,2.375-0.724,3.767
				c0.203,0.619,0.123,1.242-0.069,1.847c-0.591,1.871-1.502,2.186-2.989,0.899c-1.792-1.546-3.807-2.732-5.912-3.753
				c-1.883-0.913-2.962-2.418-3.812-4.317c1.87-0.785,3.57-1.378,5.412-0.135c0.922,0.623,2.033,0.723,3.164,0.46
				c1.14-0.266,2.316-0.387,3.445-0.681c2.694-0.695,3.582-2.283,2.764-4.886c-0.446-1.417-0.979-2.8-1.445-4.211
				c-0.305-0.92-0.641-1.771-1.72-2.031c-0.484-0.114-0.909-0.404-0.99-0.896c-0.241-1.458-1.348-2.212-2.33-3.099
				c-0.984-0.889-1.975-1.792-2.835-2.795c-0.902-1.053-1.903-1.844-3.299-2.046c-0.986-0.144-1.682-0.693-2.328-1.43
				c-1.389-1.588-2.857-3.103-4.271-4.668c-1.206-1.336-2.438-2.641-3.999-3.578c-1.136-0.68-1.748-1.632-1.95-2.995
				c-0.504-3.366-2.994-5.365-5.443-7.292c-0.12-0.095-0.245-0.169-0.371-0.237l-43.282,42.553L580.315,336.342z"/>
			<path fill="#2E3192" d="M209.132,366.897c0.13-1.465,0.315-2.968,1.183-4.25c1.283-1.887,2.167-3.99,2.904-6.115
				c0.987-2.848,2.186-5.686,2.01-8.812c-0.126-2.22,0.354-4.32,1.197-6.354c0.506-1.225,1.012-2.449,1.544-3.663
				c0.75-1.705,1.065-3.386,0.148-5.169c-0.757-1.472-0.917-3.108-1.131-4.747c-0.472-3.601-0.503-7.151,0.54-10.664
				c0.11-0.374,0.163-0.766,0.204-1.155c0.519-5.152,1.813-10.166,3.248-15.098c1.394-4.787,2.253-9.719,3.966-14.417
				c-3.015,7.717-5.444,15.627-7.579,23.621c-5.662,21.196-9.173,42.739-10.011,64.684c-0.163,4.279-0.464,8.561-0.097,12.846
				c0.176-1.155,0.433-2.283,0.516-3.466C208.16,378.388,208.622,372.639,209.132,366.897z"/>
			<path fill="#39B54A" d="M575.034,335.515c-2.006-0.979-4.182-1.723-6.434-2.105c-2.12-0.358-4.004-0.883-4.818-3.355
				c-0.447-1.368-2.888-1.704-3.767-0.7c-2.103,2.394-4.434,4.673-5.274,7.896c-0.339,1.313-1.065,1.944-2.364,2.226
				c-3.134,0.682-6.138,1.813-9.186,2.795c-1.773,0.571-3.123,1.56-3.971,3.054c-1.817,3.206-4.229,5.989-6.181,9.099
				c-0.622,0.996-0.866,1.923-0.498,3.071c0.253,0.795,0.567,1.667,0.007,2.487c-0.92,1.349-1.701,2.8-3.19,3.68
				c-1.546,0.917-3.019,1.959-4.556,2.892c-3.219,1.949-6.48,3.753-10.436,3.684c-1.077-0.019-2.16,0.391-3.242,0.422
				c-1.314,0.035-2.166,0.648-2.918,1.651c-1.074,1.437-2.174,2.862-3.563,4.028c-3.056,2.565-5.935,5.313-8.687,8.201
				c-0.816,0.858-1.607,1.677-2.017,2.822c-0.356,0.996-0.982,1.657-2.133,1.908c-1.632,0.358-2.952,1.271-4.055,2.598
				c-1.536,1.843-3.096,3.665-4.644,5.498l97.206-61.024C578.545,336.468,576.8,336.38,575.034,335.515z"/>
			<path fill="#39B54A" d="M473.764,409.514c1.814-0.161,1.797-0.159,2.17,1.857c0.097,0.529,0.237,1.1,0.533,1.532
				c1.615,2.352,0.813,4.872,0.344,7.245c-0.438,2.191-1.439,4.275-2.229,6.39c-1.83,4.905-3.96,9.682-6.658,14.167
				c-1.764,2.932-4.09,5.365-7.564,6.56c0.922,2.251,1.762,4.522,2.784,6.71c0.571,1.221,0.602,2.102-0.405,3.132
				c-1.321,1.354-1.771,2.94-1.134,4.925c0.799,2.49,2.046,4.535,4.303,5.887c1.373,0.823,2.003,1.872,1.353,3.475
				c-0.491,1.202-0.173,2.266,0.578,3.288c0.555,0.754,1.022,1.563,1.695,2.234c1.214,1.214,2.464,2.406,3.573,3.715
				c2.596,3.068,3.265,6.963,4.414,10.648c-0.598,1.84,0.154,3.537,0.571,5.266c0.105,0.434,0.636,0.993,0.199,1.28
				c-0.773,0.505-0.372,0.792-0.026,1.235c0.823,1.05,1.716,2.017,2.812,2.795c0.695,0.498,1.551,0.927,1.985,1.608
				c1.809,2.859,4.611,4.61,7.101,6.724c1.716,1.456,3.658,2.786,4.569,4.946c0.835,1.981,2.303,3.265,4.009,4.427
				c1.871,1.273,3.694,2.611,5.621,3.809c1.117,0.691,2.257,0.954,3.542,0.974c4.063,0.063,8.104-0.233,12.15-0.507
				c1.933-0.128,3.867-0.548,5.823-0.072c2.658,0.65,5.33,1.245,7.995,1.857c1.909,0.436,3.795,0.906,5.433,2.078
				c0.711,0.509,1.586,0.777,2.45,0.633c3.762-0.622,7.649-0.635,11.224-2.203c1.612-0.705,3.262-0.975,5.026-0.768
				c0.998,0.117,2.02,0.056,2.95-0.494c1.655-0.976,3.486-1.26,5.379-1.422c2.729-0.235,5.461-0.294,8.162,0.076
				c2.685,0.366,5.396,0.432,7.99,1.593c3.326,1.489,4.939,3.848,4.507,7.526c-0.271,2.291,0.841,3.803,3.134,3.973
				c1.31,0.095,2.645-0.101,3.966-0.204c2.721-0.211,5.438-0.491,8.164-0.652c1.237-0.072,2.873-0.114,3.443,0.933
				c0.756,1.394,1.846,2.071,3.108,2.618c0.84,0.359,1.048,0.81,0.799,1.615c-0.163,0.521-0.305,1.052-0.417,1.588
				c-0.96,4.617-3.724,8.561-4.886,13.102c-0.055,0.213-0.254,0.391-0.397,0.576c-1.38,1.804-2.573,3.751-3.96,5.548l42.09-10.143
				l-23.021-29.221l23.907-57.556l69.952-67.295l24.881-1.404c-2.139-5.299-4.274-10.602-6.43-15.894
				c-0.384-0.941-0.529-1.783,0.137-2.625c0.659-0.107,0.781,0.413,0.931,0.833c0.655,1.833,1.404,3.618,1.698,5.586
				c0.348,2.297,1.961,3.767,3.837,4.929c0.931-0.733-0.012-1.778,0.744-2.587c0.962,0.623,1.743,1.427,2.311,2.435
				c1.292,2.279,2.553,4.572,3.65,6.935l43.214-2.44c0.674-3.437-0.323-6.579-1.828-9.472c-0.964-1.854-1.721-3.616-1.853-5.676
				c-0.032-0.512,0.104-1.11-0.728-1.678c-0.497,1.849-0.803,3.606-1.009,5.403c-0.267,2.314-0.332,4.697-1.806,6.686
				c-0.183,0.244-0.415,0.45-0.763,0.82c-0.944-1.778-1.27-3.566-1.45-5.396c-0.061-0.617-0.078-1.247-0.06-1.868
				c0.026-1.076-0.328-1.838-1.494-2c-0.97-0.135-1.459-0.757-1.821-1.61c-1.501-3.523-2.986-7.051-4.57-10.534
				c-1.039-2.277,0.242-4.25,0.631-6.342c0.083-0.438,0.578-0.448,0.982-0.389c0.637,0.093,1.258,0.228,1.451,0.965
				c0.222,0.832,0.479,1.66,0.605,2.508c0.522,3.469,2.99,5.572,5.416,7.665c1.054,0.906,1.736,0.557,2.115-0.84
				c0.247-0.905,0.429-1.826,0.666-2.732c0.104-0.408,0.381-0.69,0.828-0.682c0.521,0.009,0.901,0.235,0.976,0.799
				c0.17,1.304,0.336,2.611,0.531,4.129c2.237-1.053,3.384-2.793,4.229-4.804c0.783-1.674,0.925-3.379,0.676-5.237
				c-0.716-5.338-1.247-10.7-1.894-16.047c-0.563-4.648-0.896-9.347-1.83-13.922c-2.327-11.4-5.148-22.681-8.289-33.896
				c-2.516-8.981-5.57-17.763-9.348-26.243c-5.178-11.63-10.752-23.096-17.646-33.854c-4.026-6.274-7.737-12.763-12.271-18.688
				l-62.929,25.862l-42.414,41.698c0.126,0.067,0.251,0.142,0.371,0.237c2.449,1.927,4.939,3.926,5.443,7.292
				c0.202,1.363,0.814,2.315,1.95,2.995c1.562,0.938,2.793,2.242,3.999,3.578c1.414,1.565,2.883,3.08,4.271,4.668
				c0.646,0.737,1.342,1.287,2.328,1.43c1.396,0.202,2.396,0.993,3.299,2.046c0.86,1.003,1.851,1.906,2.835,2.795
				c0.982,0.887,2.089,1.641,2.33,3.099c0.081,0.491,0.506,0.782,0.99,0.896c1.079,0.26,1.415,1.11,1.72,2.031
				c0.467,1.411,0.999,2.794,1.445,4.211c0.818,2.603-0.069,4.19-2.764,4.886c-1.129,0.294-2.306,0.415-3.445,0.681
				c-1.131,0.263-2.242,0.163-3.164-0.46c-1.842-1.243-3.542-0.65-5.412,0.135c0.85,1.899,1.929,3.404,3.812,4.317
				c2.105,1.021,4.12,2.207,5.912,3.753c1.487,1.287,2.398,0.972,2.989-0.899c0.192-0.605,0.272-1.228,0.069-1.847
				c-0.453-1.392,0.021-2.577,0.724-3.767c0.427-0.719,0.771-1.221,1.563-0.482c0.412,0.382,0.845,0.486,1.215,0.047
				c0.795-0.951,1.813-1.917,1.764-3.194c-0.038-1.026,0.292-1.745,0.718-2.596c0.969-1.94,0.749-2.708-0.851-4.24
				c-0.282-0.271-0.576-0.533-0.837-0.823c-0.688-0.765-0.573-1.705,0.294-2.885c0.61-0.833,1.402-0.702,2.073-0.268
				c0.774,0.503,1.438,1.191,2.113,1.835c0.484,0.46,1.065,0.896,1.648,0.533c0.74-0.455,0.821-1.325,0.529-2.093
				c-0.367-0.958-1.011-1.747-1.835-2.385c-2.228-1.714-4.417-3.485-6.669-5.163c-0.825-0.615-1.705-1.11-1.878-2.248
				c-0.139-0.906-0.91-0.995-1.588-1.108c-3.035-0.517-5.012-2.562-6.519-4.941c-2.184-3.443-4.534-6.742-7.168-9.841
				c-0.707-0.83-1.052-1.608-0.965-2.722c0.097-1.283,0.411-2.649-0.521-3.829c-0.192-0.244-0.172-0.578,0.084-0.846
				c1.328-1.389,3.708-0.944,4.275,0.856c0.381,1.21,0.664,2.566,1.81,3.179c1.995,1.067,2.964,2.919,4.137,4.656
				c0.894,1.328,2.001,2.417,3.677,2.663c0.896,0.131,1.573,0.671,2.296,1.117c4.013,2.466,7.564,5.51,11.022,8.682
				c1.869,1.712,2.915,3.542,3.035,6.231c0.122,2.689-0.053,5.705,2.378,7.813c0.234,0.202,0.25,0.725,0.266,1.104
				c0.08,1.945,1.188,3.139,2.822,3.978c0.906,0.465,2.287,0.662,1.199,2.259c-0.301,0.444,0.344,0.569,0.622,0.792
				c1.728,1.385,3.297,2.755,2.717,5.418c-0.249,1.152,0.045,2.539,1.763,2.816c0.668,0.11,1.016,0.636,0.936,1.4
				c-0.171,1.697,1.813,1.837,2.313,3.094c0.105,0.254,0.729,0.048,1.081-0.137c0.93-0.482,1.302-1.444,1.021-2.587
				c-0.204-0.83-0.783-1.542-0.771-2.43c0.412-0.455,1.059,0.239,1.448-0.296c-0.101-0.911-0.853-1.651-0.682-2.791
				c1.313,0.56,2.333,0.285,3.333-0.591c0.283-0.249,0.649-0.27,0.467-0.727c-0.666-1.666-1.265-3.348-3.058-4.254
				c-1.464-0.74-3.077-1.439-2.828-3.618c0.043-0.377-0.429-0.809-0.65-1.221c-0.517-0.965-1.01-1.94-1.537-2.898
				c-0.487-0.891-0.522-1.749,0.045-2.565c0.343-0.005,0.505,0.208,0.572,0.414c0.486,1.537,1.458,2.253,3.101,1.937
				c0.136-0.027,0.287,0.042,0.433,0.076c0.37-0.681,0.073-1.352-0.038-2.027c-0.366-2.155,0.843-3.376,3.041-3.013
				c1.003,0.166,1.985,0.439,2.973,0.671c0.462,0.107,0.98,0.197,1.167,0.681c0.547,1.394,1.833,2.639,0.87,4.356
				c-0.386,0.69,0.009,1.372,0.22,2.032c0.148,0.442,0.597,0.961,0.343,1.318c-1.074,1.511,0.263,1.902,1.102,2.442
				c1.51,0.972,1.558,1.266,0.148,2.404c-0.24,0.197-0.525,0.342-0.767,0.54c-0.406,0.339-0.487,0.789-0.317,1.27
				c0.183,0.533,0.577,0.657,1.111,0.567c0.377-0.065,0.789-0.129,1.146-0.046c1,0.235,2.032,1.447,1.646,2.07
				c-0.623,0.997-0.089,1.482,0.565,1.92c2.475,1.664,4.164,4.503,7.433,4.993c0.491,0.075,0.722,0.559,1.045,0.897
				c1.723,1.806,3.249,1.629,3.995-0.652c0.46-1.411,1.212-1.549,2.443-1.456c1.551,0.119,2.511,1.14,3.592,2.025
				c1.747,1.429,2.999,1.384,4.742-0.1c0.661-0.564,1.366-1.129,1.541-2.006c0.285-1.415,1.399-1.525,2.47-1.738
				c0.889-0.178,1.461,0.126,1.136,1.102c-0.449,1.327,0.031,2.456,0.554,3.596c0.391,0.853,0.801,1.696,0.982,2.628
				c0.801,4.165,1.077,8.396,0.723,12.587c-0.354,4.263-0.745,8.548-1.61,12.761c-0.124,0.588-0.188,1.038-0.797,1.256
				c-2.062,0.723-4.096,2.248-6.202,0.042c-0.292-0.308-0.898-0.291-1.272-0.55c-1.128-0.789-1.961-0.374-2.876,0.446
				c-1.219,1.093-2.611,1.989-3.834,3.079c-0.919,0.823-1.811,0.957-2.994,0.664c-3.942-0.972-7.903-1.896-11.884-2.722
				c-2.74-0.569-5.052-2.037-7.497-3.224c-0.448-0.218-0.816-0.529-0.962-0.979c-0.61-1.896-2.203-2.186-3.852-2.521
				c-4.036-0.827-3.986-0.804-7.056,1.809c-2.198,1.871-3.295,3.827-2.423,6.916c1.01,3.587,0.764,3.658-1.687,6.428
				c-1.48,1.678-2.355,1.731-4.175,0.384c-2.492-1.842-4.746-4.08-7.91-4.839c-1.137-0.273-2.236-0.695-3.376-0.972
				c-0.951-0.229-1.469-0.747-1.662-1.712c-0.217-1.072-0.654-2.108-0.78-3.186c-0.178-1.542-1.043-2.362-2.412-2.795
				c-1.35-0.425-2.629-0.994-3.767-1.836c-1.235-0.915-2.655-1.404-4.141-1.474c-2.065-0.097-3.955-0.74-5.886-1.363
				c-3.049-0.989-5.649-2.598-7.715-5.06c-1.259-1.501-1.255-2.942,0.083-4.386c0.692-0.742,1.487-1.384,2.204-2.103
				c1.721-1.729,1.896-3.66,0.532-5.648c-0.265-0.384-0.536-0.773-0.854-1.114c-1.01-1.07-0.985-2.138-0.273-3.4
				c0.495-0.872,1.404-1.666,1.162-2.916c-0.354,0.01-0.593-0.026-0.809,0.033c-1.094,0.303-1.895,0.258-2.328-1.087
				c-0.412-1.283-1.802-1.646-2.826-2.328c-0.512-0.339-1.044-0.145-1.508,0.232c-2.283,1.861-4.78,2.079-7.481,1.041
				c-0.644-0.247-1.391-0.463-2.048-0.374c-0.785,0.105-1.404-0.069-1.959-0.512c-1.019-0.813-1.94-0.73-2.932,0.065
				c-0.415,0.332-0.986,0.463-1.474,0.706c-1.221,0.611-2.319,0.65-3.405-0.384c-0.984-0.934-2.23-1.415-3.612-1.484
				c-2.021-0.1-4.033-0.25-6.069-0.097c-2.329,0.176-4.66,0.242-7.009,0.052c-1.119-0.092-2.308-0.439-3.461,0.107
				c-2.185,1.036-4.474,1.857-6.564,3.096c-0.671,0.399-1.313,0.851-2.108,0.991c-1.92,0.341-3.832,0.785-5.766,1.005
				c-0.45,0.05-0.896,0.093-1.343,0.125l-97.206,61.024c-2.938,3.479-5.872,6.963-8.813,10.437
				C473.875,408.301,473.631,408.846,473.764,409.514z"/>
			<path fill="#39B54A" d="M747.494,404.021c0.278,1.342,0.692,2.421,2.079,3.366c1.562,1.069,1.952,3.319,2.288,5.233
				c0.619,3.531,1.288,7.07,1.211,10.686c-0.033,1.402,0.349,2.585,1.494,3.502c0.999,0.799,1.521,1.927,2.004,3.104
				c1.57,3.839,2.61,7.856,3.954,11.769c0.889,2.585,0.604,5.257,0.399,7.892c-0.363,4.678-0.476,9.344,0.081,14.01
				c0.072,0.584-0.213,1.323,0.662,1.54c0.866,0.214,1.438-0.306,1.608-1.01c1.263-5.285,4.951-9.176,7.872-13.458
				c3.021-4.438,5.052-9.294,7.252-14.114c3.829-8.4,5.438-17.417,7.421-26.32c0.758-3.407,0.863-6.959,1.259-10.444
				c0.24-2.091,0.293-4.222,0.731-6.266c0.016-0.074,0.02-0.146,0.035-0.22l-43.214,2.44
				C745.862,398.375,746.888,401.107,747.494,404.021z"/>
			<path fill="#39B54A" d="M250.016,387.946c-0.145-0.588-0.142-1.275,0.007-1.859c0.646-2.549,0.073-4.957-0.683-7.366
				c-0.254-0.814-0.429-1.658-0.596-2.497c-0.23-1.15-0.386-2.305-1.313-3.184c-0.552-0.522-0.544-1.145-0.368-1.923
				c0.647-2.871,0.74-5.737-1.034-8.312c-0.816-1.187-1.052-2.376-0.574-3.753c0.249-0.727,0.498-1.525-0.043-2.252
				c-0.932-1.247-1.776-2.615-3.571-2.755c-1.231-0.095-1.902-0.804-2.366-1.935c-1.152-2.823-2.373-5.617-4.133-8.132
				c-0.429-0.612-0.593-1.28-0.508-1.996c0.329-2.801-0.166-5.602,0.01-8.41c0.063-1.008,0.405-2.098-0.035-3.381
				c-0.903,0.847-0.938,1.845-1.402,2.608c-0.426,0.699-0.894,0.737-1.562,0.574c-0.619-0.152-0.944-0.467-0.891-1.145
				c0.12-1.48-0.479-3.151,1.515-4.019c0.866-0.377,0.847-1.479,0.664-2.307c-0.163-0.737-1.14-0.946-1.532-0.68
				c-1.383,0.938-2.24,0.168-3.298-0.581c-1.363-0.963-2.601-0.505-2.996,1.071c-0.55,2.2-2.177,3.393-3.718,4.728
				c-0.629-0.625-0.491-1.207-0.529-1.736c-0.228-3.113-0.45-6.236-1.093-9.294c-0.982-4.664,0.436-8.952,1.945-13.222
				c1.249-3.526,2.755-6.954,4.03-10.475c0.953-2.63,1.759-5.344,3.125-7.803c2.096-3.78,3.162-7.779,2.916-12.116
				c-0.121-2.134,0.148-4.214,1.269-6.102c3.189-5.368,5.83-11.047,9.308-16.25c0.91-1.363,1.802-2.739,2.634-4.151
				c0.725-1.228,1.254-2.552,0.728-4.001c-0.289-0.799,0.086-1.335,0.462-1.94c1.11-1.792,2.175-3.613,3.294-5.399
				c6.553-10.44,12.486-21.305,20.911-30.462c0.052-0.055,0.09-0.128,0.147-0.18c0.491-0.46,0.721-1.212,1.546-1.391
				c-0.173,1.774-1.553,3.205-1.304,5.282c0.91-1.019,1.674-1.871,2.515-2.812c0.687,1.878,0.586,3.481-0.59,4.967
				c-1.074,1.359-1.614,2.826-0.835,4.542c0.389,0.854-0.129,1.465-0.588,2.114c-3.103,4.406-6.146,8.851-9.294,13.223
				c-2.075,2.884-3.831,5.89-4.479,9.43c-0.151,0.818-0.55,1.655,0.104,2.734c1.468-1.557,3.475-2.66,4.094-4.671
				c0.744-2.416,2.208-4.288,3.611-6.242c0.775-1.081,1.569-2.145,2.165-3.334c1.612-3.217,3.641-6.184,5.493-9.256
				c2.387-3.96,5.5-7.2,9.687-9.259c2.28-1.123,4.85-1.408,7.181-2.532c2.143-1.034,4.661-0.898,7.063-0.918
				c0.849-0.009,1.742-0.14,2.336-0.887c1.736-2.186,3.872-4.061,4.851-6.828c0.616-1.738,1.717-3.103,3.886-3.182
				c1.972-0.073,3.582-1.007,4.716-2.646c0.813-1.174,1.854-1.844,3.328-1.768c1.029,0.055,1.816-0.567,2.463-1.207
				c1.425-1.408,3.05-2.062,5.053-1.91c1.19,0.09,2.321-0.1,2.653-1.631c0.491,0.331,0.806,0.559,1.135,0.763
				c1.119,0.692,2.037,1.688,3.398,2.013c1.944,0.47,2.06,0.455,2.648-1.432c0.304-0.972,0.482-2.073,1.308-2.705
				c2.312-1.768,4.856-3.473,7.734-3.665c3.618-0.241,7.336-0.514,10.93,0.476c2.231,0.612,4.413,1.017,6.596-0.139
				c0.159-0.086,0.436,0.048,0.74,0.092c-0.045,0.42-0.055,0.804-0.135,1.174c-0.538,2.515-1.799,3.002-3.902,1.432
				c-0.982-0.733-1.987-0.848-3.083-0.481c-0.887,0.299-1.728,0.768-2.63,0.989c-1.401,0.342-2.002,1.1-1.678,2.525
				c0.118,0.501-0.266,1.095,0.35,1.588c1.293-0.073,2.49-0.668,3.717-1.138c1.539-0.59,2.993-0.747,4.368,0.425
				c0.669,0.574,1.521,1.062,2.361,0.561c1.363-0.813,2.689-0.569,4.069-0.211c0.446,0.114,1.083,0.28,1.24-0.256
				c0.448-1.508,1.467-0.962,2.453-0.872c1.529,0.135,3.189,0.486,3.808-1.653c0.105-0.359,0.697-0.584,1.065-0.865
				c0.308-0.237,0.664-0.429,0.92-0.71c0.335-0.372,0.395-0.863,0.187-1.314c-0.259-0.569-0.768-0.444-1.207-0.278
				c-1.096,0.408-2.279,0.695-3.246,1.316c-1.817,1.166-3.326,1.012-4.733-0.588c-0.102-0.116-0.231-0.211-0.363-0.296
				c-0.814-0.534-1.079-1.221-0.832-2.205c0.655-2.603,1.247-5.145,4.315-6.112c1.245-0.391,1.311-1.027,0.783-2.433
				c-0.105-0.28-0.358-0.526-0.116-0.97c0.476,0.081,1.008,0.119,1.508,0.268c1.242,0.363,2.338-0.118,3.376-0.629
				c1.304-0.642,1.384-2.629,0.086-3.134c-1.707-0.667-3.284-1.861-5.309-1.55c-0.445,0.069-1.078,0.125-1.54-0.699
				c1.439-0.457,2.577-1.802,4.099-1.397c1.814,0.482,3.372,0.161,4.946-0.623c1.076-0.536,2.034-0.441,3.07,0.249
				c1.43,0.953,2.862,1.894,4.215,2.954c3.898,3.058,8.194,4.759,13.25,3.874c0.612-0.107,1.242-0.161,1.863-0.173
				c1.062-0.021,2.091,0.114,3.267,0.872c-3.442,1.702-6.662,3.058-9.955,4.24c-1.199,0.431-2.293,0.965-3.172,1.915
				c-1.524,1.652-3.345,2.785-5.602,3.172c-0.609,0.104-1.209,0.341-1.773,0.6c-0.761,0.353-1.003,1.311-0.335,1.64
				c2.189,1.072,3.625,3.23,5.98,4.029c0.872,0.296,1.729,0.644,2.058,1.698c-0.938,0.149-1.79,0.215-2.646,0.094
				c-0.629-0.088-1.065,0.119-1.238,0.768c-0.204,0.771,0.38,0.863,0.876,1.104c1.417,0.685,2.759-0.055,4.132-0.146
				c0.244-0.204,0.628-0.164,0.737,0.145c0.142,0.394-0.332,0.572-0.565,0.572c0.001,0,0.001,0,0.001,0
				c-0.19,0-0.363,0.319-0.574,0.548c-0.346,0.375-0.65,0.902-0.071,1.016c0.854,0.17,0.555,1.688,1.631,1.221
				c2.311-1.003,5.035-1.479,6.11-4.232c-0.174-0.709-1.233-0.427-1.288-1.219c0.252-0.488,0.808-0.42,1.179-0.676
				c0.803-0.55,1.927-0.866,1.09-2.286c-0.342-0.579,0.316-1.087,0.809-1.194c1.211-0.26,1.081-1.063,1.042-1.952
				c-0.066-1.401-1.396-1.3-2.138-1.885c-0.484-0.375-1.169-0.556-0.986-1.381c0.159-0.733,0.076-1.506,1.003-1.944
				c2.751-1.295,4.929-3.499,7.57-4.78c0.054-0.989-1.036-1.112-1.038-1.958c0.897-0.692,1.909-0.844,3.028-0.555
				c0.7,0.18,1.487,0.299,1.857-0.501c0.681-1.461,1.896-2.215,3.3-2.798c0.77-0.318,1.003-0.863,0.74-1.696
				c-0.325-1.04-0.765-2.058-0.756-3.179c0.016-2.032,0.38-2.332,2.466-2.062c0.12,0.014,0.254-0.102,0.417-0.171
				c0.121-0.98-0.516-1.759-0.765-2.644c-0.164-0.599-0.394-1.152-0.37-1.813c0.09-2.473,0.722-4.742,2.089-6.84
				c0.467-0.718,0.906-1.06,1.681-0.756c1.207,0.474,1.885-0.239,2.591-1.021c2.563-2.839,5.153-5.657,7.704-8.509
				c0.573-0.64,1.406-1.124,1.729-2.29c-2.239,0.462-4.375,0.322-6.141,1.328c-2.208,1.257-4.268,1.097-6.637,0.059
				c1.216-1.114,1.983-2.462,2.874-3.723c0.693-0.981,1.563-1.691,2.739-2.077c1.557-0.514,3.072-1.152,4.607-1.721
				c0.848-0.313,1.356-0.766,0.893-1.749c-0.346-0.73-0.182-1.318,0.461-1.851c0.412-0.339,0.766-0.789,1.036-1.254
				c0.816-1.399,0.731-2.641-0.18-3.688c-1.076-1.242-2.431-1.643-3.888-1.121c-1.911,0.685-3.813,1.394-5.724,2.081
				c-0.893,0.32-1.761,0.676-2.37,1.444c-1.087,1.363-2.549,1.833-4.223,2.175c-2.969,0.605-6.336,0.436-8.288,3.511
				c-0.076,0.121-0.256,0.173-0.387,0.256c-1.851,1.172-3.69,2.352-5.551,3.507c-0.458,0.287-0.951,0.633-1.461,0.7
				c-3.339,0.431-6.508,1.622-9.846,2.087c-3.115,0.431-6.025,1.515-8.644,3.381c-2.096,1.496-4.331,2.798-6.532,4.144
				c-0.728,0.444-1.538,0.754-2.312,1.122c-0.595,0.282-1.183,0.458-1.687-0.169c-0.544-0.681,0.094-1.141,0.313-1.685
				c0.28-0.697,0.882-1.065,1.442-1.492c1.363-1.041,2.788-2.022,3.917-3.331c0.627-0.73,1.371-1.243,2.226-1.664
				c2.523-1.24,5.043-2.489,7.533-3.796c1.093-0.574,2.245-1.169,1.937-2.805c-0.105-0.554,0.401-0.986,0.716-1.431
				c1-1.418,2.241-2.596,3.582-3.684c1.41-1.14,2.874-2.456,3.395-4.097c0.505-1.595,1.411-2.072,2.73-2.423
				c2.051-0.544,3.979-1.336,5.636-2.718c0.851-0.713,1.864-1.088,2.966-1.306c4.903-0.972,9.804-1.932,14.685-3.009
				c2.971-0.657,6.036-0.484,9.003-1.225c1.728-0.431,3.394,0.242,5.396,1.1c-2.3,0.764-4.165,1.385-6.07,2.018
				c0.642,0.859,1.525,1.083,2.305,1.357c1.033,0.363,2.151,0.258,2.925,1.411c0.359,0.536,1.487,0.588,1.745-0.593
				c0.156-0.711,0.46-1.264,1.102-1.706c3.341-2.295,6.701-4.38,10.951-2.277c0.204,0.1,0.457,0.145,0.685,0.148
				c1.55,0.021,3.276,0.369,4.545-0.591c1.868-1.413,4.03-1.57,6.14-2.044c1.142-0.256,2.295-0.452,3.438-0.709
				c0.899-0.204,1.719-0.57,2.314-1.318c-0.671-1.013-1.375-1.584-2.587-1.413c-0.671,0.095-1.387-0.113-2.083-0.185
				c-0.239,0.208-0.895,0.316-0.949,0.031c-0.074-0.391,0.355-0.184,0.355-0.227v-0.002c2-0.91,3.223-1.695,4.798-2.3
				c0.526-0.201,1.178-0.38,1.721-0.54c1.297-0.38,2.708-0.633,4.12-0.729c2.834-0.194,5.673-0.768,8.759-1.214
				c-0.553,1.24-1.403,1.422-2.216,1.439c-2.784,0.059-5.26,1.299-7.893,1.935c-1.823,0.441-2.366,1.458-2.035,3.571
				c0.237,1.506,1.457,1.048,2.411,1.117c0.204,0.014,0.395,0.184,0.579,0.277c-0.003,1.444-1.065,2.12-1.999,2.757
				c-1.563,1.065-3.054,2.155-4.009,3.843c-0.494,0.868-1.293,1.034-2.23,0.837c-1.307-0.273-2.651-0.348-3.957-0.131
				c-2.155,0.353-4.296,0.782-6.499,0.678c-0.584-0.027-1.114,0.128-1.447,0.611c-0.754,1.087-1.551,1.131-2.416,0.164
				c-1.144-1.283-2.483-1.372-4.037-0.837c-1.104,0.377-2.279,0.54-3.409,0.853c-0.463,0.13-1.145,0.016-1.247,0.813
				c0.187,0.136,0.356,0.289,0.552,0.399c2.119,1.172,2.124,1.172,0.676,2.964c-0.489,0.61-0.989,1.214-1.494,1.809
				c-1.809,2.133-1.716,4.621-1.648,7.056c3.641,0.446,4.72-2.608,6.688-4.348c1.191,2.06-0.252,3.566-0.944,5.117
				c1.107,0.63,1.875,0.27,2.497-0.396c1.014-1.091,2.321-1.574,3.707-1.857c1.977-0.401,3.307-1.636,4.422-3.203
				c0.543-0.761,1.193-1.46,1.66-2.262c0.73-1.252,1.761-1.946,3.184-2.089c0.738-0.076,1.813-0.814,2.136-0.119
				c0.526,1.127-0.889,1.261-1.534,1.583c-1.945,0.975-2.935,2.413-2.836,4.61c0.223,0.05,0.372,0.125,0.517,0.113
				c3.697-0.282,7.111-1.676,10.629-2.672c0.837-0.237,0.969-0.929,1.131-1.619c0.235-0.986,0.394-1.998,1.076-2.817
				c0.674-0.812,0.934-1.725,0.94-2.809c0.011-1.33,0.749-1.956,2.086-1.974c0.616-0.008,1.245,0.121,1.847,0.277
				c1.091,0.28,1.881-0.076,2.764-0.773c2.449-1.928,4.335-4.287,5.655-7.062c0.623-1.311,1.442-2.041,2.587-2.276l-7.834-12.652
				c-2.089,0.211-4.171,0.493-6.24,0.93c-1.906,0.405-3.843,0.687-5.776,0.912c-7.291,0.853-14.563,1.864-21.735,3.412
				c-20.089,4.337-39.979,9.229-58.788,17.924c-16.701,7.724-32.986,16.122-48.246,26.429
				c-29.103,19.657-53.938,43.716-74.376,72.28c-12.171,17.005-22.361,35.146-30.621,54.349c-2.096,4.87-4.125,9.785-5.729,14.852
				c-1.712,4.697-2.572,9.629-3.966,14.417c-1.435,4.933-2.729,9.946-3.248,15.098c-0.042,0.389-0.094,0.782-0.204,1.155
				c-1.043,3.512-1.012,7.063-0.54,10.664c0.214,1.639,0.374,3.275,1.131,4.747c0.917,1.783,0.602,3.464-0.148,5.169
				c-0.533,1.214-1.038,2.438-1.544,3.663c-0.842,2.034-1.323,4.133-1.197,6.354c0.176,3.125-1.022,5.963-2.01,8.812
				c-0.737,2.125-1.621,4.229-2.904,6.115c-0.868,1.282-1.053,2.785-1.183,4.25c-0.51,5.742-0.972,11.49-1.359,17.242
				c-0.083,1.183-0.339,2.311-0.516,3.466c-0.048,0.542-0.145,1.083-0.138,1.622c0.088,9.692,0.712,19.349,1.743,28.98
				l45.418-19.817C251.961,395.298,250.922,391.642,250.016,387.946z"/>
			<path fill="#2E3192" d="M608.807,539.308c-1.263-0.547-2.353-1.225-3.108-2.618c-0.57-1.047-2.206-1.005-3.443-0.933
				c-2.726,0.161-5.443,0.441-8.164,0.652c-1.321,0.104-2.656,0.299-3.966,0.204c-2.293-0.17-3.405-1.682-3.134-3.973
				c0.433-3.679-1.181-6.037-4.507-7.526c-2.594-1.161-5.306-1.227-7.99-1.593c-2.701-0.37-5.434-0.312-8.162-0.076
				c-1.893,0.162-3.724,0.446-5.379,1.422c-0.931,0.55-1.952,0.611-2.95,0.494c-1.765-0.207-3.414,0.063-5.026,0.768
				c-3.574,1.568-7.462,1.581-11.224,2.203c-0.864,0.145-1.739-0.124-2.45-0.633c-1.638-1.172-3.523-1.643-5.433-2.078
				c-2.665-0.612-5.337-1.207-7.995-1.857c-1.956-0.476-3.891-0.056-5.823,0.072c-4.047,0.273-8.087,0.569-12.15,0.507
				c-1.285-0.02-2.425-0.282-3.542-0.974c-1.927-1.197-3.75-2.535-5.621-3.809c-1.706-1.162-3.173-2.445-4.009-4.427
				c-0.912-2.16-2.854-3.49-4.569-4.946c-2.49-2.114-5.292-3.865-7.101-6.724c-0.434-0.682-1.29-1.11-1.985-1.608
				c-1.096-0.778-1.989-1.745-2.812-2.795c-0.346-0.442-0.747-0.729,0.026-1.235c0.438-0.287-0.093-0.846-0.199-1.28
				c-0.417-1.729-1.169-3.426-0.571-5.266c-1.148-3.685-1.817-7.58-4.414-10.648c-1.108-1.309-2.359-2.5-3.573-3.715
				c-0.673-0.671-1.14-1.48-1.695-2.234c-0.75-1.022-1.069-2.085-0.578-3.288c0.65-1.603,0.021-2.651-1.353-3.475
				c-2.257-1.352-3.504-3.396-4.303-5.887c-0.637-1.985-0.187-3.571,1.134-4.925c1.007-1.031,0.976-1.911,0.405-3.132
				c-1.022-2.188-1.862-4.458-2.784-6.71c3.474-1.195,5.8-3.628,7.564-6.56c2.698-4.486,4.829-9.263,6.658-14.167
				c0.791-2.115,1.792-4.199,2.229-6.39c0.468-2.373,1.271-4.893-0.344-7.245c-0.296-0.432-0.436-1.003-0.533-1.532
				c-0.374-2.017-0.356-2.018-2.17-1.857c-0.133-0.667,0.11-1.212,0.533-1.71c2.941-3.474,5.875-6.958,8.813-10.437l-17.171,10.781
				l58.847-155.285l13.23-58.069l-28.906-46.688c-2.236,0.278-4.429,0.331-6.648-0.268c-2.17-0.581-4.349-1.131-6.672-0.646
				c-0.733,0.154-1.344,0.212-1.752,0.872c-0.083,0.135-0.171,0.263-0.259,0.393c-1.729,2.582-4.175,3.867-7.257,4.014
				c-0.778,0.038-1.553,0.197-2.33,0.197c-1.485,0.002-2.696,0.533-3.82,1.505c-1.121,0.968-2.4,1.726-3.812,2.258
				c-1.685,0.637-3.269,1.425-4.566,2.769c-0.917,0.951-4.287,0.538-5.108-0.5c-0.408-0.517-0.538-1.114-0.382-1.768
				c0.144-0.608,0.223-1.238,0.42-1.828c0.399-1.19,0.097-1.735-1.188-2.185c-2.134-0.75-2.326-1.491-1.883-3.767
				c0.291-1.498,0.91-2.79,1.793-4.016c2.288-3.172,4.458-6.439,8.128-8.246c0.341-0.166,0.842-0.505,0.609-0.856
				c-0.974-1.467,0.41-1.717,1.125-2.205c1.159-0.785,2.338-1.584,3.786-1.774c0.489-0.065,0.892-0.289,1.185-0.685
				c1.738-2.335,4.342-2.501,6.772-2.159c2.29,0.324,4.32-0.08,6.748-0.799c-1.553-0.887-3.188-0.674-4.482-1.404
				c0.923-2.278,1.781-2.8,4.033-2.279c0.395,0.09,0.789,0.121,1.185,0.159l-10.444-16.869c-1.145,0.235-1.965,0.965-2.587,2.276
				c-1.319,2.774-3.206,5.133-5.655,7.062c-0.882,0.697-1.673,1.053-2.764,0.773c-0.602-0.156-1.231-0.285-1.847-0.277
				c-1.337,0.018-2.075,0.644-2.086,1.974c-0.007,1.084-0.266,1.997-0.94,2.809c-0.682,0.819-0.841,1.831-1.076,2.817
				c-0.163,0.69-0.294,1.382-1.131,1.619c-3.518,0.997-6.932,2.39-10.629,2.672c-0.146,0.012-0.294-0.063-0.517-0.113
				c-0.099-2.198,0.891-3.635,2.836-4.61c0.646-0.322,2.06-0.455,1.534-1.583c-0.323-0.695-1.397,0.043-2.136,0.119
				c-1.423,0.144-2.454,0.837-3.184,2.089c-0.467,0.802-1.117,1.501-1.66,2.262c-1.115,1.567-2.445,2.802-4.422,3.203
				c-1.385,0.284-2.693,0.766-3.707,1.857c-0.623,0.666-1.39,1.026-2.497,0.396c0.692-1.551,2.136-3.058,0.944-5.117
				c-1.968,1.74-3.047,4.794-6.688,4.348c-0.067-2.435-0.161-4.923,1.648-7.056c0.505-0.595,1.005-1.198,1.494-1.809
				c1.448-1.792,1.442-1.792-0.676-2.964c-0.195-0.111-0.365-0.263-0.552-0.399c0.102-0.797,0.784-0.683,1.247-0.813
				c1.129-0.313,2.305-0.476,3.409-0.853c1.553-0.535,2.893-0.446,4.037,0.837c0.865,0.967,1.662,0.923,2.416-0.164
				c0.333-0.483,0.863-0.638,1.447-0.611c2.203,0.104,4.344-0.325,6.499-0.678c1.306-0.216,2.65-0.142,3.957,0.131
				c0.938,0.197,1.736,0.031,2.231-0.837c0.955-1.688,2.446-2.777,4.009-3.843c0.934-0.637,1.996-1.313,2-2.757
				c-0.184-0.093-0.374-0.263-0.578-0.277c-0.955-0.069-2.172,0.389-2.409-1.117c-0.331-2.113,0.216-3.13,2.039-3.571
				c2.632-0.636,5.116-1.876,7.9-1.935c0.813-0.017,1.678-0.199,2.231-1.439c-3.085,0.446-5.894,1.021-8.729,1.214
				c-1.413,0.097-2.762,0.349-4.059,0.729c-0.543,0.159-1.074,0.339-1.6,0.54c-1.575,0.605-3.083,1.391-4.555,2.302l0.107,0.195
				c0.697,0.072,1.413,0.28,2.083,0.185c1.212-0.171,1.917,0.399,2.587,1.413c-0.595,0.748-1.415,1.114-2.314,1.318
				c-1.143,0.258-2.296,0.453-3.438,0.709c-2.11,0.474-4.272,0.631-6.14,2.044c-1.269,0.96-2.995,0.612-4.545,0.591
				c-0.228-0.003-0.48-0.048-0.685-0.148c-4.25-2.103-7.61-0.018-10.951,2.277c-0.642,0.441-0.946,0.995-1.102,1.706
				c-0.257,1.181-1.385,1.129-1.745,0.593c-0.773-1.153-1.892-1.048-2.925-1.411c-0.78-0.275-1.664-0.498-2.305-1.357
				c1.906-0.633,3.77-1.254,6.07-2.018c-2.002-0.858-3.668-1.531-5.396-1.1c-2.968,0.74-6.032,0.567-9.003,1.225
				c-4.88,1.077-9.781,2.037-14.685,3.009c-1.102,0.218-2.115,0.593-2.966,1.306c-1.657,1.382-3.585,2.174-5.636,2.718
				c-1.319,0.351-2.226,0.829-2.73,2.423c-0.521,1.641-1.985,2.957-3.395,4.097c-1.34,1.088-2.582,2.266-3.582,3.684
				c-0.315,0.445-0.822,0.877-0.716,1.431c0.308,1.636-0.844,2.231-1.937,2.805c-2.49,1.307-5.01,2.556-7.533,3.796
				c-0.854,0.42-1.598,0.934-2.226,1.664c-1.129,1.309-2.555,2.29-3.917,3.331c-0.56,0.427-1.162,0.795-1.442,1.492
				c-0.219,0.543-0.857,1.003-0.313,1.685c0.503,0.628,1.091,0.452,1.687,0.169c0.774-0.368,1.584-0.678,2.312-1.122
				c2.202-1.346,4.436-2.648,6.532-4.144c2.618-1.866,5.529-2.95,8.644-3.381c3.338-0.465,6.506-1.657,9.846-2.087
				c0.51-0.067,1.003-0.414,1.461-0.7c1.861-1.155,3.701-2.335,5.551-3.507c0.131-0.083,0.312-0.135,0.387-0.256
				c1.951-3.075,5.318-2.905,8.288-3.511c1.674-0.342,3.136-0.813,4.223-2.175c0.609-0.768,1.477-1.125,2.37-1.444
				c1.911-0.687,3.813-1.396,5.724-2.081c1.457-0.522,2.812-0.121,3.888,1.121c0.912,1.048,0.997,2.29,0.18,3.688
				c-0.27,0.465-0.625,0.915-1.036,1.254c-0.643,0.533-0.808,1.121-0.461,1.851c0.463,0.982-0.045,1.436-0.893,1.749
				c-1.536,0.569-3.051,1.207-4.607,1.721c-1.176,0.386-2.046,1.096-2.739,2.077c-0.891,1.261-1.658,2.609-2.874,3.723
				c2.369,1.038,4.429,1.199,6.637-0.059c1.766-1.006,3.902-0.866,6.141-1.328c-0.323,1.166-1.157,1.65-1.729,2.29
				c-2.551,2.852-5.142,5.669-7.704,8.509c-0.706,0.782-1.384,1.494-2.591,1.021c-0.775-0.304-1.214,0.038-1.681,0.756
				c-1.368,2.098-1.999,4.367-2.089,6.84c-0.024,0.661,0.206,1.214,0.37,1.813c0.249,0.885,0.886,1.664,0.765,2.644
				c-0.163,0.069-0.297,0.185-0.417,0.171c-2.085-0.27-2.45,0.029-2.466,2.062c-0.009,1.121,0.431,2.139,0.756,3.179
				c0.263,0.833,0.029,1.378-0.74,1.696c-1.404,0.583-2.619,1.337-3.3,2.798c-0.37,0.801-1.157,0.682-1.857,0.501
				c-1.119-0.289-2.131-0.137-3.028,0.555c0.001,0.846,1.091,0.969,1.038,1.958c-2.641,1.281-4.818,3.484-7.57,4.78
				c-0.927,0.438-0.844,1.211-1.003,1.944c-0.184,0.825,0.501,1.005,0.986,1.38c0.742,0.584,2.072,0.484,2.138,1.885
				c0.04,0.889,0.169,1.691-1.042,1.951c-0.493,0.107-1.151,0.614-0.809,1.193c0.837,1.42-0.287,1.733-1.09,2.283
				c-0.372,0.256-0.927,0.183-1.179,0.671c0.055,0.792,1.114,0.498,1.288,1.207c-1.075,2.753-3.799,3.207-6.11,4.209
				c-1.076,0.467-0.776-1.096-1.631-1.266c-0.579-0.114-0.275-0.731,0.071-1.106c0.211-0.229,0.384-0.484,0.573-0.73
				c-0.054-0.118-0.113-0.235-0.171-0.353c-1.373,0.09-2.715,0.831-4.132,0.146c-0.496-0.24-1.081-0.332-0.876-1.104
				c0.173-0.648,0.609-0.856,1.238-0.768c0.856,0.121,1.708,0.055,2.646-0.094c-0.329-1.055-1.187-1.402-2.058-1.698
				c-2.355-0.799-3.791-2.957-5.98-4.029c-0.667-0.329-0.425-1.287,0.335-1.64c0.564-0.259,1.164-0.496,1.773-0.6
				c2.257-0.387,4.078-1.52,5.602-3.172c0.878-0.949,1.973-1.484,3.172-1.915c3.292-1.183,6.513-2.539,9.955-4.24
				c-1.176-0.758-2.205-0.893-3.267-0.872c-0.621,0.012-1.25,0.065-1.863,0.173c-5.057,0.885-9.353-0.816-13.25-3.874
				c-1.353-1.06-2.785-2.001-4.215-2.954c-1.036-0.69-1.994-0.785-3.07-0.249c-1.574,0.783-3.132,1.105-4.946,0.623
				c-1.522-0.405-2.66,0.94-4.099,1.397c0.462,0.823,1.095,0.768,1.54,0.699c2.025-0.311,3.602,0.882,5.309,1.55
				c1.297,0.505,1.218,2.492-0.086,3.134c-1.038,0.512-2.134,0.993-3.376,0.629c-0.5-0.149-1.032-0.187-1.508-0.268
				c-0.242,0.444,0.01,0.69,0.116,0.97c0.527,1.406,0.462,2.042-0.783,2.433c-3.068,0.967-3.66,3.509-4.315,6.112
				c-0.248,0.984,0.017,1.671,0.832,2.205c0.132,0.085,0.261,0.18,0.363,0.296c1.408,1.6,2.916,1.753,4.733,0.588
				c0.967-0.621,2.15-0.908,3.246-1.316c0.439-0.166,0.948-0.291,1.207,0.278c0.208,0.451,0.149,0.942-0.187,1.314
				c-0.256,0.282-0.612,0.474-0.92,0.71c-0.369,0.28-0.96,0.505-1.065,0.865c-0.619,2.14-2.279,1.789-3.808,1.653
				c-0.986-0.09-2.004-0.636-2.453,0.872c-0.157,0.536-0.793,0.37-1.24,0.256c-1.38-0.358-2.707-0.602-4.069,0.211
				c-0.84,0.501-1.691,0.014-2.361-0.561c-1.375-1.172-2.829-1.015-4.368-0.425c-1.227,0.47-2.423,1.065-3.717,1.138
				c-0.616-0.493-0.232-1.086-0.35-1.588c-0.325-1.425,0.277-2.183,1.678-2.525c0.903-0.221,1.743-0.69,2.63-0.989
				c1.097-0.367,2.102-0.252,3.083,0.481c2.103,1.57,3.364,1.083,3.902-1.432c0.08-0.37,0.09-0.754,0.135-1.174
				c-0.304-0.043-0.581-0.178-0.74-0.092c-2.183,1.155-4.365,0.75-6.596,0.139c-3.594-0.989-7.312-0.716-10.93-0.476
				c-2.878,0.192-5.422,1.897-7.734,3.665c-0.825,0.631-1.003,1.733-1.308,2.705c-0.588,1.887-0.704,1.902-2.648,1.432
				c-1.361-0.325-2.279-1.321-3.398-2.013c-0.329-0.204-0.644-0.432-1.135-0.763c-0.332,1.531-1.463,1.721-2.653,1.631
				c-2.003-0.152-3.628,0.501-5.053,1.91c-0.647,0.64-1.434,1.262-2.463,1.207c-1.474-0.076-2.515,0.593-3.328,1.768
				c-1.134,1.639-2.744,2.573-4.716,2.646c-2.169,0.08-3.271,1.444-3.886,3.182c-0.979,2.767-3.115,4.642-4.851,6.828
				c-0.595,0.747-1.487,0.878-2.336,0.887c-2.402,0.021-4.92-0.116-7.063,0.918c-2.331,1.124-4.901,1.409-7.181,2.532
				c-4.187,2.06-7.3,5.299-9.687,9.259c-1.852,3.072-3.881,6.039-5.493,9.256c-0.596,1.19-1.39,2.253-2.165,3.334
				c-1.403,1.954-2.867,3.826-3.611,6.242c-0.619,2.011-2.625,3.114-4.094,4.671c-0.654-1.079-0.254-1.916-0.104-2.734
				c0.648-3.54,2.404-6.546,4.479-9.43c3.147-4.372,6.191-8.817,9.294-13.223c0.458-0.649,0.977-1.259,0.588-2.114
				c-0.778-1.715-0.239-3.182,0.835-4.542c1.176-1.485,1.276-3.088,0.59-4.967c-0.841,0.941-1.605,1.793-2.515,2.812
				c-0.249-2.077,1.131-3.507,1.304-5.282c-0.825,0.178-1.055,0.931-1.546,1.391c-0.057,0.052-0.095,0.125-0.147,0.18
				c-8.424,9.158-14.358,20.022-20.911,30.462c-1.119,1.787-2.184,3.607-3.294,5.399c-0.375,0.605-0.75,1.141-0.462,1.94
				c0.526,1.449-0.003,2.774-0.728,4.001c-0.832,1.412-1.724,2.788-2.634,4.151c-3.478,5.202-6.119,10.881-9.308,16.25
				c-1.121,1.887-1.39,3.967-1.269,6.102c0.246,4.337-0.82,8.336-2.916,12.116c-1.366,2.459-2.172,5.173-3.125,7.803
				c-1.274,3.521-2.781,6.949-4.03,10.475c-1.51,4.27-2.928,8.558-1.945,13.222c0.643,3.058,0.865,6.181,1.093,9.294
				c0.038,0.529-0.1,1.112,0.529,1.736c1.541-1.335,3.168-2.528,3.718-4.728c0.395-1.576,1.633-2.034,2.996-1.071
				c1.058,0.749,1.915,1.519,3.298,0.581c0.393-0.266,1.37-0.057,1.532,0.68c0.183,0.829,0.202,1.93-0.664,2.307
				c-1.994,0.868-1.396,2.539-1.515,4.019c-0.054,0.678,0.271,0.993,0.891,1.145c0.668,0.163,1.136,0.125,1.562-0.574
				c0.465-0.763,0.5-1.761,1.402-2.608c0.439,1.283,0.097,2.373,0.035,3.381c-0.176,2.809,0.318,5.609-0.01,8.41
				c-0.085,0.716,0.08,1.384,0.508,1.996c1.761,2.515,2.981,5.309,4.133,8.132c0.463,1.131,1.134,1.84,2.366,1.935
				c1.795,0.14,2.639,1.508,3.571,2.755c0.542,0.727,0.292,1.525,0.043,2.252c-0.478,1.376-0.242,2.566,0.574,3.753
				c1.774,2.575,1.681,5.44,1.034,8.312c-0.176,0.778-0.184,1.401,0.368,1.923c0.927,0.879,1.083,2.034,1.313,3.184
				c0.167,0.839,0.342,1.683,0.596,2.497c0.756,2.409,1.329,4.816,0.683,7.366c-0.148,0.584-0.152,1.271-0.007,1.859
				c0.906,3.696,1.946,7.352,4.265,10.444l24.714-10.785l69.952-24.536l46.93,27.01l-33.648,57.028l-16.523,61.983l-15.546,12.151
				c0.294,2.355,0.642,4.711,0.676,7.069c0.028,2.003-0.54,4.016-1.418,5.877c-0.101,0.211-0.18,0.478-0.353,0.602
				c-2.84,2.055-5.333,4.77-9.156,5.009c-1.141,0.072-1.944,0.657-2.449,1.551c-0.986,1.742-2.838,2.112-4.389,2.936
				c-1.126,0.595-1.505-0.841-2.611-1.222c-0.771,2.477-1.325,5.054-0.875,7.485c0.697,3.798-0.304,7.271-1.093,10.833
				c-0.154,0.691-0.405,1.332-0.735,1.965c-0.32,0.614-0.727,1.353-0.644,1.975c0.334,2.46-1.169,3.699-2.917,4.839
				c-0.534,0.346-1.074,0.744-1.238,1.363c-0.294,1.113-0.934,1.217-1.94,0.996c-1.764-0.388-3.419-0.836-4.874-2.075
				c-1.477-1.263-3.255-2.09-5.166-2.653c-0.31-0.092-0.614-0.2-0.918-0.312l-7.651,14.282
				c19.442,21.504,41.562,39.806,66.521,54.705c21.576,12.881,44.433,22.79,68.596,29.713c16.647,4.771,33.568,8.147,50.788,9.953
				c16.026,1.687,32.095,2.034,48.183,1.023c8.603-0.539,17.146-1.463,25.629-2.753l-40.199-6.813l-12-42.591l78.619-55.696
				l31.4-7.566c1.387-1.797,2.58-3.744,3.96-5.548c0.144-0.186,0.343-0.363,0.397-0.576c1.162-4.541,3.926-8.484,4.886-13.102
				c0.112-0.536,0.254-1.067,0.417-1.588C609.854,540.117,609.646,539.667,608.807,539.308z M245.007,273.52
				c0.979-0.489,0.979-1.309,1.171-2.284c0.616-3.141,0.896-6.332,1.489-9.471c0.332-1.76,0.858-3.481,0.768-5.313
				c-0.035-0.761,0.09-1.567,0.561-2.243c0.088-0.126,0.188-0.248,0.273-0.379c0.446-0.699,0.112-1.37-0.11-2.018
				c-0.165-0.472-0.222-0.451-1.859-0.261c-0.123-0.927,0.382-1.366,0.804-1.798c0.463-0.474,0.825-1.363,1.631-1.086
				c0.801,0.277,1.474,0.899,1.669,1.826c0.259,1.225,0.401,2.439,0.188,3.711c-1.164,6.991-2.468,13.963-2.554,21.085
				c-0.018,1.19-0.356,2.314-0.652,3.441c-0.308,1.171-0.61,1.191-1.565,0.353c-1.297-1.14-1.723-2.751-2.392-4.235
				C244.136,274.2,244.475,273.787,245.007,273.52z M250.687,303.434c0.287-1.591-0.275-2.769-0.857-3.939
				c-0.306-0.619-0.535-1.287-1.529-1.034c-1.008,0.258-0.652-1.102-1.353-1.301c-0.453,0.101-0.6,0.731-1.152,0.706
				c-0.095-0.11-0.242-0.208-0.284-0.339c-0.654-1.999-1.304-4.002-1.933-6.008c-0.163-0.519-0.343-1.052-0.369-1.588
				c-0.036-0.771,0.22-1.255,1.195-1.33c2.51-0.19,2.511-0.248,2.916-2.75c0.101-0.612,0.083-1.249,0.229-1.849
				c0.091-0.377,0.46-0.623,0.875-0.683c0.501-0.075,0.691,0.271,0.795,0.661c0.681,2.502,1.93,4.761,3.064,7.061
				c0.379,0.768,0.384,1.498,0.137,2.259c-0.787,2.432-0.925,4.887-0.218,7.35C252.587,301.987,251.896,302.667,250.687,303.434z
				 M254.436,310.183c-1.465-0.426-2.67-3.373-1.911-4.675c0.503-0.867,2.274-0.886,2.727,0.043c0.439,0.896,0.75,1.866,1.01,2.833
				C256.667,309.911,255.923,310.615,254.436,310.183z"/>
		</g>
		<path fill="#2E3192" d="M286.425,565.974c-1.541-0.621-3.125-0.995-4.801-0.763c-1.124,0.157-1.565,0.854-0.918,1.746
			c0.789,1.087,1.225,2.359,1.998,3.436c0.676,0.938,0.894,1.964,0.742,3.146c-2.042-0.173-2.866,1.47-3.826,2.737
			c-0.498,0.661-0.884,0.727-1.527,0.561c0.333,0.428,0.647,0.879,1.007,1.287c1.083,1.238,2.208,2.423,3.309,3.639l7.651-14.282
			C288.831,567.033,287.641,566.463,286.425,565.974z"/>
	</g>
</g>
</svg>
