<?xml version="1.0" encoding="utf-8"?>
<!-- Generator: Adobe Illustrator 16.0.0, SVG Export Plug-In . SVG Version: 6.00 Build 0)  -->
<!DOCTYPE svg PUBLIC "-//W3C//DTD SVG 1.1//EN" "http://www.w3.org/Graphics/SVG/1.1/DTD/svg11.dtd">
<svg version="1.1" id="Layer_1" xmlns="http://www.w3.org/2000/svg" xmlns:xlink="http://www.w3.org/1999/xlink" x="0px" y="0px"
	 width="300px" height="300px" viewBox="0 0 300 300" enable-background="new 0 0 300 300" xml:space="preserve">
<g>
	<path fill="#39B54A" d="M-38.949,41.069c2.407,6.563,5.551,12.767,8.917,18.876c3.368,6.113,7.06,12.021,11.126,17.682
		c2.77,3.857,5.338,7.893,8.897,11.127c0.363,0.094,0.581,0.057,0.863-0.316c0.542-0.716,1.006-1.644,2.16-1.546
		c0.085-0.667-0.038-1.246-0.419-1.776c-0.437-0.607-0.682-1.326-1.128-1.939c-0.365-0.504-0.116-0.897,0.519-0.986
		c0.946-0.131,1.841,0.08,2.711,0.431c0.687,0.276,1.359,0.599,2.052,0.851L4.5,69l14.892-11.639
		c-0.03-0.246-0.063-0.492-0.09-0.738c-0.103-0.921-0.489-1.654-1.31-2.17c-0.857-0.537-1.646-1.184-2.502-1.725
		c-0.574-0.365-1.025-0.797-1.366-1.391c-1.386-2.408-2.804-4.801-4.197-7.205c-0.18-0.311-0.328-0.686-0.661-0.797
		c-0.601-0.199-0.939-0.604-1.183-1.145c-0.113-0.251-0.337-0.396-0.58-0.52c-1.545-0.775-2.822-1.952-4.275-2.867
		c-1.29-0.812-2.338-1.878-3.153-3.154c-0.362-0.566-0.769-0.777-1.423-0.627c-0.801,0.185-1.579-0.067-2.351-0.238
		c-0.688-0.15-0.825-0.371-0.513-1.021c0.82-1.704,0.425-3.151-0.714-4.563c-1.188-1.473-2.407-2.936-3.183-4.698
		c-0.414-0.943-1.411-1.31-2.136-1.921c-0.433-0.364-1.104,0.314-1.688,0.453c-0.073,0.017-0.162-0.032-0.297-0.063
		c-0.175-0.589-0.165-1.189,0.019-1.79c0.284-0.923-0.015-1.611-0.776-2.188c-0.948-0.719-1.847-1.504-2.775-2.25
		c-0.347-0.28-0.65-0.581-0.857-0.988c-0.188-0.37-0.208-0.648,0.172-0.902c0.547-0.365,1.035-0.829,1.728-0.933
		c0.308-0.046,0.657-0.134,0.63-0.539c-0.048-0.738,0.219-1.484-0.133-2.218c-0.708-1.475-0.723-3.052-0.68-4.651
		c0.056-2.123-0.151-4.222-0.891-6.239c-0.516-1.409-1.093-2.8-1.502-4.24c-0.528-1.862-1.673-3.292-2.998-4.593
		c-1.009-0.992-1.987-2.005-2.89-3.089c-0.098-0.117-0.182-0.24-0.272-0.36L-49.102-0.819c0.084,0.783,0.158,1.566,0.251,2.348
		C-47.219,15.129-43.652,28.238-38.949,41.069z"/>
	<path fill="#2E3192" d="M-20.292-8.561c1.324,1.301,2.47,2.731,2.998,4.593c0.409,1.44,0.986,2.832,1.502,4.24
		c0.739,2.017,0.947,4.116,0.891,6.239c-0.043,1.6-0.028,3.176,0.68,4.651c0.353,0.734,0.085,1.48,0.133,2.218
		c0.027,0.405-0.322,0.493-0.63,0.539c-0.693,0.104-1.18,0.568-1.728,0.933c-0.379,0.253-0.36,0.532-0.172,0.902
		c0.208,0.407,0.51,0.708,0.857,0.988c0.929,0.746,1.827,1.531,2.775,2.25c0.761,0.577,1.06,1.264,0.776,2.188
		c-0.184,0.601-0.194,1.2-0.019,1.79c0.136,0.031,0.225,0.08,0.297,0.063c0.583-0.139,1.255-0.817,1.688-0.453
		c0.725,0.611,1.722,0.979,2.136,1.921c0.776,1.762,1.996,3.225,3.183,4.698c1.139,1.412,1.535,2.859,0.714,4.563
		c-0.312,0.649-0.175,0.87,0.513,1.021c0.772,0.171,1.549,0.423,2.351,0.238c0.655-0.15,1.062,0.061,1.423,0.627
		c0.815,1.276,1.863,2.343,3.153,3.154c1.453,0.915,2.729,2.092,4.275,2.867c0.243,0.123,0.467,0.269,0.58,0.52
		c0.243,0.541,0.582,0.945,1.183,1.145c0.333,0.111,0.481,0.486,0.661,0.797c1.393,2.404,2.811,4.797,4.197,7.205
		c0.341,0.594,0.792,1.025,1.366,1.391c0.855,0.541,1.645,1.188,2.502,1.725c0.82,0.516,1.207,1.249,1.31,2.17
		c0.027,0.246,0.06,0.492,0.09,0.738L28.17,50.5l9.33-35l19-32.202L30-31.954L-9.5-18.1l-13.955,6.089
		c0.09,0.12,0.174,0.243,0.272,0.36C-22.28-10.565-21.301-9.552-20.292-8.561z"/>
</g>
</svg>
