<?xml version="1.0" encoding="utf-8"?>
<!-- Generator: Adobe Illustrator 16.0.0, SVG Export Plug-In . SVG Version: 6.00 Build 0)  -->
<!DOCTYPE svg PUBLIC "-//W3C//DTD SVG 1.1//EN" "http://www.w3.org/Graphics/SVG/1.1/DTD/svg11.dtd">
<svg version="1.1" id="Layer_1" xmlns="http://www.w3.org/2000/svg" xmlns:xlink="http://www.w3.org/1999/xlink" x="0px" y="0px"
	 width="300px" height="300px" viewBox="0 0 300 300" enable-background="new 0 0 300 300" xml:space="preserve">
<g>
	<path fill="#2E3192" d="M77.04-70.32c-0.11-0.857-0.204-1.596-0.3-2.332c-0.042-0.318-0.257-0.446-0.551-0.451
		c-0.253-0.005-0.409,0.154-0.468,0.385c-0.134,0.512-0.236,1.032-0.376,1.543c-0.214,0.789-0.6,0.986-1.194,0.475
		c-1.37-1.182-2.764-2.369-3.059-4.328c-0.071-0.479-0.217-0.946-0.342-1.416c-0.109-0.416-0.46-0.492-0.819-0.545
		c-0.229-0.033-0.508-0.027-0.555,0.22c-0.22,1.181-0.943,2.295-0.356,3.581c0.895,1.967,1.733,3.959,2.581,5.948
		c0.204,0.481,0.48,0.833,1.028,0.909c0.658,0.091,0.858,0.521,0.844,1.129c-0.011,0.351-0.001,0.706,0.033,1.055
		c0.103,1.033,0.286,2.043,0.819,3.047c0.196-0.209,0.327-0.325,0.431-0.463c0.832-1.123,0.869-2.469,1.02-3.775
		c0.116-1.015,0.289-2.007,0.569-3.051c0.47,0.32,0.393,0.658,0.411,0.947c0.074,1.163,0.502,2.158,1.046,3.205
		c0.868,1.669,1.443,3.482,1.013,5.473c-0.248,1.154-0.277,2.357-0.413,3.538c-0.224,1.968-0.283,3.974-0.711,5.897
		c-1.12,5.027-2.028,10.119-4.19,14.862c-1.242,2.722-2.389,5.464-4.095,7.97c-1.649,2.418-3.732,4.615-4.445,7.6
		c-0.097,0.397-0.419,0.691-0.908,0.57c-0.494-0.122-0.333-0.539-0.374-0.869c-0.314-2.635-0.251-5.27-0.046-7.911
		c0.116-1.487,0.276-2.996-0.226-4.456c-0.759-2.209-1.346-4.478-2.232-6.646c-0.272-0.665-0.567-1.302-1.132-1.753
		c-0.646-0.518-0.862-1.186-0.844-1.978c0.044-2.042-0.334-4.04-0.684-6.034c-0.189-1.081-0.41-2.352-1.292-2.955
		c-0.783-0.533-1.017-1.143-1.174-1.9c-0.648-3.115-2.132-5.869-3.678-8.598c-0.32-0.569-0.762-1.023-1.305-1.375
		c-0.427,0.457,0.105,1.047-0.42,1.461c-1.06-0.656-1.971-1.486-2.167-2.783c-0.166-1.111-0.589-2.119-0.959-3.154
		c-0.084-0.237-0.153-0.531-0.525-0.471c-0.376,0.476-0.294,0.951-0.077,1.482c1.913,4.697,3.808,9.404,5.708,14.107
		c0.64,1.584,1.491,3.131,0.811,4.934c-0.045,0.116,0.031,0.277-0.012,0.393c-0.357,0.968,0.068,1.596,0.869,2.07
		c0.809,0.479,1.186,1.176,1.368,2.121c0.474,2.477,0.637,4.985,0.826,7.488c0.093,1.248,0.416,2.342,1.253,3.244
		c0.521,0.564,0.661,1.201,0.722,1.928c0.169,2.063,0.407,4.121,0.574,6.186c0.053,0.658,0.282,1.117,0.939,1.254
		c0.544,0.114,0.809,0.489,1.038,0.932c0.403,0.783,0.852,1.547,1.218,2.349c0.558,1.223,0.934,2.479,0.369,3.823
		c-0.238,0.572-0.166,1.113,0.222,1.616c0.319,0.417,0.488,0.941,1.009,1.397c2.521-3.018,4.772-6.243,7.483-9.424
		c-0.131,1.613-0.758,2.762-1.049,4.004c-0.536,2.319-1.227,4.584-2.064,6.822c-1.667,4.457-3.398,8.881-5.533,13.137
		C61.724,4,61.021,6.008,59.82,7.768c-3.529,5.171-7.015,10.371-10.63,15.482c-2.901,4.103-5.698,8.28-8.563,12.409
		c-1.715,2.47-3.166,5.067-4.34,7.843c-0.751,1.774-1.414,3.607-2.604,5.177c-0.664,0.878-1.189,1.861-1.871,2.724
		c-1.77,2.244-3.436,4.553-5.735,6.363c-2.151,1.691-4.448,3.184-6.558,4.918c-1.844,1.515-3.752,2.93-5.74,4.246
		c-1.513,1-2.936,2.111-4.018,3.604c-0.623,0.859-1.422,1.564-2.176,2.31c-0.372,0.366-0.841,0.656-1.049,1.172
		c0.339-0.202,0.688-0.39,1.014-0.61c3.584-2.422,7.08-4.966,10.446-7.684C46.249,42.902,65.074,13.941,74.43-21.143
		c3.607-13.53,5.346-27.332,5.385-41.336c0.01-3.521,0.007-7.046-0.387-10.555C78.951-71.897,78.304-70.915,77.04-70.32z
		 M76.302-68.986c-0.009-0.032,0.019-0.082,0.044-0.111c0.014-0.016,0.058-0.006,0.088-0.008c0.005,0.041,0.026,0.088,0.011,0.119
		C76.392-68.869,76.331-68.869,76.302-68.986z"/>
	<path fill="#2E3192" d="M-43.016,96.121c-0.02-0.012-0.038-0.014-0.058-0.023c-0.264-0.134-0.538-0.047-0.813-0.021
		c-0.099,0.008-0.196,0.008-0.294-0.016c-0.602-0.146-0.669-0.369-0.342-0.924c0.328-0.558,0.896-0.51,1.383-0.646
		c1.139-0.315,1.144-0.298,1.188-1.487c0.029-0.77,0.267-1.523-0.301-2.273c-0.287-0.381,0.07-0.948,0.393-1.316
		c0.766-0.871,1.464-1.754,1.53-2.986c0.021-0.402,0.371-0.58,0.715-0.699c0.493-0.172,0.746-0.576,1.049-0.961
		c0.464-0.591,0.55-1.168,0.196-1.832c-0.254-0.479-0.306-0.994-0.287-1.539c0.015-0.48-0.034-0.975-0.141-1.443
		c-0.592-2.6,0.297-4.707,2.242-6.365c1.323-1.129,2.516-2.33,3.396-3.836c0.227-0.387,0.571-0.659,0.943-0.912
		c0.874-0.596,1.731-1.219,2.596-1.828c0.325-0.229,0.654-0.453,1.052-0.549c1.215-0.295,1.898-1.215,2.528-2.184
		c0.216-0.332,0.343-0.721,0.569-1.043c0.355-0.506,0.456-1.023,0.281-1.617c-0.287-0.977-0.021-1.922,0.184-2.871
		c0.084-0.382,0.254-0.68,0.661-0.715c0.601-0.051,0.604-0.451,0.7-0.917c0.337-1.622-0.181-3.257,0.061-4.849
		c0.346-2.281-0.232-4.363-0.973-6.449c-0.154-0.43-0.405-0.777-0.719-1.096c-0.779-0.781-1.49-1.645-2.34-2.337
		c-1.254-1.019-1.26-2.446-1.473-3.825c-0.055-0.349,0.17-0.576,0.408-0.783c0.537-0.466,0.986-0.998,1.412-1.55l-17.73,4.272
		l-44.395,31.45L-82.616,96l22.699,3.848c5.306-0.809,10.57-1.872,15.79-3.216C-43.739,96.533-43.228,96.632-43.016,96.121z"/>
	<path fill="#39B54A" d="M-3-18.5L-16.5,14l13,16.5l-23.768,5.728c-0.426,0.552-0.875,1.084-1.412,1.55
		c-0.238,0.207-0.463,0.435-0.408,0.783c0.213,1.379,0.219,2.807,1.473,3.825c0.85,0.692,1.561,1.556,2.34,2.337
		c0.313,0.318,0.564,0.666,0.719,1.096c0.74,2.086,1.318,4.168,0.973,6.449c-0.241,1.592,0.276,3.227-0.061,4.849
		c-0.097,0.466-0.1,0.866-0.7,0.917c-0.407,0.035-0.577,0.333-0.661,0.715c-0.205,0.949-0.471,1.895-0.184,2.871
		c0.175,0.594,0.074,1.111-0.281,1.617c-0.227,0.322-0.354,0.711-0.569,1.043c-0.63,0.969-1.313,1.889-2.528,2.184
		c-0.397,0.096-0.727,0.319-1.052,0.549c-0.864,0.609-1.722,1.232-2.596,1.828c-0.372,0.253-0.717,0.525-0.943,0.912
		c-0.88,1.506-2.072,2.707-3.396,3.836c-1.945,1.658-2.834,3.766-2.242,6.365c0.106,0.469,0.155,0.963,0.141,1.443
		c-0.019,0.545,0.033,1.061,0.287,1.539c0.354,0.664,0.268,1.241-0.196,1.832c-0.303,0.385-0.556,0.789-1.049,0.961
		c-0.344,0.119-0.694,0.297-0.715,0.699c-0.066,1.232-0.765,2.115-1.53,2.986c-0.322,0.368-0.68,0.936-0.393,1.316
		c0.567,0.75,0.33,1.504,0.301,2.273c-0.044,1.189-0.049,1.172-1.188,1.487c-0.487,0.136-1.055,0.088-1.383,0.646
		c-0.327,0.555-0.26,0.777,0.342,0.924c0.098,0.023,0.195,0.023,0.294,0.016c0.274-0.025,0.549-0.112,0.813,0.021
		c0.018,0.009,0.034,0.01,0.052,0.021l-0.029-0.016c0.136-0.289,0.35-0.262,0.584-0.153c0.08-0.233,0.29-0.306,0.492-0.358
		c2.16-0.566,4.321-1.125,6.481-1.692c0.222-0.058,0.429-0.063,0.64,0.015c0.587-0.164,1.176-0.307,1.752-0.494
		c2.851-0.936,5.721-1.821,8.539-2.84c3.068-1.108,6.205-2.076,9.086-3.633c4.545-2.454,9.064-4.953,13.547-7.52
		c2.905-1.664,5.746-3.449,8.467-5.413c0.208-0.516,0.677-0.806,1.049-1.172c0.754-0.745,1.553-1.45,2.176-2.31
		c1.082-1.492,2.505-2.604,4.018-3.604c1.988-1.316,3.896-2.731,5.74-4.246c2.109-1.734,4.406-3.227,6.558-4.918
		c2.3-1.811,3.966-4.119,5.735-6.363c0.682-0.862,1.207-1.846,1.871-2.724c1.19-1.569,1.854-3.402,2.604-5.177
		c1.174-2.775,2.625-5.373,4.34-7.843c2.864-4.129,5.661-8.307,8.563-12.409c3.615-5.111,7.101-10.312,10.63-15.482
		c1.201-1.76,1.903-3.768,2.85-5.654c2.135-4.256,3.866-8.68,5.533-13.137c0.838-2.238,1.528-4.503,2.064-6.822
		c0.291-1.242,0.918-2.391,1.049-4.004c-2.711,3.181-4.962,6.406-7.483,9.424c-0.521-0.456-0.689-0.98-1.009-1.397
		c-0.388-0.503-0.46-1.044-0.222-1.616c0.564-1.344,0.188-2.601-0.369-3.823c-0.366-0.802-0.814-1.565-1.218-2.349
		c-0.229-0.442-0.494-0.817-1.038-0.932c-0.657-0.137-0.887-0.596-0.939-1.254c-0.167-2.064-0.405-4.122-0.574-6.186
		c-0.061-0.727-0.201-1.363-0.722-1.928c-0.837-0.902-1.16-1.996-1.253-3.244c-0.189-2.503-0.353-5.012-0.826-7.488
		c-0.183-0.945-0.56-1.643-1.368-2.121c-0.801-0.475-1.227-1.103-0.869-2.07c0.043-0.115-0.033-0.276,0.012-0.393
		c0.681-1.803-0.171-3.35-0.811-4.934c-0.691-1.711-1.386-3.422-2.077-5.133L36.5-56.5L-3-18.5z"/>
</g>
</svg>
