<?xml version="1.0" encoding="utf-8"?>
<!-- Generator: Adobe Illustrator 16.0.0, SVG Export Plug-In . SVG Version: 6.00 Build 0)  -->
<!DOCTYPE svg PUBLIC "-//W3C//DTD SVG 1.1//EN" "http://www.w3.org/Graphics/SVG/1.1/DTD/svg11.dtd">
<svg version="1.1" id="Layer_1" xmlns="http://www.w3.org/2000/svg" xmlns:xlink="http://www.w3.org/1999/xlink" x="0px" y="0px"
	 width="300px" height="300px" viewBox="0 0 300 300" enable-background="new 0 0 300 300" xml:space="preserve">
<g>
	<path fill="#2E3192" d="M34.622,46.114c-0.149,0.164-0.261,0.358-0.483,0.423c-1.336,0.388-2.438,1.23-3.641,1.872
		c-0.661,0.353-1.215,0.321-1.859-0.025c-1.085-0.582-2.18-1.149-3.378-1.485c-0.87-0.244-1.63-0.102-2.388,0.39
		c-0.556,0.36-0.806,0.728-0.58,1.409c0.605,1.838-0.922,4.193-2.77,4.543c-0.648,0.122-1.283,0.322-1.922,0.497
		c-2.294,0.63-3.51,2.392-4.501,4.356c-0.332,0.658-0.231,1.338,0.155,2.017c0.719,1.255,0.646,1.271-0.494,2.063
		c-0.89,0.619-1.89,1.197-1.987,2.484c-0.04,0.53-0.391,0.748-0.905,0.764c-0.218,0.006-0.436,0.089-0.652,0.092
		c-0.836,0.01-1.353,0.402-1.744,1.154c-0.543,1.037-0.604,1.029-1.762,0.775c-1.379-0.301-2.775-0.566-4.117-0.99
		c-1.012-0.32-1.906-0.179-2.814,0.225c-0.686,0.305-1.369,0.615-2.03,0.968c-0.599,0.319-1.065,0.274-1.483-0.296
		c-0.288-0.394-0.598-0.762-0.67-1.269c-0.123-0.868-0.713-1.502-1.129-2.224c-0.194-0.334-0.494-0.487-0.859-0.547
		c-0.826-0.133-1.63-0.385-2.484-0.363c-0.433,0.01-0.884-0.07-1.303-0.193c-1.223-0.362-1.363-0.636-1.072-1.896
		c0.168-0.732,0.307-1.473,0.52-2.191c0.175-0.588,0.076-1.018-0.443-1.371c-0.29-0.196-0.537-0.456-0.798-0.694
		c-0.292-0.268-0.356-0.536-0.149-0.931c0.492-0.934,0.893-1.922,1.793-2.567c1.065-0.765,1.598-1.817,1.815-3.098
		c0.19-1.12,0.677-2.198,0.278-3.374c-0.076-0.225,0.028-0.521,0.087-0.777c0.306-1.309,0.596-2.602-0.052-3.912
		c-0.214-0.431,0.314-1.02,0.889-1.032c0.303-0.007,0.613,0.077,0.908,0.161c0.531,0.15,0.959,0.158,1.089-0.528
		c0.072-0.38,0.355-0.477,0.704-0.388c0.299,0.074,0.66,0.088,0.875,0.268c1.461,1.217,3.303,1.123,5.004,1.467
		c0.818,0.168,1.627,0.295,2.43,0.564c2.264,0.756,4.614,1.188,6.934,1.736c0.567,0.135,0.778-0.222,1.033-0.598
		c1.045-1.545,1.43-3.303,1.668-5.105c0.219-1.668-0.199-3.142-1.429-4.34c-0.554-0.539-0.698-1.209-0.608-1.943
		c0.098-0.805-0.266-1.279-0.947-1.689c-1.288-0.771-2.593-1.498-4.006-2.008c-0.453-0.164-0.692-0.381-0.482-0.868
		c0.225-0.52,0.029-0.94-0.466-1.398c2.729-0.104,5.237-0.019,7.622,1.362c0.103-0.734-0.175-1.235-0.343-1.756
		c-0.177-0.545-0.359-1.09-0.525-1.639c-0.05-0.166-0.069-0.357,0.113-0.47c0.185-0.112,0.382-0.024,0.448,0.13
		c0.697,1.634,2.249,1.658,3.651,1.963c0.082,0.018,0.173-0.008,0.364-0.02c-0.222-1.052,0.472-1.322,1.309-1.472
		c0.259-0.046,0.512-0.137,0.762-0.22c1.055-0.348,1.055-0.35,1.088-1.47c0.028-0.956,0.027-0.954,1.006-1.177
		c0.344-0.078,0.695-0.13,1.027-0.244c0.875-0.303,2.033-0.396,2.534-1.014c0.655-0.807,1.077-1.881,1.622-2.828
		c0.098-0.172,0.066-0.426,0.07-0.643c0.023-1.215,0.713-1.857,1.898-1.73c0.395,0.042,0.781,0.141,1.173,0.211
		c0.222,0.041,0.509,0.081,0.598-0.139c0.407-1.014,1.132-0.539,1.776-0.406c0.3,0.061,0.588,0.182,0.876,0.289
		c0.192,0.072,0.357,0.322,0.588,0.146c0.272-0.207,0.351-0.541,0.247-0.834c-0.191-0.538-0.52-1.031-0.677-1.575
		c-0.481-1.649-0.956-3.302-1.339-4.976c-0.254-1.109,0.181-2.126,1.303-2.553c1.938-0.736,1.92-0.793,2.374,1.297
		c0.181,0.829,0.679,1.672-0.075,2.48c-0.038,0.04-0.016,0.182,0.027,0.244c0.327,0.484,0.943,0.432,1.381,0.723
		c0.294,0.196,0.487-0.031,0.656-0.244c0.204-0.252,0.459-0.367,0.787-0.424c0.5-0.09,0.875-0.07,0.969,0.541
		c0.041,0.26,0.161,0.511,0.187,0.771c0.05,0.529,0.597,0.967,0.407,1.487c-0.195,0.538-0.867,0.54-1.303,0.819
		c-0.383,0.245-0.811,0.604-0.655,1.044c0.157,0.45,0.712,0.453,1.155,0.351c0.645-0.148,1.282-0.329,1.919-0.514
		c0.456-0.133,0.683-0.086,1.04,0.387c1.693,2.236,1.215,2.125,3.651,0.988c0.923-0.431,1.819-0.867,2.846-1.024
		c0.65-0.101,1.212-0.104,1.711,0.39c0.183,0.181,0.421,0.328,0.661,0.427c0.995,0.41,1.405,0.249,1.765-0.78
		c0.157-0.451,0.451-0.75,0.778-1.039c0.389-0.344,0.445-0.691,0.197-1.16c-0.371-0.701-0.711-1.422-1.012-2.155
		c-0.42-1.021-0.439-2.044,0.094-3.048c0.361-0.68,0.418-0.715,1.05-0.207c0.479,0.385,0.926,0.816,1.351,1.262
		c0.4,0.418,0.758,0.315,1.167,0.035c0.419-0.287,0.235-0.582,0.081-0.914c-0.572-1.225-1.358-2.119-2.824-2.295
		c-0.912-0.109-1.359-0.865-1.268-1.801c0.094-0.974,0.649-1.51,1.606-1.521c0.791-0.01,1.583,0.037,2.374,0.002
		c0.416-0.019,0.947,0.043,1.115-0.506c0.148-0.484-0.293-0.684-0.567-0.952c-0.158-0.154-0.347-0.279-0.489-0.444
		c-0.451-0.522-0.907-0.563-1.487-0.164c-0.506,0.346-1.081,0.596-1.632,0.872c-1.162,0.581-1.939,0.419-2.782-0.553
		c-0.49-0.566-0.962-1.151-1.671-1.478c-0.375-0.173-0.597-0.496-0.746-0.887c-0.544-1.412-1.318-2.696-2.265-3.867
		c-0.366-0.455-0.326-0.881-0.153-1.355c0.299-0.83,0.645-1.644,0.809-2.516c0.031-0.174,0.087-0.342,0.129-0.515
		c0.584-2.461-0.564-3.341-2.715-3.933c-0.485-0.133-0.922,0.006-1.184,0.38c-0.293,0.416-0.23,0.915,0.039,1.36
		c0.045,0.074,0.115,0.133,0.17,0.201c1.026,1.317,0.947,2.273-0.279,3.379c-1.309,1.178-1.541,2.116-0.926,3.717
		c0.096,0.248,0.21,0.488,0.281,0.743c0.354,1.287,1.057,2.286,2.238,2.965c0.735,0.422,1.264,1.08,1.716,1.805
		c0.524,0.839,0.567,1.057-0.067,1.71c-1.225,1.26-1.566,2.666-0.871,4.307c0.205,0.486,0.322,1.013,0.554,1.486
		c0.398,0.818,0.023,1.554-0.177,2.308c-0.107,0.402-0.459,0.368-0.764,0.286c-0.834-0.225-1.299,0.146-1.699,0.856
		c-0.518,0.917-0.653,0.913-1.544,0.442c-0.849-0.448-1.497-1.075-1.786-2.021c-0.037-0.126-0.107-0.244-0.139-0.372
		c-0.449-1.836-1.326-3.431-2.609-4.825c-0.504-0.548-0.909-1.185-0.909-2.001c0.001-0.52-0.227-0.917-0.788-1.086
		c-0.418-0.125-0.811-0.336-1.212-0.514c-0.793-0.354-1.416-0.222-1.925,0.541c-1.366,2.039-2.915,1.824-4.712,0.112
		C24.794-0.02,24.1-0.91,23.748-2.045c-0.13-0.418-0.305-0.842-0.549-1.201c-0.91-1.329-0.928-2.793-0.781-4.314
		c0.115-1.194,0.684-2.062,1.668-2.7c0.77-0.497,1.643-0.836,2.15-1.702c0.265-0.453,0.803-0.203,1.231-0.167
		c0.327,0.028,0.731,0.003,0.622-0.423c-0.188-0.735,0.301-0.922,0.764-1.177c0.231-0.129,0.458-0.267,0.691-0.392
		c0.354-0.188,0.564-0.474,0.4-0.863c-0.56-1.331-0.136-2.594,0.205-3.872c0.148-0.554,0.26-1.12,0.335-1.688
		c0.092-0.709,0.177-1.4-0.78-1.701c-0.479-0.15-0.411-0.82,0.16-1.082c0.785-0.359,1.48-0.764,1.889-1.563
		c0.113-0.221,0.328-0.272,0.551-0.102c0.238,0.186,0.479,0.373,0.691,0.538c0.137-0.056,0.244-0.064,0.283-0.12
		c0.375-0.521,0.377-1.367,1.084-1.573c1.01-0.295,2.063-0.47,3.123-0.511c0.395-0.016,0.628,0.307,0.827,0.596
		c0.823,1.198,1.979,1.727,3.385,2.059c2.444,0.576,4.725,1.66,7.015,2.687c0.883,0.396,1.773,0.817,2.703,1.049
		c1.104,0.274,1.891,0.911,2.584,1.733c0.483,0.572,0.951,1.158,1.416,1.746c0.136,0.172,0.275,0.355,0.35,0.559
		c0.272,0.744-0.201,1.313-0.978,1.152c-0.95-0.196-1.892-0.443-2.835-0.666c-0.412-0.096-0.823-0.188-1.423-0.326
		c2.524,2.206,4.496,4.805,7.735,5.75c0.111-0.58-0.535-0.598-0.598-1.006c0.232-0.215,0.477,0.047,0.711-0.008
		c0.346-0.081,0.725-0.186,0.838-0.553c0.109-0.359-0.232-0.553-0.475-0.714c-0.795-0.528-1.18-1.25-1.248-2.202
		c-0.07-0.986-0.109-0.984,0.99-1.28c-1.479-1.606-3.183-2.927-4.742-4.479c1.208-0.039,1.208-0.039,2.557,1.044
		c0.718,0.577,1.436,1.155,2.289,1.841c0.132-1.219-0.385-2.195-0.369-3.316c0.566,0.069,0.878-0.281,1.198-0.727
		c0.369-0.514,0.437-0.92-0.003-1.404c-0.172-0.189-0.281-0.447-0.382-0.689c-0.444-1.078-0.438-1.08,0.327-1.961
		c-1.693-1.398-3.377-2.807-5.079-4.192c-0.964-0.785-1.81-1.681-2.606-2.628c-0.3-0.355-0.733-0.652-0.458-1.256
		c0.119-0.262-0.138-0.49-0.328-0.671c-0.447-0.425-0.909-0.828-1.442-1.153c-2.068-1.266-4.059-2.652-6.041-4.048
		c-0.45-0.315-0.918-0.588-0.582-1.253c-0.064-0.059-0.123-0.133-0.197-0.175c-12.992-7.493-26.77-13.073-41.283-16.828
		c-8.993-2.327-18.129-3.847-27.383-4.634c-1.88-0.16-3.764-0.404-5.662-0.291l0,0c-0.067,0.785,0.14,1.355,0.692,1.739
		c0.184,0.128,0.406,0.235,0.67,0.323c0.86,0.289,5.431,1.197,6.325,1.096c0.482-0.055,0.957-0.12,1.438,0.04
		c1.17,0.39,2.376,0.691,3.512,1.159c1.035,0.428,1.659,1.378,2.346,2.266c-1.24-0.479-2.532-0.691-3.758-1.12
		c-0.434-0.151-0.84-0.229-1.281-0.192c-1.978,0.162-3.96,0.102-5.94,0.13c-0.437,0.007-0.899-0.007-1.308-0.142
		c-2.191-0.715-4.271-0.168-6.325,0.541c-1.565,0.542-1.939,0.473-2.913-0.831c-0.753-1.007-1.206-1.131-2.307-0.63
		c0.059,0.596,0.791,0.83,0.795,1.59c-1.033-0.214-2.057-0.086-3.073-0.104c-1.377-0.024-1.806-1.006-1.147-2.347
		c0.203-0.413,0.595-0.646,0.867-0.987c0.553-0.692,0.463-1.123-0.289-1.599c-0.605-0.384-1.21-0.669-1.982-0.45
		c-0.543,0.154-1.135,0.136-1.701,0.213c-0.357,0.049-0.922-0.154-0.928,0.446c-0.008,0.546-0.379,1.278,0.51,1.565
		c0.162,0.053,0.301,0.182,0.453,0.268c0.352,0.197,0.402,0.44,0.115,0.732c-0.271,0.277-0.546,0.551-0.865,0.871
		c0.959,0.623,1.889,1.227,2.893,1.878c-0.602,0.577-1.244,0.499-1.82,0.44c-0.315-0.033-0.594-0.02-0.848,0.033l5.897,9.525
		c0.388,0.037,0.776,0.055,1.167,0.07c0.481,0.019,0.859-0.109,1.132-0.498c0.024-0.303-0.239-0.328-0.392-0.469
		c-0.502-0.451-0.411-1.058,0.199-1.322c0.281-0.122,0.59-0.186,0.891-0.254c1.725-0.383,2.975-1.792,4.739-2.151
		c0.58-0.118,1.071-0.747,1.566-1.186c0.473-0.418,0.421-0.897-0.114-1.3c-0.28-0.21-0.62-0.342-0.899-0.553
		c-0.478-0.364-0.481-0.744,0.047-1.023c1.145-0.604,2.444-1.14,3.667-0.885c1.981,0.415,3.953,0.23,5.925,0.321
		c2.52,0.114,5.001,0.368,7.446,0.993c1.455,0.371,2.92,0.704,4.391,1c1.07,0.214,2.178,0.078,3.252,0.441
		c1.777,0.602,3.451,1.333,4.688,2.805c0.465,0.553,1.103,0.679,1.743,0.855c0.996,0.274,2.088,0.332,2.967,1.215
		c-0.705,0.49-1.316,0.277-1.898,0.105c-0.576-0.172-0.984-0.01-1.16,0.527c-0.389,1.182-1.127,1.732-2.59,1.332
		c0.637,1.078,1.515,1.641,2.154,2.535c-0.939,0.465-1.902,0.293-2.88,0.406c0.12,0.5,0.572,0.764,0.794,1.172
		c0.416,0.767,0.307,1.156-0.505,1.373c-0.866,0.232-1.7,0.429-2.104,1.383c-0.196,0.467-0.631,0.418-1.021,0.211
		c-0.35-0.187-0.699-0.379-1.021-0.607c-0.41-0.288-0.86-0.453-1.35-0.502c-0.373-0.037-0.834-0.299-1.091,0.144
		c-0.267,0.462-0.425,1.021-0.025,1.49c0.737,0.868,0.521,1.914,0.612,2.903c0.02,0.213,0.011,0.528-0.186,0.605
		c-0.892,0.347-1.62,1.136-2.609,1.156c-2.904,0.059-5.811,0.057-8.715,0.049c-0.922-0.001-1.862-0.025-2.656-0.615
		c-0.426-0.316-0.854-0.105-1.269-0.004c-2.183,0.542-4.366,1.068-6.603,1.367c-0.06,0.008-0.118,0.012-0.177,0.019l16.322,26.363
		l-7.471,32.79L-57.938,113.5l9.696-6.088c0.874-1.035,1.755-2.063,2.622-3.104c0.623-0.749,1.368-1.265,2.29-1.467
		c0.649-0.142,1.003-0.515,1.204-1.077c0.231-0.646,0.678-1.109,1.139-1.594c1.554-1.631,3.18-3.183,4.905-4.631
		c0.784-0.658,1.405-1.463,2.012-2.274c0.425-0.566,0.905-0.913,1.647-0.933c0.611-0.018,1.223-0.249,1.831-0.238
		c2.233,0.039,4.075-0.979,5.893-2.08c0.868-0.526,1.699-1.115,2.572-1.633c0.841-0.497,1.282-1.316,1.802-2.078
		c0.316-0.463,0.139-0.955-0.004-1.404c-0.208-0.648-0.07-1.172,0.281-1.734c1.102-1.756,2.464-3.327,3.49-5.138
		c0.479-0.844,1.24-1.402,2.242-1.725c1.721-0.555,3.417-1.193,5.187-1.578c0.733-0.159,1.144-0.516,1.335-1.257
		c0.475-1.82,1.791-3.107,2.979-4.459c0.496-0.566,1.874-0.377,2.127,0.396c0.46,1.396,1.523,1.692,2.721,1.895
		c1.271,0.216,2.5,0.636,3.633,1.188c0.997,0.488,1.982,0.538,2.982,0.467l5.281-3.316l24.44-24.028
		C35.793,45.302,35.157,45.523,34.622,46.114z M56.978-11.836c0.071,0.02,0.128,0.098,0.19,0.15
		c-0.08,0.013-0.162,0.025-0.242,0.039c-0.064-0.053-0.127-0.105-0.189-0.158C56.817-11.816,56.906-11.855,56.978-11.836z
		 M17.391-43.967c1.229-0.023,2.143,0.73,3.125,1.304c0.072,0.042,0.178,0.146,0.165,0.194c-0.329,1.266,0.947,1.211,1.456,1.785
		c0.438,0.496,1.322,0.621,1.273,1.524c0.098,0.045,0.121,0.104,0.07,0.179c-0.045-0.045-0.091-0.092-0.136-0.137h-0.001
		c-0.644-0.085-1.157-0.598-1.794-0.76c-0.213-0.055-0.438-0.07-0.688-0.018c-0.208,0.911,0.657,1.535,0.609,2.384
		c-0.597,0.154-0.925-0.245-1.255-0.588c-0.92-0.959-2.027-1.678-3.06-2.495c-1.204-0.953-2.372-2.033-3.228-3.646
		C15.219-43.916,16.305-43.945,17.391-43.967z M2.773-1.092c0.251-0.463,0.652-0.6,1.098-0.258C4.422-0.926,4.57-1.762,5.013-1.68
		C5.756-1.542,6.182-1.85,6.3-2.611c0.048-0.313,0.304-0.418,0.599-0.351c0.688,0.158,1.372,0.326,2.055,0.501
		c0.219,0.057,0.436,0.174,0.468,0.413c0.032,0.243-0.172,0.372-0.35,0.511c-0.322,0.252-1.007,0.22-0.9,0.801
		C8.279-0.139,8.948-0.295,9.377-0.16c0.588,0.186,1.2,0.285,1.798,0.439c0.548,0.142,0.685,0.523,0.499,1.018
		c-0.24,0.632-0.656,1.139-1.199,1.543c-0.238,0.178-0.686,0.291-0.592,0.63c0.175,0.621-0.221,0.837-0.694,1.122
		c1.335,0.038,2.009,0.869,2.706,1.753c0.488,0.618,0.468,1.311,0.582,1.991c0.093,0.551,0.21,0.945,0.871,1.14
		c0.793,0.233,1.285,1.417,0.986,2.257c-0.152,0.427-0.059,0.549,0.305,0.648c0.254,0.069,0.495,0.145,0.696,0.346
		c0.739,0.742,0.783,1.158,0.185,2.176c0.323,0.355,0.74,0.108,1.107,0.163c0.578,0.086,1.08,0.228,1.515,0.69
		c0.944,1,0.804,2.191-0.419,2.867c-0.448,0.247-0.971,0.373-1.445,0.938c0.667,0.152,1.205,0.27,1.742,0.4
		c0.222,0.055,0.416,0.164,0.398,0.437c-0.015,0.239-0.143,0.431-0.371,0.494c-0.719,0.197-1.434,0.462-2.201,0.245
		c-1.071-0.303-2.163-0.333-3.271-0.316c-0.731,0.011-1.449-0.101-2.185-0.336c-1.002-0.322-2.135-0.664-3.077,0.288
		c-0.309,0.313-0.65,0.161-0.984,0.044c-0.853-0.299-1.645-0.211-2.371,0.352c-0.137,0.105-0.297,0.199-0.461,0.246
		c-0.259,0.076-0.409-0.121-0.529-0.299c-0.123-0.184-0.006-0.354,0.146-0.443c1.171-0.701,2.347-1.397,3.532-2.074
		c0.334-0.191,0.686,0.014,1.031,0.052c0.744,0.083,0.744,0.077,1.212-0.897c-0.684,0.354-1.192,0.429-1.724-0.295
		c-0.406-0.555-1.158-0.77-1.861-0.904c-0.614-0.119-1.037-0.42-1.143-1.131c0.656-0.158,1.296-0.275,1.91-0.475
		c0.799-0.256,0.934-0.758,0.427-1.37c-0.756-0.906-0.756-0.906-0.601-2.252c1.094,0.686,2.355,0.327,3.55,0.813
		c0.261-1.055,0.344-2.04-0.519-2.822C8.289,8.736,8.03,8.16,8.738,7.385c-1.09-0.436-2.178-0.041-3.151-0.348
		c0.006-0.488,0.337-0.684,0.538-0.959c0.16-0.219,0.31-0.445,0.27-0.723C6.311,4.786,6.248,4.129,5.644,3.906
		C5.083,3.699,4.979,4.494,4.467,4.67C4.385,3.949,4.855,3.324,4.742,2.667C4.516,2.49,4.29,2.602,4.082,2.576
		C3.518,2.504,3.214,2.123,3.505,1.699c0.515-0.75,0.362-1.186-0.392-1.563C2.57-0.137,2.508-0.6,2.773-1.092z M-4.768,6.289
		c0.816-0.122,1.419,0.167,2.037,0.274c0.916,0.16,0.915,0.169,1.176-0.726c0.336-1.146,0.641-1.334,1.754-0.736
		C0.992,5.527,1.73,5.645,2.596,5.487c0.842-0.151,1.93,0.821,1.988,1.677c0.053,0.776-0.66,1.382-1.687,1.434
		C2.77,8.605,2.641,8.618,2.398,8.638c0.581,1.656,0.591,3.136-0.192,4.598c-0.227,0.425-0.411,0.567-0.894,0.497
		c-1.188-0.17-2.362-0.031-3.5,0.365c-1.137,0.397-2.262,0.627-3.476,0.228c-0.587-0.194-0.901-0.485-1.009-1.058
		c-0.111-0.592,0.418-0.719,0.735-0.969c0.654-0.518,1.505-0.421,2.259-0.646c0.095-0.354-0.198-0.43-0.404-0.562
		c-0.353-0.226-0.547-0.454-0.095-0.784c0.423-0.309,0.245-0.609-0.069-0.85c-0.418-0.316-0.859-0.601-1.373-0.955
		C-4.988,7.91-3.799,7.574-4.768,6.289z M-16.313-21.641c-0.563-0.406-1.258-0.623-1.875-0.96c-0.324-0.179-0.625-0.503-0.29-0.849
		c0.577-0.596,0.271-0.982-0.173-1.43c-0.201-0.202-0.551-0.322-0.521-0.749c0.51-0.007,1.021-0.011,1.529-0.026
		c0.168-0.006,0.366,0.008,0.411-0.229c0.036-0.188-0.032-0.343-0.155-0.479c-0.438-0.484-1.169-0.611-1.582-1.314
		c0.764-0.402,1.492-0.807,2.343-0.479c1.095,0.421,0.224,1.556,0.791,2.272c0.909-0.222,1.802,0.28,2.817,0.327
		c0.113-0.532-0.482-0.751-0.465-1.282c1.119,0.115,2.043,0.747,3.076,1.016c0.395,0.103,0.714,0.19,1.128,0.065
		c2.077-0.626,3.429,0.843,3.675,2.622c0.104,0.756-0.92,1.855-1.755,2.013c-1.696,0.319-3.427,0.202-5.125,0.411
		C-13.918-20.535-15.145-20.799-16.313-21.641z"/>
	<path fill="#39B54A" d="M91.8,2.47c-6.24-8.073-12.861-15.802-20.347-22.761c-1.711-1.592-3.399-3.21-5.102-4.811
		c-0.32-0.303-0.637-0.619-0.997-0.866c-6.286-4.315-12.368-8.927-18.896-12.883c-1.2-0.728-2.317-1.601-3.636-2.126
		c-0.336,0.665,0.132,0.938,0.582,1.253c1.982,1.396,3.973,2.782,6.041,4.048c0.533,0.325,0.995,0.729,1.442,1.153
		c0.19,0.181,0.447,0.409,0.328,0.671c-0.275,0.604,0.158,0.9,0.458,1.256c0.797,0.947,1.643,1.843,2.606,2.628
		c1.702,1.386,3.386,2.794,5.079,4.192c-0.765,0.881-0.771,0.883-0.327,1.961c0.101,0.242,0.21,0.5,0.382,0.689
		c0.439,0.484,0.372,0.891,0.003,1.404c-0.32,0.445-0.632,0.796-1.198,0.727c-0.016,1.121,0.501,2.098,0.369,3.316
		c-0.854-0.686-1.571-1.264-2.289-1.841c-1.349-1.083-1.349-1.083-2.557-1.044c1.56,1.553,3.264,2.873,4.742,4.479
		c-1.1,0.296-1.061,0.294-0.99,1.28c0.068,0.952,0.453,1.674,1.248,2.202c0.242,0.161,0.584,0.354,0.475,0.714
		c-0.113,0.367-0.492,0.472-0.838,0.553c-0.234,0.055-0.479-0.207-0.711,0.008c0.063,0.408,0.709,0.426,0.598,1.006
		c-3.239-0.945-5.211-3.544-7.735-5.75c0.6,0.138,1.011,0.23,1.423,0.326c0.943,0.223,1.885,0.47,2.835,0.666
		c0.776,0.16,1.25-0.408,0.978-1.152c-0.074-0.203-0.214-0.387-0.35-0.559c-0.465-0.588-0.933-1.174-1.416-1.746
		c-0.693-0.822-1.48-1.459-2.584-1.733c-0.93-0.231-1.82-0.653-2.703-1.049c-2.29-1.026-4.57-2.11-7.015-2.687
		c-1.405-0.332-2.562-0.86-3.385-2.059c-0.199-0.289-0.433-0.611-0.827-0.596c-1.061,0.041-2.113,0.216-3.123,0.511
		c-0.707,0.206-0.709,1.052-1.084,1.573c-0.039,0.056-0.146,0.064-0.283,0.12c-0.213-0.165-0.453-0.353-0.691-0.538
		c-0.223-0.171-0.438-0.119-0.551,0.102c-0.408,0.799-1.104,1.203-1.889,1.563c-0.571,0.262-0.639,0.932-0.16,1.082
		c0.957,0.301,0.872,0.992,0.78,1.701c-0.075,0.568-0.187,1.135-0.335,1.688c-0.341,1.278-0.765,2.541-0.205,3.872
		c0.164,0.39-0.047,0.675-0.4,0.863c-0.233,0.125-0.46,0.263-0.691,0.392c-0.463,0.255-0.952,0.441-0.764,1.177
		c0.109,0.426-0.295,0.451-0.622,0.423c-0.429-0.036-0.967-0.286-1.231,0.167c-0.508,0.866-1.381,1.205-2.15,1.702
		c-0.984,0.639-1.553,1.506-1.668,2.7c-0.146,1.521-0.129,2.985,0.781,4.314c0.244,0.359,0.419,0.783,0.549,1.201
		C24.1-0.91,24.794-0.02,25.636,0.782c1.797,1.712,3.346,1.927,4.712-0.112c0.509-0.763,1.132-0.895,1.925-0.541
		c0.401,0.178,0.794,0.389,1.212,0.514c0.562,0.169,0.789,0.566,0.788,1.086c0,0.816,0.405,1.453,0.909,2.001
		c1.283,1.395,2.16,2.989,2.609,4.825c0.031,0.128,0.102,0.246,0.139,0.372c0.289,0.945,0.938,1.572,1.786,2.021
		c0.891,0.471,1.026,0.475,1.544-0.442c0.4-0.71,0.865-1.081,1.699-0.856c0.305,0.082,0.656,0.116,0.764-0.286
		c0.2-0.754,0.575-1.489,0.177-2.308c-0.231-0.474-0.349-1-0.554-1.486c-0.695-1.641-0.354-3.047,0.871-4.307
		c0.635-0.653,0.592-0.871,0.067-1.71c-0.452-0.725-0.98-1.383-1.716-1.805c-1.182-0.679-1.885-1.678-2.238-2.965
		c-0.071-0.255-0.186-0.495-0.281-0.743c-0.615-1.601-0.383-2.539,0.926-3.717c1.227-1.105,1.306-2.062,0.279-3.379
		c-0.055-0.068-0.125-0.127-0.17-0.201c-0.27-0.445-0.332-0.944-0.039-1.36c0.262-0.374,0.698-0.513,1.184-0.38
		c2.15,0.592,3.299,1.472,2.715,3.933c-0.042,0.173-0.098,0.341-0.129,0.515c-0.164,0.872-0.51,1.686-0.809,2.516
		c-0.173,0.475-0.213,0.9,0.153,1.355c0.946,1.171,1.721,2.455,2.265,3.867c0.149,0.391,0.371,0.714,0.746,0.887
		c0.709,0.326,1.181,0.911,1.671,1.478c0.843,0.972,1.62,1.134,2.782,0.553c0.551-0.276,1.126-0.526,1.632-0.872
		c0.58-0.398,1.036-0.358,1.487,0.164c0.143,0.165,0.331,0.29,0.489,0.444c0.274,0.269,0.716,0.468,0.567,0.952
		C55.631,1.342,55.1,1.28,54.684,1.299c-0.791,0.035-1.583-0.012-2.374-0.002c-0.957,0.012-1.513,0.548-1.606,1.521
		c-0.092,0.936,0.355,1.691,1.268,1.801c1.466,0.176,2.252,1.07,2.824,2.295c0.154,0.332,0.338,0.627-0.081,0.914
		c-0.409,0.28-0.767,0.383-1.167-0.035c-0.425-0.445-0.872-0.877-1.351-1.262c-0.632-0.508-0.688-0.473-1.05,0.207
		c-0.533,1.004-0.514,2.027-0.094,3.048c0.301,0.733,0.641,1.454,1.012,2.155c0.248,0.469,0.191,0.816-0.197,1.16
		c-0.327,0.289-0.621,0.588-0.778,1.039c-0.359,1.029-0.77,1.19-1.765,0.78c-0.24-0.099-0.479-0.246-0.661-0.427
		c-0.499-0.493-1.061-0.49-1.711-0.39c-1.026,0.157-1.923,0.594-2.846,1.024c-2.437,1.137-1.958,1.248-3.651-0.988
		c-0.357-0.473-0.584-0.52-1.04-0.387c-0.637,0.185-1.274,0.365-1.919,0.514c-0.443,0.103-0.998,0.1-1.155-0.351
		c-0.155-0.44,0.272-0.799,0.655-1.044c0.436-0.279,1.107-0.281,1.303-0.819c0.189-0.521-0.357-0.958-0.407-1.487
		c-0.025-0.261-0.146-0.512-0.187-0.771c-0.094-0.611-0.469-0.631-0.969-0.541c-0.328,0.057-0.583,0.172-0.787,0.424
		c-0.169,0.213-0.362,0.44-0.656,0.244c-0.438-0.291-1.054-0.238-1.381-0.723c-0.043-0.063-0.065-0.204-0.027-0.244
		c0.754-0.809,0.256-1.651,0.075-2.48c-0.454-2.09-0.437-2.033-2.374-1.297c-1.122,0.427-1.557,1.443-1.303,2.553
		c0.383,1.674,0.857,3.326,1.339,4.976c0.157,0.544,0.485,1.037,0.677,1.575c0.104,0.293,0.025,0.627-0.247,0.834
		c-0.23,0.176-0.396-0.074-0.588-0.146c-0.288-0.107-0.576-0.229-0.876-0.289c-0.645-0.133-1.369-0.607-1.776,0.406
		c-0.089,0.22-0.376,0.18-0.598,0.139c-0.392-0.07-0.778-0.169-1.173-0.211c-1.186-0.127-1.875,0.516-1.898,1.73
		c-0.004,0.217,0.027,0.471-0.07,0.643c-0.545,0.947-0.967,2.021-1.622,2.828c-0.501,0.617-1.659,0.711-2.534,1.014
		c-0.332,0.114-0.684,0.166-1.027,0.244c-0.979,0.223-0.978,0.221-1.006,1.177c-0.033,1.12-0.033,1.122-1.088,1.47
		c-0.25,0.083-0.503,0.174-0.762,0.22c-0.837,0.149-1.53,0.42-1.309,1.472c-0.191,0.012-0.282,0.037-0.364,0.02
		c-1.402-0.305-2.954-0.329-3.651-1.963c-0.066-0.154-0.264-0.242-0.448-0.13c-0.183,0.112-0.163,0.304-0.113,0.47
		c0.166,0.549,0.349,1.094,0.525,1.639c0.168,0.521,0.445,1.021,0.343,1.756c-2.385-1.381-4.893-1.467-7.622-1.362
		c0.495,0.458,0.69,0.879,0.466,1.398c-0.21,0.487,0.029,0.704,0.482,0.868c1.413,0.51,2.718,1.236,4.006,2.008
		c0.682,0.41,1.045,0.885,0.947,1.689c-0.09,0.734,0.055,1.404,0.608,1.943c1.229,1.198,1.647,2.672,1.429,4.34
		c-0.238,1.803-0.623,3.561-1.668,5.105c-0.255,0.376-0.466,0.732-1.033,0.598c-2.319-0.549-4.67-0.98-6.934-1.736
		c-0.803-0.27-1.611-0.396-2.43-0.564c-1.701-0.344-3.543-0.25-5.004-1.467c-0.215-0.18-0.576-0.193-0.875-0.268
		c-0.349-0.089-0.632,0.008-0.704,0.388c-0.13,0.687-0.558,0.679-1.089,0.528c-0.295-0.084-0.605-0.168-0.908-0.161
		c-0.574,0.013-1.103,0.602-0.889,1.032c0.647,1.311,0.357,2.604,0.052,3.912c-0.059,0.256-0.163,0.553-0.087,0.777
		c0.398,1.176-0.088,2.254-0.278,3.374c-0.218,1.28-0.75,2.333-1.815,3.098c-0.9,0.646-1.301,1.634-1.793,2.567
		c-0.207,0.395-0.143,0.663,0.149,0.931c0.261,0.238,0.508,0.498,0.798,0.694c0.52,0.354,0.618,0.783,0.443,1.371
		c-0.213,0.719-0.352,1.459-0.52,2.191c-0.291,1.261-0.15,1.534,1.072,1.896c0.419,0.123,0.87,0.203,1.303,0.193
		c0.854-0.021,1.658,0.23,2.484,0.363c0.365,0.06,0.665,0.213,0.859,0.547c0.416,0.722,1.006,1.355,1.129,2.224
		c0.072,0.507,0.382,0.875,0.67,1.269c0.418,0.57,0.885,0.615,1.483,0.296c0.661-0.353,1.345-0.663,2.03-0.968
		c0.908-0.403,1.803-0.545,2.814-0.225c1.342,0.424,2.738,0.689,4.117,0.99c1.157,0.254,1.219,0.262,1.762-0.775
		c0.392-0.752,0.908-1.145,1.744-1.154c0.217-0.003,0.435-0.086,0.652-0.092c0.515-0.016,0.865-0.233,0.905-0.764
		c0.098-1.287,1.098-1.865,1.987-2.484c1.14-0.793,1.213-0.809,0.494-2.063c-0.387-0.679-0.487-1.358-0.155-2.017
		c0.991-1.965,2.207-3.727,4.501-4.356c0.639-0.175,1.273-0.375,1.922-0.497c1.848-0.35,3.375-2.705,2.77-4.543
		c-0.226-0.682,0.024-1.049,0.58-1.409c0.758-0.491,1.518-0.634,2.388-0.39c1.198,0.336,2.293,0.903,3.378,1.485
		c0.645,0.347,1.198,0.378,1.859,0.025c1.203-0.642,2.305-1.484,3.641-1.872c0.223-0.064,0.334-0.259,0.483-0.423
		c0.535-0.591,1.171-0.813,1.748-0.506l23.95-23.546L95.854,7.459c-0.631-0.824-1.282-1.635-1.979-2.414
		C93.139,4.225,92.474,3.342,91.8,2.47z"/>
	<path fill="#39B54A" d="M-46.727-56.008c0.576,0.059,1.219,0.137,1.82-0.44c-1.004-0.651-1.934-1.255-2.893-1.878
		c0.319-0.32,0.594-0.594,0.865-0.871c0.287-0.292,0.236-0.535-0.115-0.732c-0.152-0.086-0.291-0.215-0.453-0.268
		c-0.889-0.287-0.518-1.02-0.51-1.565c0.006-0.601,0.57-0.397,0.928-0.446c0.566-0.077,1.158-0.059,1.701-0.213
		c0.772-0.219,1.377,0.066,1.982,0.45c0.752,0.476,0.842,0.906,0.289,1.599c-0.272,0.342-0.664,0.574-0.867,0.987
		c-0.658,1.341-0.229,2.322,1.147,2.347c1.017,0.018,2.04-0.11,3.073,0.104c-0.004-0.76-0.736-0.994-0.795-1.59
		c1.101-0.501,1.554-0.377,2.307,0.63c0.974,1.304,1.348,1.373,2.913,0.831c2.054-0.709,4.134-1.256,6.325-0.541
		c0.408,0.135,0.871,0.148,1.308,0.142c1.98-0.028,3.963,0.032,5.94-0.13c0.441-0.037,0.848,0.041,1.281,0.192
		c1.226,0.429,2.518,0.641,3.758,1.12c-0.687-0.888-1.311-1.838-2.346-2.266c-1.136-0.468-2.342-0.77-3.512-1.159
		c-0.48-0.16-0.955-0.095-1.438-0.04c-0.895,0.102-5.465-0.807-6.325-1.096c-0.264-0.088-0.486-0.242-0.67-0.371
		C-31.563-61.598-31.771-62-31.705-63c0.001,0,0.001,0,0.002,0c-0.771,0-1.576-0.064-2.362-0.178
		c-3.498-0.507-7.019-0.725-10.544-0.455c-2.46,0.188-4.933,0.256-7.389,0.502l4.424,7.15
		C-47.32-56.033-47.042-56.041-46.727-56.008z"/>
	<path fill="#39B54A" d="M-26.78-34.725c0.415-0.102,0.843-0.313,1.269,0.004c0.794,0.59,1.734,0.614,2.656,0.615
		c2.904,0.008,5.811,0.01,8.715-0.049c0.989-0.021,1.718-0.81,2.609-1.156c0.196-0.077,0.205-0.393,0.186-0.605
		c-0.091-0.989,0.125-2.035-0.612-2.903c-0.399-0.47-0.241-1.028,0.025-1.49c0.257-0.442,0.718-0.181,1.091-0.144
		c0.489,0.049,0.939,0.214,1.35,0.502c0.322,0.229,0.672,0.421,1.021,0.607c0.39,0.207,0.824,0.256,1.021-0.211
		c0.403-0.954,1.237-1.15,2.104-1.383c0.812-0.217,0.921-0.606,0.505-1.373c-0.222-0.408-0.674-0.672-0.794-1.172
		c0.978-0.113,1.94,0.059,2.88-0.406c-0.64-0.895-1.518-1.457-2.154-2.535c1.463,0.4,2.201-0.15,2.59-1.332
		c0.176-0.537,0.584-0.699,1.16-0.527c0.582,0.172,1.193,0.385,1.898-0.105c-0.879-0.883-1.971-0.94-2.967-1.215
		c-0.641-0.177-1.278-0.303-1.743-0.855c-1.237-1.472-2.911-2.203-4.688-2.805c-1.074-0.363-2.182-0.228-3.252-0.441
		c-1.471-0.296-2.936-0.629-4.391-1c-2.445-0.625-4.927-0.879-7.446-0.993c-1.972-0.091-3.943,0.094-5.925-0.321
		c-1.223-0.255-2.522,0.281-3.667,0.885c-0.528,0.279-0.524,0.659-0.047,1.023c0.279,0.211,0.619,0.343,0.899,0.553
		c0.535,0.402,0.587,0.882,0.114,1.3c-0.495,0.438-0.986,1.067-1.566,1.186c-1.765,0.359-3.015,1.769-4.739,2.151
		c-0.301,0.068-0.609,0.132-0.891,0.254c-0.61,0.265-0.701,0.871-0.199,1.322c0.152,0.141,0.416,0.166,0.392,0.469
		c-0.272,0.389-0.65,0.517-1.132,0.498c-0.391-0.016-0.779-0.033-1.167-0.07l8.117,13.11c0.059-0.007,0.117-0.011,0.177-0.019
		C-31.146-33.656-28.963-34.183-26.78-34.725z"/>
	<path fill="#39B54A" d="M3.113,0.137C3.867,0.514,4.02,0.949,3.505,1.699C3.214,2.123,3.518,2.504,4.082,2.576
		C4.29,2.602,4.516,2.49,4.742,2.667C4.855,3.324,4.385,3.949,4.467,4.67c0.513-0.176,0.616-0.971,1.177-0.764
		c0.604,0.223,0.667,0.88,0.751,1.449c0.04,0.277-0.109,0.504-0.27,0.723C5.924,6.354,5.593,6.549,5.587,7.037
		c0.974,0.307,2.062-0.088,3.151,0.348C8.03,8.16,8.289,8.736,8.928,9.316c0.862,0.782,0.779,1.768,0.519,2.822
		c-1.194-0.486-2.456-0.128-3.55-0.813c-0.155,1.346-0.155,1.346,0.601,2.252c0.507,0.612,0.372,1.114-0.427,1.37
		c-0.614,0.199-1.254,0.316-1.91,0.475c0.105,0.711,0.528,1.012,1.143,1.131c0.703,0.135,1.455,0.35,1.861,0.904
		c0.531,0.724,1.04,0.648,1.724,0.295c-0.468,0.975-0.468,0.98-1.212,0.897c-0.346-0.038-0.697-0.243-1.031-0.052
		c-1.186,0.677-2.361,1.373-3.532,2.074c-0.151,0.09-0.269,0.26-0.146,0.443c0.12,0.178,0.271,0.375,0.529,0.299
		c0.164-0.047,0.324-0.141,0.461-0.246c0.727-0.563,1.519-0.65,2.371-0.352c0.334,0.117,0.676,0.269,0.984-0.044
		c0.942-0.952,2.075-0.61,3.077-0.288c0.735,0.235,1.453,0.347,2.185,0.336c1.108-0.017,2.2,0.014,3.271,0.316
		c0.768,0.217,1.482-0.048,2.201-0.245c0.229-0.063,0.356-0.255,0.371-0.494c0.018-0.272-0.177-0.382-0.398-0.437
		c-0.537-0.131-1.075-0.248-1.742-0.4c0.475-0.564,0.997-0.69,1.445-0.938c1.223-0.676,1.363-1.867,0.419-2.867
		c-0.435-0.463-0.937-0.604-1.515-0.69c-0.367-0.055-0.784,0.192-1.107-0.163c0.599-1.018,0.555-1.434-0.185-2.176
		c-0.201-0.201-0.442-0.276-0.696-0.346c-0.363-0.1-0.457-0.222-0.305-0.648c0.299-0.84-0.193-2.023-0.986-2.257
		c-0.661-0.194-0.778-0.589-0.871-1.14c-0.114-0.681-0.094-1.373-0.582-1.991c-0.697-0.884-1.371-1.715-2.706-1.753
		c0.474-0.285,0.869-0.501,0.694-1.122c-0.094-0.339,0.354-0.452,0.592-0.63c0.543-0.404,0.959-0.911,1.199-1.543
		c0.186-0.494,0.049-0.876-0.499-1.018c-0.598-0.154-1.21-0.254-1.798-0.439C8.948-0.295,8.279-0.139,8.171-0.736
		c-0.106-0.581,0.578-0.549,0.9-0.801c0.178-0.139,0.382-0.268,0.35-0.511C9.389-2.287,9.172-2.404,8.953-2.461
		C8.271-2.636,7.586-2.804,6.898-2.962C6.604-3.029,6.348-2.924,6.3-2.611C6.182-1.85,5.756-1.542,5.013-1.68
		C4.57-1.762,4.422-0.926,3.871-1.35C3.426-1.691,3.024-1.555,2.773-1.092C2.508-0.6,2.57-0.137,3.113,0.137z"/>
	<path fill="#39B54A" d="M-4.246,9.457c0.314,0.24,0.492,0.541,0.069,0.85c-0.452,0.33-0.258,0.559,0.095,0.784
		c0.206,0.132,0.499,0.207,0.404,0.562c-0.754,0.226-1.604,0.129-2.259,0.646c-0.317,0.25-0.847,0.377-0.735,0.969
		c0.107,0.572,0.422,0.863,1.009,1.058c1.214,0.399,2.339,0.17,3.476-0.228c1.138-0.396,2.312-0.535,3.5-0.365
		c0.482,0.07,0.667-0.072,0.894-0.497c0.783-1.462,0.773-2.941,0.192-4.598c0.242-0.02,0.371-0.032,0.499-0.04
		C3.924,8.546,4.637,7.94,4.584,7.164C4.525,6.309,3.438,5.336,2.596,5.487C1.73,5.645,0.992,5.527,0.199,5.102
		c-1.113-0.598-1.418-0.41-1.754,0.736c-0.261,0.895-0.26,0.886-1.176,0.726c-0.618-0.107-1.221-0.396-2.037-0.274
		c0.969,1.285-0.221,1.621-0.852,2.213C-5.105,8.856-4.664,9.141-4.246,9.457z"/>
	<path fill="#39B54A" d="M-7.358-21.122c0.835-0.157,1.858-1.257,1.755-2.013c-0.246-1.779-1.598-3.248-3.675-2.622
		c-0.414,0.125-0.733,0.037-1.128-0.065c-1.033-0.269-1.957-0.9-3.076-1.016c-0.018,0.531,0.578,0.75,0.465,1.282
		c-1.016-0.047-1.908-0.549-2.817-0.327c-0.567-0.717,0.304-1.852-0.791-2.272c-0.851-0.327-1.579,0.077-2.343,0.479
		c0.413,0.703,1.145,0.83,1.582,1.314c0.123,0.136,0.191,0.291,0.155,0.479c-0.045,0.236-0.243,0.223-0.411,0.229
		c-0.508,0.016-1.02,0.02-1.529,0.026c-0.029,0.427,0.32,0.547,0.521,0.749c0.444,0.447,0.75,0.834,0.173,1.43
		c-0.335,0.346-0.034,0.67,0.29,0.849c0.617,0.337,1.313,0.554,1.875,0.96c1.168,0.842,2.395,1.105,3.829,0.93
		C-10.785-20.92-9.055-20.803-7.358-21.122z"/>
	<path fill="#39B54A" d="M17.157-40.594c1.032,0.817,2.14,1.536,3.06,2.495c0.33,0.343,0.658,0.742,1.255,0.588
		c0.048-0.849-0.817-1.473-0.609-2.384c0.249-0.053,0.475-0.037,0.688,0.018c0.637,0.162,1.15,0.674,1.795,0.76l0,0l0.065-0.042
		c0.049-0.903-0.835-1.028-1.273-1.524c-0.509-0.574-1.785-0.52-1.456-1.785c0.013-0.049-0.093-0.152-0.165-0.194
		c-0.982-0.573-1.896-1.327-3.125-1.304c-1.086,0.021-2.172,0.051-3.461-0.273C14.785-42.627,15.953-41.547,17.157-40.594z"/>
</g>
</svg>
