<?xml version="1.0" encoding="utf-8"?>
<!-- Generator: Adobe Illustrator 16.0.0, SVG Export Plug-In . SVG Version: 6.00 Build 0)  -->
<!DOCTYPE svg PUBLIC "-//W3C//DTD SVG 1.1//EN" "http://www.w3.org/Graphics/SVG/1.1/DTD/svg11.dtd">
<svg version="1.1" id="Layer_1" xmlns="http://www.w3.org/2000/svg" xmlns:xlink="http://www.w3.org/1999/xlink" x="0px" y="0px"
	 width="360px" height="360px" viewBox="0 0 360 360" enable-background="new 0 0 360 360" xml:space="preserve">
<g id="sign">
	<polygon fill="#444444" points="233.5,144.5 233.5,217.5 127.5,217.5 127.5,221.5 235.5,221.5 235.5,144.5 	"/>
	<polygon fill="#848484" stroke="#000000" stroke-miterlimit="10" points="233,143.378 233,141 224,141 224,146.097 
		220.672,145.515 218.232,156.561 216.396,141 125,141 125,218 128.396,218 233,218 	"/>
	<g>
		<path d="M153.305,158.553c-0.07-1.315-0.154-2.896-0.14-4.07h-0.042c-0.322,1.105-0.713,2.28-1.189,3.581l-1.664,4.575h-0.923
			l-1.525-4.49c-0.447-1.329-0.825-2.546-1.091-3.665h-0.028c-0.028,1.175-0.098,2.755-0.182,4.168l-0.251,4.042h-1.161l0.657-9.427
			h1.553l1.609,4.56c0.391,1.161,0.713,2.196,0.951,3.175h0.042c0.238-0.951,0.574-1.986,0.993-3.175l1.678-4.56h1.552l0.588,9.427
			h-1.189L153.305,158.553z"/>
		<path d="M157.988,159.728l-0.979,2.965h-1.259l3.203-9.427h1.469l3.217,9.427h-1.301l-1.007-2.965H157.988z M161.079,158.777
			l-0.923-2.714c-0.21-0.615-0.35-1.175-0.49-1.72h-0.028c-0.14,0.559-0.293,1.132-0.476,1.706l-0.922,2.728H161.079z"/>
		<path d="M171.986,162.274c-0.545,0.196-1.622,0.518-2.895,0.518c-1.427,0-2.602-0.364-3.525-1.245
			c-0.812-0.783-1.314-2.042-1.314-3.511c0.014-2.811,1.944-4.868,5.105-4.868c1.09,0,1.944,0.238,2.35,0.434l-0.294,0.993
			c-0.503-0.223-1.132-0.405-2.084-0.405c-2.293,0-3.791,1.426-3.791,3.791c0,2.392,1.44,3.804,3.637,3.804
			c0.797,0,1.342-0.111,1.622-0.251v-2.812h-1.916v-0.979h3.105V162.274z"/>
		<path d="M175.062,153.266v9.427h-1.218v-9.427H175.062z"/>
		<path d="M183.774,162.386c-0.448,0.224-1.342,0.448-2.489,0.448c-2.658,0-4.658-1.679-4.658-4.771c0-2.951,2-4.951,4.924-4.951
			c1.173,0,1.915,0.251,2.237,0.419l-0.294,0.994c-0.462-0.224-1.118-0.392-1.902-0.392c-2.209,0-3.678,1.413-3.678,3.889
			c0,2.308,1.328,3.791,3.624,3.791c0.74,0,1.495-0.154,1.985-0.392L183.774,162.386z"/>
		<path d="M189.479,154.301h-2.868v-1.035h6.98v1.035h-2.882v8.392h-1.23V154.301z"/>
		<path d="M195.854,153.266v9.427h-1.217v-9.427H195.854z"/>
		<path d="M205.925,158.553c-0.07-1.315-0.155-2.896-0.14-4.07h-0.043c-0.322,1.105-0.713,2.28-1.188,3.581l-1.666,4.575h-0.923
			l-1.524-4.49c-0.448-1.329-0.825-2.546-1.091-3.665h-0.028c-0.028,1.175-0.098,2.755-0.182,4.168l-0.251,4.042h-1.161l0.657-9.427
			h1.553l1.608,4.56c0.392,1.161,0.713,2.196,0.951,3.175h0.041c0.239-0.951,0.574-1.986,0.994-3.175l1.679-4.56h1.553l0.587,9.427
			h-1.189L205.925,158.553z"/>
		<path d="M214.103,158.273h-3.665v3.399h4.085v1.021h-5.302v-9.427h5.092v1.021h-3.875v2.979h3.665V158.273z"/>
		<path d="M160.625,175.333c-0.07-1.314-0.154-2.895-0.14-4.07h-0.042c-0.321,1.105-0.713,2.28-1.189,3.581l-1.665,4.574h-0.923
			l-1.524-4.49c-0.448-1.329-0.825-2.546-1.091-3.665h-0.028c-0.028,1.175-0.098,2.756-0.182,4.168l-0.251,4.042h-1.161l0.658-9.427
			h1.552l1.609,4.561c0.392,1.161,0.713,2.196,0.951,3.174h0.042c0.238-0.951,0.574-1.986,0.993-3.174l1.678-4.561h1.553
			l0.587,9.427h-1.189L160.625,175.333z"/>
		<path d="M165.308,176.508l-0.979,2.965h-1.259l3.203-9.427h1.469l3.217,9.427h-1.3l-1.008-2.965H165.308z M168.399,175.557
			l-0.923-2.714c-0.21-0.615-0.35-1.175-0.489-1.72h-0.028c-0.14,0.56-0.293,1.132-0.476,1.706l-0.923,2.728H168.399z"/>
		<path d="M178.719,179.166c-0.447,0.224-1.343,0.448-2.49,0.448c-2.657,0-4.658-1.679-4.658-4.77c0-2.951,2-4.951,4.924-4.951
			c1.175,0,1.916,0.251,2.238,0.419l-0.294,0.993c-0.462-0.224-1.119-0.392-1.902-0.392c-2.21,0-3.679,1.413-3.679,3.889
			c0,2.308,1.329,3.791,3.623,3.791c0.741,0,1.496-0.153,1.986-0.392L178.719,179.166z"/>
		<path d="M181.459,170.046v3.945h4.56v-3.945h1.231v9.427h-1.231v-4.419h-4.56v4.419h-1.217v-9.427H181.459z"/>
		<path d="M190.575,170.046v9.427h-1.218v-9.427H190.575z"/>
		<path d="M192.7,179.473v-9.427h1.329l3.021,4.77c0.699,1.105,1.244,2.098,1.691,3.063l0.029-0.014
			c-0.112-1.259-0.14-2.406-0.14-3.875v-3.945h1.146v9.427h-1.229l-2.994-4.783c-0.658-1.049-1.287-2.126-1.762-3.147l-0.043,0.014
			c0.07,1.189,0.098,2.322,0.098,3.889v4.028H192.7z"/>
		<path d="M206.782,175.054h-3.664v3.398h4.084v1.021H201.9v-9.427h5.092v1.021h-3.874v2.979h3.664V175.054z"/>
	</g>
	<g>
		<rect x="144.5" y="198.5" fill="#424141" width="57" height="8"/>
		<polygon fill="#424141" points="201.5,189.274 201.5,214.237 213.981,201.756 		"/>
	</g>
</g>
</svg>
