<?xml version="1.0" encoding="utf-8"?>
<!-- Generator: Adobe Illustrator 16.0.2, SVG Export Plug-In . SVG Version: 6.00 Build 0)  -->
<!DOCTYPE svg PUBLIC "-//W3C//DTD SVG 1.1//EN" "http://www.w3.org/Graphics/SVG/1.1/DTD/svg11.dtd">
<svg version="1.1" id="Layer_1" xmlns="http://www.w3.org/2000/svg" xmlns:xlink="http://www.w3.org/1999/xlink" x="0px" y="0px"
	 width="960px" height="560px" viewBox="0 0 960 560" enable-background="new 0 0 960 560" xml:space="preserve">
<g id= 'earth'>
	<path fill="#F5F5F5" d="M154.697,3.186c0,85.414-71.018,154.657-158.625,154.657c-76.443,0-158.623-69.243-158.623-154.657
		c0-85.416,71.02-154.659,158.623-154.659C83.68-151.473,154.697-82.23,154.697,3.186z"/>
	<g id="XMLID_6_">
		<g>
			<path fill="#023349" d="M120.326-50.3l1.006-2.551c0.709,0.276,1.419,0.459,2.171,0.51c3.876-2.724,4.078-9,5.295-14.285
				c3.813,3.132,5.349-3.796,7.414,1.02c2.722-0.245-1.461-1.755,0-4.081c4.936,2.377,7.859,6.704,10.591,11.213
				c4.661-5.041-4.681-12.224-4.279-17.989c0.011-0.123,0.021-0.245,0.042-0.367c9.31,15.866,15.665,28.203,16.925,48.701
				c-0.011,0-0.032,0.021-0.042,0.031c-0.794-3.265-1.017-5.122-4.173-7.918c-2.965,1,1.536,2.725-1.059,4.071
				c-5.094-3.918-12.169-5.959-11.65-15.295C137.272-54.321,125.611-46.005,120.326-50.3z"/>
			<path fill="#64FF81" d="M113.971-56.433c-0.021-4.092-3.05-10.602-1.059-13.254c3.411,0.459,5.73,1.959,9.532,2.041
				c0.72-7.153-5.2-7.918-7.414-12.244c4.904-0.368,8.24-4.214,6.354-8.163c4.639,2.521,9.098-4.377,11.651-1.02l1.197,1.234
				c-0.138,0.112-0.191,0.377-0.138,0.806c0.508-0.347,0.858-0.541,1.102-0.602c0.138,0.082,0.286,0.184,0.445,0.306
				c-0.063,0.918-1.525,3.357-0.487,3.357c2.521-0.969,6.344,6.051,6.355,8.163c0.063-0.224,0.116-0.459,0.127-0.714l0.89,0.061
				c-0.402,5.765,8.939,12.948,4.279,17.989c-2.732-4.51-5.656-8.836-10.591-11.213c-1.461,2.326,2.722,3.836,0,4.081
				c-2.065-4.816-3.601,2.112-7.414-1.02c-1.218,5.285-1.419,11.561-5.295,14.285c-0.752-0.051-1.462-0.234-2.171-0.51
				C119.214-53.667,117.117-55.29,113.971-56.433z"/>
			<path d="M141.509-75.81c-0.011-2.112-3.834-9.132-6.355-8.163c-1.038,0,0.424-2.438,0.487-3.357
				c2.298,1.826,6.27,7.408,5.995,10.806C141.625-76.269,141.572-76.034,141.509-75.81z"/>
			<path fill="#64FF81" d="M112.912,21.114C101.526,9.554,97.734-4.875,100.202-22.751c1.885-9.52,16.364-10.806,13.769-21.438
				c1.886-2.255,5.285-3.051,6.355-6.112c5.285,4.295,16.946-4.021,22.242,3.061c-0.519,9.336,6.556,11.377,11.65,15.295
				c2.595-1.347-1.906-3.071,1.059-4.071c3.156,2.796,3.379,4.653,4.173,7.918c-2.489,2.123-0.625,4.49-2.055,8.397
				c1.822,0.408,2.711-1.5,3.177,0c-3.061,0.449,0.943,7.724-2.118,8.173c1.208-2.092-1.663-4.867-2.118-2.041
				c3.876,1.857-2.171,7.959,1.059,9.183c0.159-1.214-0.191-2.897,1.059-3.061c2.997,7.857-5.561,9.153,1.059,13.265
				c-6.535-3.132-3.866,8.541-6.355,14.285c-0.688,1.561-4.692,2.836-5.295,4.082c-2.532,5.153,1.123,8.397-1.06,11.224
				c-0.169-1.204,0.18-2.898-1.059-3.061c-0.159,4.306-4.226,10.173-6.354,9.183c-0.254-6.673,6.63-9.704,3.177-16.326
				c-5.624,1.673-5.19-2.5-6.355-5.102C127.602,21.645,120.029,19.737,112.912,21.114z"/>
			<path d="M135.196-87.635c0.339-0.112,0.456,0.031,0.445,0.306C135.482-87.452,135.334-87.554,135.196-87.635z"/>
			<path d="M134.232-87.839c0.19-0.163,0.529-0.082,0.964,0.204c-0.244,0.061-0.593,0.255-1.102,0.602
				C134.042-87.462,134.095-87.727,134.232-87.839z"/>
			<path fill="#64FF81" d="M113.971-100.298c-2.192-4.612-6.27-10.816-6.354-14.285c1.8,0.072,10.666,11.459,15.887,17.346
				C120.972-95.186,118.864-104.196,113.971-100.298z"/>
			<path fill="#64FF81" d="M113.971-86.013c-3.304-5.663-7.488-10.469-10.591-16.326c5.243,4.469,8.992,10.387,13.769,15.305
				c1.08,3.428-3.294,1.592-5.296,2.041C111.874-85.982,113.145-85.789,113.971-86.013z"/>
			<path fill="#64FF81" d="M107.616-89.074c-4.343,0.775-3.654-3.286-4.237-6.123c1.059,0,2.118,0,3.178,0
				C105.784-92.074,107.637-91.482,107.616-89.074z"/>
			<path fill="#FFFFFF" d="M84.315-119.685c-1.546,4.51-5.635,0.255-7.414-1.021C78.532-123.511,83.256-120.807,84.315-119.685z"/>
			<path fill="#FFFFFF" d="M78.479-130.909c-5.889,2.357-13.769,3.429-22.284,4.082c-2.076,2.765-5.54,4.622-6.366,8.163
				c-9.649-3-18.037-6.816-19.107-15.306c3.633,0.286,5.995-0.245,6.365-2.041c-3.717-5.102-3.432-12.765-15.908-12.244
				C48.791-156.152,68.354-140.306,78.479-130.909z"/>
			<path fill="#64FF81" d="M20.766-102.338c1.716-2.082,1.536-6,5.296-6.122c-4.915,2.693,2.786,5.397,5.295,7.142
				C29.197-98.981,25.013-103.318,20.766-102.338z"/>
			<path fill="#FFFFFF" d="M14.411-147.234c11.428-1.633,3.379,8.479,14.828,10.203c-0.244,1.47-3.167,0.357-3.177,2.041
				c-1.419-1.021-2.086-2.755-4.237-3.061c1.525,5.856-5.995,1.816-4.236,5.102c-2.394,2.888-5.423-2.194-6.355-4.082
				C14.771-136.949,24.696-144.571,14.411-147.234z"/>
			<path fill="#FFFFFF" d="M-1.476-145.193c1.833,0.123-5.126,2.204-8.473,1.021c-1.175-0.418,8.749-1.725,5.296-3.061
				C0.145-147.989-6.274-144.428-1.476-145.193z"/>
			<path fill="#64FF81" d="M-27.955-51.331c-1.398,1.938-8.483,0.765-8.473-2.03C-32.011-54.219-31.428-51.382-27.955-51.331z"/>
			<path fill="#64FF81" d="M-41.723-58.474c-0.975,2.796-3.315-1.418-6.355,0c-0.413-4.357-4.003-5.653-6.355-8.152
				C-53.596-68.503-46.044-59.963-41.723-58.474z"/>
			<path d="M-67.153-12.547l0.011-0.01L-67.153-12.547z"/>
			<path d="M-67.153-12.547c-1.991,2.571-3.707-0.939-6.344,1.021c0.307-2.082,2.118-2.714,3.177-4.082
				C-67.789-16.017-70.903-10.976-67.153-12.547z"/>
			<path fill="#64FF81" d="M-17.363-127.847c0.508,3.214-3.252,2.306-2.119,6.122c0.201,0.826,1.059,1.02,1.059,2.041
				c5.826-3.561,14.828-4.071,15.887-12.244c3.39,0.888,3.305-1.571,4.237-3.061c4.543-0.296,6.99,1.418,9.532,3.061
				c-3.241,4.908,2.923,7.632,7.414,5.102c-2.436,7.397,7.351,10,1.059,13.265c0.042,1.592,8.643-2.418,7.414,3.061
				c-8.854,4.143-22.475-4.336-33.893,2.041c3.612,2.418,8.6-2.562,14.828-1.021c-4.067,3.959-2.966,0.918-2.119,8.163
				c-13.387-3.214-21.988,5.786-32.833,4.082c-3.442,12.367-23.714,6.255-24.36,24.489c-2.415-1.418-0.402-7.102-1.059-10.204
				c-4.734-4.653-11.185-5.734-18.005-6.122c0.424-3.449,4.099,2.714,3.178-2.041c-0.127-2.898-7.372,0.786-4.237,1.021
				c-3.982,1.724-0.583-4.52,4.237-3.061c0.455-3.51-0.424-5.714-1.06-8.163c2.436-0.316,1.176,2.949,3.178,3.061
				c1.218-7.673,11.237-12.285,9.532-19.387c4.194-0.367,3.453-0.775,4.236-5.102c6.418,2.071,11.28-4.265,12.71-10.204
				c3.347-1.225,8.335-1.479,9.532-2.041C-31.058-141.214-21.43-128.766-17.363-127.847z"/>
			<path fill="#64FF81" d="M-69.261-52.341c-0.021,2.031-2.891,1.286-2.118,4.082c-1.038-0.031-0.826-1.255-1.059-2.041
				c-0.847,3.52-2.722,7.102,1.059,11.213c-2.298,3.133-1.695-5.081-5.296-4.071c3.898-2.551-0.836-7.806,3.178-9.183
				c-0.9-1.52-3.411-1.479-5.296-2.041c0.011-1.561,2.892-3.367,2.118,0C-73.985-56.851-71.517-53.361-69.261-52.341z"/>
			<path fill="#023349" d="M107.616-114.583c0.084,3.469,4.162,9.673,6.354,14.285c4.894-3.898,7.001,5.112,9.533,3.061
				C118.282-103.124,109.417-114.511,107.616-114.583z M103.379-102.338c3.104,5.856,7.287,10.663,10.591,16.326
				c-0.826,0.224-2.097,0.03-2.118,1.02c2.002-0.449,6.376,1.388,5.296-2.041C112.372-91.951,108.622-97.87,103.379-102.338z
				 M106.557-95.196c-1.06,0-2.119,0-3.178,0c0.583,2.837-0.106,6.898,4.237,6.123C107.637-91.482,105.784-92.074,106.557-95.196z
				 M78.479-130.909c-10.125-9.397-29.688-25.243-57.3-17.346c12.477-0.521,12.191,7.143,15.908,12.244
				c-0.371,1.796-2.732,2.327-6.365,2.041c1.07,8.49,9.458,12.306,19.107,15.306c0.826-3.541,4.29-5.398,6.366-8.163
				C64.71-127.48,72.59-128.551,78.479-130.909z M26.062-108.46c-3.76,0.122-3.58,4.041-5.296,6.122
				c4.247-0.979,8.431,3.357,10.591,1.02C28.848-103.063,21.147-105.767,26.062-108.46z M14.411-147.234
				c10.285,2.663,0.36,10.285-3.177,10.203c0.932,1.888,3.961,6.969,6.355,4.082c-1.758-3.286,5.762,0.755,4.236-5.102
				c2.15,0.306,2.817,2.041,4.237,3.061c0.011-1.684,2.934-0.571,3.177-2.041C17.79-138.755,25.839-148.867,14.411-147.234z
				 M-76.675-66.626c-2.012,0.204-7.022,2.632-4.236,4.081c3.516-2.03-3.919,4.143,1.059,4.071
				C-75.436-64.32-79.355-62.167-76.675-66.626z M-71.379-48.26c-0.773-2.796,2.097-2.051,2.118-4.082
				c-2.256-1.02-4.724-4.51-7.414-2.041c0.773-3.367-2.107-1.561-2.118,0c1.885,0.561,4.396,0.521,5.296,2.041
				c-4.014,1.377,0.72,6.632-3.178,9.183c3.601-1.01,2.998,7.204,5.296,4.071c-3.781-4.112-1.906-7.693-1.059-11.213
				C-72.206-49.515-72.417-48.291-71.379-48.26z M-48.078-58.474c3.04-1.418,5.38,2.796,6.355,0
				c-4.321-1.49-11.873-10.03-12.71-8.152C-52.082-64.126-48.491-62.831-48.078-58.474z M-36.428-53.361
				c-0.01,2.795,7.075,3.969,8.473,2.03C-31.428-51.382-32.011-54.219-36.428-53.361z M-2.535-131.929
				c-1.059,8.173-10.062,8.683-15.887,12.244c0-1.021-0.858-1.214-1.059-2.041c-1.133-3.816,2.627-2.908,2.119-6.122
				c-4.067-0.918-13.695-13.367-11.651-7.143c-1.197,0.561-6.186,0.816-9.532,2.041c-1.43,5.938-6.292,12.275-12.71,10.204
				c-0.784,4.326-0.042,4.734-4.236,5.102c1.705,7.102-8.314,11.714-9.532,19.387c-2.002-0.112-0.742-3.377-3.178-3.061
				c0.636,2.449,1.515,4.653,1.06,8.163c-4.819-1.459-8.219,4.785-4.237,3.061c-3.135-0.235,4.109-3.918,4.237-1.021
				c0.921,4.755-2.754-1.408-3.178,2.041c6.821,0.388,13.271,1.469,18.005,6.122c0.657,3.102-1.355,8.785,1.059,10.204
				c0.646-18.234,20.918-12.122,24.36-24.489c10.846,1.704,19.446-7.295,32.833-4.082c-0.847-7.244-1.949-4.204,2.119-8.163
				c-6.228-1.541-11.216,3.438-14.828,1.021c11.417-6.377,25.038,2.102,33.893-2.041c1.229-5.479-7.372-1.469-7.414-3.061
				c6.292-3.265-3.495-5.867-1.059-13.265c-4.491,2.531-10.655-0.194-7.414-5.102c-2.542-1.643-4.989-3.357-9.532-3.061
				C0.77-133.5,0.854-131.041-2.535-131.929z M9.116,152.75c-19.012-2.806-26.098,2.245-41.307-9.234
				c0.392-5.816-16.639-17.254-21.183-18.325c0.964-1.775,1.97-3.531,5.296-3.051c-2.171-2.357-8.399,0.021-6.355,5.102
				c-1.398-0.367-1.673-1.796-3.177-2.051c1.186,1.479,1.133,2.5-1.059,3.071c2.987,3.663,4.13-0.684,6.354,1.02
				c-7.202,2.877-23.354,4.694-30.715,1.01c-2.977,0.021,2.521,2.796-2.119,2.051c-49.928-29.131-82.677-81.026-77.317-147.951
				c6.09-76.261,69.363-135.615,148.28-141.829c11.852-0.929,25.907-0.123,37.07,1.02c26.881,2.765,66.652,18.183,78.377,31.631
				c0.9,1.03-0.201,2.908,0,3.061c2.553,1.99,7.943,2.582,11.65,6.122c6.418,6.143,15.982,17.162,16.946,24.488
				c1.334-1.622,5.614,0.031,3.178,2.041c-2.553-3.357-7.012,3.541-11.651,1.02c1.885,3.949-1.451,7.795-6.354,8.163
				c2.213,4.326,8.134,5.091,7.414,12.244c-3.802-0.082-6.122-1.582-9.532-2.041c-1.991,2.653,1.038,9.163,1.059,13.254
				c3.146,1.143,5.243,2.765,7.361,3.581l-1.006,2.551c-1.07,3.061-4.469,3.857-6.355,6.112
				c2.595,10.632-11.883,11.917-13.769,21.438c-2.468,17.876,1.324,32.305,12.709,43.865c7.118-1.377,14.69,0.53,23.301-1.01
				c1.165,2.602,0.731,6.775,6.355,5.102c3.453,6.622-3.432,9.653-3.177,16.326c2.128,0.99,6.196-4.877,6.354-9.183
				c1.239,0.163,0.89,1.857,1.059,3.061c2.182-2.826-1.472-6.071,1.06-11.224c0.604-1.245,4.607-2.521,5.295-4.082
				c2.489-5.745-0.18-17.417,6.355-14.285c-6.62-4.112,1.938-5.408-1.059-13.265c-1.25,0.164-0.9,1.847-1.059,3.061
				c-3.23-1.224,2.817-7.326-1.059-9.183c0.455-2.826,3.326-0.051,2.118,2.041c3.061-0.449-0.943-7.724,2.118-8.173
				c-0.466-1.5-1.355,0.408-3.177,0c1.43-3.908-0.435-6.275,2.055-8.397c0.021,0.082,0.042,0.164,0.063,0.245
				c-0.011-0.092-0.011-0.184-0.021-0.276c0.296-0.255,0.656-0.5,1.08-0.745c16.417,94.566-51.496,175.001-134.511,183.664
				C19.379,155.484,14.591,153.546,9.116,152.75z M-9.949-144.173c3.347,1.184,10.306-0.898,8.473-1.021
				c-4.798,0.765,1.621-2.796-3.177-2.041C-1.201-145.897-11.125-144.591-9.949-144.173z M-80.287-30.169
				c7.414,12.306-11.735,17.795-14.923,27.438c2.859-0.429,1.377,3.959,3.728,4.102c0.265-1.53,1.388-2.143,2.489-2.734
				c1.038,2.959,3.22,4.673,2.489,9.602c-1.472,0.225-3.527-0.235-3.728,1.367c1.44,0.225,1.345,2.173,1.239,4.122
				c2.595,4.592,4.661-5.306,6.217-1.377c4.279,7.571-5.751,10.897-1.239,17.826c1.843-4.01-1.409-5.082,2.489-6.847
				c0.529,2.602,2.669,3.429,2.479,6.847c-7.425,2.031,8.547,8.581,0,12.356c10.273,2.367-1.166-11.111,6.217-12.356
				c0.127,5.632,0.244,11.254-1.239,15.101c7.583,3.99,17.423,11.204,16.163,20.57c4.025,1.704,0.954-4.438,4.978-2.745
				c1.303,5.734-2.626,9.306,0,12.346c4.724,2.01,0.233-6.132,4.978-4.112c0.784,2.347,3.75,2.255,4.967,4.112
				c-0.106,2.173-3.167,1.072-2.489,4.102c6.058-2.918,8.886,5.643,14.923,6.867c1.833,6.152-3.644,4.214-2.479,9.611
				c5.762-4.143,13.451-2.367,17.402,2.725c1.387-4.775,16.215-1.888,24.869-2.725c3.601-8.102,16.522-12.652,13.684-23.325
				c7.128-5.397,18.165-6.469,21.141-16.458c-5.349-10.571-13.229-18.336-26.119-20.57c-1.525-12.989-13.102-6-18.651-9.602
				c3.294-0.021,7.329,0.765,7.467-2.745c-2.457,0.408-2.478-1.857-3.739-2.755c-3.675,4.051-4.649,2.929-8.695,5.5
				c4.649-5.123-5.804-0.582-6.217-4.123c7.478,2.582,9.649-5.836,13.673-2.745C5.398-2.181-14.059-3.793-21.843-8.221
				c0.063-1.755,1.6-1.898,1.25-4.112c-2.246-3.5-7.764-3.336-11.195-5.49c2.203-0.316,6.217,1.388,4.978-2.745
				c-4.883,2.163-2.574-3.571-4.978-4.112c-8.293,3.153-14.563-7.694-23.629-8.234c-0.212,2.061,0.434,5.061-1.239,5.489
				c-2.14,0.062-3.199-1.061-3.728-2.745c2.965-3.438,0.529-4.336,3.728-6.857C-68.16-37.689-74.229-27.669-80.287-30.169z
				 M76.901-120.705c1.779,1.275,5.868,5.53,7.414,1.021C83.256-120.807,78.532-123.511,76.901-120.705z"/>
			<path fill="#64FF81" d="M-80.912-62.545c-2.786-1.449,2.224-3.877,4.236-4.081c-2.68,4.459,1.239,2.306-3.177,8.152
				C-84.831-58.402-77.396-64.575-80.912-62.545z"/>
			<path fill="#64FF81" d="M-73.498-11.527c2.637-1.959,4.353,1.551,6.344-1.021l0.011-0.01l-0.011,0.01
				c-3.75,1.571-0.636-3.469-3.167-3.061C-71.379-14.241-73.19-13.608-73.498-11.527z M-95.21-2.731
				c3.188-9.643,22.337-15.132,14.923-27.438c6.058,2.5,12.127-7.52,23.629-6.857c-3.199,2.521-0.763,3.418-3.728,6.857
				c0.529,1.684,1.588,2.806,3.728,2.745c1.673-0.428,1.027-3.428,1.239-5.489c9.066,0.541,15.336,11.387,23.629,8.234
				c2.404,0.541,0.095,6.275,4.978,4.112c1.239,4.132-2.775,2.428-4.978,2.745c3.432,2.153,8.95,1.99,11.195,5.49
				c0.35,2.214-1.187,2.357-1.25,4.112c7.785,4.428,27.241,6.041,23.629,27.427c-4.024-3.092-6.196,5.326-13.673,2.745
				c0.413,3.541,10.867-1,6.217,4.123c4.046-2.571,5.02-1.449,8.695-5.5c1.261,0.898,1.282,3.163,3.739,2.755
				c-0.138,3.51-4.173,2.725-7.467,2.745c5.55,3.602,17.126-3.388,18.651,9.602c12.89,2.234,20.77,9.999,26.119,20.57
				c-2.976,9.989-14.013,11.061-21.141,16.458c2.838,10.673-10.083,15.224-13.684,23.325c-8.653,0.837-23.481-2.051-24.869,2.725
				c-3.951-5.092-11.64-6.867-17.402-2.725c-1.165-5.397,4.311-3.459,2.479-9.611c-6.037-1.225-8.865-9.786-14.923-6.867
				c-0.678-3.03,2.383-1.929,2.489-4.102c-1.218-1.857-4.184-1.765-4.967-4.112c-4.745-2.021-0.254,6.122-4.978,4.112
				c-2.626-3.041,1.303-6.612,0-12.346c-4.024-1.694-0.953,4.449-4.978,2.745c1.261-9.367-8.579-16.581-16.163-20.57
				c1.483-3.847,1.367-9.469,1.239-15.101c-7.382,1.245,4.057,14.724-6.217,12.356c8.547-3.775-7.425-10.326,0-12.356
				c0.19-3.418-1.949-4.245-2.479-6.847c-3.898,1.765-0.646,2.837-2.489,6.847c-4.512-6.928,5.518-10.254,1.239-17.826
				c-1.557-3.928-3.622,5.969-6.217,1.377c0.106-1.949,0.202-3.897-1.239-4.122c0.201-1.602,2.256-1.143,3.728-1.367
				c0.731-4.928-1.451-6.643-2.489-9.602c-1.101,0.592-2.224,1.204-2.489,2.734C-93.833,1.228-92.351-3.16-95.21-2.731z"/>
		</g>
		<g>
		</g>
	</g>
</g>
</svg>
