<?xml version="1.0" encoding="utf-8"?>
<!-- Generator: Adobe Illustrator 16.0.2, SVG Export Plug-In . SVG Version: 6.00 Build 0)  -->
<!DOCTYPE svg PUBLIC "-//W3C//DTD SVG 1.1//EN" "http://www.w3.org/Graphics/SVG/1.1/DTD/svg11.dtd">
<svg version="1.1" id="Layer_1" xmlns="http://www.w3.org/2000/svg" xmlns:xlink="http://www.w3.org/1999/xlink" x="0px" y="0px"
	 width="960px" height="560px" viewBox="0 0 960 560" enable-background="new 0 0 960 560" xml:space="preserve">
<g>
	<g>
		<path fill="#2B0606" d="M41.973-28.464l-29,0.089c-0.22-6.6-4.03-10.188-10.631-10.168l-17.599,0.054l0.073,23.999
			c7.991-3.024,14.787-4.245,21.786-4.267c13.4-0.04,25.817,5.522,32.445,14.502c5.019,6.584,7.043,14.578,7.087,28.978
			c0.05,16.6-1.924,25.206-7.302,32.222c-7.171,9.422-20.955,14.664-38.755,14.718c-16.399,0.05-28.609-3.113-45.835-11.66
			l-0.105-34.6l30.799-0.094c0.017,5.4,0.226,8.6,0.833,10.798c1.616,5.194,7.427,8.978,13.627,8.958
			c5.4-0.016,9.992-2.43,12.379-6.837c1.393-2.604,1.98-6.206,1.961-13.006c-0.027-9-0.641-12.998-2.648-15.792
			C8.678,6.237,4.473,4.25-0.328,4.265c-4.8,0.015-8.993,2.227-12.181,6.236l-33.399,0.102l-0.228-74.798l87.999-0.268
			L41.973-28.464z"/>
	</g>
	<g>
		<g>
			<path fill="#9B040C" d="M41.973-32.064l-29,0.089c-0.22-6.6-4.03-10.188-10.631-10.168l-17.599,0.054l0.073,23.999
				c7.991-3.024,14.787-4.245,21.786-4.267c13.4-0.04,25.817,5.522,32.445,14.502c5.019,6.584,7.043,14.578,7.087,28.978
				c0.05,16.6-1.924,25.206-7.302,32.222c-7.171,9.422-20.955,14.664-38.755,14.718c-16.399,0.05-28.609-3.113-45.835-11.66
				l-0.105-34.6l30.799-0.094c0.017,5.4,0.226,8.6,0.833,10.798c1.616,5.194,7.427,8.978,13.627,8.958
				c5.4-0.016,9.992-2.43,12.379-6.837c1.393-2.604,1.98-6.206,1.961-13.006c-0.027-9-0.641-12.998-2.648-15.792
				C8.678,2.637,4.473,0.65-0.328,0.665c-4.8,0.015-8.993,2.227-12.181,6.236l-33.399,0.102l-0.228-74.798l87.999-0.268
				L41.973-32.064z"/>
		</g>
	</g>
</g>
</svg>
