<?xml version="1.0" encoding="utf-8"?>
<!-- Generator: Adobe Illustrator 16.0.2, SVG Export Plug-In . SVG Version: 6.00 Build 0)  -->
<!DOCTYPE svg PUBLIC "-//W3C//DTD SVG 1.1//EN" "http://www.w3.org/Graphics/SVG/1.1/DTD/svg11.dtd">
<svg version="1.1" id="Layer_1" xmlns="http://www.w3.org/2000/svg" xmlns:xlink="http://www.w3.org/1999/xlink" x="0px" y="0px"
	 width="960px" height="560px" viewBox="500 0 960 560" enable-background="new 0 0 960 560" xml:space="preserve">
<g id= "missionfailed">
	<g>
		<path fill="#2B0606" d="M-220.485,129.484c1.586-1.364,1.694-2.504,0.603-4.726l-0.43-0.875l-10.484-21.337l-0.429-0.876
			c-1.125-2.288-2.06-2.831-4.109-2.409l-3.604-7.337l16.962-8.334l15.599,18.824l-5.3-23.884l16.155-7.938l3.604,7.337
			c-1.518,1.331-1.694,2.504-0.603,4.725l0.43,0.875l10.483,21.338l0.43,0.875c1.192,2.256,2.06,2.832,4.109,2.41l3.604,7.337
			l-15.011,7.374l-3.605-7.336c1.586-1.364,1.695-2.504,0.604-4.725l-0.43-0.875l-8.664-17.637l6.846,33.152l-4.915,2.414
			l-21.789-25.81l8.664,17.635l0.43,0.876c1.125,2.289,2.127,2.799,4.109,2.409l3.604,7.337l-13.26,6.516L-220.485,129.484z"/>
		<path fill="#2B0606" d="M-170.942,105.142c1.586-1.364,1.695-2.504,0.603-4.726l-0.43-0.875l-10.483-21.337l-0.429-0.876
			c-1.125-2.287-2.06-2.83-4.076-2.342l-3.638-7.404l15.011-7.375l3.638,7.404c-1.552,1.264-1.728,2.438-0.637,4.658l0.43,0.875
			l10.484,21.338l0.43,0.875c1.191,2.255,2.127,2.798,4.108,2.409l3.605,7.337l-15.011,7.375L-170.942,105.142z"/>
		<path fill="#2B0606" d="M-130.458,56.925l-9.961,4.894l-0.232-0.471l-0.132-0.27l-0.663-1.178
			c-1.42-3.063-4.198-3.954-7.228-2.465c-2.759,1.355-3.919,4.098-2.761,6.453c0.992,2.02,3.101,2.57,7.665,2.166l5.102-0.5
			c9.499-0.907,13.812,1.068,17.152,7.866c4.333,8.818,1.122,17.08-8.436,21.776c-5.452,2.68-11.261,3.443-17.793,2.393
			l-5.589-11.377l10.299-5.06l0.264,0.538c1.157,2.356,1.821,3.367,2.755,4.078c1.467,1.117,3.613,1.232,5.632,0.24
			c2.895-1.422,3.888-4.333,2.532-7.093c-1.389-2.827-3.33-3.377-10.613-2.724c-5.067,0.4-6.108,0.494-7.985,0.414
			c-5.098-0.17-8.703-2.576-11.117-7.49c-4.101-8.347-0.794-16.07,8.899-20.833c5.317-2.612,11.795-3.372,16.985-1.995
			L-130.458,56.925z"/>
		<path fill="#2B0606" d="M-92.695,38.372l-9.962,4.895l-0.231-0.472l-0.132-0.27l-0.663-1.179
			c-1.421-3.062-4.199-3.953-7.228-2.465c-2.76,1.355-3.919,4.099-2.762,6.455c0.992,2.019,3.101,2.57,7.666,2.166l5.102-0.501
			c9.498-0.907,13.812,1.067,17.151,7.866c4.333,8.818,1.122,17.081-8.436,21.777c-5.453,2.678-11.261,3.442-17.794,2.391
			l-5.588-11.375l10.298-5.061l0.266,0.539c1.157,2.355,1.82,3.366,2.755,4.077c1.467,1.117,3.613,1.232,5.632,0.241
			c2.895-1.423,3.888-4.334,2.532-7.094c-1.39-2.826-3.331-3.377-10.614-2.724c-5.067,0.401-6.107,0.494-7.986,0.414
			c-5.096-0.169-8.702-2.576-11.117-7.489c-4.101-8.348-0.793-16.071,8.899-20.834c5.318-2.613,11.797-3.373,16.986-1.995
			L-92.695,38.372z"/>
		<path fill="#2B0606" d="M-74.213,57.618c1.585-1.365,1.694-2.504,0.602-4.726l-0.43-0.876l-10.483-21.337l-0.429-0.875
			c-1.125-2.288-2.06-2.831-4.075-2.343l-3.638-7.404l15.01-7.374l3.638,7.403c-1.552,1.265-1.727,2.438-0.637,4.658l0.43,0.875
			l10.484,21.338l0.43,0.875c1.191,2.255,2.127,2.799,4.108,2.41l3.605,7.337l-15.01,7.374L-74.213,57.618z"/>
		<path fill="#2B0606" d="M-23.53,28.288c1.984,4.206,2.231,7.092,0.699,10.268c-1.735,3.611-4.874,6.406-10.057,8.953
			c-5.183,2.546-9.549,3.354-13.3,2.523c-3.482-0.797-5.648-2.824-7.632-6.863l-11.344-23.088c-2.05-4.173-2.232-7.092-0.734-10.167
			c1.703-3.678,4.909-6.506,10.091-9.053s9.481-3.321,13.266-2.423c3.483,0.795,5.683,2.723,7.668,6.762L-23.53,28.288z
			 M-45.176,34.744c1.158,2.356,1.69,3.098,2.826,3.709c1.503,0.849,3.381,0.929,5.063,0.103c1.683-0.826,2.834-2.395,3.014-4.071
			c0.21-1.272-0.052-2.146-1.11-4.3l-8.136-16.559c-1.157-2.356-1.688-3.098-2.825-3.709c-1.503-0.85-3.449-0.897-5.064-0.104
			c-1.683,0.826-2.833,2.396-3.013,4.072c-0.21,1.272,0.052,2.146,1.144,4.367L-45.176,34.744z"/>
		<path fill="#2B0606" d="M-14.709,28.381c1.586-1.364,1.695-2.504,0.604-4.725l-0.43-0.875L-25.02,1.444l-0.43-0.875
			c-1.125-2.289-2.059-2.832-4.107-2.41l-3.605-7.336l11.779-5.788l22.887,17.5L-4.085-8.841l-0.43-0.875
			c-1.192-2.255-2.127-2.798-4.109-2.409l-3.604-7.337l14.27-7.011l3.604,7.337c-1.585,1.364-1.693,2.504-0.603,4.725l0.43,0.875
			L21.744,19.58l-9.423,4.63l-23.22-17.838l5.788,11.779l0.43,0.875c1.191,2.256,2.127,2.8,4.108,2.41l3.605,7.338l-14.135,6.944
			L-14.709,28.381z"/>
		<path fill="#2B0606" d="M42.507,0.27c1.585-1.364,1.694-2.503,0.604-4.725L42.68-5.33L32.197-26.667l-0.431-0.875
			c-1.124-2.289-2.06-2.832-4.075-2.343l-3.638-7.404l30.896-15.18l6.813,13.866l-9.087,4.465c-0.099-0.202-0.165-0.336-0.231-0.471
			c-1.719-3.5-3.359-3.948-7.265-2.029l-4.105,2.017l4.332,8.818l11.779-5.788l3.771,7.674L49.176-18.13l3.802,7.74l0.431,0.875
			c1.191,2.256,2.127,2.799,4.108,2.41l3.604,7.337l-15.01,7.375L42.507,0.27z"/>
		<path fill="#2B0606" d="M102.545-34.158c1.995,2.529,2.729,3.004,4.51,2.714l3.604,7.337L95.38-16.6l-3.604-7.336
			c1.447-0.795,1.992-1.898,1.331-3.244c-0.101-0.202-0.2-0.237-0.732-0.979l-0.199-0.235l-1.263-1.72l-8.683,4.267l0.521,2.083
			c0.131,0.437,0.396,1.143,0.561,1.479c0.629,1.279,1.834,1.522,3.482,0.795l3.605,7.337L76.667-7.406l-3.604-7.337
			c1.249-1.199,1.357-2.339,0.508-5.598L63.763-56.8l15.414-7.574L102.545-34.158z M75.917-49.068l4.349,16.163l6.126-3.009
			L75.917-49.068z"/>
		<path fill="#2B0606" d="M111.903-33.826c1.586-1.364,1.693-2.503,0.604-4.724l-0.431-0.875l-10.483-21.337l-0.431-0.875
			c-1.124-2.289-2.059-2.832-4.075-2.343l-3.638-7.404l15.011-7.375l3.638,7.404c-1.551,1.264-1.728,2.437-0.636,4.657l0.429,0.875
			l10.483,21.337l0.431,0.875c1.192,2.255,2.128,2.798,4.109,2.41l3.604,7.337l-15.011,7.375L111.903-33.826z"/>
		<path fill="#2B0606" d="M133.106-44.244c1.587-1.364,1.695-2.504,0.604-4.725l-0.43-0.875l-10.484-21.337l-0.43-0.875
			c-1.125-2.288-2.06-2.832-4.075-2.343l-3.639-7.404l15.011-7.375l3.638,7.403c-1.551,1.264-1.728,2.437-0.637,4.658l0.431,0.875
			l11.938,24.299l4.174-2.05c3.365-1.653,4.014-3.226,2.625-6.052l-0.563-1.145l-3.207-6.528l9.153-4.498l9.988,20.328
			L136.71-36.907L133.106-44.244z"/>
		<path fill="#2B0606" d="M169.253-62.003c1.586-1.364,1.694-2.503,0.603-4.725l-0.43-0.875L158.942-88.94l-0.429-0.875
			c-1.125-2.289-2.061-2.832-4.075-2.343l-3.639-7.404l31.771-15.609l6.813,13.866l-9.692,4.762
			c-0.065-0.134-0.099-0.202-0.166-0.337c-1.686-3.432-3.391-4.182-6.487-2.661l-0.809,0.397l-4.441,2.183l4.432,9.019l12.519-6.151
			l3.738,7.606l-12.521,6.151l5.226,10.636l4.308-2.117l0.943-0.463c3.096-1.521,3.609-3.027,1.989-6.493
			c-0.628-1.279-0.727-1.48-0.859-1.75l9.692-4.762l7.375,15.011l-31.771,15.609L169.253-62.003z"/>
		<path fill="#2B0606" d="M189.168-118.414l16.288-8.003l1.348-0.661c5.351-2.545,8.675-3.093,12.289-2.028
			c4.117,1.236,6.748,3.871,9.494,9.458l0.693,1.413l6.35,12.923l0.661,1.347c2.911,5.923,3.323,9.314,1.719,13.361
			c-1.501,3.578-3.898,5.842-9.147,8.422l-1.347,0.662l-16.289,8.003l-3.604-7.337c1.586-1.364,1.694-2.504,0.603-4.725l-0.43-0.875
			l-10.483-21.337l-0.431-0.875c-1.124-2.288-2.059-2.832-4.075-2.343L189.168-118.414z M219.548-88.553l2.827-1.388l1.011-0.497
			c3.736-1.918,4.758-4.091,3.269-7.121l-0.728-1.481l-7.573-15.415l-0.728-1.48c-1.588-3.063-3.865-3.616-7.635-1.764l-1.01,0.496
			l-2.827,1.389L219.548-88.553z"/>
	</g>
	<g>
		<g>
			<path fill="#9B040C" d="M-220.485,125.884c1.586-1.364,1.694-2.504,0.603-4.726l-0.43-0.875l-10.484-21.337l-0.429-0.876
				c-1.125-2.288-2.06-2.831-4.109-2.409l-3.604-7.337l16.962-8.334l15.599,18.824l-5.3-23.884l16.155-7.938l3.604,7.337
				c-1.518,1.331-1.694,2.504-0.603,4.725l0.43,0.875l10.483,21.338l0.43,0.875c1.192,2.256,2.06,2.832,4.109,2.41l3.604,7.337
				l-15.011,7.374l-3.605-7.336c1.586-1.364,1.695-2.504,0.604-4.725l-0.43-0.875l-8.664-17.637l6.846,33.152l-4.915,2.414
				l-21.789-25.81l8.664,17.635l0.43,0.876c1.125,2.289,2.127,2.799,4.109,2.409l3.604,7.337l-13.26,6.516L-220.485,125.884z"/>
			<path fill="#9B040C" d="M-170.942,101.542c1.586-1.364,1.695-2.504,0.603-4.726l-0.43-0.875l-10.483-21.337l-0.429-0.876
				c-1.125-2.287-2.06-2.83-4.076-2.342l-3.638-7.404l15.011-7.375l3.638,7.404c-1.552,1.264-1.728,2.438-0.637,4.658l0.43,0.875
				l10.484,21.338l0.43,0.875c1.191,2.255,2.127,2.798,4.108,2.409l3.605,7.337l-15.011,7.375L-170.942,101.542z"/>
			<path fill="#9B040C" d="M-130.458,53.325l-9.961,4.894l-0.232-0.471l-0.132-0.27l-0.663-1.178
				c-1.42-3.063-4.198-3.954-7.228-2.465c-2.759,1.355-3.919,4.098-2.761,6.453c0.992,2.02,3.101,2.57,7.665,2.166l5.102-0.5
				c9.499-0.907,13.812,1.068,17.152,7.866c4.333,8.818,1.122,17.08-8.436,21.776c-5.452,2.68-11.261,3.443-17.793,2.393
				l-5.589-11.377l10.299-5.06l0.264,0.538c1.157,2.356,1.821,3.367,2.755,4.078c1.467,1.117,3.613,1.232,5.632,0.24
				c2.895-1.422,3.888-4.333,2.532-7.093c-1.389-2.827-3.33-3.377-10.613-2.724c-5.067,0.4-6.108,0.494-7.985,0.414
				c-5.098-0.17-8.703-2.576-11.117-7.49c-4.101-8.347-0.794-16.07,8.899-20.833c5.317-2.612,11.795-3.372,16.985-1.995
				L-130.458,53.325z"/>
			<path fill="#9B040C" d="M-92.695,34.771l-9.962,4.895l-0.231-0.472l-0.132-0.27l-0.663-1.179
				c-1.421-3.062-4.199-3.953-7.228-2.465c-2.76,1.355-3.919,4.099-2.762,6.455c0.992,2.019,3.101,2.57,7.666,2.166l5.102-0.501
				c9.498-0.907,13.812,1.067,17.151,7.866c4.333,8.818,1.122,17.081-8.436,21.777c-5.453,2.678-11.261,3.442-17.794,2.391
				l-5.588-11.375L-105.274,59l0.266,0.539c1.157,2.355,1.82,3.366,2.755,4.077c1.467,1.117,3.613,1.232,5.632,0.241
				c2.895-1.423,3.888-4.334,2.532-7.094c-1.39-2.826-3.331-3.377-10.614-2.724c-5.067,0.401-6.107,0.494-7.986,0.414
				c-5.096-0.169-8.702-2.576-11.117-7.489c-4.101-8.348-0.793-16.071,8.899-20.834c5.318-2.613,11.797-3.373,16.986-1.995
				L-92.695,34.771z"/>
			<path fill="#9B040C" d="M-74.213,54.018c1.585-1.365,1.694-2.504,0.602-4.726l-0.43-0.876l-10.483-21.337l-0.429-0.875
				c-1.125-2.288-2.06-2.831-4.075-2.343l-3.638-7.404l15.01-7.374l3.638,7.403c-1.552,1.265-1.727,2.438-0.637,4.658l0.43,0.875
				l10.484,21.338l0.43,0.875c1.191,2.255,2.127,2.799,4.108,2.41l3.605,7.337l-15.01,7.374L-74.213,54.018z"/>
			<path fill="#9B040C" d="M-23.53,24.688c1.984,4.206,2.231,7.092,0.699,10.268c-1.735,3.611-4.874,6.406-10.057,8.953
				c-5.183,2.546-9.549,3.354-13.3,2.523c-3.482-0.797-5.648-2.824-7.632-6.863L-65.164,16.48c-2.05-4.173-2.232-7.092-0.734-10.167
				c1.703-3.678,4.909-6.506,10.091-9.053s9.481-3.321,13.266-2.423c3.483,0.795,5.683,2.723,7.668,6.762L-23.53,24.688z
				 M-45.176,31.144c1.158,2.356,1.69,3.098,2.826,3.709c1.503,0.849,3.381,0.929,5.063,0.103c1.683-0.826,2.834-2.395,3.014-4.071
				c0.21-1.272-0.052-2.146-1.11-4.3l-8.136-16.559c-1.157-2.356-1.688-3.098-2.825-3.709c-1.503-0.85-3.449-0.897-5.064-0.104
				c-1.683,0.826-2.833,2.396-3.013,4.072c-0.21,1.272,0.052,2.146,1.144,4.367L-45.176,31.144z"/>
			<path fill="#9B040C" d="M-14.709,24.781c1.586-1.364,1.695-2.504,0.604-4.725l-0.43-0.875L-25.02-2.156l-0.43-0.875
				c-1.125-2.289-2.059-2.832-4.107-2.41l-3.605-7.336l11.779-5.788l22.887,17.5l-5.589-11.375l-0.43-0.875
				c-1.192-2.255-2.127-2.798-4.109-2.409l-3.604-7.337l14.27-7.011l3.604,7.337c-1.585,1.364-1.693,2.504-0.603,4.725l0.43,0.875
				l16.271,33.117l-9.423,4.63l-23.22-17.838l5.788,11.779l0.43,0.875c1.191,2.256,2.127,2.8,4.108,2.41l3.605,7.338l-14.135,6.944
				L-14.709,24.781z"/>
			<path fill="#9B040C" d="M42.507-3.331c1.585-1.364,1.694-2.503,0.604-4.725L42.68-8.93L32.197-30.268l-0.431-0.875
				c-1.124-2.289-2.06-2.832-4.075-2.343l-3.638-7.404l30.896-15.18l6.813,13.866l-9.087,4.465
				c-0.099-0.202-0.165-0.336-0.231-0.471c-1.719-3.5-3.359-3.948-7.265-2.029l-4.105,2.017l4.332,8.818l11.779-5.788l3.771,7.674
				L49.176-21.73l3.802,7.74l0.431,0.875c1.191,2.256,2.127,2.799,4.108,2.41l3.604,7.337l-15.01,7.375L42.507-3.331z"/>
			<path fill="#9B040C" d="M102.545-37.758c1.995,2.529,2.729,3.004,4.51,2.714l3.604,7.337L95.38-20.2l-3.604-7.336
				c1.447-0.795,1.992-1.898,1.331-3.244c-0.101-0.202-0.2-0.237-0.732-0.979l-0.199-0.235l-1.263-1.72l-8.683,4.267l0.521,2.083
				c0.131,0.437,0.396,1.143,0.561,1.479c0.629,1.279,1.834,1.522,3.482,0.795l3.605,7.337l-13.732,6.747l-3.604-7.337
				c1.249-1.199,1.357-2.339,0.508-5.598L63.763-60.4l15.414-7.574L102.545-37.758z M75.917-52.668l4.349,16.163l6.126-3.009
				L75.917-52.668z"/>
			<path fill="#9B040C" d="M111.903-37.426c1.586-1.364,1.693-2.503,0.604-4.724l-0.431-0.875l-10.483-21.337l-0.431-0.875
				c-1.124-2.289-2.059-2.832-4.075-2.343l-3.638-7.404l15.011-7.375l3.638,7.404c-1.551,1.264-1.728,2.437-0.636,4.657l0.429,0.875
				l10.483,21.337l0.431,0.875c1.192,2.255,2.128,2.798,4.109,2.41l3.604,7.337l-15.011,7.375L111.903-37.426z"/>
			<path fill="#9B040C" d="M133.106-47.844c1.587-1.364,1.695-2.504,0.604-4.725l-0.43-0.875l-10.484-21.337l-0.43-0.875
				c-1.125-2.288-2.06-2.832-4.075-2.343l-3.639-7.404l15.011-7.375l3.638,7.403c-1.551,1.264-1.728,2.437-0.637,4.658l0.431,0.875
				l11.938,24.299l4.174-2.05c3.365-1.653,4.014-3.226,2.625-6.052l-0.563-1.145l-3.207-6.528l9.153-4.498l9.988,20.328
				L136.71-40.507L133.106-47.844z"/>
			<path fill="#9B040C" d="M169.253-65.604c1.586-1.364,1.694-2.503,0.603-4.725l-0.43-0.875l-10.484-21.337l-0.429-0.875
				c-1.125-2.289-2.061-2.832-4.075-2.343l-3.639-7.404l31.771-15.609l6.813,13.866l-9.692,4.762
				c-0.065-0.134-0.099-0.202-0.166-0.337c-1.686-3.432-3.391-4.182-6.487-2.661l-0.809,0.397l-4.441,2.183l4.432,9.019
				l12.519-6.151l3.738,7.606l-12.521,6.151l5.226,10.636l4.308-2.117l0.943-0.463c3.096-1.521,3.609-3.027,1.989-6.493
				c-0.628-1.279-0.727-1.48-0.859-1.75l9.692-4.762l7.375,15.011l-31.771,15.609L169.253-65.604z"/>
			<path fill="#9B040C" d="M189.168-122.014l16.288-8.003l1.348-0.661c5.351-2.545,8.675-3.093,12.289-2.028
				c4.117,1.236,6.748,3.871,9.494,9.458l0.693,1.413l6.35,12.923l0.661,1.347c2.911,5.923,3.323,9.314,1.719,13.361
				c-1.501,3.578-3.898,5.842-9.147,8.422l-1.347,0.662l-16.289,8.003l-3.604-7.337c1.586-1.364,1.694-2.504,0.603-4.725
				l-0.43-0.875l-10.483-21.337l-0.431-0.875c-1.124-2.288-2.059-2.832-4.075-2.343L189.168-122.014z M219.548-92.153l2.827-1.388
				l1.011-0.497c3.736-1.918,4.758-4.091,3.269-7.121l-0.728-1.481l-7.573-15.415l-0.728-1.48c-1.588-3.063-3.865-3.616-7.635-1.764
				l-1.01,0.496l-2.827,1.389L219.548-92.153z"/>
		</g>
	</g>
</g>
</svg>
