<?xml version="1.0" encoding="utf-8"?>
<!-- Generator: Adobe Illustrator 14.0.0, SVG Export Plug-In . SVG Version: 6.00 Build 43363)  -->
<!DOCTYPE svg PUBLIC "-//W3C//DTD SVG 1.1//EN" "http://www.w3.org/Graphics/SVG/1.1/DTD/svg11.dtd">
<svg version="1.1" id="Layer_1" xmlns="http://www.w3.org/2000/svg" xmlns:xlink="http://www.w3.org/1999/xlink" x="0px" y="0px"
	 width="960px" height="560px" viewBox="0 0 960 560" enable-background="new 0 0 960 560" xml:space="preserve">
<g id= 'asteroidgoesboom'>
	<g>
		<path fill="#666666" d="M6.645,77.365c0,0-0.631-1.893,0-2.524c5.68-3.786,13.882-5.679,15.775-10.097
			C24.943,57.804,9.8,54.018,2.228,48.97c-0.401-0.804-1.571-1.095-2.856-1.201c-0.11,1.088-0.214,2.176-0.334,3.264
			c0,0-1.204,0.4-2.012,0.242c-5.145,6.847-14.358,10.175-23.193,9.685c2.524,5.048,6.311,9.465,9.465,13.882
			c-9.368-0.552-17.291,12.373-15.784,18.598c9.245,7.104,19.417,16.049,32.07,16.049c11.126,0,18.068-5.805,26.647-11.598
			c3.885-2.625,8.923-5.059,13.409-7.942c-0.413-1.062-0.887-2.103-1.444-3.118C33.146,77.996,18.003,81.151,6.645,77.365z"/>
		<g>
			<g>
				<path fill="#333333" d="M-15.644,79.423c-1.454-0.147-3.441-0.898-4.883,0.052c-2.885,1.902-0.645,3.397,0.903,5.743
					c1.544,2.348,4.313,2.463,7.2,0.563c1.618-1.069,2.468-0.733,2.802-2.306c0.267-1.23-0.622-3.556-1.3-4.585
					C-11.697,77.719-14.194,79.566-15.644,79.423z"/>
				<path fill="#333333" d="M-15.203,79.423c-1.454-0.147-3.441-0.898-4.883,0.052c-2.885,1.902-0.645,3.397,0.903,5.743
					c1.544,2.348,4.313,2.463,7.2,0.563c1.618-1.069,2.468-0.733,2.802-2.306c0.267-1.23-0.622-3.556-1.3-4.585
					C-11.256,77.719-13.753,79.566-15.203,79.423z"/>
			</g>
			<g>
				<g>
					<path fill="#333333" d="M-14.126,79.423c-1.454-0.147-3.441-0.898-4.883,0.052c-2.885,1.902-0.645,3.397,0.903,5.743
						c1.544,2.348,4.313,2.463,7.2,0.563c1.618-1.069,2.468-0.733,2.802-2.306c0.267-1.23-0.622-3.556-1.3-4.585
						C-10.179,77.719-12.676,79.566-14.126,79.423z"/>
				</g>
				<g>
					<path fill="#777676" d="M-13.686,79.423c-1.454-0.147-3.441-0.898-4.883,0.052c-2.885,1.902-0.645,3.397,0.903,5.743
						c1.544,2.348,4.313,2.463,7.2,0.563c1.618-1.069,2.468-0.733,2.802-2.306c0.267-1.23-0.622-3.556-1.3-4.585
						C-9.738,77.719-12.235,79.566-13.686,79.423z"/>
				</g>
			</g>
		</g>
		<g>
			<g>
				<path fill="#333333" d="M-1.437,52.477c-6.1,4.023-3.924,15.979,3.893,15.162c2.42-0.254,5.508,2.191,8.826,3.694
					c4.105-1.936,7.958-3.736,9.18-6.588c1.689-4.645-4.534-7.876-11.104-11.019C5.977,52.786,1.459,50.569-1.437,52.477z"/>
				<path fill="#333333" d="M-0.996,52.477c-6.1,4.023-3.924,15.979,3.893,15.162c2.42-0.254,5.508,2.191,8.826,3.694
					c4.105-1.936,7.958-3.736,9.18-6.588c1.689-4.645-4.534-7.876-11.104-11.019C6.418,52.786,1.9,50.569-0.996,52.477z"/>
			</g>
			<g>
				<g>
					<path fill="#333333" d="M0.081,52.477c-6.1,4.023-3.924,15.979,3.893,15.162c2.42-0.254,5.508,2.191,8.826,3.694
						c4.105-1.936,7.958-3.736,9.18-6.588c1.689-4.645-4.534-7.876-11.104-11.019C7.495,52.786,2.977,50.569,0.081,52.477z"/>
				</g>
				<g>
					<path fill="#777676" d="M0.521,52.477c-6.1,4.023-3.924,15.979,3.893,15.162c2.42-0.254,5.508,2.191,8.826,3.694
						c4.105-1.936,7.958-3.736,9.18-6.588c1.689-4.645-4.534-7.876-11.104-11.019C7.936,52.786,3.418,50.569,0.521,52.477z"/>
				</g>
			</g>
		</g>
	</g>
	<g>
		<g>
			<path fill="#666666" d="M122.315-72.712c0-45.972-27.336-61.756-72.493-74.721c-0.094,23.5-0.993,46.999-3.339,70.498
				c0.548-1.286,1.028-2.62,1.416-4.014c-0.388,1.394-0.868,2.728-1.416,4.014c-0.036,0.361-0.074,0.722-0.111,1.083
				c2.037,0.168,3.891,0.629,4.527,1.903c12,8,36,14,32,25c-3,7-16,10-25,16c-1,1,0,4,0,4c18,6,42,1,50,15
				c0.885,1.608,1.635,3.26,2.288,4.941c6.229-4.003,11.785-8.554,14.851-14.338C131.343-35.23,122.315-58.318,122.315-72.712z"/>
			<g>
				<g>
					<path fill="#333333" d="M79.796-48.949c-1.937,4.519-8.042,7.372-14.548,10.44c4.146,1.877,8.52,2.827,12.781,0.017
						c5.425-3.578,8.718-1.784,9.179-8.069c0.361-4.919-4.061-14.905-7.066-19.465c-3.425-5.202-11.698,1.155-17.108-0.163
						c-0.271-0.066-0.553-0.144-0.836-0.222C72.61-61.431,82.473-56.31,79.796-48.949z"/>
					<path fill="#333333" d="M80.494-48.949c-1.937,4.519-8.042,7.372-14.548,10.44c4.146,1.877,8.52,2.827,12.781,0.017
						c5.425-3.578,8.718-1.784,9.179-8.069c0.361-4.919-4.061-14.905-7.066-19.465c-3.425-5.202-11.698,1.155-17.108-0.163
						c-0.271-0.066-0.553-0.144-0.836-0.222C73.309-61.431,83.171-56.31,80.494-48.949z"/>
				</g>
				<g>
					<g>
						<path fill="#333333" d="M82.201-48.949c-1.937,4.519-8.042,7.372-14.548,10.44c4.146,1.877,8.52,2.827,12.781,0.017
							c5.425-3.578,8.718-1.784,9.179-8.069c0.361-4.919-4.061-14.905-7.066-19.465c-3.425-5.202-11.698,1.155-17.108-0.163
							c-0.271-0.066-0.553-0.144-0.836-0.222C75.016-61.431,84.878-56.31,82.201-48.949z"/>
					</g>
					<g>
						<path fill="#777676" d="M82.899-48.949c-1.937,4.519-8.042,7.372-14.548,10.44c4.146,1.877,8.52,2.827,12.781,0.017
							c5.425-3.578,8.718-1.784,9.179-8.069c0.361-4.919-4.061-14.905-7.066-19.465c-3.425-5.202-11.698,1.155-17.108-0.163
							c-0.271-0.066-0.553-0.144-0.836-0.222C75.714-61.431,85.576-56.31,82.899-48.949z"/>
					</g>
				</g>
			</g>
			<g>
				<g>
					<path fill="#333333" d="M97.377-83.452c-1.461,0.962-1.859,0.056-3.922-0.348c-3.68-0.716-5.734-2.908-5.152-5.9
						c0.588-2.992-0.006-5.846,3.668-5.13c1.838,0.359,2.805,2.45,3.816,3.665c1.016,1.216,4.354,1.681,4.057,3.178
						C99.588-86.676,98.518-84.202,97.377-83.452z"/>
					<path fill="#333333" d="M97.855-83.452c-1.461,0.962-1.859,0.056-3.922-0.348c-3.68-0.716-5.734-2.908-5.152-5.9
						c0.588-2.992-0.006-5.846,3.668-5.13c1.838,0.359,2.805,2.45,3.816,3.665c1.016,1.216,4.354,1.681,4.057,3.178
						C100.066-86.676,98.996-84.202,97.855-83.452z"/>
				</g>
				<g>
					<g>
						<path fill="#333333" d="M99.023-83.452c-1.461,0.962-1.859,0.056-3.922-0.348c-3.68-0.716-5.734-2.908-5.152-5.9
							c0.588-2.992-0.006-5.846,3.668-5.13c1.838,0.359,2.805,2.45,3.816,3.665c1.016,1.216,4.354,1.681,4.057,3.178
							C101.234-86.676,100.164-84.202,99.023-83.452z"/>
					</g>
					<g>
						<path fill="#777676" d="M99.501-83.452c-1.461,0.962-1.859,0.056-3.922-0.348c-3.68-0.716-5.734-2.908-5.152-5.9
							c0.588-2.992-0.006-5.846,3.668-5.13c1.838,0.359,2.805,2.45,3.816,3.665c1.016,1.216,4.354,1.681,4.057,3.178
							C101.712-86.676,100.642-84.202,99.501-83.452z"/>
					</g>
				</g>
			</g>
		</g>
		<path fill="#5B5B5B" d="M125.038-36.724c0,7.511-9.641,12.817-21.83,17.602c1.881,1.356,3.474,3.042,4.691,5.173
			c0.943,1.716,1.738,3.479,2.42,5.277C134.116-26.27,125.038-36.724,125.038-36.724z"/>
	</g>
	<g>
		<path fill="#666666" d="M-149.854-39.922c-5-7-11-14-15-22c14.001,0.778,28.603-4.497,36.755-15.348
			c-0.324-0.063-0.609-0.181-0.812-0.383c-2-2-5-4-7-5c-4-2-7-4-11-6c-16.822-9.739-31.295-23.391-49.66-29.17
			c1.18,0.986,1.635,2.196,0.66,3.17c-2.156,1.438-6.369,1.838-8.573,1.58c-4.628,11.715-8.375,24.901-16.222,38.312
			c-8.908,15.219,4.562,44.712,26.064,52.211c6.438,2.246,12.946,6.857,19.771,12.101C-177.257-20.314-164.7-40.796-149.854-39.922z
			"/>
		<g>
			<g>
				<path fill="#333333" d="M-170.423-94.166c3.059,4.636,6.073,8.762,13.051,4.16c0.449-0.296,0.863-0.63,1.254-0.989
					c-7.209-4.492-14.064-9.554-21.082-14.208C-179.254-101.49-172.976-98.042-170.423-94.166z"/>
			</g>
			<g>
				<path fill="#777676" d="M-165.103-94.166c3.059,4.636,6.073,8.762,13.051,4.16c0.449-0.296,0.863-0.63,1.254-0.989
					c-7.209-4.492-14.064-9.554-21.082-14.208C-173.934-101.49-167.655-98.042-165.103-94.166z"/>
			</g>
		</g>
		<g>
			<g>
				<path fill="#333333" d="M-166.021-61.875c0.988-0.39,2.496-0.537,4.695-0.36c0.4-0.05,0.799-0.101,1.197-0.161
					c1.314-1.182-1.549-7.405-2.737-9.212c-1.53-2.321-6.274-6.433-9.557-6.443c-3.294-0.013-9.032,7.333-12.519,9.633
					c-6.979,4.601-2.701,20.459,4.492,13.272c3.924-3.93,6.07,8.761,13.049,4.159c1.691-1.114,0.672-3.601,0.036-5.961
					c-1.003-1.622-1.959-3.271-2.811-4.974C-168.793-61.846-167.406-61.835-166.021-61.875z"/>
			</g>
			<g>
				<path fill="#777676" d="M-160.7-61.875c0.988-0.39,2.496-0.537,4.695-0.36c0.4-0.05,0.799-0.101,1.197-0.161
					c1.314-1.182-1.549-7.405-2.737-9.212c-1.53-2.321-6.274-6.433-9.557-6.443c-3.294-0.013-9.032,7.333-12.519,9.633
					c-6.979,4.601-2.701,20.459,4.492,13.272c3.924-3.93,6.07,8.761,13.049,4.159c1.691-1.114,0.672-3.601,0.036-5.961
					c-1.003-1.622-1.959-3.271-2.811-4.974C-163.473-61.846-162.086-61.835-160.7-61.875z"/>
			</g>
		</g>
		<path fill="#5B5B5B" d="M-195.911-114.653c-1.548,1.032-4.158,1.528-6.326,1.633c-10.438,27.34-21.559,48.568-18.012,58.452
			c3.762,10.488,10.019,11.838,18.73,26.496c8.711,14.658,0.924-13.159-3.937-24.75c-7.892-18.813,8.771-35.185,8.928-49.883
			c0.044-3.949,1.499-8.83,3.595-13.855c-1.197-0.454-2.409-0.876-3.639-1.263C-195.392-116.837-194.937-115.627-195.911-114.653z"
			/>
	</g>
	<g>
		<polygon fill="#FFDF16" points="-42.701,-37.841 -180.451,-182.173 -94.849,-25.121 -268.605,54.094 -60.595,17.414 
			-69.937,206.094 -11.455,22.139 138.637,203.643 19.789,-2.946 253.375,1.608 1.686,-26.132 102.354,-206.093 		"/>
		<polygon fill="#DBAC38" points="-37.138,-23.212 -121.636,-111.748 -69.126,-15.409 -175.71,33.182 -48.113,10.682 
			-53.843,126.422 -17.971,13.581 74.098,124.918 1.195,-1.807 144.48,0.986 -9.91,-16.03 51.842,-126.421 		"/>
	</g>
</g>
</svg>
