<?xml version="1.0" encoding="utf-8"?>
<!-- Generator: Adobe Illustrator 16.0.2, SVG Export Plug-In . SVG Version: 6.00 Build 0)  -->
<!DOCTYPE svg PUBLIC "-//W3C//DTD SVG 1.1//EN" "http://www.w3.org/Graphics/SVG/1.1/DTD/svg11.dtd">
<svg version="1.1" id="Layer_1" xmlns="http://www.w3.org/2000/svg" xmlns:xlink="http://www.w3.org/1999/xlink" x="0px" y="0px"
	 width="960px" height="560px" viewBox="0 0 960 560" enable-background="new 0 0 960 560" xml:space="preserve">
<g id="asteroid">
	<path fill="#FFDF16" d="M-45.436-20.294c0,0,35.391-6.179,44.38,11.797c0,0,4.098-2.313,0-6.411
		c-4.098-4.097-13.294-8.839-18.563-8.172c-14.018,1.777-25.106-3.541-28.064-12.943c0,0,6.18,10.75,20.223,8.988
		c6.307-0.79,9.551-5.617,14.045-2.809l-4.494-8.426c0,0,14.413,12.194,26.025,12.194s23.586,14.328,27.8,18.541
		C40.129-3.321-4.428,12.85-4.428,21.837c0,0-15.167-5.733-12.357-23.031C-15.075-11.73-39.255-20.294-45.436-20.294z"/>
	<path fill="#FFDF16" d="M-53.359-44.449c0,0,12.98,1.123,12.98,6.741c0,11.071,13.763,7.021,16.572,4.213
		c2.809-2.809-8.12,5.715-14.325-8.605C-41.363-49.555-53.359-44.449-53.359-44.449z"/>
	<path fill="#FFDF16" d="M-52.824-36.023c0,0,2.018,18.765,7.434,18.765c13.108,0,20.266,7.874,22.036,16.627
		c0,0-9.533-12.627-22.082-11.28C-56.326-10.744-52.824-36.023-52.824-36.023z"/>
	<path fill="#DBAC38" d="M-13.415-30.125c-1.393-0.999,7.248,8.394,22.469,8.394L-13.415-30.125z"/>
	<path fill="#DBAC38" d="M0.684-10.744"/>
	<path fill="#DBAC38" d="M-52.799-30.678c0,0-3.958,19.478,8.488,17.08c12.339-2.377,20.957,8.472,20.957,12.966
		c0,4.494-3.282-13.233-20.957-11.235C-58.314-10.285-52.799-30.678-52.799-30.678z"/>
	<path fill="#DBAC38" d="M-40.379-37.708c0,0-0.074,10.885,14.191,5.317c8.795-3.433-1.684,0.281-7.59,0.262
		C-37.955-32.141-40.379-37.708-40.379-37.708z"/>
	<path fill="#DBAC38" d="M-3.023,19.591c0,0-12.853-9.438-10.489-20.785c2.407-11.549-7.188-13.901-11.306-13.901
		c-4.117,0,21.499-10.079,26.907,26.354c0,0,24.834-11.431,8.089-22.002c-15.038-9.493-13.518-9.529,20.144,2.527
		C30.322-8.217,24.791-6.806-3.023,19.591z"/>
	<path fill="#666666" d="M52.204,14.384c0,4.831,3.03,12.579,0.915,16.567c-2.204,4.157-8.24,6.416-12.116,9.036
		c-4.562,3.081-8.254,6.168-14.172,6.168c-9.864,0-16.893-10.225-23.691-12.597c-7.215-2.517-11.736-12.414-8.747-17.521
		c4.616-7.89,5.002-15.549,10.17-20.719c2.586-2.586,7.728-3.647,11.145-5.093c3.418-1.446,7.322-2.277,11.123-1.214
		C42.61-6.578,52.204-1.396,52.204,14.384z"/>
	<g>
		<g>
			<path fill="#333333" d="M17.852,7.16c-0.365,1.136-0.891,2.895-2.204,3.761c-2.342,1.544-3.354,0.16-4.38-1.396
				c-1.026-1.558-3.848-2.91-1.509-4.455c1.172-0.771,3.096-3.237,4.203-3.232C15.063,1.842,16.653,3.222,17.167,4
				C17.618,4.684,18.139,6.27,17.852,7.16z"/>
		</g>
		<g>
			<path fill="#777676" d="M19.637,7.16c-0.366,1.136-0.891,2.895-2.205,3.761c-2.342,1.544-3.354,0.16-4.379-1.396
				c-1.026-1.558-3.849-2.91-1.509-4.455c1.171-0.771,3.096-3.237,4.203-3.232C16.849,1.842,18.439,3.222,18.953,4
				C19.403,4.684,19.924,6.27,19.637,7.16z"/>
		</g>
	</g>
	<g>
		<g>
			<path fill="#333333" d="M35.818,6.141c-0.633,1.11-1.28,1.078-2.891,2.138c-2.865,1.89-5.188,2.427-5.979,1.226
				c-0.793-1.203-2.361-1.691,0.505-3.582c1.435-0.944,2.953-0.89,4.153-1.115c1.199-0.226,3.725-1.996,4.121-1.395
				C36.075,3.939,36.314,5.273,35.818,6.141z"/>
			<path fill="#333333" d="M36.053,6.141c-0.633,1.11-1.28,1.078-2.891,2.138c-2.865,1.89-5.188,2.427-5.979,1.226
				c-0.793-1.203-2.361-1.691,0.505-3.582c1.435-0.944,2.953-0.89,4.153-1.115c1.199-0.226,3.725-1.996,4.121-1.395
				C36.31,3.939,36.548,5.273,36.053,6.141z"/>
		</g>
		<g>
			<g>
				<path fill="#333333" d="M36.625,6.141c-0.633,1.11-1.28,1.078-2.891,2.138c-2.865,1.89-5.188,2.427-5.979,1.226
					c-0.793-1.203-2.361-1.691,0.505-3.582c1.435-0.944,2.953-0.89,4.153-1.115c1.199-0.226,3.725-1.996,4.121-1.395
					C36.882,3.939,37.121,5.273,36.625,6.141z"/>
			</g>
			<g>
				<path fill="#777676" d="M36.86,6.141c-0.633,1.11-1.28,1.078-2.891,2.138c-2.865,1.89-5.188,2.427-5.979,1.226
					c-0.793-1.203-2.361-1.691,0.505-3.582c1.435-0.944,2.953-0.89,4.153-1.115c1.199-0.226,3.725-1.996,4.121-1.395
					C37.117,3.939,37.355,5.273,36.86,6.141z"/>
			</g>
		</g>
	</g>
	<g>
		<g>
			<path fill="#333333" d="M21.937,32.321c-0.178,0.836-0.63,0.657-1.491,1.226c-1.534,1.01-3.007,0.949-3.829-0.299
				c-0.823-1.248-2.015-2.043-0.48-3.055c0.766-0.505,1.824-0.106,2.596-0.028c0.771,0.076,2.1-0.906,2.512-0.283
				C21.605,30.43,22.078,31.667,21.937,32.321z"/>
			<path fill="#333333" d="M22.171,32.321c-0.178,0.836-0.63,0.657-1.491,1.226c-1.534,1.01-3.007,0.949-3.829-0.299
				c-0.823-1.248-2.015-2.043-0.48-3.055c0.766-0.505,1.824-0.106,2.596-0.028c0.771,0.076,2.1-0.906,2.512-0.283
				C21.84,30.43,22.313,31.667,22.171,32.321z"/>
		</g>
		<g>
			<g>
				<path fill="#333333" d="M22.744,32.321c-0.178,0.836-0.63,0.657-1.491,1.226c-1.534,1.01-3.007,0.949-3.829-0.299
					c-0.823-1.248-2.015-2.043-0.48-3.055c0.766-0.505,1.824-0.106,2.596-0.028c0.771,0.076,2.1-0.906,2.512-0.283
					C22.413,30.43,22.885,31.667,22.744,32.321z"/>
			</g>
			<g>
				<path fill="#777676" d="M22.979,32.321c-0.178,0.836-0.63,0.657-1.491,1.226c-1.534,1.01-3.007,0.949-3.829-0.299
					c-0.823-1.248-2.015-2.043-0.48-3.055c0.766-0.505,1.824-0.106,2.596-0.028c0.771,0.076,2.1-0.906,2.512-0.283
					C22.647,30.43,23.12,31.667,22.979,32.321z"/>
			</g>
		</g>
	</g>
	<g>
		<g>
			<path fill="#333333" d="M40.423,23.16c-0.154,2.109-1.26,1.507-3.08,2.708c-3.244,2.139-6.682-2.211-8.983-1.97
				c-4.158,0.435-5.314-5.924-2.07-8.063c1.622-1.068,4.2,0.296,6.021,0.739c1.815,0.442,4.592-1.691,5.742,0.055
				C39.061,18.158,40.544,21.509,40.423,23.16z"/>
			<path fill="#333333" d="M40.657,23.16c-0.154,2.109-1.26,1.507-3.08,2.708c-3.244,2.139-6.682-2.211-8.983-1.97
				c-4.158,0.435-5.314-5.924-2.07-8.063c1.622-1.068,4.2,0.296,6.021,0.739c1.815,0.442,4.592-1.691,5.742,0.055
				C39.295,18.158,40.779,21.509,40.657,23.16z"/>
		</g>
		<g>
			<g>
				<path fill="#333333" d="M41.23,23.16c-0.154,2.109-1.26,1.507-3.08,2.708c-3.244,2.139-6.682-2.211-8.983-1.97
					c-4.158,0.435-5.314-5.924-2.07-8.063c1.622-1.068,4.2,0.296,6.021,0.739c1.815,0.442,4.592-1.691,5.742,0.055
					C39.868,18.158,41.352,21.509,41.23,23.16z"/>
			</g>
			<g>
				<path fill="#777676" d="M41.464,23.16c-0.154,2.109-1.26,1.507-3.08,2.708c-3.244,2.139-6.682-2.211-8.983-1.97
					c-4.158,0.435-5.314-5.924-2.07-8.063c1.622-1.068,4.2,0.296,6.021,0.739c1.815,0.442,4.592-1.691,5.742,0.055
					C40.102,18.158,41.586,21.509,41.464,23.16z"/>
			</g>
		</g>
	</g>
	<g>
		<g>
			<path fill="#333333" d="M27.791-1.412c-0.487,0.323-0.624,0.02-1.315-0.116c-1.232-0.241-1.923-0.976-1.728-1.98
				c0.196-1.004-0.005-1.963,1.23-1.722c0.616,0.121,0.941,0.822,1.281,1.231c0.34,0.408,1.459,0.564,1.36,1.065
				C28.535-2.494,28.173-1.663,27.791-1.412z"/>
			<path fill="#333333" d="M27.951-1.412c-0.487,0.323-0.624,0.02-1.315-0.116c-1.232-0.241-1.923-0.976-1.728-1.98
				c0.197-1.004-0.004-1.963,1.23-1.722c0.617,0.121,0.941,0.822,1.282,1.231c0.339,0.408,1.459,0.564,1.36,1.065
				C28.695-2.494,28.333-1.663,27.951-1.412z"/>
		</g>
		<g>
			<g>
				<path fill="#333333" d="M28.343-1.412c-0.487,0.323-0.624,0.02-1.315-0.116c-1.232-0.241-1.923-0.976-1.728-1.98
					c0.196-1.004-0.005-1.963,1.23-1.722c0.616,0.121,0.941,0.822,1.281,1.231c0.34,0.408,1.459,0.564,1.36,1.065
					C29.087-2.494,28.726-1.663,28.343-1.412z"/>
			</g>
			<g>
				<path fill="#777676" d="M28.503-1.412c-0.487,0.323-0.624,0.02-1.315-0.116c-1.232-0.241-1.923-0.976-1.728-1.98
					c0.197-1.004-0.004-1.963,1.23-1.722c0.617,0.121,0.941,0.822,1.282,1.231c0.339,0.408,1.459,0.564,1.36,1.065
					C29.248-2.494,28.886-1.663,28.503-1.412z"/>
			</g>
		</g>
	</g>
	<g>
		<g>
			<path fill="#333333" d="M43.835,10.78c-0.489,0.323-0.624,0.019-1.315-0.117c-1.235-0.24-1.925-0.976-1.729-1.98
				s-0.003-1.962,1.229-1.722c0.618,0.121,0.942,0.822,1.281,1.23c0.341,0.408,1.461,0.564,1.362,1.066
				C44.578,9.698,44.218,10.528,43.835,10.78z"/>
			<path fill="#333333" d="M43.996,10.78c-0.489,0.323-0.624,0.019-1.315-0.117c-1.235-0.24-1.924-0.976-1.729-1.98
				c0.196-1.004-0.003-1.962,1.229-1.722c0.618,0.121,0.942,0.822,1.282,1.23c0.341,0.408,1.46,0.564,1.362,1.066
				C44.738,9.698,44.379,10.528,43.996,10.78z"/>
		</g>
		<g>
			<g>
				<path fill="#333333" d="M44.388,10.78c-0.489,0.323-0.624,0.019-1.315-0.117c-1.235-0.24-1.925-0.976-1.729-1.98
					s-0.003-1.962,1.229-1.722c0.618,0.121,0.942,0.822,1.281,1.23c0.341,0.408,1.461,0.564,1.362,1.066
					C45.13,9.698,44.771,10.528,44.388,10.78z"/>
			</g>
			<g>
				<path fill="#777676" d="M44.548,10.78c-0.489,0.323-0.624,0.019-1.315-0.117c-1.235-0.24-1.924-0.976-1.729-1.98
					c0.196-1.004-0.003-1.962,1.229-1.722c0.618,0.121,0.942,0.822,1.282,1.23c0.341,0.408,1.46,0.564,1.362,1.066
					C45.291,9.698,44.931,10.528,44.548,10.78z"/>
			</g>
		</g>
	</g>
	<g>
		<g>
			<path fill="#333333" d="M14.488,20.253c-4.458-0.442-0.892,2.896-2.206,3.762C9.94,25.56,9.221,21.301,7.903,22.62
				c-2.414,2.412-3.849-2.91-1.508-4.454c1.171-0.772,3.097-3.237,4.201-3.233c1.102,0.003,2.693,1.383,3.207,2.162
				C14.253,17.778,15.419,20.345,14.488,20.253z"/>
		</g>
		<g>
			<path fill="#777676" d="M16.274,20.253c-4.458-0.442-0.892,2.896-2.206,3.762c-2.342,1.544-3.062-2.714-4.379-1.396
				c-2.414,2.412-3.849-2.91-1.508-4.454c1.171-0.772,3.097-3.237,4.201-3.233c1.102,0.003,2.694,1.383,3.207,2.162
				C16.039,17.778,17.205,20.345,16.274,20.253z"/>
		</g>
	</g>
	<path fill="#5B5B5B" d="M26.831,46.155c0,0-3.208-2.647,5.162-8.145c6.317-4.15,21.126-6.156,21.126-11.549
		C53.119,26.461,59.885,34.25,26.831,46.155z"/>
	<path fill="#5B5B5B" d="M9.15-7.537c0,0-4.239-1-7.911,9.006c-3.669,10.006-7.957,17.822-6.693,21.344
		c1.263,3.52,3.363,3.973,6.287,8.892c2.922,4.919,0.31-4.416-1.322-8.306c-2.648-6.313,2.943-11.808,2.997-16.74
		C2.562,1.726,9.15-7.537,9.15-7.537z"/>
</g>
</svg>
