<?xml version="1.0" encoding="utf-8"?>
<!-- Generator: Adobe Illustrator 16.0.2, SVG Export Plug-In . SVG Version: 6.00 Build 0)  -->
<!DOCTYPE svg PUBLIC "-//W3C//DTD SVG 1.1//EN" "http://www.w3.org/Graphics/SVG/1.1/DTD/svg11.dtd">
<svg version="1.1" id="Layer_1" xmlns="http://www.w3.org/2000/svg" xmlns:xlink="http://www.w3.org/1999/xlink" x="0px" y="0px"
	 width="960px" height="560px" viewBox="0 0 960 560" enable-background="new 0 0 960 560" xml:space="preserve">
<g id ='earthexploding'>
	<g>
		<path fill="#F5F5F5" d="M130.181-7.726c0,83.711-69.602,151.572-155.46,151.572c-74.92,0-155.46-67.861-155.46-151.572
			c0-83.712,69.603-151.573,155.46-151.573C60.58-159.299,130.181-91.438,130.181-7.726z"/>
		<g id="XMLID_2_">
			<g>
				<path fill="#001E31" d="M134.883-38.422c-0.011,0.01-0.021,0.02-0.031,0.03c-0.789-3.2-1.007-5.02-4.1-7.76
					c-2.907,0.98,1.505,2.67-1.038,4c-4.993-3.85-11.927-5.85-11.418-15c-5.19-6.94-16.619,1.21-21.798-3l0.986-2.5
					c0.695,0.27,1.391,0.45,2.128,0.5c3.799-2.67,3.997-8.81,5.19-14c3.737,3.07,5.242-3.72,7.266,1c2.668-0.24-1.432-1.72,0-4
					c4.837,2.34,7.702,6.58,10.38,11c4.567-4.95-4.588-11.99-4.194-17.64c0.011-0.12,0.031-0.24,0.042-0.36
					C127.42-70.603,133.648-58.512,134.883-38.422z"/>
				<path fill="#64FF81" d="M115.182,29.848c-0.249-6.54,6.498-9.51,3.114-16c-5.512,1.64-5.086-2.44-6.228-5
					c-8.439,1.51-15.861-0.36-22.836,1c-11.159-11.33-14.875-25.48-12.456-43c1.848-9.33,16.038-10.59,13.494-21
					c1.848-2.22,5.18-3,6.228-6c5.18,4.21,16.608-3.94,21.798,3c-0.508,9.15,6.425,11.15,11.418,15c2.543-1.33-1.869-3.02,1.038-4
					c3.093,2.74,3.311,4.56,4.1,7.76c-2.45,2.09-0.612,4.4-2.024,8.24c1.786,0.4,2.658-1.48,3.114,0c-3,0.44,0.924,7.56-2.076,8
					c1.184-2.05-1.629-4.77-2.076-2c3.799,1.82-2.128,7.8,1.038,9c0.156-1.18-0.187-2.84,1.038-3c2.938,7.7-5.449,8.97,1.038,13
					c-6.404-3.07-3.789,8.37-6.228,14c-0.675,1.54-4.599,2.78-5.19,4c-2.481,5.05,1.1,8.24-1.038,11c-0.166-1.18,0.176-2.84-1.038-3
					C121.254,25.068,117.268,30.818,115.182,29.848z"/>
				<path fill="#64FF81" d="M108.954-98.152l1.173,1.21c-0.135,0.11-0.187,0.37-0.135,0.79c0.498-0.34,0.84-0.53,1.079-0.59
					c0.135,0.08,0.28,0.18,0.436,0.3c-0.062,0.9-1.495,3.29-0.478,3.29c2.471-0.95,6.218,5.93,6.229,8
					c0.062-0.22,0.114-0.45,0.125-0.7l0.872,0.06c-0.394,5.65,8.761,12.69,4.194,17.64c-2.678-4.42-5.543-8.66-10.38-11
					c-1.432,2.28,2.668,3.76,0,4c-2.024-4.72-3.529,2.07-7.266-1c-1.193,5.19-1.391,11.33-5.19,14c-0.737-0.05-1.433-0.23-2.128-0.5
					c-2.076-0.8-4.131-2.39-7.214-3.5c-0.021-4.02-2.989-10.4-1.038-13c3.343,0.45,5.616,1.92,9.342,2
					c0.706-7.01-5.097-7.76-7.266-12c4.806-0.36,8.076-4.13,6.228-8C102.082-94.682,106.452-101.442,108.954-98.152z"/>
				<path d="M117.382-85.853c-0.011,0.25-0.063,0.48-0.125,0.7c-0.011-2.07-3.758-8.95-6.229-8c-1.017,0,0.416-2.39,0.478-3.29
					C113.759-94.652,117.652-89.182,117.382-85.853z"/>
				<path d="M111.071-96.742c0.333-0.11,0.447,0.03,0.436,0.3C111.351-96.563,111.206-96.662,111.071-96.742z"/>
				<path d="M110.126-96.942c0.187-0.16,0.519-0.08,0.944,0.2c-0.239,0.06-0.581,0.25-1.079,0.59
					C109.939-96.572,109.992-96.833,110.126-96.942z"/>
				<path fill="#64FF81" d="M99.611-106.152c-2.481,2.01-4.546-6.82-9.342-3c-2.148-4.52-6.145-10.6-6.228-14
					C85.806-123.083,94.494-111.922,99.611-106.152z"/>
				<path fill="#64FF81" d="M90.269-95.152c-3.238-5.55-7.339-10.26-10.38-16c5.138,4.38,8.813,10.18,13.494,15
					c1.059,3.36-3.229,1.56-5.19,2C88.214-95.123,89.459-94.932,90.269-95.152z"/>
				<path fill="#64FF81" d="M84.041-98.152c-4.256,0.76-3.581-3.22-4.152-6c1.038,0,2.076,0,3.114,0
					C82.245-101.092,84.062-100.512,84.041-98.152z"/>
				<path fill="#FFFFFF" d="M53.938-129.152c1.599-2.75,6.228-0.1,7.266,1C59.689-123.732,55.683-127.902,53.938-129.152z"/>
				<path fill="#FFFFFF" d="M55.485-139.152c-5.771,2.31-13.494,3.36-21.84,4c-2.035,2.71-5.429,4.53-6.239,8
					c-9.456-2.94-17.677-6.68-18.726-15c3.56,0.28,5.875-0.24,6.238-2c-3.644-5-3.363-12.51-15.591-12
					C26.39-163.893,45.562-148.362,55.485-139.152z"/>
				<path fill="#64FF81" d="M9.304-110.152c-2.117,2.29-6.218-1.96-10.38-1c1.682-2.04,1.505-5.88,5.19-6
					C-0.703-114.512,6.844-111.862,9.304-110.152z"/>
				<path fill="#FFFFFF" d="M-10.418-145.152c3.467,0.08,13.193-7.39,3.114-10c11.2-1.6,3.311,8.31,14.532,10
					c-0.239,1.44-3.104,0.35-3.114,2c-1.391-1-2.045-2.7-4.152-3c1.495,5.74-5.875,1.78-4.152,5
					C-6.536-138.322-9.505-143.302-10.418-145.152z"/>
				<path fill="#FFFFFF" d="M-25.989-155.152c4.702-0.74-1.588,2.75,3.114,2c1.795,0.12-5.024,2.16-8.304,1
					C-32.331-152.563-22.605-153.842-25.989-155.152z"/>
				<path fill="#64FF81" d="M-57.129-63.152c4.329-0.84,4.899,1.94,8.304,2C-50.195-59.262-57.14-60.412-57.129-63.152z"/>
				<path fill="#64FF81" d="M-74.775-76.152c0.82-1.84,8.221,6.53,12.456,8c-0.955,2.73-3.249-1.4-6.228,0
					C-68.952-72.432-72.471-73.702-74.775-76.152z"/>
				<path d="M-87.231-23.152c-1.962,2.53-3.644-0.92-6.229,1c0.301-2.04,2.076-2.66,3.114-4
					C-87.865-26.552-90.927-21.592-87.231-23.152z"/>
				<path fill="#64FF81" d="M-91.384-99.152c-3.903,1.69-0.571-4.43,4.152-3c0.446-3.44-0.416-5.6-1.038-8
					c2.387-0.31,1.152,2.89,3.114,3c1.194-7.52,11.014-12.04,9.342-19c4.11-0.36,3.384-0.76,4.152-5
					c6.291,2.03,11.055-4.18,12.457-10c3.28-1.2,8.169-1.45,9.342-2c-2.003-6.1,7.433,6.1,11.418,7c0.498,3.15-3.187,2.26-2.076,6
					c0.197,0.81,1.038,1,1.038,2c5.709-3.49,14.532-3.99,15.57-12c3.322,0.87,3.239-1.54,4.152-3c4.453-0.29,6.851,1.39,9.342,3
					c-3.176,4.81,2.865,7.48,7.266,5c-2.387,7.25,7.204,9.8,1.038,13c0.042,1.56,8.47-2.37,7.266,3
					c-8.678,4.06-22.027-4.25-33.217,2c3.54,2.37,8.429-2.51,14.532-1c-3.986,3.88-2.906,0.9-2.076,8
					c-13.121-3.15-21.549,5.67-32.179,4c-3.374,12.12-23.241,6.13-23.875,24c-2.367-1.39-0.394-6.96-1.038-10
					c-4.64-4.56-10.962-5.62-17.646-6c0.415-3.38,4.017,2.66,3.114-2C-87.356-102.992-94.456-99.382-91.384-99.152z"/>
				<path fill="#023349" d="M55.485-139.152c-9.923-9.21-29.096-24.74-56.157-17c12.228-0.51,11.947,7,15.591,12
					c-0.363,1.76-2.678,2.28-6.238,2c1.048,8.32,9.27,12.06,18.726,15c0.81-3.47,4.204-5.29,6.239-8
					C41.991-135.792,49.714-136.842,55.485-139.152z M-68.547-68.152c2.979-1.4,5.273,2.73,6.228,0
					c-4.235-1.47-11.636-9.84-12.456-8C-72.471-73.702-68.952-72.432-68.547-68.152z M-57.129-63.152c-0.01,2.74,6.934,3.89,8.304,2
					C-52.23-61.212-52.801-63.992-57.129-63.152z M-100.726-72.152c3.446-1.98-3.84,4.06,1.038,4c4.329-5.74,0.488-3.63,3.114-8
					C-98.546-75.952-103.456-73.572-100.726-72.152z M-1.076-111.152c4.162-0.96,8.263,3.29,10.38,1c-2.46-1.71-10.006-4.36-5.19-7
					C0.429-117.032,0.605-113.192-1.076-111.152z M-91.384-49.152c-3.706-4.04-1.868-7.55-1.038-11c0.229,0.78,0.021,1.97,1.038,2
					c-0.758-2.73,2.055-2.01,2.076-4c-2.211-1-4.63-4.42-7.266-2c0.758-3.29-2.066-1.53-2.076,0c1.848,0.55,4.308,0.51,5.19,2
					c-3.934,1.35,0.706,6.5-3.114,9C-93.044-54.143-93.636-46.092-91.384-49.152z M-22.117,14.698c3.228-0.02,7.183,0.75,7.318-2.69
					c-2.408,0.4-2.429-1.82-3.664-2.69c-3.602,3.97-4.557,2.86-8.522,5.38c4.557-5.02-5.688-0.57-6.093-4.04
					c7.328,2.54,9.456-5.72,13.4-2.69c3.54-20.95-15.528-22.54-23.158-26.88c0.063-1.72,1.567-1.86,1.225-4.03
					c-2.201-3.42-7.609-3.27-10.972-5.38c2.159-0.31,6.093,1.36,4.878-2.69c-4.785,2.12-2.522-3.5-4.878-4.03
					c-8.128,3.1-14.273-7.54-23.158-8.07c-0.208,2.02,0.425,4.96-1.215,5.38c-2.097,0.06-3.135-1.04-3.654-2.69
					c2.907-3.37,0.519-4.25,3.654-6.72c-11.272-0.65-17.22,9.17-23.158,6.72c7.266,12.06-11.501,17.45-14.626,26.89
					c2.803-0.42,1.35,3.88,3.654,4.03c0.26-1.51,1.36-2.1,2.439-2.69c1.017,2.9,3.156,4.58,2.439,9.41
					c-1.443,0.22-3.457-0.23-3.654,1.34c1.412,0.23,1.318,2.13,1.214,4.04c2.543,4.5,4.567-5.19,6.093-1.35
					c4.193,7.42-5.637,10.68-1.214,17.48c1.806-3.94-1.381-4.99,2.439-6.72c0.519,2.55,2.616,3.37,2.429,6.72
					c-7.276,1.98,8.377,8.4,0,12.1c10.069,2.32-1.142-10.89,6.093-12.1c0.125,5.51,0.239,11.02-1.215,14.79
					c7.433,3.91,17.076,10.99,15.84,20.16c3.944,1.67,0.934-4.35,4.879-2.69c1.276,5.62-2.575,9.12,0,12.1
					c4.629,1.98,0.228-6.01,4.878-4.03c0.768,2.3,3.675,2.22,4.868,4.03c-0.104,2.13-3.104,1.05-2.439,4.03
					c5.937-2.87,8.709,5.53,14.625,6.73c1.796,6.02-3.571,4.12-2.429,9.41c5.647-4.06,13.183-2.32,17.055,2.68
					c1.36-4.69,15.892-1.86,24.373-2.68c3.529-7.94,16.193-12.39,13.411-22.86c6.986-5.28,17.802-6.34,20.719-16.13
					c-5.242-10.36-12.965-17.96-25.598-20.16C-5.332,11.377-16.678,18.228-22.117,14.698z M-22.875-153.152
					c-4.702,0.75,1.588-2.74-3.114-2c3.384,1.31-6.342,2.59-5.19,3C-27.898-150.992-21.079-153.032-22.875-153.152z M-7.304-155.152
					c10.079,2.61,0.353,10.08-3.114,10c0.914,1.85,3.882,6.83,6.228,4c-1.723-3.22,5.647,0.74,4.152-5c2.107,0.3,2.761,2,4.152,3
					c0.01-1.65,2.875-0.56,3.114-2C-3.993-146.842,3.896-156.752-7.304-155.152z M-87.231-100.152c0.903,4.66-2.699-1.38-3.114,2
					c6.685,0.38,13.006,1.44,17.646,6c0.644,3.04-1.329,8.61,1.038,10c0.633-17.87,20.501-11.88,23.875-24
					c10.629,1.67,19.058-7.15,32.179-4c-0.831-7.1-1.91-4.12,2.076-8c-6.104-1.51-10.992,3.37-14.532,1
					c11.19-6.25,24.539,2.06,33.217-2c1.204-5.37-7.225-1.44-7.266-3c6.166-3.2-3.425-5.75-1.038-13
					c-4.401,2.48-10.442-0.19-7.266-5c-2.491-1.61-4.889-3.29-9.342-3c-0.913,1.46-0.83,3.87-4.152,3
					c-1.038,8.01-9.861,8.51-15.57,12c0-1-0.841-1.19-1.038-2c-1.111-3.74,2.574-2.85,2.076-6c-3.986-0.9-13.422-13.1-11.418-7
					c-1.173,0.55-6.062,0.8-9.342,2c-1.401,5.82-6.166,12.03-12.457,10c-0.768,4.24-0.042,4.64-4.152,5
					c1.671,6.96-8.148,11.48-9.342,19c-1.962-0.11-0.727-3.31-3.114-3c0.623,2.4,1.484,4.56,1.038,8c-4.723-1.43-8.055,4.69-4.152,3
					C-94.456-99.382-87.356-102.992-87.231-100.152z M84.041-98.152c0.021-2.36-1.796-2.94-1.038-6c-1.038,0-2.076,0-3.114,0
					C80.46-101.373,79.785-97.393,84.041-98.152z M90.269-109.152c4.796-3.82,6.861,5.01,9.342,3c-5.118-5.77-13.806-16.93-15.57-17
					C84.124-119.752,88.121-113.672,90.269-109.152z M96.497-60.152c-1.048,3-4.38,3.78-6.228,6c2.543,10.41-11.646,11.67-13.494,21
					c-2.418,17.52,1.297,31.67,12.456,43c6.976-1.36,14.397,0.51,22.836-1c1.142,2.56,0.716,6.64,6.228,5
					c3.384,6.49-3.363,9.46-3.114,16c2.086,0.97,6.072-4.78,6.228-9c1.214,0.16,0.872,1.82,1.038,3c2.138-2.76-1.443-5.95,1.038-11
					c0.591-1.22,4.515-2.46,5.19-4c2.439-5.63-0.176-17.07,6.228-14c-6.487-4.03,1.899-5.3-1.038-13c-1.225,0.16-0.882,1.82-1.038,3
					c-3.166-1.2,2.761-7.18-1.038-9c0.446-2.77,3.259-0.05,2.076,2c3-0.44-0.924-7.56,2.076-8c-0.457-1.48-1.329,0.4-3.114,0
					c1.412-3.84-0.425-6.15,2.024-8.24c0.01,0.08,0.031,0.16,0.052,0.24c-0.01-0.09-0.01-0.18-0.021-0.27
					c0.291-0.25,0.633-0.49,1.059-0.73c16.089,92.68-50.468,171.51-131.828,180c-6.55,0.68-11.242-1.21-16.608-2
					c-18.632-2.75-25.577,2.2-40.482-9.05c0.384-5.7-16.307-16.91-20.76-17.95c0.944-1.75,1.931-3.47,5.19-3
					c-2.128-2.3-8.231,0.02-6.228,5c-1.37-0.35-1.64-1.76-3.114-2c1.163,1.44,1.111,2.44-1.038,3c2.927,3.59,4.048-0.67,6.229,1
					c-7.059,2.83-22.889,4.6-30.103,1c-2.917,0.01,2.47,2.73-2.076,2c-48.932-28.54-81.028-79.41-75.775-145
					c5.969-74.74,67.98-132.91,145.322-139c11.616-0.91,25.39-0.12,36.331,1c26.345,2.71,65.323,17.82,76.813,31
					c0.882,1.01-0.197,2.85,0,3c2.501,1.95,7.785,2.53,11.418,6c6.291,6.02,15.664,16.82,16.608,24c1.308-1.59,5.501,0.03,3.114,2
					c-2.502-3.29-6.872,3.47-11.418,1c1.848,3.87-1.422,7.64-6.228,8c2.169,4.24,7.972,4.99,7.266,12c-3.727-0.08-6-1.55-9.342-2
					c-1.951,2.6,1.018,8.98,1.038,13c3.083,1.11,5.138,2.7,7.214,3.5L96.497-60.152z M88.193-94.152c1.961-0.44,6.249,1.36,5.19-2
					c-4.682-4.82-8.356-10.62-13.494-15c3.041,5.74,7.142,10.45,10.38,16C89.459-94.932,88.214-95.123,88.193-94.152z
					 M53.938-129.152c1.744,1.25,5.75,5.42,7.266,1C60.167-129.252,55.537-131.902,53.938-129.152z"/>
				<path fill="#64FF81" d="M-92.422-60.152c-0.83,3.45-2.667,6.96,1.038,11c-2.252,3.06-1.661-4.99-5.19-4
					c3.82-2.5-0.82-7.65,3.114-9c-0.882-1.49-3.342-1.45-5.19-2c0.01-1.53,2.834-3.29,2.076,0c2.636-2.42,5.055,1,7.266,2
					c-0.021,1.99-2.834,1.27-2.076,4C-92.401-58.182-92.193-59.373-92.422-60.152z"/>
				<path fill="#64FF81" d="M-100.726-72.152c-2.73-1.42,2.18-3.8,4.152-4c-2.626,4.37,1.214,2.26-3.114,8
					C-104.566-68.092-97.28-74.132-100.726-72.152z"/>
				<path fill="#64FF81" d="M-93.46-22.152c2.585-1.92,4.267,1.53,6.229-1c-3.696,1.56-0.633-3.4-3.114-3
					C-91.384-24.813-93.159-24.192-93.46-22.152z M-92.806,18.728c-7.235,1.21,3.976,14.42-6.093,12.1c8.377-3.7-7.276-10.12,0-12.1
					c0.187-3.35-1.91-4.17-2.429-6.72c-3.82,1.73-0.633,2.78-2.439,6.72c-4.422-6.8,5.408-10.06,1.214-17.48
					c-1.526-3.84-3.55,5.85-6.093,1.35c0.104-1.91,0.197-3.81-1.214-4.04c0.197-1.57,2.211-1.12,3.654-1.34
					c0.716-4.83-1.422-6.51-2.439-9.41c-1.08,0.59-2.18,1.18-2.439,2.69c-2.304-0.15-0.851-4.45-3.654-4.03
					c3.125-9.44,21.892-14.83,14.626-26.89c5.938,2.45,11.885-7.37,23.158-6.72c-3.135,2.47-0.747,3.35-3.654,6.72
					c0.519,1.65,1.557,2.75,3.654,2.69c1.64-0.42,1.007-3.36,1.215-5.38c8.885,0.53,15.03,11.17,23.158,8.07
					c2.356,0.53,0.093,6.15,4.878,4.03c1.214,4.05-2.72,2.38-4.878,2.69c3.363,2.11,8.771,1.96,10.972,5.38
					c0.342,2.17-1.163,2.31-1.225,4.03c7.63,4.34,26.698,5.93,23.158,26.88c-3.944-3.03-6.072,5.23-13.4,2.69
					c0.405,3.47,10.65-0.98,6.093,4.04c3.965-2.52,4.92-1.41,8.522-5.38c1.235,0.87,1.256,3.09,3.664,2.69
					c-0.135,3.44-4.09,2.67-7.318,2.69c5.439,3.53,16.785-3.32,18.279,9.41c12.633,2.2,20.355,9.8,25.598,20.16
					c-2.917,9.79-13.733,10.85-20.719,16.13c2.782,10.47-9.882,14.92-13.411,22.86c-8.48,0.82-23.013-2.01-24.373,2.68
					c-3.872-5-11.408-6.74-17.055-2.68c-1.142-5.29,4.225-3.39,2.429-9.41c-5.917-1.2-8.688-9.6-14.625-6.73
					c-0.665-2.98,2.335-1.9,2.439-4.03c-1.193-1.81-4.1-1.73-4.868-4.03c-4.65-1.98-0.249,6.01-4.878,4.03
					c-2.575-2.98,1.276-6.48,0-12.1c-3.945-1.66-0.935,4.36-4.879,2.69c1.235-9.17-8.408-16.25-15.84-20.16
					C-92.567,29.748-92.681,24.238-92.806,18.728z"/>
			</g>
			<g>
			</g>
		</g>
	</g>
	<polygon fill="#999999" points="-68.549,-208.063 -10.421,-24.164 -134.983,-190.349 -230.222,-206.296 -211.612,-140.302 
		-76.958,-37.732 -254.201,-24.164 -210.655,19.382 -241.125,97.238 -19.68,7.968 -51.371,73.848 61.202,155.148 1.039,60.397 
		-3.84,24.107 242.001,-14.875 189.017,-111.852 93.546,-37.153 27.404,-86.757 96.495,-175.756 16.502,-204.125 -1.08,-111.152 	
		"/>
	<polygon fill="#FFDF16" points="-35.086,-35.873 -172.836,-180.205 -87.235,-23.152 -260.991,56.063 -52.98,19.382 
		-62.322,208.063 -3.84,24.107 146.251,205.61 27.404,-0.978 260.991,3.576 9.301,-24.164 109.968,-204.125 	"/>
	<polygon fill="#DBAC38" points="-29.523,-21.244 -114.021,-109.78 -61.511,-13.441 -168.096,35.15 -40.499,12.65 -46.229,128.391 
		-10.356,15.549 81.713,126.887 8.81,0.162 152.096,2.955 -2.294,-14.062 59.457,-124.453 	"/>
</g>
</svg>
