<?xml version="1.0" encoding="utf-8"?>
<!-- Generator: Adobe Illustrator 16.0.0, SVG Export Plug-In . SVG Version: 6.00 Build 0)  -->
<!DOCTYPE svg PUBLIC "-//W3C//DTD SVG 1.1//EN" "http://www.w3.org/Graphics/SVG/1.1/DTD/svg11.dtd">
<svg version="1.1" id="Layer_1" xmlns="http://www.w3.org/2000/svg" xmlns:xlink="http://www.w3.org/1999/xlink" x="0px" y="0px"
	 width="173.5px" height="121.84px" viewBox="0 0 173.5 121.84" enable-background="new 0 0 173.5 121.84" xml:space="preserve">
<g id="fatmanEating">
<g id="Guides" display="none">
</g>
<g id="_x31_2_Col_Grid" display="none" opacity="0.1" enable-background="new    ">
	<g display="inline">
		<g>
			<rect x="141.413" y="-142.08" fill="#FF0000" width="60" height="1020"/>
		</g>
		<g>
			<rect x="61.413" y="-142.08" fill="#FF0000" width="60" height="1020"/>
		</g>
		<g>
			<rect x="-18.587" y="-142.08" fill="#FF0000" width="60" height="1020"/>
		</g>
	</g>
</g>
<g id="bg" display="none">
	<rect x="-218.587" y="-142.08" display="inline" fill="#1A1A1A" width="1020" height="1021"/>
</g>
<g id="stars" display="none">
</g>
<g id="Layer_5" display="none">
</g>
<g id="Layer_3" display="none">
	<rect x="-28.587" y="-22.08" display="inline" fill="#333333" width="640" height="480"/>
	<rect x="-19.587" y="-12.08" display="inline" width="620" height="460"/>
</g>
<g id="unused" display="none">
	<path display="inline" fill="#F1F2ED" d="M602.413,427.92c0,11.046-8.954,20-20,20h-580c-11.046,0-20-8.954-20-20v-424
		c0-11.046,8.954-20,20-20h580c11.046,0,20,8.954,20,20V427.92z"/>
</g>
<circle fill="#221F1F" stroke="#221F1F" stroke-miterlimit="10" cx="121.008" cy="74.174" r="1.833"/>
<path fill="#FFFFFF" stroke="#221F1F" stroke-miterlimit="10" d="M125.126,98.008c0,8.001-4.201,14.486-9.385,14.486H52.198
	c-5.184,0-9.385-6.485-9.385-14.486V35.232c0-8.001,4.201-14.487,9.385-14.487h63.543c5.184,0,9.385,6.486,9.385,14.487V98.008z"/>
<path fill="#FFFFFF" stroke="#221F1F" stroke-miterlimit="10" d="M125.324,64.409c2.264-2.021,6.004-1.531,8.352,1.097l0,0
	c2.349,2.627,2.416,6.398,0.152,8.423l-12.307,10.993c-2.265,2.021-6.006,1.532-8.354-1.096l0,0c-2.347-2.628-2.414-6.4-0.148-8.424
	L125.324,64.409z"/>
<circle fill="#221F1F" stroke="#221F1F" stroke-miterlimit="10" cx="46.931" cy="74.336" r="1.833"/>
<path fill="none" stroke="#221F1F" stroke-miterlimit="10" d="M128.777,78.236c0.294-5.213-3.311-9.646-8.062-9.914"/>
<path fill="#FFFFFF" stroke="#221F1F" stroke-miterlimit="10" d="M33.849,73.885c-2.349-1.924-2.444-5.694-0.211-8.422l0,0
	c2.23-2.727,5.946-3.377,8.296-1.454l12.768,10.453c2.351,1.924,2.446,5.695,0.214,8.422l0,0c-2.233,2.727-5.949,3.378-8.299,1.454
	L33.849,73.885z"/>
<path fill="none" stroke="#221F1F" stroke-miterlimit="10" d="M47.186,68.31c-5.194,0.518-9.016,4.767-8.543,9.5"/>
<rect x="51.164" y="67.316" fill="#FFFFFF" stroke="#221F1F" stroke-miterlimit="10" width="65.718" height="40.459"/>
<ellipse fill="#808083" stroke="#221F1F" stroke-miterlimit="10" cx="83.97" cy="82.165" rx="22" ry="7.5"/>
<line fill="none" stroke="#221F1F" stroke-width="3" stroke-miterlimit="10" x1="0" y1="113.495" x2="173.5" y2="113.495"/>
<circle fill="#FFFFFF" stroke="#221F1F" stroke-miterlimit="10" cx="83.97" cy="43.743" r="43.243"/>
<ellipse fill="#C0B399" stroke="#221F1F" stroke-miterlimit="10" cx="83.97" cy="41.684" rx="35.205" ry="23.315"/>
<circle fill="#221F1F" stroke="#221F1F" stroke-miterlimit="10" cx="102.838" cy="42.162" r="1.375"/>
<circle fill="#221F1F" stroke="#221F1F" stroke-miterlimit="10" cx="64.309" cy="42.162" r="1.375"/>
<circle fill="#808083" stroke="#221F1F" stroke-miterlimit="10" cx="97.29" cy="101.495" r="3"/>
<circle fill="#808083" stroke="#221F1F" stroke-miterlimit="10" cx="97.29" cy="93.26" r="3"/>
<circle fill="#808083" stroke="#221F1F" stroke-miterlimit="10" cx="70.649" cy="93.26" r="3"/>
<ellipse fill="#A6A8AB" stroke="#221F1F" stroke-miterlimit="10" cx="107.882" cy="106.8" rx="9" ry="14.54"/>
<line fill="none" stroke="#221F1F" stroke-miterlimit="10" x1="100.323" y1="98.911" x2="115.527" y2="98.911"/>
<line fill="none" stroke="#221F1F" stroke-miterlimit="10" x1="116.882" y1="106.8" x2="98.915" y2="106.8"/>
<line fill="none" stroke="#221F1F" stroke-miterlimit="10" x1="100.323" y1="114.676" x2="115.527" y2="114.676"/>
<ellipse fill="#A6A8AB" stroke="#221F1F" stroke-miterlimit="10" cx="60.274" cy="106.8" rx="9" ry="14.54"/>
<line fill="none" stroke="#221F1F" stroke-miterlimit="10" x1="52.715" y1="98.911" x2="67.92" y2="98.911"/>
<line fill="none" stroke="#221F1F" stroke-miterlimit="10" x1="69.274" y1="106.8" x2="51.307" y2="106.8"/>
<line fill="none" stroke="#221F1F" stroke-miterlimit="10" x1="52.715" y1="114.676" x2="67.92" y2="114.676"/>
<rect x="114.962" y="35.36" transform="matrix(-0.2533 0.9674 -0.9674 -0.2533 211.7702 -55.2588)" fill="#FFFFFF" stroke="#221F1F" stroke-miterlimit="10" width="24.501" height="37.489"/>
<polygon fill="#FFFFFF" stroke="#221F1F" stroke-miterlimit="10" points="61.563,48.141 43.237,26.532 12.646,56.409 26.767,73.061 
	"/>
<line fill="none" stroke="#221F1F" stroke-miterlimit="10" x1="37.026" y1="32.598" x2="54.434" y2="53.125"/>
<line fill="none" stroke="#221F1F" stroke-miterlimit="10" x1="22.439" y1="46.955" x2="37.787" y2="65.053"/>
<text transform="matrix(0.6468 0.7627 -0.7627 0.6468 28.4805 43.7969)" fill="#F16522" font-family="'MyriadPro-Regular'" font-size="10">soda</text>
<text transform="matrix(0.1893 -0.9819 0.9819 0.1893 126.8389 65.2598)" fill="#EC1C24" font-family="'MyriadPro-Regular'" font-size="10">chips</text>
<polyline fill="none" stroke="#221F1F" stroke-miterlimit="10" points="144.407,46.707 137.751,69.527 108.934,61.984 
	114.777,38.189 "/>
<g id="Layer_2">
	<ellipse fill="#382D00" cx="52.295" cy="39.396" rx="5.364" ry="4.142"/>
	<ellipse fill="#382D00" cx="56.537" cy="39.021" rx="7.772" ry="7.934"/>
	<ellipse fill="#382D00" cx="51.68" cy="33.775" rx="7.404" ry="6.312"/>
	<ellipse fill="#382D00" cx="68.917" cy="42.105" rx="9.833" ry="11.019"/>
	<ellipse fill="#382D00" cx="59.972" cy="45.302" rx="7.677" ry="3.618"/>
	<ellipse fill="#382D00" cx="73.301" cy="53.48" rx="7.616" ry="9.683"/>
	<ellipse fill="#382D00" cx="67.946" cy="55.605" rx="3.637" ry="2.481"/>
	<ellipse fill="#382D00" cx="66.192" cy="56.845" rx="7.109" ry="2.741"/>
	<ellipse fill="#382D00" cx="79.636" cy="61.087" rx="4.386" ry="3"/>
	<ellipse fill="#382D00" cx="80.417" cy="56.087" rx="5.167" ry="4.833"/>
	<ellipse fill="#382D00" cx="74.917" cy="45.951" rx="6" ry="3.845"/>
	<ellipse fill="#382D00" cx="67.81" cy="40.278" rx="5.839" ry="5.024"/>
	<ellipse fill="#382D00" cx="55.629" cy="39.058" rx="5.934" ry="3.804"/>
	<ellipse fill="#382D00" cx="55.048" cy="34.387" rx="3.369" ry="4.634"/>
</g>
<polygon fill="#FFFFFF" stroke="#221F1F" stroke-miterlimit="10" points="61.563,48.141 43.237,26.532 12.646,56.409 26.767,73.061 
	"/>
<line fill="none" stroke="#221F1F" stroke-miterlimit="10" x1="37.026" y1="32.598" x2="54.434" y2="53.125"/>
<line fill="none" stroke="#221F1F" stroke-miterlimit="10" x1="22.439" y1="46.955" x2="37.787" y2="65.053"/>
<text transform="matrix(0.6468 0.7627 -0.7627 0.6468 28.4805 43.7969)" fill="#F16522" font-family="'MyriadPro-Regular'" font-size="10">soda</text>
<ellipse fill="#FFEC00" cx="111.113" cy="44.854" rx="5.137" ry="4.066"/>
<ellipse fill="#FFEC00" cx="102.28" cy="51.68" rx="3.696" ry="3.926"/>
<ellipse fill="#FFEC00" cx="100.842" cy="56.479" rx="8.092" ry="6.684"/>
<ellipse fill="#FFEC00" cx="106.292" cy="51.389" rx="7.708" ry="2.469"/>
<ellipse fill="#FFEC00" cx="100.902" cy="43.574" rx="6.612" ry="4.179"/>
<ellipse fill="#FFEC00" cx="101.466" cy="45.137" rx="6.049" ry="6.117"/>
<ellipse fill="#FFEC00" cx="98.917" cy="54.883" rx="6.167" ry="3.204"/>
<ellipse fill="#FFEC00" cx="93.417" cy="59.503" rx="3.167" ry="1.417"/>
<ellipse fill="#FFEC00" cx="90.52" cy="63.854" rx="3.77" ry="2.766"/>
<ellipse fill="#FFEC00" cx="93.52" cy="60.211" rx="6.77" ry="0.708"/>
<ellipse fill="#FFEC00" cx="94.552" cy="51.534" rx="4.032" ry="0.146"/>
<ellipse fill="#FFEC00" cx="91.437" cy="47.835" rx="5.853" ry="7.048"/>
<ellipse fill="#FFEC00" cx="95.833" cy="53.941" rx="3.083" ry="4.145"/>
<ellipse fill="#FFEC00" cx="91.52" cy="57.114" rx="2.77" ry="1.028"/>
<rect x="114.962" y="35.36" transform="matrix(-0.2533 0.9674 -0.9674 -0.2533 211.7702 -55.2588)" fill="#FFFFFF" stroke="#221F1F" stroke-miterlimit="10" width="24.501" height="37.489"/>
<text transform="matrix(0.1893 -0.9819 0.9819 0.1893 126.8389 65.2598)" fill="#EC1C24" font-family="'MyriadPro-Regular'" font-size="10">chips</text>
<polyline fill="none" stroke="#221F1F" stroke-miterlimit="10" points="144.407,46.707 137.751,69.527 108.934,61.984 
	114.777,38.189 "/>
 </g>
</svg>
