<?xml version="1.0" encoding="utf-8"?>
<!-- Generator: Adobe Illustrator 16.0.0, SVG Export Plug-In . SVG Version: 6.00 Build 0)  -->
<!DOCTYPE svg PUBLIC "-//W3C//DTD SVG 1.1//EN" "http://www.w3.org/Graphics/SVG/1.1/DTD/svg11.dtd">
<svg version="1.1" xmlns="http://www.w3.org/2000/svg" xmlns:xlink="http://www.w3.org/1999/xlink" x="0px" y="0px"
	 width="87.486px" height="124.303px" viewBox="0 0 87.486 124.303" enable-background="new 0 0 87.486 124.303"
	 xml:space="preserve">
<g id="Guides" display="none">
</g>
<g id="_x31_2_Col_Grid" display="none" opacity="0.1" enable-background="new    ">
	<g display="inline">
		<g>
			<rect x="46.5" y="-360.886" fill="#FF0000" width="60" height="1020"/>
		</g>
		<g>
			<rect x="-33.5" y="-360.886" fill="#FF0000" width="60" height="1020"/>
		</g>
	</g>
</g>
<g id="bg" display="none">
	<rect x="-393.5" y="-360.886" display="inline" fill="#1A1A1A" width="1020" height="1021"/>
</g>
<g id="stars" display="none">
	<g display="inline" opacity="0.3">
		<g>
		</g>
		<g>
		</g>
	</g>
</g>
<g id="Layer_5" display="none">
</g>
<g id="Layer_3" display="none">
	<rect x="-203.5" y="-240.886" display="inline" fill="#333333" width="640" height="480"/>
	<rect x="-194.5" y="-230.886" display="inline" width="620" height="460"/>
</g>
<g id="unused" display="none">
	<path display="inline" fill="#999999" d="M427.5,209.114c0,11.046-8.954,20-20,20h-580c-11.046,0-20-8.954-20-20v-424
		c0-11.046,8.954-20,20-20h580c11.046,0,20,8.954,20,20V209.114z"/>
</g>
<g id="Layer_8">
	<g>
		<path fill="#FFFFFF" stroke="#231F20" stroke-miterlimit="10" d="M84.899,98.008c0,8.001-4.202,14.487-9.386,14.487H11.973
			c-5.184,0-9.386-6.486-9.386-14.487V35.232c0-8.001,4.202-14.487,9.386-14.487h63.541c5.184,0,9.386,6.486,9.386,14.487V98.008z"
			/>
		<circle fill="#231F20" stroke="#231F20" stroke-miterlimit="10" cx="80.782" cy="74.174" r="1.833"/>
		<circle fill="#231F20" stroke="#231F20" stroke-miterlimit="10" cx="6.704" cy="74.337" r="1.833"/>
		<path fill="#FFFFFF" stroke="#231F20" stroke-miterlimit="10" d="M76.516,73.948c2.148-2.148,5.91-1.869,8.402,0.624l0,0
			c2.492,2.492,2.771,6.253,0.623,8.401L73.874,94.64c-2.147,2.148-5.909,1.869-8.401-0.624l0,0
			c-2.492-2.492-2.771-6.254-0.623-8.402L76.516,73.948z"/>
		<path fill="#FFFFFF" stroke="#231F20" stroke-miterlimit="10" d="M75.098,111.967c2.148,2.148,1.526,6.252-1.389,9.167l0,0
			c-2.916,2.916-7.02,3.538-9.168,1.39l-11.667-11.667c-2.147-2.148-1.526-6.252,1.39-9.167l0,0c2.915-2.916,7.02-3.538,9.168-1.39
			L75.098,111.967z"/>
		
			<rect x="54.419" y="107.526" transform="matrix(0.7071 -0.7071 0.7071 0.7071 -59.168 75.7723)" fill="#EC1C24" stroke="#231F20" stroke-miterlimit="10" width="14.93" height="3.569"/>
		<path fill="#FFFFFF" stroke="#231F20" stroke-miterlimit="10" d="M23.527,122.524c-2.148,2.148-6.253,1.526-9.168-1.39l0,0
			c-2.916-2.915-3.537-7.02-1.39-9.167L24.637,100.3c2.148-2.148,6.252-1.526,9.168,1.39l0,0c2.915,2.915,3.537,7.02,1.389,9.167
			L23.527,122.524z"/>
		<path fill="#FFFFFF" stroke="#231F20" stroke-miterlimit="10" d="M1.945,82.973c-2.148-2.148-1.869-5.91,0.623-8.402l0,0
			c2.492-2.492,6.254-2.771,8.401-0.623l11.667,11.667c2.148,2.147,1.869,5.909-0.623,8.401l0,0
			c-2.492,2.492-6.254,2.771-8.401,0.624L1.945,82.973z"/>
		
			<rect x="18.718" y="107.526" transform="matrix(0.7071 0.7071 -0.7071 0.7071 84.9609 13.5007)" fill="#EC1C24" stroke="#231F20" stroke-miterlimit="10" width="14.93" height="3.569"/>
		<rect x="18.493" y="67.317" fill="#FFFFFF" stroke="#231F20" stroke-miterlimit="10" width="50.5" height="39.338"/>
		<ellipse fill="#808184" stroke="#231F20" stroke-miterlimit="10" cx="43.743" cy="82.165" rx="22" ry="7.5"/>
		<circle fill="#FFFFFF" stroke="#231F20" stroke-miterlimit="10" cx="43.743" cy="43.743" r="43.243"/>
		<ellipse fill="#C1B49A" stroke="#231F20" stroke-miterlimit="10" cx="43.743" cy="41.684" rx="35.206" ry="23.315"/>
		<circle fill="#231F20" stroke="#231F20" stroke-miterlimit="10" cx="62.611" cy="42.162" r="1.375"/>
		<circle fill="#231F20" stroke="#231F20" stroke-miterlimit="10" cx="24.082" cy="42.162" r="1.375"/>
		<path fill="none" stroke="#231F20" stroke-miterlimit="10" d="M15.769,78.747c-5.22,0-9.444,3.849-9.443,8.606"/>
		<path fill="none" stroke="#231F20" stroke-miterlimit="10" d="M80.742,87.556c0-5.22-3.849-9.444-8.605-9.444"/>
		<circle fill="#808184" stroke="#231F20" stroke-miterlimit="10" cx="57.063" cy="101.495" r="3"/>
		<circle fill="#808184" stroke="#231F20" stroke-miterlimit="10" cx="57.063" cy="93.26" r="3"/>
		<circle fill="#808184" stroke="#231F20" stroke-miterlimit="10" cx="30.424" cy="93.26" r="3"/>
	</g>
</g>
</svg>
