<?xml version="1.0" encoding="utf-8"?>
<!-- Generator: Adobe Illustrator 16.0.0, SVG Export Plug-In . SVG Version: 6.00 Build 0)  -->
<!DOCTYPE svg PUBLIC "-//W3C//DTD SVG 1.1//EN" "http://www.w3.org/Graphics/SVG/1.1/DTD/svg11.dtd">
<svg version="1.1" xmlns="http://www.w3.org/2000/svg" xmlns:xlink="http://www.w3.org/1999/xlink" x="0px" y="0px"
	 width="591.34px" height="79px" viewBox="0 0 591.34 79" enable-background="new 0 0 591.34 79" xml:space="preserve">
<g id="Guides" display="none">
</g>
<g id="_x31_2_Col_Grid" display="none" opacity="0.1" enable-background="new    ">
	<g display="inline">
		<g>
			<rect x="544" y="-164" fill="#FF0000" width="60" height="1020"/>
		</g>
		<g>
			<rect x="464" y="-164" fill="#FF0000" width="60" height="1020"/>
		</g>
		<g>
			<rect x="384" y="-164" fill="#FF0000" width="60" height="1020"/>
		</g>
		<g>
			<rect x="304" y="-164" fill="#FF0000" width="60" height="1020"/>
		</g>
		<g>
			<rect x="224" y="-164" fill="#FF0000" width="60" height="1020"/>
		</g>
		<g>
			<rect x="144" y="-164" fill="#FF0000" width="60" height="1020"/>
		</g>
		<g>
			<rect x="64" y="-164" fill="#FF0000" width="60" height="1020"/>
		</g>
		<g>
			<rect x="-16" y="-164" fill="#FF0000" width="60" height="1020"/>
		</g>
	</g>
</g>
<g id="bg" display="none">
	<rect x="-216" y="-164" display="inline" fill="#1A1A1A" width="1020" height="1021"/>
</g>
<g id="stars" display="none">
	<g display="inline" opacity="0.3">
		<g>
		</g>
		<g>
		</g>
	</g>
</g>
<g id="Layer_5" display="none">
</g>
<g id="Layer_3" display="none">
	<rect x="-26" y="-44" display="inline" fill="#333333" width="640" height="480"/>
	<rect x="-17" y="-34" display="inline" width="620" height="460"/>
</g>
<g id="unused" display="none">
	<path display="inline" fill="#999999" d="M605,406c0,11.046-8.954,20-20,20H5c-11.046,0-20-8.954-20-20V-18
		c0-11.046,8.954-20,20-20h580c11.046,0,20,8.954,20,20V406z"/>
</g>
<g id="Layer_8">
	<g>
		<rect fill="#EFEFEF" width="580" height="79"/>
		<text transform="matrix(0.837 0 0 1 11.0361 55.3848)" font-family="'OCRAStd'" font-size="41.867">ASTEROID KILLER SCHOOL </text>
	</g>
</g>
</svg>
