<?xml version="1.0" encoding="utf-8"?>
<!-- Generator: Adobe Illustrator 16.0.3, SVG Export Plug-In . SVG Version: 6.00 Build 0)  -->
<!DOCTYPE svg PUBLIC "-//W3C//DTD SVG 1.1//EN" "http://www.w3.org/Graphics/SVG/1.1/DTD/svg11.dtd">
<svg version="1.1" id="Layer_1" xmlns="http://www.w3.org/2000/svg" xmlns:xlink="http://www.w3.org/1999/xlink" x="0px" y="0px"
	 width="960px" height="560px" viewBox="0 0 960 560" enable-background="new 0 0 960 560" xml:space="preserve">
<path fill="#1B1BC1" stroke="#1C1C7C" stroke-width="3" stroke-miterlimit="10" d="M652.962,271.961
	c-1.407-7.711-12.113-10.463-17.361-10.961c-5.26-0.499-6.406-6.099-8.127-8.107s-3.921-0.765-3.156,1.052s5.068,10.136,6.885,9.275
	s3.156,1.435,2.773,2.008s-3.825,6.024-4.207,7.458s-1.913,2.104-2.391,2.313s-3.538-2.887-4.781-4.034
	s-10.327-14.057-11.092-15.969s-4.973-2.869-5.068,0c2.964,0.957,7.615,12.667,7.952,16.711s15.843,11.124,15.843,11.124
	s1.686-0.338-5.057,6.404s-10.112,64.044-10.786,69.1c-0.674,5.057-8.427,25.618-16.854,25.281
	c-7.753-5.73-7.079-9.438-13.82-17.865s-2.696-36.74-5.394-48.201s4.383-22.247-33.707-23.258
	c-44.831-27.641,3.033-53.258,3.033-53.258c4.481-1.132,28.019,1.299,33.019,4.132s2.667,5.167,17.667,4.667S600.5,229,595,228.167
	s-2.5-6.667-5.789-6.667s-1.711,4.167-4.211,6.167s-4.167,2.5-4.834-4.667s-9.333-5.667-8.333-3.167s1.333,10-1.5,11.333
	s-6,1.833-4.167-0.333s0.667-2.833-1.333-10.333s-13.333,0.833-13.333,5.333s-0.5,8.667-7.5,9.833s-11.334,4.833-12.667-6.167
	S530,216.167,539,215.5s3.333-8.167,1.666-14s6.334-12.667,8.167-16.167S563.5,185.833,564,183s3.166-4,5-0.667s5.833,3,10,2.167
	s7.333,0.833,8.5-16.333s-9.167,4.167-10.667,5.5s-3.833,0.667-4.167-1.5c-1,1.167-7.333,6.833-5-5.833
	c2.248-12.207,16.104-19.147,23.073-17.1c-1.05-1.075,4.577,1.888,0.761,0.266c-0.242-0.103-0.498-0.189-0.761-0.266
	c0.784,0.803,5.292,3.857,20.255,12.764c-17.239-19.966-38.964-35.95-63.61-46.383l0.001,0L552.5,120v3.25
	c0,0-2.375,4.75-2.875,6.25s-0.125,6.25,1.168,8s-5.293,7-5.293,7l-9,9.917c0,0-7.75,1.083-9.25,0.333s-10.25,0-10.25,0L504.5,162
	v16.236c0,0-10.375,10.514-13.625,11.264s0.125,7,0.125,7l-5.75,6.5l-8,3l-4.626,12.5l-7.374,5.25c0,0-4.25,7-4.75,7.875
	s-4,3.625-5.25,3.625s-4.75,3.5-4.75,3.5l-4.968,4.25l-11.782-5.25c0,0-7.25-4.75-8-4.5s-10,2.5-10,2.5L413.5,243c0,0,0,7,0,7.75
	s-7.375,5-7.375,5s-10.625-5-13.609-12.211c-0.001-0.002-0.002-0.004-0.003-0.006c-0.324,0.446-0.64,0.862-0.931,1.209
	c-7.078,8.427-8.763,5.056-9.774,0c-0.331-1.655,1.063-4.213,2.335-6.765c-0.944,0.318-1.937,0.623-2.893,0.522
	c-2.5-0.263-5.25,7.25-6.5,9.75s-3.5,0.5-4.25-2.5c-0.676-2.703-2.768-9.052-3.725-13.575c-16.584,5.449-24.703,17.323-17.327,31.78
	c8.427,16.517,19.146,18.203,24.91,17.191c5.764-1.011,17.562,10.112,18.572,11.461c1.011,1.348,33.37-4.045,49.55,19.55
	s13.82,44.157,0,57.978s-19.213,30.673-15.505,42.134s-11.124,20.225-14.157,10.112s-23.596-77.527-18.539-86.291
	s-3.708-35.393-14.157-38.427s-51.909-18.539-55.617-33.37s-5.394-33.034-7.416-13.82c-2.021,19.192-9.107,5.752-4.072-20.815
	C309.102,244.11,307,259.309,307,275c0,95.545,77.455,173,173,173s173-77.455,173-173C653,273.984,652.979,272.973,652.962,271.961z
	 M540,169.333c-1-3.833,2.32-10.334,4.41-6.167s1.757,8.334,2.757,8.667s2.666,5,2.666,5s3.166,4.5-2,4.667s-13.5,6.5-8-3.5
	C541,172.167,541,173.167,540,169.333z M526.167,179.833c1.833-1.833,1.499-5,2.166-5.333s1.834-1.548,5.334-1.774
	c0,0,1.333,2.107,1.333,3.774s-0.333,3.667-1.333,5.5s-3.668,0.927-5.834,1.63S524.334,181.667,526.167,179.833z"/>
<path fill="#235623" stroke="#143D14" stroke-width="3" stroke-miterlimit="10" d="M590.739,149.234
	c-6.97-2.047-20.825,4.893-23.073,17.1c-2.333,12.667,4,7,5,5.833c0.334,2.167,2.667,2.833,4.167,1.5s11.834-22.667,10.667-5.5
	s-4.333,15.5-8.5,16.333s-8.166,1.167-10-2.167s-4.5-2.167-5,0.667s-13.334-1.167-15.167,2.333s-9.834,10.333-8.167,16.167
	s7.334,13.333-1.666,14s-9,3-7.667,14S537,236.833,544,235.667s7.5-5.333,7.5-9.833S562.833,213,564.833,220.5
	s3.166,8.167,1.333,10.333s1.334,1.666,4.167,0.333s2.5-8.833,1.5-11.333s7.666-4,8.333,3.167s2.334,6.667,4.834,4.667
	s0.922-6.167,4.211-6.167s0.289,5.833,5.789,6.667s18.333,21.167,3.333,21.667s-12.667-1.834-17.667-4.667
	s-28.537-5.264-33.019-4.132c0,0-47.864,25.618-3.033,53.258c38.09,1.011,31.01,11.797,33.707,23.258s-1.348,39.773,5.394,48.201
	s6.067,12.135,13.82,17.865c8.427,0.337,16.18-20.225,16.854-25.281c0.674-5.056,4.044-62.357,10.786-69.1s5.057-6.404,5.057-6.404
	s-15.506-7.079-15.843-11.124s-4.988-15.755-7.952-16.711c0.096-2.869,4.304-1.912,5.068,0s9.849,14.821,11.092,15.969
	s4.304,4.244,4.781,4.034s2.009-0.878,2.391-2.313s3.824-6.885,4.207-7.458s-0.957-2.869-2.773-2.008s-6.12-7.458-6.885-9.275
	s1.436-3.061,3.156-1.052s2.867,7.608,8.127,8.107c5.248,0.498,15.954,3.25,17.361,10.961
	c-0.725-42.005-16.409-80.362-41.968-109.964C596.031,153.091,591.523,150.037,590.739,149.234z"/>
<path fill="#235623" stroke="#143D14" stroke-width="3" stroke-miterlimit="10" d="M317.089,250.473
	c2.022-19.213,3.708-1.011,7.416,13.82s45.168,30.336,55.617,33.37s19.214,29.663,14.157,38.427s15.506,76.179,18.539,86.291
	s17.865,1.349,14.157-10.112s1.685-28.313,15.505-42.134s16.18-34.383,0-57.978s-48.539-18.202-49.55-19.55
	c-1.011-1.349-12.809-12.472-18.572-11.461c-5.764,1.012-16.483-0.675-24.91-17.191c-7.376-14.457,0.743-26.331,17.327-31.78
	c-0.105-0.498-0.201-0.979-0.275-1.425c-0.75-4.5-4.5-5.25-5-6.25s-4.5,4-4.5,4h-5.5c0,0-1.5-7.625-3.5-7.125s-6.5-6.125-6.75-8.125
	S334,207.5,334,207.5h-13.334c-3.033,7.151-5.589,14.552-7.649,22.157C307.981,256.225,315.068,269.665,317.089,250.473z"/>
<path fill="#490F0F" stroke="#2B0909" stroke-width="3" stroke-miterlimit="10" d="M321,207.5h13l7.25,5.75l4.76,7.238l2.974,1.275
	l2.251,5.553L357,228.5l4.5-4l5.275,7.675c0,0,5.057,18.324,6.516,17.2s5.754-10.186,6.856-10.53s3.995-0.867,3.995-0.867
	s-3.243,11.987,0,11.447s8.373-5.885,8.373-5.885s0.99,3.153,4.349,5.903s9.261,6.308,9.261,6.308l7.375-5V243l1.825-5.882
	l10.425-3.868l19.782,9.75l8.216-7.043l10.77-10.999l8.106-6.458l4.071-11l8.555-4.5l5.75-6.5c0,0-2.277-5.581-1.201-6.291
	s14.701-11.974,14.701-11.974V162l12.5-7.5h18l15.793-15.728c0,0-0.916-10.069,0-11.991s3.096-7.984-2.349-10.258
	S531.75,143,520,140.75s-22.75,10-23.25,12.75s-12,19.226-12,19.226s-14,13.919-15.5,13.347S463.5,186,463,188.25
	s-5.625,9.25-7.438,11s-7.371,15.25-7.371,15.25s-4.688,9.25-11.689,6s-22.002-3.5-27.752-2.75s-13.75,6-16.5,4.25s-14-1.75-14.75-5
	s-15.5-7.25-15.5-7.25s-10.539-1.5-11.645-4s-10.105-4.75-12.355-5s-5.249,0.5-6.249,1.167s-10.503,2-11.085,5.583"/>
<path fill="#235623" stroke="#143D14" stroke-width="3" stroke-miterlimit="10" d="M547.833,181.5c5.166-0.167,2-4.667,2-4.667
	s-1.666-4.667-2.666-5s-0.667-4.5-2.757-8.667S539,165.5,540,169.333s1,2.833-0.167,8.667
	C534.333,188,542.667,181.667,547.833,181.5z"/>
<path fill="#235623" stroke="#143D14" stroke-width="3" stroke-miterlimit="10" d="M527.833,183.63
	c2.166-0.703,4.834,0.203,5.834-1.63s1.333-3.833,1.333-5.5s-1.333-3.774-1.333-3.774c-3.5,0.226-4.667,1.44-5.334,1.774
	s-0.333,3.5-2.166,5.333S525.667,184.333,527.833,183.63z"/>
</svg>
