<?xml version="1.0" encoding="utf-8"?>
<!-- Generator: Adobe Illustrator 16.0.3, SVG Export Plug-In . SVG Version: 6.00 Build 0)  -->
<!DOCTYPE svg PUBLIC "-//W3C//DTD SVG 1.1//EN" "http://www.w3.org/Graphics/SVG/1.1/DTD/svg11.dtd">
<svg version="1.1" id="Layer_1" xmlns="http://www.w3.org/2000/svg" xmlns:xlink="http://www.w3.org/1999/xlink" x="0px" y="0px"
	 width="960px" height="560px" viewBox="0 0 960 560" enable-background="new 0 0 960 560" xml:space="preserve">
<g id="earth">
	<circle fill="#1B1BC1" stroke="#1C1C7C" stroke-width="3" stroke-miterlimit="10" cx="0" cy="0" r="173"/>
	<path fill="#235623" stroke="#143D14" stroke-width="3" stroke-miterlimit="10" d="M-166.968-45.429
		c0,0,11.011-54.654,63.488-93.224c43.039-15.312,28.545,8.958,28.545,8.958s-14.182,23.258,2.348,12.809
		c16.529-10.449-2.01-9.102,9.45-13.82c11.46-4.718,20.562,8.428,18.539,16.517c-2.023,8.089-8.428,16.517-12.81,17.528
		c-4.382,1.011-8.427,15.505-7.416,17.19c1.012,1.685-16.517,40.787-23.595,49.213c-7.078,8.426-8.763,5.056-9.775,0
		c-1.012-5.056,14.09-18.54-7.449-14.495s-33.337,17.191-24.91,33.708c8.427,16.518,19.146,18.203,24.91,17.191
		c5.764-1.013,17.561,10.111,18.572,11.461c1.011,1.348,33.371-4.045,49.55,19.55c16.179,23.595,13.819,44.157,0,57.978
		c-13.82,13.821-19.214,30.673-15.506,42.134c3.708,11.462-11.124,20.226-14.156,10.112c-3.033-10.113-23.595-77.527-18.54-86.291
		c5.056-8.764-3.708-35.393-14.157-38.427c-10.449-3.034-51.909-18.538-55.617-33.37s-5.394-33.034-7.416-13.82
		C-164.933-5.313-172.036-18.804-166.968-45.429z"/>
	<path fill="#235623" stroke="#143D14" stroke-width="3" stroke-miterlimit="10" d="M67.646-33.965c0,0-47.863,25.618-3.032,53.258
		c38.09,1.012,31.01,11.797,33.707,23.258c2.696,11.461-1.349,39.773,5.394,48.201s6.067,12.135,13.82,17.865
		c8.427,0.337,16.18-20.226,16.854-25.281s4.044-62.357,10.786-69.1c6.742-6.743,5.058-6.404,5.058-6.404
		s-15.507-7.079-15.844-11.124s-4.987-15.755-7.952-16.711c0.097-2.869,4.305-1.912,5.068,0s9.849,14.821,11.092,15.969
		S146.9,0.21,147.378,0c0.477-0.21,2.009-0.878,2.391-2.313s3.824-6.885,4.207-7.458c0.383-0.573-0.957-2.869-2.772-2.008
		c-1.816,0.861-6.12-7.458-6.886-9.275c-0.765-1.817,1.437-3.061,3.156-1.052c1.72,2.009,2.867,7.608,8.127,8.107
		c5.261,0.499,16.006,3.261,17.374,11.012c0-10.994-1.471-64.007-41.973-110.009C96-133.833,118.167-122.667,111.5-125.5
		s-21.501,4.167-23.834,16.833s4,7,5,5.833c0.334,2.167,2.667,2.833,4.167,1.5s11.834-22.667,10.667-5.5s-4.333,15.5-8.5,16.333
		s-8.166,1.167-10-2.167s-4.5-2.167-5,0.667s-13.334-1.167-15.167,2.333s-9.834,10.333-8.167,16.167S68-60.168,59-59.501
		s-9,3-7.667,14S57-38.167,64-39.333s7.5-5.333,7.5-9.833S82.833-62,84.833-54.5s3.166,8.167,1.333,10.333s1.334,1.666,4.167,0.333
		s2.5-8.833,1.5-11.333s7.666-4,8.333,3.167s2.334,6.667,4.834,4.667s0.922-6.167,4.211-6.167s0.289,5.833,5.789,6.667
		s18.333,21.167,3.333,21.667S105.666-27,100.666-29.833S72.129-35.097,67.646-33.965z"/>
	<path fill="#235623" stroke="#143D14" stroke-width="3" stroke-miterlimit="10" d="M69.833-98.167c0,0,3.166,4.5-2,4.667
		s-13.5,6.5-8-3.5C61-102.833,61-101.833,60-105.667s2.32-10.334,4.41-6.167s1.757,8.334,2.757,8.667S69.833-98.167,69.833-98.167z"
		/>
	<path fill="#235623" stroke="#143D14" stroke-width="3" stroke-miterlimit="10" d="M53.667-102.274c0,0,1.333,2.107,1.333,3.774
		s-0.333,3.667-1.333,5.5s-3.668,0.927-5.834,1.63s-3.499-1.963-1.666-3.797s1.499-5,2.166-5.333S50.167-102.048,53.667-102.274z"/>
	<path fill="#235623" stroke="#143D14" stroke-width="3" stroke-miterlimit="10" d="M-33.333-112.167c0,0-1,31.5,11.333,2.333
		c5.833-15.833,12.667-21.833,13.667-25.333s3.5-24.333-7.667-16.5s-8.169-3.667-10.251-3.333S-37.667-118.833-33.333-112.167z"/>
</g>
</svg>
