<?xml version="1.0" encoding="utf-8"?>
<!-- Generator: Adobe Illustrator 16.0.3, SVG Export Plug-In . SVG Version: 6.00 Build 0)  -->
<!DOCTYPE svg PUBLIC "-//W3C//DTD SVG 1.1//EN" "http://www.w3.org/Graphics/SVG/1.1/DTD/svg11.dtd">
<svg version="1.1" id="Layer_1" xmlns="http://www.w3.org/2000/svg" xmlns:xlink="http://www.w3.org/1999/xlink" x="0px" y="0px"
	 width="960px" height="560px" viewBox="0 0 960 560" enable-background="new 0 0 960 560" xml:space="preserve">
<circle fill="#1B1BC1" stroke="#1C1C7C" stroke-width="3" stroke-miterlimit="10" cx="480" cy="280" r="173"/>
<path fill="#235623" stroke="#143D14" stroke-width="3" stroke-miterlimit="10" d="M313.032,234.571
	c0,0,11.011-54.654,63.488-93.224c43.039-15.312,28.545,8.958,28.545,8.958s-14.181,23.258,2.348,12.809s-2.01-9.102,9.45-13.82
	s20.562,8.428,18.539,16.517s-8.427,16.517-12.809,17.528s-8.427,15.505-7.416,17.19s-16.517,40.787-23.595,49.213
	s-8.763,5.056-9.775,0s14.09-18.54-7.449-14.495s-33.337,17.191-24.91,33.708s19.146,18.203,24.91,17.191
	s17.561,10.112,18.572,11.461c1.011,1.348,33.371-4.045,49.55,19.55s13.82,44.157,0,57.978s-19.213,30.673-15.505,42.134
	s-11.124,20.225-14.157,10.112s-23.595-77.527-18.539-86.291s-3.708-35.393-14.157-38.427s-51.909-18.538-55.617-33.37
	c-3.708-14.832-5.394-33.034-7.416-13.82S307.964,261.196,313.032,234.571z"/>
<path fill="#235623" stroke="#143D14" stroke-width="3" stroke-miterlimit="10" d="M547.647,246.035c0,0-47.864,25.618-3.033,53.258
	c38.09,1.011,31.01,11.797,33.707,23.258s-1.348,39.773,5.394,48.201s6.067,12.135,13.82,17.865
	c8.427,0.337,16.18-20.225,16.854-25.281c0.674-5.056,4.044-62.357,10.786-69.1s5.057-6.404,5.057-6.404
	s-15.506-7.079-15.843-11.124s-4.988-15.755-7.952-16.711c0.096-2.869,4.304-1.912,5.068,0s9.849,14.821,11.092,15.969
	s4.304,4.244,4.781,4.034s2.009-0.878,2.391-2.313s3.824-6.885,4.207-7.458s-0.957-2.869-2.773-2.008s-6.12-7.458-6.885-9.275
	s1.436-3.061,3.156-1.052s2.867,7.608,8.127,8.107s16.006,3.261,17.374,11.012c0-10.994-1.471-64.007-41.973-110.009
	C576,146.167,598.167,157.333,591.5,154.5s-21.501,4.167-23.834,16.833s4,7,5,5.833c0.334,2.167,2.667,2.833,4.167,1.5
	s11.834-22.667,10.667-5.5s-4.333,15.5-8.5,16.333s-8.166,1.167-10-2.167s-4.5-2.167-5,0.667s-13.334-1.167-15.167,2.333
	s-9.834,10.333-8.167,16.167s7.334,13.333-1.666,14s-9,3-7.667,14S537,241.833,544,240.667s7.5-5.333,7.5-9.833
	S562.833,218,564.833,225.5s3.166,8.167,1.333,10.333s1.334,1.666,4.167,0.333s2.5-8.833,1.5-11.333s7.666-4,8.333,3.167
	s2.334,6.667,4.834,4.667s0.922-6.167,4.211-6.167s0.289,5.833,5.789,6.667s18.333,21.167,3.333,21.667s-12.667-1.834-17.667-4.667
	S552.129,244.903,547.647,246.035z"/>
<path fill="#235623" stroke="#143D14" stroke-width="3" stroke-miterlimit="10" d="M549.833,181.833c0,0,3.166,4.5-2,4.667
	s-13.5,6.5-8-3.5c1.167-5.833,1.167-4.833,0.167-8.667s2.32-10.334,4.41-6.167s1.757,8.334,2.757,8.667
	S549.833,181.833,549.833,181.833z"/>
<path fill="#235623" stroke="#143D14" stroke-width="3" stroke-miterlimit="10" d="M533.667,177.726c0,0,1.333,2.107,1.333,3.774
	s-0.333,3.667-1.333,5.5s-3.668,0.927-5.834,1.63s-3.499-1.963-1.666-3.797s1.499-5,2.166-5.333S530.167,177.952,533.667,177.726z"
	/>
<path fill="#235623" stroke="#143D14" stroke-width="3" stroke-miterlimit="10" d="M446.667,167.833c0,0-1,31.5,11.333,2.333
	c5.833-15.833,12.667-21.833,13.667-25.333s3.5-24.333-7.667-16.5s-8.169-3.667-10.251-3.333S442.333,161.167,446.667,167.833z"/>
</svg>
