<?xml version="1.0" encoding="utf-8"?>
<!-- Generator: Adobe Illustrator 16.0.3, SVG Export Plug-In . SVG Version: 6.00 Build 0)  -->
<!DOCTYPE svg PUBLIC "-//W3C//DTD SVG 1.1//EN" "http://www.w3.org/Graphics/SVG/1.1/DTD/svg11.dtd">
<svg version="1.1" id="Layer_1" xmlns="http://www.w3.org/2000/svg" xmlns:xlink="http://www.w3.org/1999/xlink" x="0px" y="0px"
	 width="960px" height="560px" viewBox="0 0 960 560" enable-background="new 0 0 960 560" xml:space="preserve">
<path fill="#3F2424" stroke="#261515" stroke-miterlimit="10" d="M476.574,216.492c0,0,9.926,6.758,11.676,6.758
	s11.898-4.371,18.574-0.436s16.676,9.936,17.926,13.436s6.75,12,8.5,16.5s4,20.25,3.5,23.5s-3.609,40.189,0.07,45.595
	s8.93,20.405,8.93,20.405l-3.5,13.5l-12.75,7.5l-24.75-4.75L482,361.25L455,350l-6.5-15.75l-8.25-5.75L429,323.75l-6.75-8.25
	l-8.144-6.992L476.574,216.492z"/>
<path fill="#235623" stroke="#143D14" stroke-width="3" stroke-miterlimit="10" d="M500.932,269.3
	c-1.463-1.314-1.854-16.356,2.038-18.61c3.891-2.254,7.538-12.191,7.095-20.517c-0.443-8.327-13.004-18.22-22.573-10.342
	s7.756,1.143-4.974,15.987c-12.729,14.843-6.007-11.555-6.007-11.555s6.726-27.456-29.915-0.177
	c-17.959,24.593-29.317,53.734-32.489,84.422l12.746-3.917c0,0,7.792,1.528,8.619,3.366c0.826,1.838,7.074,6.85,8.839,5.783
	c1.765-1.064,5.438,5.783,5.438,5.783l5.257-1.615c0,0,2.355-5.955,3.127-5.146c0.771,0.81,4.576,0.425,6.615,4.506
	c0.202,0.404,0.435,0.836,0.682,1.281c2.03-1.437,4.263-2.799,6.683-4.07c13.05-6.857,12.581-1.263,11.623,4.515
	c1.31-0.938,2.49-1.872,3.694-1.112c1.947,1.232,0.973-2.045,5.938,3.964C497.548,309.69,502.333,270.561,500.932,269.3z"/>
</svg>
