<?xml version="1.0" encoding="utf-8"?>
<!-- Generator: Adobe Illustrator 16.0.3, SVG Export Plug-In . SVG Version: 6.00 Build 0)  -->
<!DOCTYPE svg PUBLIC "-//W3C//DTD SVG 1.1//EN" "http://www.w3.org/Graphics/SVG/1.1/DTD/svg11.dtd">
<svg version="1.1" id="Layer_1" xmlns="http://www.w3.org/2000/svg" xmlns:xlink="http://www.w3.org/1999/xlink" x="0px" y="0px"
	 width="960px" height="560px" viewBox="0 0 960 560" enable-background="new 0 0 960 560" xml:space="preserve">
<g id="earth_x5F_bit_bottom">
	<path fill="#3F2424" stroke="#261515" stroke-miterlimit="10" d="M-3.354-64.508c0,0,9.926,6.758,11.676,6.758
		s11.898-4.371,18.574-0.436S43.572-48.25,44.822-44.75s6.75,12,8.5,16.5s4,20.25,3.5,23.5s-3.609,40.189,0.07,45.595
		c3.679,5.406,8.93,20.405,8.93,20.405l-3.5,13.5l-12.75,7.5l-24.75-4.75l-22.75,2.75l-27-11.25l-6.5-15.75l-8.25-5.75l-11.25-4.75
		l-6.75-8.25l-8.144-6.992L-3.354-64.508z"/>
	<path fill="#235623" stroke="#143D14" stroke-width="3" stroke-miterlimit="10" d="M21.003-11.7
		c-1.463-1.314-1.854-16.356,2.038-18.61s7.538-12.191,7.096-20.517c-0.443-8.327-13.005-18.22-22.573-10.342
		c-9.569,7.878,7.756,1.143-4.975,15.987c-12.729,14.843-6.007-11.555-6.007-11.555s6.727-27.456-29.915-0.177
		C-51.292-32.321-62.649-3.18-65.821,27.508l12.745-3.917c0,0,7.792,1.528,8.619,3.366c0.826,1.838,7.074,6.85,8.839,5.783
		c1.766-1.064,5.438,5.783,5.438,5.783l5.257-1.615c0,0,2.355-5.955,3.127-5.146c0.771,0.811,4.576,0.425,6.615,4.506
		c0.202,0.404,0.435,0.836,0.682,1.281c2.03-1.437,4.264-2.799,6.684-4.07c13.05-6.856,12.581-1.263,11.623,4.516
		c1.31-0.938,2.489-1.872,3.693-1.112c1.947,1.232,0.974-2.045,5.938,3.964C17.62,28.69,22.405-10.439,21.003-11.7z"/>
</g>
</svg>
