<?xml version="1.0" encoding="utf-8"?>
<!-- Generator: Adobe Illustrator 16.0.3, SVG Export Plug-In . SVG Version: 6.00 Build 0)  -->
<!DOCTYPE svg PUBLIC "-//W3C//DTD SVG 1.1//EN" "http://www.w3.org/Graphics/SVG/1.1/DTD/svg11.dtd">
<svg version="1.1" id="Layer_1" xmlns="http://www.w3.org/2000/svg" xmlns:xlink="http://www.w3.org/1999/xlink" x="0px" y="0px"
	 width="960px" height="560px" viewBox="0 0 960 560" enable-background="new 0 0 960 560" xml:space="preserve">
<g>
	
		<rect x="475.391" y="262.645" transform="matrix(1 -0.002 0.002 1 -0.5351 0.9591)" fill="#E2C38D" width="10.527" height="12.257"/>
	<path fill="#EDD091" d="M490.552,246.573c-1.998-6.92-9.978-6.2-9.978-6.2l0,0.042c-0.474-0.033-8.023-0.469-9.934,6.239
		c-1.973,6.928,1.406,20.504,10.05,20.488l-0.001-0.05C489.25,266.959,492.54,253.462,490.552,246.573z"/>
	<g>
		<path fill="#F7CC8F" d="M470.397,253.06c0,0-1.113-1.187-1.738-0.408c-0.626,0.779-0.092,2.608,0.729,3.567
			c0.822,0.958,0.919,1.552,1.643,0.958L470.397,253.06z"/>
		<path fill="#F7CC8F" d="M490.918,253.023c0,0,1.107-1.19,1.735-0.415c0.629,0.776,0.104,2.607-0.717,3.569
			c-0.818,0.962-0.915,1.555-1.638,0.964L490.918,253.023z"/>
	</g>
	
		<rect x="472.592" y="272.378" transform="matrix(1 -0.0016 0.0016 1 -0.467 0.786)" fill="#9B3A1C" width="16.132" height="27.424"/>
	
		<rect x="472.636" y="299.251" transform="matrix(1 -0.0019 0.0019 1 -0.583 0.8973)" fill="#102251" width="7.261" height="21.629"/>
	
		<rect x="481.508" y="299.238" transform="matrix(1 -0.0016 0.0016 1 -0.4998 0.7834)" fill="#102251" width="7.261" height="21.626"/>
	<g>
		<polygon fill="#9B3A1C" points="496.818,287.642 481.96,272.841 485.951,268.841 500.805,283.642 		"/>
		<circle fill="#9B3A1C" cx="500.466" cy="287.289" r="2.823"/>
	</g>
	<g>
		
			<rect x="459.466" y="275.459" transform="matrix(-0.7058 0.7085 -0.7085 -0.7058 998.7734 141.7407)" fill="#9B3A1C" width="20.972" height="5.645"/>
		<path fill="#9B3A1C" d="M458.903,285.369c-1.101,1.107-1.097,2.893,0.008,3.992c1.105,1.104,2.893,1.1,3.992-0.005
			c1.102-1.105,1.098-2.894-0.007-3.994C461.792,284.263,460.004,284.265,458.903,285.369z"/>
	</g>
</g>
<line fill="none" stroke="#000000" stroke-miterlimit="10" x1="483.934" y1="249.251" x2="488.188" y2="253.505"/>
<line fill="none" stroke="#000000" stroke-miterlimit="10" x1="488.748" y1="249.251" x2="484.214" y2="253.785"/>
<line fill="none" stroke="#000000" stroke-miterlimit="10" x1="473.934" y1="249.251" x2="478.188" y2="253.505"/>
<line fill="none" stroke="#000000" stroke-miterlimit="10" x1="478.748" y1="249.251" x2="474.214" y2="253.785"/>
</svg>
