<?xml version="1.0" encoding="utf-8"?>
<!-- Generator: Adobe Illustrator 16.0.3, SVG Export Plug-In . SVG Version: 6.00 Build 0)  -->
<!DOCTYPE svg PUBLIC "-//W3C//DTD SVG 1.1//EN" "http://www.w3.org/Graphics/SVG/1.1/DTD/svg11.dtd">
<svg version="1.1" id="Layer_1" xmlns="http://www.w3.org/2000/svg" xmlns:xlink="http://www.w3.org/1999/xlink" x="0px" y="0px"
	 width="960px" height="560px" viewBox="0 0 960 560" enable-background="new 0 0 960 560" xml:space="preserve">
<path fill="#3F2424" stroke="#261515" stroke-miterlimit="10" d="M477.393,273.752c0,0,3.357-0.998,6.107,0s5,2.556,5.25,4.152
	s2.75,5.812,2.75,6.329c0,0.518,0.25,0.518-2,2.768s-1.6,1.75-5.05,2.5s-8.7,0-8.7,0l-4-5.268L477.393,273.752z"/>
<path fill="#235623" stroke="#143D14" stroke-width="3" stroke-miterlimit="10" d="M474.757,271.946
	c-1.139-0.854-2.391-0.016-3.77,0.816c-0.688,2.767-1.492,5.567-0.81,7.111c2.086,4.715,4.463,7.639,9.541-2.125
	c0.208-0.401,0.426-0.876,0.646-1.382C475.889,269.984,476.602,273.328,474.757,271.946z"/>
</svg>
