<?xml version="1.0" encoding="utf-8"?>
<!-- Generator: Adobe Illustrator 16.0.3, SVG Export Plug-In . SVG Version: 6.00 Build 0)  -->
<!DOCTYPE svg PUBLIC "-//W3C//DTD SVG 1.1//EN" "http://www.w3.org/Graphics/SVG/1.1/DTD/svg11.dtd">
<svg version="1.1" id="Layer_1" xmlns="http://www.w3.org/2000/svg" xmlns:xlink="http://www.w3.org/1999/xlink" x="0px" y="0px"
	 width="960px" height="560px" viewBox="0 0 960 560" enable-background="new 0 0 960 560" xml:space="preserve">
<path fill="#3F2424" stroke="#261515" stroke-miterlimit="10" d="M380.355,291.45c0,0,9.645,18.3,12.895,20.55s13.25,4.25,16.5,8.75
	s10.5,11,13.75,11s24.5-0.75,26.5,1.5s14.25,6,16.75,6s25.25-9.271,26-9.635c0.75-0.365,9.5-10.365,12.75-10.865s13-19.25,14.25-20
	s14-9.35,17.25-7.3s15.553,4.3,23.151,6.05s15.849,3,17.599,2s5-10.25,5.5-12.25s-3.951-19.026-3.951-19.026
	S384.961,266.4,380.355,291.45z"/>
<path fill="#1B1BC1" stroke="#1C1C7C" stroke-width="3" stroke-miterlimit="10" d="M501.729,237.169
	c-2.849,2.267-11.896,3.176-25.848,12.666c-9.085,5.573-12.941,6.43-14.065,5.118c-3.852-1.542,5.655-13.99,5.655-13.99
	c0.14-3.169,4.752-8.85,10.361-14.475c-4.717-0.032-9.367-0.132-13.941-0.292c-0.648,2.834-1.985,5.359-3.862,6.957
	c-6.35,5.406-16.46,8.538-20.612,6.813c-4.154-1.726-15.641,7.715-15.797,9.675c-0.151,1.879-34.12,21.824-46.12,25.879
	c0,0.002,0,0.004,0,0.007c-2,7.603,3.877,17.944,3.877,17.944s8.491,0.927,8.928,0.316c0.436-0.61,4.447-6.305,4.447-6.305
	l5.882-4.688c0,0,8.751,3.498,9.507,3.73c0.756,0.233,3.852,8.289,3.852,8.289l6.514,11.109l6.503-0.575
	c0,0,4.876-0.815,5.894-0.089c1.017,0.727,5.461,0.523,6.377,0.102s8.441-3.646,8.441-3.646l9.052,0.016l11.03-7.48l8.253,2.21
	l8.458-1.945c0,0,1.023-6.95,4.104-5.671c3.081,1.279,17.77-1.146,17.77-1.146l9.44-13.209l14.25,1.272c0,0,7.487,4.428,8.271,5.911
	c0.784,1.481,7.687,5.083,7.687,5.083l13.07-2.848c0,0,8.402-0.449,8.368-2.624c-0.034-2.176,2.554-6.165,3.832-7.095
	c1.279-0.93,6.104-3.319,6.104-3.319l1.889-2.645l-1.747-6.638l-0.069-0.05c-8.837-14.416-19.93-27.721-33.157-39.344
	c-10.457,1.543-21.86,2.714-33.935,3.443C508.689,230.237,503.36,235.871,501.729,237.169z"/>
<path fill="#235623" stroke="#143D14" stroke-width="3" stroke-miterlimit="10" d="M475.337,249.451
	c13.952-9.49,22.999-10.399,25.848-12.666c1.581-1.258,6.636-6.588,8.496-11.106c-9.138,0.537-18.654,0.821-28.431,0.821
	c-0.834,0-1.664-0.004-2.494-0.008c-5.78,5.748-10.596,11.614-10.739,14.854c0,0-8.414,11.021-6.2,13.606
	C463.428,255.598,467.375,254.335,475.337,249.451z"/>
</svg>
