<?xml version="1.0" encoding="utf-8"?>
<!-- Generator: Adobe Illustrator 16.0.3, SVG Export Plug-In . SVG Version: 6.00 Build 0)  -->
<!DOCTYPE svg PUBLIC "-//W3C//DTD SVG 1.1//EN" "http://www.w3.org/Graphics/SVG/1.1/DTD/svg11.dtd">
<svg version="1.1" id="Layer_1" xmlns="http://www.w3.org/2000/svg" xmlns:xlink="http://www.w3.org/1999/xlink" x="0px" y="0px"
	 width="960px" height="560px" viewBox="0 0 960 560" enable-background="new 0 0 960 560" xml:space="preserve">
<g id="time_traveler">
	
		<rect x="-5.292" y="-12.352" transform="matrix(-1 0.002 -0.002 -1 -0.0681 -12.4477)" fill="#E2C38D" width="10.527" height="12.257"/>
	<path fill="#EDD091" d="M9.867-28.422c-1.998-6.92-9.978-6.2-9.978-6.2v0.042c-0.475-0.033-8.023-0.469-9.935,6.239
		C-12.018-21.413-8.639-7.837,0.006-7.853l-0.001-0.05C8.565-8.036,11.855-21.533,9.867-28.422z"/>
	<g>
		<path fill="#F7CC8F" d="M-10.288-21.935c0,0-1.112-1.187-1.737-0.408c-0.626,0.779-0.092,2.608,0.729,3.567
			c0.822,0.958,0.919,1.552,1.644,0.958L-10.288-21.935z"/>
		<path fill="#F7CC8F" d="M10.233-21.972c0,0,1.107-1.19,1.735-0.415c0.629,0.776,0.104,2.607-0.718,3.569
			c-0.817,0.962-0.914,1.555-1.638,0.964L10.233-21.972z"/>
	</g>
	
		<rect x="-8.102" y="-2.6" transform="matrix(-1 0.0016 -0.0016 -1 -0.0544 22.2242)" fill="#9B3A1C" width="16.132" height="27.425"/>
	
		<rect x="-8.043" y="24.248" transform="matrix(-1 0.0019 -0.0019 -1 -8.7582 70.1332)" fill="#102251" width="7.262" height="21.629"/>
	<rect x="0.82" y="24.25" transform="matrix(-1 0.0016 -0.0016 -1 8.957 70.1187)" fill="#102251" width="7.261" height="21.626"/>
	<g>
		<polygon fill="#9B3A1C" points="16.134,12.647 1.275,-2.154 5.267,-6.154 20.12,8.647 		"/>
		<circle fill="#9B3A1C" cx="19.781" cy="12.293" r="2.823"/>
	</g>
	<g>
		
			<rect x="-21.253" y="0.473" transform="matrix(0.7058 -0.7085 0.7085 0.7058 -5.5029 -6.6575)" fill="#9B3A1C" width="20.973" height="5.645"/>
		<path fill="#9B3A1C" d="M-21.781,10.374c-1.102,1.107-1.098,2.893,0.008,3.992c1.104,1.104,2.893,1.1,3.992-0.006
			c1.102-1.104,1.098-2.894-0.007-3.994C-18.893,9.269-20.681,9.271-21.781,10.374z"/>
	</g>
	<g>
		<line fill="none" stroke="#000000" stroke-miterlimit="10" x1="3.249" y1="-25.744" x2="7.503" y2="-21.49"/>
		<line fill="none" stroke="#000000" stroke-miterlimit="10" x1="8.063" y1="-25.744" x2="3.529" y2="-21.21"/>
		<line fill="none" stroke="#000000" stroke-miterlimit="10" x1="-6.751" y1="-25.744" x2="-2.497" y2="-21.49"/>
		<line fill="none" stroke="#000000" stroke-miterlimit="10" x1="-1.937" y1="-25.744" x2="-6.471" y2="-21.21"/>
	</g>
</g>
</svg>
