<?xml version="1.0" encoding="utf-8"?>
<!-- Generator: Adobe Illustrator 16.0.0, SVG Export Plug-In . SVG Version: 6.00 Build 0)  -->
<!DOCTYPE svg PUBLIC "-//W3C//DTD SVG 1.1//EN" "http://www.w3.org/Graphics/SVG/1.1/DTD/svg11.dtd">
<svg version="1.1" id="group" xmlns="http://www.w3.org/2000/svg" xmlns:xlink="http://www.w3.org/1999/xlink" x="0px" y="0px"
	 width="56.186px" height="100px" viewBox="0 0 56.186 100" enable-background="new 0 0 56.186 100" xml:space="preserve">
<g id="person">
	<rect x="-4.695" y="-5.006" fill="#FFFF00" width="9.391" height="14.838"/>
	<path fill="#FFFF00" d="M10.196-22.134c-2.033-7.09-10.207-6.368-10.207-6.368v0.043c-0.485-0.036-8.214-0.498-10.184,6.37
		c-2.033,7.091,1.4,21.002,10.253,21.002v-0.051C8.824-1.258,12.221-15.074,10.196-22.134z"/>
	<g>
		<path fill="#FFFF00" d="M-10.508-15.528c0,0-1.138-1.217-1.779-0.421c-0.643,0.797-0.1,2.67,0.742,3.654
			c0.839,0.983,0.938,1.591,1.679,0.983L-10.508-15.528z"/>
		<path fill="#FFFF00" d="M10.509-15.528c0,0,1.136-1.217,1.779-0.421c0.643,0.797,0.1,2.67-0.742,3.654
			c-0.841,0.983-0.939,1.591-1.679,0.983L10.509-15.528z"/>
	</g>
	<rect x="0.943" y="36.982" fill="#FFFF00" width="8.789" height="41.881"/>
	<rect x="-9.764" y="36.982" fill="#FFFF00" width="8.787" height="41.881"/>
	<rect x="0.943" y="36.982" fill="#FFFF00" width="8.789" height="16.12"/>
	<rect x="-9.764" y="36.982" fill="#FFFF00" width="8.787" height="16.12"/>
	<rect x="0.943" y="78.795" fill="#FFFF00" width="11.906" height="1.731"/>
	<rect x="-12.883" y="78.856" fill="#FFFF00" width="11.906" height="1.608"/>
	<g>
		<circle fill="#FFFF00" cx="23.947" cy="24.871" r="3.417"/>
		<circle fill="#FFFF00" cx="-23.947" cy="24.871" r="3.417"/>
	</g>
	<rect x="-9.764" y="6.773" fill="#FFFF00" width="19.528" height="31.915"/>
	
		<rect x="0.28" y="10.481" transform="matrix(0.7071 0.7071 -0.7071 0.7071 13.6282 -5.1033)" fill="#FFFF00" width="25.388" height="6.836"/>
	
		<rect x="-25.666" y="10.482" transform="matrix(-0.7071 0.7071 -0.7071 -0.7071 -12.3168 32.8987)" fill="#FFFF00" width="25.389" height="6.834"/>
	<polygon fill="#FFFF00" points="-6.377,2 -9.783,15.352 9.869,15.437 6.416,2 	"/>
</g>
</svg>
