<?xml version="1.0" encoding="utf-8"?>
<!-- Generator: Adobe Illustrator 16.0.0, SVG Export Plug-In . SVG Version: 6.00 Build 0)  -->
<!DOCTYPE svg PUBLIC "-//W3C//DTD SVG 1.1//EN" "http://www.w3.org/Graphics/SVG/1.1/DTD/svg11.dtd">
<svg version="1.1" id="Layer_2" xmlns="http://www.w3.org/2000/svg" xmlns:xlink="http://www.w3.org/1999/xlink" x="0px" y="0px"
	 width="300px" height="300px" viewBox="0 0 300 300" enable-background="new 0 0 300 300" xml:space="preserve">
<g id="smoke">
	<path fill="#FFFFFF" d="M53.142-101.26c-14.427-18.095-41.002-21.017-59.357-6.531c-11.729,9.259-17.251,23.383-15.953,37.096
		c-11.806-6.604-25.989-6.462-36.175,1.577c-13.977,11.033-15.126,32.742-2.57,48.49c1.951,2.447,4.12,4.605,6.442,6.467
		c-1.02,0.693-2.028,1.417-3.013,2.194C-78.7,4.78-83.337,34.11-67.842,53.543c9.264,11.62,23.628,17.066,38.215,15.991
		c-6.781,11.796-6.695,26.033,1.442,36.238c11.089,13.906,32.909,15.051,48.737,2.558c12.816-10.117,17.772-26.074,13.309-39.162
		c9.401,1.059,19.682-1.703,28.221-8.443c15.828-12.493,19.672-33.895,8.583-47.8C65.049,5.881,56.679,2.118,47.727,1.737
		C58.25-10.86,59.701-28.235,50.216-40.132c-0.911-1.143-1.9-2.191-2.949-3.161C64.513-57.972,67.236-83.582,53.142-101.26z
		 M7.574,49.43c0.242-0.313,0.479-0.631,0.715-0.947c0.104,0.352,0.213,0.702,0.332,1.049C8.272,49.491,7.923,49.459,7.574,49.43z"
		/>
</g>
</svg>
