<?xml version="1.0" encoding="utf-8"?>
<!-- Generator: Adobe Illustrator 16.0.0, SVG Export Plug-In . SVG Version: 6.00 Build 0)  -->
<!DOCTYPE svg PUBLIC "-//W3C//DTD SVG 1.1//EN" "http://www.w3.org/Graphics/SVG/1.1/DTD/svg11.dtd">
<svg version="1.1" id="Layer_1" xmlns="http://www.w3.org/2000/svg" xmlns:xlink="http://www.w3.org/1999/xlink" x="0px" y="0px"
	 width="56.186px" height="100px" viewBox="0 0 56.186 100" enable-background="new 0 0 56.186 100" xml:space="preserve">
<g id="person">
	<ellipse fill="#FFFFFF" cx="-0.145" cy="-86.833" rx="10.701" ry="11.489"/>
	<rect x="-3.759" y="-76.479" fill="#FFFFFF" width="7.758" height="15.227"/>
	<rect x="-9.938" y="-7.583" fill="#FFFFFF" width="9.019" height="3.503"/>
	<rect x="1.085" y="-7.583" fill="#FFFFFF" width="9.018" height="3.503"/>
	<rect x="-9.938" y="-40.563" fill="#0000FF" width="9.019" height="32.958"/>
	<rect x="1.085" y="-40.563" fill="#0000FF" width="9.018" height="32.958"/>
	<rect x="-12.27" y="-1.53" fill="#FF0000" width="11.341" height="4.53"/>
	<rect x="1.085" y="-1.53" fill="#FF0000" width="11.341" height="4.53"/>
	<g>
		<rect x="1.085" y="-4.06" fill="#FF4000" width="9.018" height="2.51"/>
		<rect x="-9.947" y="-4.06" fill="#FF4000" width="9.018" height="2.51"/>
	</g>
	<circle fill="#FFFFFF" cx="24.688" cy="-45.819" r="3.507"/>
	<g>
		<rect x="-3.759" y="-71.468" fill="#FFBF00" width="7.758" height="10.216"/>
		<rect x="-9.938" y="-62.01" fill="#FFBF00" width="20.041" height="24.645"/>
		
			<rect x="-3.191" y="-62.074" transform="matrix(0.7071 0.7071 -0.7071 0.7071 -37.9159 -25.5957)" fill="#FFBF00" width="30.259" height="7.015"/>
		
			<rect x="-26.825" y="-62.034" transform="matrix(-0.7071 0.7071 -0.7071 -0.7071 -61.4442 -91.6046)" fill="#FFBF00" width="30.15" height="7.013"/>
	</g>
	<circle fill="#FFFFFF" cx="-24.46" cy="-45.819" r="3.507"/>
</g>
</svg>
