<?xml version="1.0" encoding="utf-8"?>
<!-- Generator: Adobe Illustrator 16.0.0, SVG Export Plug-In . SVG Version: 6.00 Build 0)  -->
<!DOCTYPE svg PUBLIC "-//W3C//DTD SVG 1.1//EN" "http://www.w3.org/Graphics/SVG/1.1/DTD/svg11.dtd">
<svg version="1.1" id="Layer_1" xmlns="http://www.w3.org/2000/svg" xmlns:xlink="http://www.w3.org/1999/xlink" x="0px" y="0px"
	 width="300px" height="300px" viewBox="0 0 300 300" enable-background="new 0 0 300 300" xml:space="preserve">
<g id="missile01">
	<g>
		<rect x="35" y="-15" fill="#FFFFFF" width="20" height="30"/>
		<path fill="#FFFFFF" d="M-39.759,15c-8.285,0-15.001-6.716-15-15l0,0c0-8.283,6.716-15,15-15h50c8.284,0,34.774,6.718,34.774,15
			l0,0c-0.001,8.284-26.49,15-34.773,15H-39.759z"/>
	</g>
	<g>
		<rect x="-35" y="-8" fill="#FFA30D" width="12" height="16"/>
		<circle fill="#660B55" cx="-30.209" cy="4.017" r="3.5"/>
		<path fill="#F25516" d="M-28.709-6.484c0.553,0,1,0.448,0.999,1.001l0,0c0,0.552-0.447,1-0.999,0.999l0,0
			c-0.552,0-0.999-0.448-0.999-1l0,0C-29.71-6.036-29.262-6.483-28.709-6.484L-28.709-6.484z"/>
		<path fill="#F25516" d="M-32.71-6.483c0.552,0,1,0.448,1,1.001l0,0c0,0.551-0.448,1-0.999,0.999l0,0c-0.553,0-1-0.449-1-1l0,0
			C-33.709-6.036-33.261-6.484-32.71-6.483L-32.71-6.483z"/>
		<path fill="#F25516" d="M-24.709-6.484c0.552,0,1.001,0.447,1,1.001l0,0c0,0.552-0.447,1-1,0.999l0,0c-0.552,0-1-0.448-1-1l0,0
			C-25.709-6.036-25.261-6.483-24.709-6.484L-24.709-6.484z"/>
		<path fill="#F25516" d="M-28.709-2.483c0.551,0,0.998,0.448,1,1l0,0c0.001,0.551-0.448,1-0.999,1l0,0
			c-0.554-0.001-1.002-0.448-1.001-1l0,0C-29.709-2.035-29.26-2.484-28.709-2.483L-28.709-2.483z"/>
		<path fill="#F25516" d="M-32.709-2.483c0.552,0,1.001,0.447,0.999,1l0,0c0,0.553-0.448,1-1,1l0,0c-0.552,0-0.999-0.448-0.999-1
			l0,0C-33.71-2.035-33.263-2.483-32.709-2.483L-32.709-2.483z"/>
		<path fill="#F25516" d="M-24.71-2.483c0.555,0,1.002,0.447,1,1l0,0c0,0.553-0.447,1-0.999,1l0,0c-0.552-0.001-1-0.449-1-1.001l0,0
			C-25.709-2.036-25.262-2.483-24.71-2.483L-24.71-2.483z"/>
		<path fill="#F25516" d="M-24.71,3.517c0.554,0,1.002-0.449,1-1l0,0c0-0.553-0.447-0.999-1-0.999l0,0
			c-0.55-0.002-0.999,0.447-0.999,0.999l0,0C-25.709,3.069-25.262,3.517-24.71,3.517L-24.71,3.517z"/>
		<path fill="#F25516" d="M-24.709,7.517c0.552,0,0.999-0.447,1-1l0,0c0-0.553-0.447-1-1.001-1l0,0
			c-0.551,0-0.999,0.448-0.999,0.999l0,0C-25.709,7.069-25.261,7.517-24.709,7.517L-24.709,7.517z"/>
		<circle fill="#C90502" cx="-30.209" cy="4.016" r="1.687"/>
	</g>
</g>
</svg>
