<?xml version="1.0" encoding="utf-8"?>
<!-- Generator: Adobe Illustrator 16.0.0, SVG Export Plug-In . SVG Version: 6.00 Build 0)  -->
<!DOCTYPE svg PUBLIC "-//W3C//DTD SVG 1.1//EN" "http://www.w3.org/Graphics/SVG/1.1/DTD/svg11.dtd">
<svg version="1.1" xmlns="http://www.w3.org/2000/svg" xmlns:xlink="http://www.w3.org/1999/xlink" x="0px" y="0px" width="620px"
	 height="460px" viewBox="0 0 620 460" enable-background="new 0 0 620 460" xml:space="preserve">
<g id="door">
	<rect x="20" fill="#808080" width="89" height="121"/>
</g>
<g id="Layer_8">
	<g id="secretary02">
		<rect x="114.477" y="177.533" fill="#333333" width="13.082" height="15.227"/>
		<path fill="#333333" d="M133.361,157.588c-2.467-8.602-12.381-7.725-12.381-7.725v0.053c-0.589-0.044-9.964-0.604-12.354,7.727
			c-2.466,8.602,1.699,25.477,12.438,25.477v-0.063C131.697,182.91,135.818,166.152,133.361,157.588z"/>
		<g>
			<path fill="#333333" d="M108.309,165.602c0,0-1.381-1.478-2.159-0.512c-0.778,0.967-0.12,3.239,0.9,4.432
				c1.018,1.193,1.138,1.932,2.037,1.193L108.309,165.602z"/>
			<path fill="#333333" d="M133.803,165.602c0,0,1.377-1.478,2.158-0.512c0.777,0.967,0.119,3.239-0.9,4.432
				c-1.02,1.193-1.141,1.932-2.037,1.193L133.803,165.602z"/>
		</g>
		<rect x="110.96" y="189.621" fill="#333333" width="20.04" height="34.07"/>
		<rect x="110.96" y="223" fill="#333333" width="9.019" height="26.867"/>
		<rect x="121.982" y="223" fill="#333333" width="9.018" height="26.867"/>
		<g>
			
				<rect x="121.298" y="193.425" transform="matrix(0.7071 0.7071 -0.7071 0.7071 178.595 -37.3013)" fill="#333333" width="26.052" height="7.014"/>
			<circle fill="#333333" cx="145.585" cy="208.192" r="3.507"/>
		</g>
		<g>
			
				<rect x="94.672" y="193.426" transform="matrix(-0.7071 0.7071 -0.7071 -0.7071 323.1048 260.0308)" fill="#333333" width="26.052" height="7.013"/>
			<circle fill="#333333" cx="96.437" cy="208.192" r="3.507"/>
		</g>
	</g>
	<g id="secretary01">
		<rect x="32.494" y="161.533" fill="#333333" width="13.082" height="15.227"/>
		<path fill="#333333" d="M51.379,141.588c-2.467-8.602-12.381-7.725-12.381-7.725v0.053c-0.589-0.043-9.964-0.603-12.354,7.727
			c-2.466,8.602,1.699,25.477,12.438,25.477v-0.063C49.715,166.91,53.836,150.152,51.379,141.588z"/>
		<g>
			<path fill="#333333" d="M26.326,149.602c0,0-1.381-1.478-2.159-0.512c-0.778,0.967-0.12,3.239,0.9,4.432
				c1.018,1.193,1.138,1.932,2.037,1.193L26.326,149.602z"/>
			<path fill="#333333" d="M51.82,149.602c0,0,1.377-1.478,2.158-0.512c0.777,0.967,0.119,3.239-0.9,4.432
				c-1.02,1.193-1.141,1.932-2.037,1.193L51.82,149.602z"/>
		</g>
		<rect x="28.978" y="173.621" fill="#333333" width="20.04" height="34.07"/>
		<rect x="28.978" y="207" fill="#333333" width="9.019" height="26.867"/>
		<rect x="40" y="207" fill="#333333" width="9.018" height="26.867"/>
		<g>
			
				<rect x="39.316" y="177.425" transform="matrix(0.7071 0.7071 -0.7071 0.7071 143.2692 15.9827)" fill="#333333" width="26.052" height="7.014"/>
			<circle fill="#333333" cx="63.603" cy="192.192" r="3.507"/>
		</g>
		<g>
			
				<rect x="12.69" y="177.426" transform="matrix(-0.7071 0.7071 -0.7071 -0.7071 171.8383 290.6875)" fill="#333333" width="26.052" height="7.013"/>
			<circle fill="#333333" cx="14.455" cy="192.192" r="3.507"/>
		</g>
	</g>
</g>
<g id="meeting_x5F_room">
	<g>
		<rect x="220" y="80" fill="#666666" width="400" height="240"/>
		<polygon fill="#808080" points="620,80 220,80 311.707,0.655 620,0 		"/>
	</g>
	<text id="room_x5F_name" transform="matrix(1 0 0 1 328.1807 131.6372)"><tspan x="0" y="0" fill="#1A1A1A" font-family="'SourceSansPro-Black'" font-size="14" letter-spacing="1">NASA’s MOST IMPORTANT</tspan><tspan x="37.954" y="21" fill="#1A1A1A" font-family="'SourceSansPro-Black'" font-size="14" letter-spacing="1">MEETING ROOM</tspan></text>
</g>
<g id="entrance">
	<rect x="350" y="180" fill="#B3B3B3" width="140" height="140"/>
</g>
<g id="director">
	<g id="person">
		<rect x="412.844" y="247.866" fill="#FFFFFF" width="13.082" height="15.227"/>
		<path fill="#FFFFFF" d="M431.729,227.921c-2.467-8.602-12.381-7.725-12.381-7.725v0.053c-0.589-0.043-9.964-0.604-12.354,7.728
			c-2.466,8.601,1.699,25.476,12.438,25.476v-0.063C430.064,253.244,434.186,236.485,431.729,227.921z"/>
		<g>
			<path fill="#FFFFFF" d="M406.676,235.935c0,0-1.381-1.477-2.159-0.512c-0.778,0.967-0.12,3.24,0.9,4.433
				c1.018,1.192,1.138,1.931,2.037,1.192L406.676,235.935z"/>
			<path fill="#FFFFFF" d="M432.17,235.935c0,0,1.377-1.477,2.158-0.512c0.777,0.967,0.119,3.24-0.9,4.433s-1.141,1.931-2.037,1.192
				L432.17,235.935z"/>
		</g>
		<rect x="409.327" y="259.955" fill="#FFFFFF" width="20.04" height="34.069"/>
		<rect x="409.327" y="293.333" fill="#FFFFFF" width="9.019" height="26.867"/>
		<rect x="420.35" y="293.333" fill="#FFFFFF" width="9.018" height="26.867"/>
		<g>
			
				<rect x="419.665" y="263.758" transform="matrix(0.7071 0.7071 -0.7071 0.7071 315.7177 -227.6787)" fill="#FFFFFF" width="26.052" height="7.014"/>
			<circle fill="#FFFFFF" cx="443.952" cy="278.526" r="3.507"/>
		</g>
		<g>
			
				<rect x="393.039" y="263.759" transform="matrix(-0.7071 0.7071 -0.7071 -0.7071 882.1824 169.1193)" fill="#FFFFFF" width="26.052" height="7.013"/>
			<circle fill="#FFFFFF" cx="394.804" cy="278.526" r="3.507"/>
		</g>
	</g>
</g>
<g id="door_x5F_right">
	<rect x="443" y="180" opacity="0.5" fill="#808080" width="47" height="140"/>
</g>
<g id="door_x5F_left">
	<rect x="350" y="180" opacity="0.5" fill="#808080" width="47" height="140"/>
</g>
<g id="Layer_2">
	<rect x="502" y="242" fill="#B3B3B3" width="18" height="18"/>
	<g id="keys">
		<rect x="514.5" y="244.5" fill="#E6E6E6" stroke="#CCCCCC" stroke-miterlimit="10" width="3" height="3"/>
		<rect x="509.5" y="244.5" fill="#E6E6E6" stroke="#CCCCCC" stroke-miterlimit="10" width="3" height="3"/>
		<rect x="504.5" y="244.5" fill="#E6E6E6" stroke="#CCCCCC" stroke-miterlimit="10" width="3" height="3"/>
		<rect x="514.5" y="249.5" fill="#E6E6E6" stroke="#CCCCCC" stroke-miterlimit="10" width="3" height="3"/>
		<rect x="509.5" y="249.5" fill="#E6E6E6" stroke="#CCCCCC" stroke-miterlimit="10" width="3" height="3"/>
		<rect x="504.5" y="249.5" fill="#E6E6E6" stroke="#CCCCCC" stroke-miterlimit="10" width="3" height="3"/>
		<rect x="514.5" y="254.5" fill="#E6E6E6" stroke="#CCCCCC" stroke-miterlimit="10" width="3" height="3"/>
		<rect x="509.5" y="254.5" fill="#E6E6E6" stroke="#CCCCCC" stroke-miterlimit="10" width="3" height="3"/>
		<rect x="504.5" y="254.5" fill="#E6E6E6" stroke="#CCCCCC" stroke-miterlimit="10" width="3" height="3"/>
	</g>
</g>
</svg>
