<?xml version="1.0" encoding="utf-8"?>
<!-- Generator: Adobe Illustrator 16.0.0, SVG Export Plug-In . SVG Version: 6.00 Build 0)  -->
<!DOCTYPE svg PUBLIC "-//W3C//DTD SVG 1.1//EN" "http://www.w3.org/Graphics/SVG/1.1/DTD/svg11.dtd">
<svg version="1.1" xmlns="http://www.w3.org/2000/svg" xmlns:xlink="http://www.w3.org/1999/xlink" x="0px" y="0px" width="620px"
	 height="460px" viewBox="0 0 620 460" enable-background="new 0 0 620 460" xml:space="preserve">
<g id="bg">
	<rect fill="#1A1A1A" width="620" height="460"/>
</g>
<g id="door">
	<rect x="40" fill="#808080" width="89" height="121"/>
</g>
<g id="meetingroom">
	<g>
		<rect x="220" y="80" fill="#666666" width="400" height="240"/>
		<polygon fill="#808080" points="620,80 220,80 311.707,0.655 620,0 		"/>
	</g>
	<text id="room_x5F_name" transform="matrix(1 0 0 1 327.1807 134.6372)"><tspan x="0" y="0" fill="#333333" font-family="'SourceSansPro-Black'" font-size="14" letter-spacing="1">NASA’s MOST IMPORTANT</tspan><tspan x="37.954" y="21" fill="#333333" font-family="'SourceSansPro-Black'" font-size="14" letter-spacing="1">MEETING ROOM</tspan></text>
</g>
<g id="entrance">
	<rect x="350" y="180" fill="#B3B3B3" width="140" height="140"/>
</g>
<g id="worker_1_">
	<g id="doorright">
		<rect x="420" y="180" fill="#808080" width="70" height="140"/>
	</g>
	<g id="doorleft">
		<rect x="350" y="180" fill="#808080" width="70" height="140"/>
	</g>
</g>
<g id="director">
	<g id="director_1_">
		<rect x="78.546" y="48.601" fill="#808080" width="13.082" height="15.227"/>
		<path fill="#808080" d="M97.431,28.655c-2.467-8.602-12.381-7.725-12.381-7.725v0.053c-0.589-0.043-9.964-0.604-12.354,7.728
			c-2.466,8.601,1.699,25.476,12.438,25.476v-0.063C95.767,53.979,99.888,37.22,97.431,28.655z"/>
		<g>
			<path fill="#808080" d="M72.378,36.669c0,0-1.381-1.477-2.159-0.512c-0.778,0.967-0.12,3.24,0.9,4.433
				c1.018,1.192,1.138,1.931,2.037,1.192L72.378,36.669z"/>
			<path fill="#808080" d="M97.873,36.669c0,0,1.377-1.477,2.158-0.512c0.777,0.967,0.119,3.24-0.9,4.433s-1.141,1.931-2.037,1.192
				L97.873,36.669z"/>
		</g>
		<rect x="75.03" y="60.689" fill="#808080" width="20.04" height="34.069"/>
		<rect x="75.03" y="94.067" fill="#808080" width="9.019" height="26.867"/>
		<rect x="86.052" y="94.067" fill="#808080" width="9.018" height="26.867"/>
		<g>
			
				<rect x="85.368" y="64.493" transform="matrix(0.7071 0.7071 -0.7071 0.7071 76.9022 -49.6584)" fill="#808080" width="26.052" height="7.014"/>
			<circle fill="#808080" cx="109.655" cy="79.26" r="3.507"/>
		</g>
		<g>
			
				<rect x="58.742" y="64.493" transform="matrix(-0.7071 0.7071 -0.7071 -0.7071 170.599 65.3356)" fill="#808080" width="26.052" height="7.013"/>
			<circle fill="#808080" cx="60.507" cy="79.26" r="3.507"/>
		</g>
	</g>
</g>
<g id="worker">
	<g id="secretary02">
		<rect x="42.047" y="164.387" fill="#1A1A1A" width="13.082" height="15.227"/>
		<path fill="#1A1A1A" d="M60.932,144.441c-2.467-8.602-12.381-7.725-12.381-7.725v0.053c-0.589-0.045-9.964-0.604-12.354,7.727
			c-2.466,8.602,1.699,25.477,12.438,25.477v-0.063C59.268,169.764,63.389,153.006,60.932,144.441z"/>
		<g>
			<path fill="#1A1A1A" d="M35.879,152.455c0,0-1.381-1.479-2.159-0.512s-0.12,3.238,0.9,4.432c1.018,1.193,1.138,1.932,2.037,1.193
				L35.879,152.455z"/>
			<path fill="#1A1A1A" d="M61.373,152.455c0,0,1.377-1.479,2.158-0.512c0.777,0.967,0.119,3.238-0.9,4.432
				s-1.141,1.932-2.037,1.193L61.373,152.455z"/>
		</g>
		<rect x="38.53" y="176.475" fill="#1A1A1A" width="20.04" height="34.07"/>
		<rect x="38.53" y="209.854" fill="#1A1A1A" width="9.019" height="26.867"/>
		<rect x="49.553" y="209.854" fill="#1A1A1A" width="9.018" height="26.867"/>
		<g>
			
				<rect x="48.868" y="180.279" transform="matrix(0.7071 0.7071 -0.7071 0.7071 148.0849 10.0637)" fill="#1A1A1A" width="26.052" height="7.014"/>
			<circle fill="#1A1A1A" cx="73.155" cy="195.046" r="3.507"/>
		</g>
		<g>
			
				<rect x="22.242" y="180.28" transform="matrix(-0.7071 0.7071 -0.7071 -0.7071 190.1636 288.8039)" fill="#1A1A1A" width="26.052" height="7.013"/>
			<circle fill="#1A1A1A" cx="24.007" cy="195.046" r="3.507"/>
		</g>
	</g>
	<g id="secretary01">
		<rect x="109.659" y="164.387" fill="#1A1A1A" width="13.082" height="15.227"/>
		<path fill="#1A1A1A" d="M128.543,144.441c-2.467-8.602-12.381-7.725-12.381-7.725v0.053c-0.589-0.044-9.964-0.604-12.354,7.727
			c-2.466,8.602,1.699,25.477,12.438,25.477v-0.063C126.879,169.764,131,153.006,128.543,144.441z"/>
		<g>
			<path fill="#1A1A1A" d="M103.491,152.455c0,0-1.381-1.478-2.159-0.512c-0.778,0.967-0.12,3.239,0.9,4.432
				c1.018,1.193,1.138,1.932,2.037,1.193L103.491,152.455z"/>
			<path fill="#1A1A1A" d="M128.985,152.455c0,0,1.377-1.478,2.158-0.512c0.777,0.967,0.119,3.239-0.9,4.432
				c-1.02,1.193-1.141,1.932-2.037,1.193L128.985,152.455z"/>
		</g>
		<rect x="106.142" y="176.475" fill="#1A1A1A" width="20.04" height="34.07"/>
		<rect x="106.142" y="209.854" fill="#1A1A1A" width="9.019" height="26.867"/>
		<rect x="117.165" y="209.854" fill="#1A1A1A" width="9.018" height="26.867"/>
		<g>
			
				<rect x="116.48" y="180.279" transform="matrix(0.7071 0.7071 -0.7071 0.7071 167.888 -37.7451)" fill="#1A1A1A" width="26.052" height="7.014"/>
			<circle fill="#1A1A1A" cx="140.767" cy="195.046" r="3.507"/>
		</g>
		<g>
			
				<rect x="89.854" y="180.28" transform="matrix(-0.7071 0.7071 -0.7071 -0.7071 305.5842 240.9951)" fill="#1A1A1A" width="26.052" height="7.013"/>
			<circle fill="#1A1A1A" cx="91.619" cy="195.046" r="3.507"/>
		</g>
	</g>
</g>
<g id="key">
	<rect id="keypad" x="502" y="242" fill="#B3B3B3" width="18" height="18"/>
	<g id="keys">
		<rect id="key9" x="514.5" y="244.5" fill="#E6E6E6" stroke="#CCCCCC" stroke-miterlimit="10" width="3" height="3"/>
		<rect id="key8" x="509.5" y="244.5" fill="#E6E6E6" stroke="#CCCCCC" stroke-miterlimit="10" width="3" height="3"/>
		<rect id="key7" x="504.5" y="244.5" fill="#E6E6E6" stroke="#CCCCCC" stroke-miterlimit="10" width="3" height="3"/>
		<rect id="key6" x="514.5" y="249.5" fill="#E6E6E6" stroke="#CCCCCC" stroke-miterlimit="10" width="3" height="3"/>
		<rect id="key5" x="509.5" y="249.5" fill="#E6E6E6" stroke="#CCCCCC" stroke-miterlimit="10" width="3" height="3"/>
		<rect id="key4" x="504.5" y="249.5" fill="#E6E6E6" stroke="#CCCCCC" stroke-miterlimit="10" width="3" height="3"/>
		<rect id="key3" x="514.5" y="254.5" fill="#E6E6E6" stroke="#CCCCCC" stroke-miterlimit="10" width="3" height="3"/>
		<rect id="key2" x="509.5" y="254.5" fill="#E6E6E6" stroke="#CCCCCC" stroke-miterlimit="10" width="3" height="3"/>
		<rect id="key1" x="504.5" y="254.5" fill="#E6E6E6" stroke="#CCCCCC" stroke-miterlimit="10" width="3" height="3"/>
	</g>
</g>
</svg>
